<svg width="500" height="520" viewBox="0 0 500 520" fill="none" xmlns="http://www.w3.org/2000/svg">
<rect x="0.5" y="0.5" width="499" height="519" rx="15.5" fill="#0D1524"/>
<rect x="0.5" y="0.5" width="499" height="519" rx="15.5" stroke="url(#paint0_linear_230_779)"/>
<rect x="0.5" y="0.5" width="499" height="399" rx="15.5" fill="#0D1524"/>
<rect x="0.5" y="0.5" width="499" height="399" rx="15.5" stroke="url(#paint1_linear_230_779)"/>
<rect opacity="0.5" x="249" y="31" width="1" height="150" fill="url(#paint2_linear_230_779)"/>
<rect opacity="0.5" x="385" y="199" width="2" height="270" transform="rotate(90 385 199)" fill="url(#paint3_linear_230_779)"/>
<rect x="0.5" y="-0.5" width="459" height="89" rx="15.5" transform="matrix(1 0 0 -1 20 504)" fill="#0D1524"/>
<rect x="0.5" y="-0.5" width="459" height="89" rx="15.5" transform="matrix(1 0 0 -1 20 504)" stroke="url(#paint4_linear_230_779)"/>
<path d="M183.657 466L190.377 449.056H193.785L200.433 466H196.449L191.361 451.936H192.729L187.569 466H183.657ZM187.473 462.928V459.856H196.713V462.928H187.473ZM202.226 466V449.056H205.994V466H202.226ZM213.491 466V454.336H217.163V466H213.491ZM215.339 452.728C214.763 452.728 214.283 452.536 213.899 452.152C213.531 451.752 213.347 451.272 213.347 450.712C213.347 450.136 213.531 449.656 213.899 449.272C214.283 448.888 214.763 448.696 215.339 448.696C215.915 448.696 216.387 448.888 216.755 449.272C217.123 449.656 217.307 450.136 217.307 450.712C217.307 451.272 217.123 451.752 216.755 452.152C216.387 452.536 215.915 452.728 215.339 452.728ZM227.453 466V459.352C227.453 458.744 227.261 458.256 226.877 457.888C226.509 457.504 226.037 457.312 225.461 457.312C225.061 457.312 224.709 457.4 224.405 457.576C224.101 457.736 223.861 457.976 223.685 458.296C223.509 458.6 223.421 458.952 223.421 459.352L222.005 458.656C222.005 457.744 222.205 456.944 222.605 456.256C223.005 455.568 223.557 455.04 224.261 454.672C224.981 454.288 225.789 454.096 226.685 454.096C227.549 454.096 228.309 454.304 228.965 454.72C229.637 455.12 230.165 455.656 230.549 456.328C230.933 457 231.125 457.736 231.125 458.536V466H227.453ZM219.749 466V454.336H223.421V466H219.749ZM234.831 466V453.328C234.831 452.384 235.039 451.536 235.455 450.784C235.887 450.016 236.487 449.416 237.255 448.984C238.023 448.536 238.935 448.312 239.991 448.312C240.791 448.312 241.487 448.448 242.079 448.72C242.687 448.976 243.215 449.336 243.663 449.8L241.359 452.104C241.199 451.944 241.015 451.824 240.807 451.744C240.615 451.648 240.383 451.6 240.111 451.6C239.615 451.6 239.223 451.744 238.935 452.032C238.647 452.32 238.503 452.712 238.503 453.208V466H234.831ZM232.263 457.456V454.336H241.863V457.456H232.263ZM249.04 466.264C247.776 466.264 246.648 466.008 245.656 465.496C244.68 464.968 243.912 464.24 243.352 463.312C242.792 462.384 242.512 461.336 242.512 460.168C242.512 459 242.784 457.96 243.328 457.048C243.888 456.12 244.64 455.392 245.584 454.864C246.528 454.336 247.592 454.072 248.776 454.072C249.928 454.072 250.944 454.32 251.824 454.816C252.704 455.312 253.392 456 253.888 456.88C254.4 457.76 254.656 458.768 254.656 459.904C254.656 460.112 254.64 460.336 254.608 460.576C254.592 460.8 254.552 461.064 254.488 461.368L244.432 461.392V458.872L252.928 458.848L251.344 459.904C251.328 459.232 251.224 458.68 251.032 458.248C250.84 457.8 250.552 457.464 250.168 457.24C249.8 457 249.344 456.88 248.8 456.88C248.224 456.88 247.72 457.016 247.288 457.288C246.872 457.544 246.544 457.912 246.304 458.392C246.08 458.872 245.968 459.456 245.968 460.144C245.968 460.832 246.088 461.424 246.328 461.92C246.584 462.4 246.936 462.776 247.384 463.048C247.848 463.304 248.392 463.432 249.016 463.432C249.592 463.432 250.112 463.336 250.576 463.144C251.04 462.936 251.448 462.632 251.8 462.232L253.816 464.248C253.24 464.92 252.544 465.424 251.728 465.76C250.912 466.096 250.016 466.264 249.04 466.264ZM256.429 466V454.336H260.101V466H256.429ZM260.101 459.592L258.565 458.392C258.869 457.032 259.381 455.976 260.101 455.224C260.821 454.472 261.821 454.096 263.101 454.096C263.661 454.096 264.149 454.184 264.565 454.36C264.997 454.52 265.373 454.776 265.693 455.128L263.509 457.888C263.349 457.712 263.149 457.576 262.909 457.48C262.669 457.384 262.397 457.336 262.093 457.336C261.485 457.336 260.997 457.528 260.629 457.912C260.277 458.28 260.101 458.84 260.101 459.592ZM272.103 466.264C270.839 466.264 269.711 466.008 268.719 465.496C267.743 464.968 266.975 464.24 266.415 463.312C265.855 462.384 265.575 461.336 265.575 460.168C265.575 459 265.847 457.96 266.391 457.048C266.951 456.12 267.703 455.392 268.647 454.864C269.591 454.336 270.655 454.072 271.839 454.072C272.991 454.072 274.007 454.32 274.887 454.816C275.767 455.312 276.455 456 276.951 456.88C277.463 457.76 277.719 458.768 277.719 459.904C277.719 460.112 277.703 460.336 277.671 460.576C277.655 460.8 277.615 461.064 277.551 461.368L267.495 461.392V458.872L275.991 458.848L274.407 459.904C274.391 459.232 274.287 458.68 274.095 458.248C273.903 457.8 273.615 457.464 273.231 457.24C272.863 457 272.407 456.88 271.863 456.88C271.287 456.88 270.783 457.016 270.351 457.288C269.935 457.544 269.607 457.912 269.367 458.392C269.143 458.872 269.031 459.456 269.031 460.144C269.031 460.832 269.151 461.424 269.391 461.92C269.647 462.4 269.999 462.776 270.447 463.048C270.911 463.304 271.455 463.432 272.079 463.432C272.655 463.432 273.175 463.336 273.639 463.144C274.103 462.936 274.511 462.632 274.863 462.232L276.879 464.248C276.303 464.92 275.607 465.424 274.791 465.76C273.975 466.096 273.079 466.264 272.103 466.264ZM287.195 466V459.352C287.195 458.744 287.003 458.256 286.619 457.888C286.251 457.504 285.779 457.312 285.203 457.312C284.803 457.312 284.451 457.4 284.147 457.576C283.843 457.736 283.603 457.976 283.427 458.296C283.251 458.6 283.163 458.952 283.163 459.352L281.747 458.656C281.747 457.744 281.947 456.944 282.347 456.256C282.747 455.568 283.299 455.04 284.003 454.672C284.723 454.288 285.531 454.096 286.427 454.096C287.291 454.096 288.051 454.304 288.707 454.72C289.379 455.12 289.907 455.656 290.291 456.328C290.675 457 290.867 457.736 290.867 458.536V466H287.195ZM279.491 466V454.336H283.163V466H279.491ZM298.866 466.264C297.666 466.264 296.578 466 295.602 465.472C294.626 464.944 293.858 464.216 293.298 463.288C292.738 462.36 292.458 461.32 292.458 460.168C292.458 459 292.738 457.96 293.298 457.048C293.874 456.12 294.65 455.392 295.626 454.864C296.602 454.336 297.698 454.072 298.914 454.072C299.826 454.072 300.658 454.232 301.41 454.552C302.178 454.856 302.858 455.32 303.45 455.944L301.098 458.296C300.826 457.992 300.506 457.768 300.138 457.624C299.786 457.48 299.378 457.408 298.914 457.408C298.386 457.408 297.914 457.528 297.498 457.768C297.098 457.992 296.778 458.312 296.538 458.728C296.314 459.128 296.202 459.6 296.202 460.144C296.202 460.688 296.314 461.168 296.538 461.584C296.778 462 297.106 462.328 297.522 462.568C297.938 462.808 298.402 462.928 298.914 462.928C299.394 462.928 299.818 462.848 300.186 462.688C300.57 462.512 300.898 462.272 301.17 461.968L303.498 464.32C302.89 464.96 302.202 465.448 301.434 465.784C300.666 466.104 299.81 466.264 298.866 466.264ZM310.611 466.264C309.347 466.264 308.219 466.008 307.227 465.496C306.251 464.968 305.483 464.24 304.923 463.312C304.363 462.384 304.083 461.336 304.083 460.168C304.083 459 304.355 457.96 304.899 457.048C305.459 456.12 306.211 455.392 307.155 454.864C308.099 454.336 309.163 454.072 310.347 454.072C311.499 454.072 312.515 454.32 313.395 454.816C314.275 455.312 314.963 456 315.459 456.88C315.971 457.76 316.227 458.768 316.227 459.904C316.227 460.112 316.211 460.336 316.179 460.576C316.163 460.8 316.123 461.064 316.059 461.368L306.003 461.392V458.872L314.499 458.848L312.915 459.904C312.899 459.232 312.795 458.68 312.603 458.248C312.411 457.8 312.123 457.464 311.739 457.24C311.371 457 310.915 456.88 310.371 456.88C309.795 456.88 309.291 457.016 308.859 457.288C308.443 457.544 308.115 457.912 307.875 458.392C307.651 458.872 307.539 459.456 307.539 460.144C307.539 460.832 307.659 461.424 307.899 461.92C308.155 462.4 308.507 462.776 308.955 463.048C309.419 463.304 309.963 463.432 310.587 463.432C311.163 463.432 311.683 463.336 312.147 463.144C312.611 462.936 313.019 462.632 313.371 462.232L315.387 464.248C314.811 464.92 314.115 465.424 313.299 465.76C312.483 466.096 311.587 466.264 310.611 466.264Z" fill="#06FF61"/>
<path d="M389.25 98.8334C399.667 98.8334 403.833 94.6668 403.833 84.2501V71.7501C403.833 61.3334 399.667 57.1667 389.25 57.1667H376.75C366.333 57.1667 362.167 61.3334 362.167 71.7501V84.2501C362.167 94.6668 366.333 98.8334 376.75 98.8334H389.25Z" stroke="white" stroke-width="3" stroke-linecap="round" stroke-linejoin="round"/>
<path fill-rule="evenodd" clip-rule="evenodd" d="M376.75 73.8333C374.449 73.8333 372.583 71.9679 372.583 69.6667C372.583 67.3655 374.449 65.5 376.75 65.5C379.051 65.5 380.917 67.3655 380.917 69.6667C380.917 71.9679 379.051 73.8333 376.75 73.8333Z" stroke="white" stroke-width="3" stroke-linecap="round" stroke-linejoin="round"/>
<path d="M363.562 92.4792L373.833 85.5834C375.479 84.4792 377.854 84.6042 379.333 85.8751L380.021 86.4792C381.646 87.8751 384.271 87.8751 385.896 86.4792L394.563 79.0417C396.188 77.6459 398.813 77.6459 400.438 79.0417L403.833 81.9584" stroke="white" stroke-width="3" stroke-linecap="round" stroke-linejoin="round"/>
<path d="M351.241 143V126.344H353.497V143H351.241ZM357.045 143V131.6H359.205V143H357.045ZM364.749 143V136.112C364.749 135.264 364.485 134.6 363.957 134.12C363.445 133.624 362.797 133.376 362.013 133.376C361.485 133.376 361.013 133.488 360.597 133.712C360.181 133.936 359.845 134.248 359.589 134.648C359.333 135.048 359.205 135.528 359.205 136.088L358.317 135.656C358.317 134.792 358.501 134.04 358.869 133.4C359.253 132.76 359.773 132.264 360.429 131.912C361.085 131.544 361.821 131.36 362.637 131.36C363.437 131.36 364.157 131.536 364.797 131.888C365.453 132.24 365.965 132.736 366.333 133.376C366.717 134.016 366.909 134.776 366.909 135.656V143H364.749ZM372.453 143V136.112C372.453 135.264 372.189 134.6 371.661 134.12C371.149 133.624 370.509 133.376 369.741 133.376C369.213 133.376 368.733 133.488 368.301 133.712C367.885 133.936 367.549 134.248 367.293 134.648C367.037 135.048 366.909 135.528 366.909 136.088L365.685 135.656C365.733 134.776 365.965 134.024 366.381 133.4C366.813 132.76 367.365 132.264 368.037 131.912C368.709 131.544 369.445 131.36 370.245 131.36C371.077 131.36 371.821 131.536 372.477 131.888C373.133 132.24 373.653 132.736 374.037 133.376C374.437 134.016 374.637 134.784 374.637 135.68V143H372.453ZM382.424 143.24C381.384 143.24 380.44 142.984 379.592 142.472C378.744 141.944 378.072 141.232 377.576 140.336C377.096 139.44 376.856 138.432 376.856 137.312C376.856 136.192 377.096 135.184 377.576 134.288C378.072 133.392 378.736 132.68 379.568 132.152C380.416 131.624 381.368 131.36 382.424 131.36C383.288 131.36 384.056 131.544 384.728 131.912C385.416 132.264 385.968 132.76 386.384 133.4C386.8 134.024 387.032 134.752 387.08 135.584V139.016C387.032 139.832 386.8 140.56 386.384 141.2C385.984 141.84 385.44 142.344 384.752 142.712C384.08 143.064 383.304 143.24 382.424 143.24ZM382.784 141.2C383.856 141.2 384.72 140.84 385.376 140.12C386.032 139.384 386.36 138.448 386.36 137.312C386.36 136.528 386.208 135.848 385.904 135.272C385.616 134.68 385.2 134.224 384.656 133.904C384.112 133.568 383.48 133.4 382.76 133.4C382.04 133.4 381.4 133.568 380.84 133.904C380.296 134.24 379.864 134.704 379.544 135.296C379.24 135.872 379.088 136.536 379.088 137.288C379.088 138.056 379.24 138.736 379.544 139.328C379.864 139.904 380.304 140.36 380.864 140.696C381.424 141.032 382.064 141.2 382.784 141.2ZM386.216 143V139.928L386.624 137.144L386.216 134.384V131.6H388.4V143H386.216ZM396.273 148.016C395.105 148.016 394.065 147.8 393.153 147.368C392.257 146.936 391.537 146.328 390.993 145.544L392.385 144.128C392.849 144.72 393.401 145.168 394.041 145.472C394.681 145.792 395.441 145.952 396.321 145.952C397.489 145.952 398.409 145.64 399.081 145.016C399.769 144.408 400.113 143.584 400.113 142.544V139.712L400.497 137.144L400.113 134.6V131.6H402.273V142.544C402.273 143.632 402.017 144.584 401.505 145.4C401.009 146.216 400.305 146.856 399.393 147.32C398.497 147.784 397.457 148.016 396.273 148.016ZM396.273 142.808C395.233 142.808 394.297 142.56 393.465 142.064C392.649 141.568 392.001 140.888 391.521 140.024C391.041 139.144 390.801 138.16 390.801 137.072C390.801 135.984 391.041 135.016 391.521 134.168C392.001 133.304 392.649 132.624 393.465 132.128C394.297 131.616 395.233 131.36 396.273 131.36C397.169 131.36 397.961 131.536 398.649 131.888C399.337 132.24 399.881 132.736 400.281 133.376C400.697 134 400.921 134.736 400.953 135.584V138.608C400.905 139.44 400.673 140.176 400.257 140.816C399.857 141.44 399.313 141.928 398.625 142.28C397.937 142.632 397.153 142.808 396.273 142.808ZM396.705 140.768C397.409 140.768 398.025 140.616 398.553 140.312C399.097 140.008 399.513 139.584 399.801 139.04C400.089 138.48 400.233 137.832 400.233 137.096C400.233 136.36 400.081 135.72 399.777 135.176C399.489 134.616 399.081 134.184 398.553 133.88C398.025 133.56 397.401 133.4 396.681 133.4C395.961 133.4 395.329 133.56 394.785 133.88C394.241 134.184 393.809 134.616 393.489 135.176C393.185 135.72 393.033 136.352 393.033 137.072C393.033 137.792 393.185 138.432 393.489 138.992C393.809 139.552 394.241 139.992 394.785 140.312C395.345 140.616 395.985 140.768 396.705 140.768ZM410.723 143.24C409.587 143.24 408.563 142.984 407.651 142.472C406.739 141.944 406.019 141.232 405.491 140.336C404.963 139.44 404.699 138.424 404.699 137.288C404.699 136.168 404.955 135.16 405.467 134.264C405.995 133.368 406.699 132.664 407.579 132.152C408.475 131.624 409.475 131.36 410.579 131.36C411.635 131.36 412.563 131.6 413.363 132.08C414.179 132.56 414.811 133.224 415.259 134.072C415.723 134.92 415.955 135.88 415.955 136.952C415.955 137.112 415.947 137.288 415.931 137.48C415.915 137.656 415.883 137.864 415.835 138.104H406.211V136.304H414.683L413.891 137C413.891 136.232 413.755 135.584 413.483 135.056C413.211 134.512 412.827 134.096 412.331 133.808C411.835 133.504 411.235 133.352 410.531 133.352C409.795 133.352 409.147 133.512 408.587 133.832C408.027 134.152 407.595 134.6 407.291 135.176C406.987 135.752 406.835 136.432 406.835 137.216C406.835 138.016 406.995 138.72 407.315 139.328C407.635 139.92 408.091 140.384 408.683 140.72C409.275 141.04 409.955 141.2 410.723 141.2C411.363 141.2 411.947 141.088 412.475 140.864C413.019 140.64 413.483 140.304 413.867 139.856L415.259 141.272C414.715 141.912 414.043 142.4 413.243 142.736C412.459 143.072 411.619 143.24 410.723 143.24Z" fill="white"/>
<path d="M135.458 83.8125C135.458 84.3542 135.438 84.875 135.375 85.375C134.896 91 131.583 93.7916 125.479 93.7916H124.646C124.125 93.7916 123.625 94.0417 123.313 94.4583L120.813 97.7917C119.708 99.2708 117.917 99.2708 116.813 97.7917L114.313 94.4583C114.042 94.1042 113.438 93.7916 112.979 93.7916H112.146C105.5 93.7916 102.167 92.1459 102.167 83.8125V75.4792C102.167 69.375 104.979 66.0625 110.583 65.5834C111.083 65.5209 111.604 65.5 112.146 65.5H125.479C132.125 65.5 135.458 68.8334 135.458 75.4792V83.8125Z" stroke="white" stroke-width="3" stroke-linecap="round" stroke-linejoin="round"/>
<path d="M143.792 75.4793C143.792 81.6043 140.979 84.8959 135.375 85.3751C135.438 84.8751 135.459 84.3543 135.459 83.8126V75.4793C135.459 68.8334 132.125 65.5001 125.479 65.5001H112.146C111.604 65.5001 111.083 65.5209 110.583 65.5834C111.063 59.9793 114.375 57.1667 120.479 57.1667H133.813C140.458 57.1667 143.792 60.5001 143.792 67.1459V75.4793Z" stroke="white" stroke-width="3" stroke-linecap="round" stroke-linejoin="round"/>
<path d="M126.116 79.1042C125.287 79.1042 124.616 79.7757 124.616 80.6042C124.616 81.4326 125.287 82.1042 126.116 82.1042H126.134C126.963 82.1042 127.634 81.4326 127.634 80.6042C127.634 79.7757 126.963 79.1042 126.134 79.1042H126.116Z" stroke="white" stroke-width="3" stroke-linecap="round" stroke-linejoin="round"/>
<path d="M118.824 79.1042C117.996 79.1042 117.324 79.7757 117.324 80.6042C117.324 81.4326 117.996 82.1042 118.824 82.1042H118.843C119.671 82.1042 120.343 81.4326 120.343 80.6042C120.343 79.7757 119.671 79.1042 118.843 79.1042H118.824Z" stroke="white" stroke-width="3" stroke-linecap="round" stroke-linejoin="round"/>
<path d="M111.532 79.1042C110.704 79.1042 110.032 79.7757 110.032 80.6042C110.032 81.4326 110.704 82.1042 111.532 82.1042H111.551C112.379 82.1042 113.051 81.4326 113.051 80.6042C113.051 79.7757 112.379 79.1042 111.551 79.1042H111.532Z" stroke="white" stroke-width="3" stroke-linecap="round" stroke-linejoin="round"/>
<path d="M90.6469 143.24C89.3349 143.24 88.2149 143 87.2869 142.52C86.3589 142.04 85.5349 141.344 84.8149 140.432L86.3509 138.896C86.8789 139.632 87.4869 140.192 88.1749 140.576C88.8629 140.944 89.7109 141.128 90.7189 141.128C91.7109 141.128 92.5029 140.912 93.0949 140.48C93.7029 140.048 94.0069 139.456 94.0069 138.704C94.0069 138.08 93.8629 137.576 93.5749 137.192C93.2869 136.808 92.8949 136.496 92.3989 136.256C91.9189 136 91.3909 135.776 90.8149 135.584C90.2389 135.376 89.6629 135.16 89.0869 134.936C88.5109 134.696 87.9829 134.408 87.5029 134.072C87.0229 133.72 86.6309 133.264 86.3269 132.704C86.0389 132.144 85.8949 131.44 85.8949 130.592C85.8949 129.648 86.1189 128.848 86.5669 128.192C87.0309 127.52 87.6549 127.008 88.4389 126.656C89.2389 126.288 90.1349 126.104 91.1269 126.104C92.2149 126.104 93.1909 126.32 94.0549 126.752C94.9189 127.168 95.6229 127.72 96.1669 128.408L94.6309 129.944C94.1349 129.368 93.5989 128.936 93.0229 128.648C92.4629 128.36 91.8149 128.216 91.0789 128.216C90.1829 128.216 89.4709 128.416 88.9429 128.816C88.4149 129.2 88.1509 129.744 88.1509 130.448C88.1509 131.008 88.2949 131.464 88.5829 131.816C88.8869 132.152 89.2789 132.44 89.7589 132.68C90.2389 132.92 90.7669 133.144 91.3429 133.352C91.9349 133.544 92.5189 133.76 93.0949 134C93.6709 134.24 94.1989 134.544 94.6789 134.912C95.1589 135.28 95.5429 135.76 95.8309 136.352C96.1349 136.928 96.2869 137.656 96.2869 138.536C96.2869 140.008 95.7749 141.16 94.7509 141.992C93.7429 142.824 92.3749 143.24 90.6469 143.24ZM104.943 143.24C104.079 143.24 103.295 143.064 102.591 142.712C101.903 142.344 101.351 141.84 100.935 141.2C100.519 140.56 100.287 139.832 100.239 139.016V135.584C100.287 134.752 100.519 134.024 100.935 133.4C101.367 132.76 101.927 132.264 102.615 131.912C103.319 131.544 104.095 131.36 104.943 131.36C105.983 131.36 106.919 131.624 107.751 132.152C108.599 132.68 109.263 133.392 109.743 134.288C110.223 135.184 110.463 136.192 110.463 137.312C110.463 138.432 110.223 139.44 109.743 140.336C109.263 141.232 108.599 141.944 107.751 142.472C106.919 142.984 105.983 143.24 104.943 143.24ZM104.583 141.2C105.303 141.2 105.935 141.032 106.479 140.696C107.023 140.36 107.455 139.904 107.775 139.328C108.095 138.736 108.255 138.056 108.255 137.288C108.255 136.536 108.095 135.864 107.775 135.272C107.455 134.68 107.023 134.224 106.479 133.904C105.935 133.568 105.311 133.4 104.607 133.4C103.887 133.4 103.255 133.568 102.711 133.904C102.167 134.224 101.743 134.68 101.439 135.272C101.135 135.864 100.983 136.544 100.983 137.312C100.983 138.064 101.127 138.736 101.415 139.328C101.719 139.904 102.143 140.36 102.687 140.696C103.247 141.032 103.879 141.2 104.583 141.2ZM98.9434 147.776V131.6H101.103V134.6L100.695 137.36L101.103 140.144V147.776H98.9434ZM118.192 143.24C117.056 143.24 116.032 142.984 115.12 142.472C114.208 141.944 113.488 141.232 112.96 140.336C112.432 139.44 112.168 138.424 112.168 137.288C112.168 136.168 112.424 135.16 112.936 134.264C113.464 133.368 114.168 132.664 115.048 132.152C115.944 131.624 116.944 131.36 118.048 131.36C119.104 131.36 120.032 131.6 120.832 132.08C121.648 132.56 122.28 133.224 122.728 134.072C123.192 134.92 123.424 135.88 123.424 136.952C123.424 137.112 123.416 137.288 123.4 137.48C123.384 137.656 123.352 137.864 123.304 138.104H113.68V136.304H122.152L121.36 137C121.36 136.232 121.224 135.584 120.952 135.056C120.68 134.512 120.296 134.096 119.8 133.808C119.304 133.504 118.704 133.352 118 133.352C117.264 133.352 116.616 133.512 116.056 133.832C115.496 134.152 115.064 134.6 114.76 135.176C114.456 135.752 114.304 136.432 114.304 137.216C114.304 138.016 114.464 138.72 114.784 139.328C115.104 139.92 115.56 140.384 116.152 140.72C116.744 141.04 117.424 141.2 118.192 141.2C118.832 141.2 119.416 141.088 119.944 140.864C120.488 140.64 120.952 140.304 121.336 139.856L122.728 141.272C122.184 141.912 121.512 142.4 120.712 142.736C119.928 143.072 119.088 143.24 118.192 143.24ZM131.059 143.24C129.923 143.24 128.899 142.984 127.987 142.472C127.075 141.944 126.355 141.232 125.827 140.336C125.299 139.44 125.035 138.424 125.035 137.288C125.035 136.168 125.291 135.16 125.803 134.264C126.331 133.368 127.035 132.664 127.915 132.152C128.811 131.624 129.811 131.36 130.915 131.36C131.971 131.36 132.899 131.6 133.699 132.08C134.515 132.56 135.147 133.224 135.595 134.072C136.059 134.92 136.291 135.88 136.291 136.952C136.291 137.112 136.283 137.288 136.267 137.48C136.251 137.656 136.219 137.864 136.171 138.104H126.547V136.304H135.019L134.227 137C134.227 136.232 134.091 135.584 133.819 135.056C133.547 134.512 133.163 134.096 132.667 133.808C132.171 133.504 131.571 133.352 130.867 133.352C130.131 133.352 129.483 133.512 128.923 133.832C128.363 134.152 127.931 134.6 127.627 135.176C127.323 135.752 127.171 136.432 127.171 137.216C127.171 138.016 127.331 138.72 127.651 139.328C127.971 139.92 128.427 140.384 129.019 140.72C129.611 141.04 130.291 141.2 131.059 141.2C131.699 141.2 132.283 141.088 132.811 140.864C133.355 140.64 133.819 140.304 134.203 139.856L135.595 141.272C135.051 141.912 134.379 142.4 133.579 142.736C132.795 143.072 131.955 143.24 131.059 143.24ZM143.855 143.24C142.735 143.24 141.719 142.976 140.807 142.448C139.911 141.92 139.199 141.208 138.671 140.312C138.159 139.4 137.903 138.392 137.903 137.288C137.903 136.168 138.159 135.16 138.671 134.264C139.199 133.368 139.911 132.664 140.807 132.152C141.719 131.624 142.735 131.36 143.855 131.36C144.735 131.36 145.551 131.528 146.303 131.864C147.055 132.184 147.703 132.656 148.247 133.28L146.807 134.72C146.455 134.304 146.023 133.992 145.511 133.784C145.015 133.56 144.463 133.448 143.855 133.448C143.135 133.448 142.495 133.616 141.935 133.952C141.375 134.272 140.935 134.72 140.615 135.296C140.295 135.872 140.135 136.536 140.135 137.288C140.135 138.04 140.295 138.704 140.615 139.28C140.935 139.856 141.375 140.312 141.935 140.648C142.495 140.984 143.135 141.152 143.855 141.152C144.463 141.152 145.015 141.048 145.511 140.84C146.023 140.616 146.463 140.296 146.831 139.88L148.247 141.32C147.719 141.928 147.071 142.4 146.303 142.736C145.551 143.072 144.735 143.24 143.855 143.24ZM158.453 143V136.352C158.453 135.488 158.181 134.776 157.637 134.216C157.093 133.656 156.389 133.376 155.525 133.376C154.949 133.376 154.437 133.504 153.989 133.76C153.541 134.016 153.189 134.368 152.933 134.816C152.677 135.264 152.549 135.776 152.549 136.352L151.661 135.848C151.661 134.984 151.853 134.216 152.237 133.544C152.621 132.872 153.157 132.344 153.845 131.96C154.533 131.56 155.309 131.36 156.173 131.36C157.037 131.36 157.797 131.552 158.453 131.936C159.125 132.32 159.653 132.856 160.037 133.544C160.421 134.232 160.613 135.024 160.613 135.92V143H158.453ZM150.389 143V125.864H152.549V143H150.389Z" fill="white"/>
<g clip-path="url(#clip0_230_779)">
<path d="M262.335 301.85H252.445C246.715 301.85 242.065 297.192 242.065 291.474V288.725C242.065 288.175 242.515 287.726 243.065 287.726C243.615 287.726 244.065 288.175 244.065 288.725V291.474C244.065 296.092 247.825 299.851 252.445 299.851H262.335C264.375 299.851 266.025 298.191 266.025 296.162C266.025 296.122 266.025 296.082 266.025 296.042L267.085 287.446C267.125 287.116 267.335 286.826 267.635 286.676L270.885 285.047C271.035 284.977 271.135 284.847 271.195 284.697C271.245 284.547 271.235 284.377 271.165 284.227L267.195 276.29C267.125 276.15 267.085 276 267.085 275.84V274.281C267.085 266.734 262.835 260.017 255.965 256.758C249.485 253.679 239.595 255.299 234.375 260.307C226.955 267.424 226.385 279.089 233.095 286.856C234.115 288.036 234.675 289.525 234.675 291.054V294.493C234.675 295.043 234.225 295.493 233.675 295.493C233.125 295.493 232.675 295.043 232.675 294.493V291.054C232.675 290.005 232.285 288.975 231.585 288.165C224.185 279.589 224.795 266.714 232.995 258.857C238.745 253.329 249.665 251.54 256.825 254.939C264.395 258.537 269.095 265.944 269.085 274.271V275.6L272.955 283.327C273.265 283.947 273.315 284.657 273.095 285.317C272.875 285.976 272.405 286.516 271.785 286.826L269.015 288.215L268.025 296.222C267.995 299.331 265.455 301.85 262.335 301.85Z" fill="white"/>
<path d="M252.265 282.708C251.715 282.708 251.265 282.258 251.265 281.708V273.492C251.265 272.942 251.715 272.492 252.265 272.492C252.815 272.492 253.265 272.942 253.265 273.492V281.708C253.265 282.258 252.815 282.708 252.265 282.708Z" fill="white"/>
<path d="M242.115 282.708C241.995 282.708 241.875 282.688 241.755 282.638C241.235 282.438 240.985 281.858 241.185 281.348L244.345 273.132C244.495 272.742 244.865 272.492 245.275 272.492H245.905C246.315 272.492 246.685 272.742 246.835 273.132L249.995 281.348C250.195 281.868 249.935 282.438 249.425 282.638C248.915 282.828 248.335 282.578 248.135 282.068L245.595 275.461L243.055 282.068C242.905 282.468 242.525 282.708 242.125 282.708H242.115Z" fill="white"/>
<path d="M248.095 280.179H243.085C242.535 280.179 242.085 279.729 242.085 279.179C242.085 278.63 242.535 278.18 243.085 278.18H248.095C248.645 278.18 249.095 278.63 249.095 279.179C249.095 279.729 248.645 280.179 248.095 280.179Z" fill="white"/>
<path d="M255.805 288.935H239.545C237.775 288.935 236.325 287.496 236.325 285.717V269.463C236.325 267.694 237.765 266.244 239.545 266.244H255.805C257.575 266.244 259.025 267.684 259.025 269.463V285.717C259.025 287.486 257.585 288.935 255.805 288.935ZM239.545 268.254C238.875 268.254 238.325 268.803 238.325 269.473V285.727C238.325 286.396 238.875 286.946 239.545 286.946H255.805C256.475 286.946 257.025 286.396 257.025 285.727V269.463C257.025 268.793 256.475 268.244 255.805 268.244H239.545V268.254Z" fill="white"/>
<path d="M233.685 302C231.375 302 229.505 300.121 229.505 297.822C229.505 295.523 231.385 293.643 233.685 293.643C235.985 293.643 237.865 295.523 237.865 297.822C237.865 300.121 235.985 302 233.685 302ZM233.685 295.643C232.485 295.643 231.505 296.622 231.505 297.822C231.505 299.021 232.485 300.001 233.685 300.001C234.885 300.001 235.865 299.021 235.865 297.822C235.865 296.622 234.885 295.643 233.685 295.643Z" fill="white"/>
</g>
<path d="M184.377 335.232L177.825 325.344H180.441L185.721 333.432H184.545L189.849 325.344H192.417L185.817 335.232H184.377ZM183.993 342V333.744H186.249V342H183.993ZM196.343 342.24C195.223 342.24 194.215 341.976 193.319 341.448C192.423 340.92 191.711 340.208 191.183 339.312C190.655 338.4 190.391 337.384 190.391 336.264C190.391 335.16 190.655 334.168 191.183 333.288C191.711 332.392 192.423 331.68 193.319 331.152C194.215 330.624 195.223 330.36 196.343 330.36C197.447 330.36 198.447 330.624 199.343 331.152C200.255 331.664 200.975 332.368 201.503 333.264C202.031 334.16 202.295 335.16 202.295 336.264C202.295 337.384 202.031 338.4 201.503 339.312C200.975 340.208 200.255 340.92 199.343 341.448C198.447 341.976 197.447 342.24 196.343 342.24ZM196.343 340.152C197.063 340.152 197.703 339.984 198.263 339.648C198.823 339.312 199.263 338.856 199.583 338.28C199.903 337.688 200.063 337.016 200.063 336.264C200.063 335.528 199.895 334.872 199.559 334.296C199.239 333.72 198.799 333.272 198.239 332.952C197.695 332.616 197.063 332.448 196.343 332.448C195.623 332.448 194.983 332.616 194.423 332.952C193.863 333.272 193.423 333.72 193.103 334.296C192.783 334.872 192.623 335.528 192.623 336.264C192.623 337.016 192.783 337.688 193.103 338.28C193.423 338.856 193.863 339.312 194.423 339.648C194.983 339.984 195.623 340.152 196.343 340.152ZM209.313 342.24C208.385 342.24 207.545 342.032 206.793 341.616C206.057 341.184 205.481 340.592 205.065 339.84C204.649 339.088 204.441 338.216 204.441 337.224V330.6H206.601V337.128C206.601 337.752 206.705 338.296 206.913 338.76C207.137 339.208 207.457 339.552 207.873 339.792C208.289 340.032 208.777 340.152 209.337 340.152C210.185 340.152 210.849 339.888 211.329 339.36C211.809 338.816 212.049 338.072 212.049 337.128V330.6H214.209V337.224C214.209 338.216 214.001 339.088 213.585 339.84C213.169 340.592 212.593 341.184 211.857 341.616C211.137 342.032 210.289 342.24 209.313 342.24ZM217.104 342V330.6H219.264V342H217.104ZM219.264 335.496L218.448 335.136C218.448 333.68 218.784 332.52 219.456 331.656C220.128 330.792 221.096 330.36 222.36 330.36C222.936 330.36 223.456 330.464 223.92 330.672C224.384 330.864 224.816 331.192 225.216 331.656L223.8 333.12C223.56 332.864 223.296 332.68 223.008 332.568C222.72 332.456 222.384 332.4 222 332.4C221.2 332.4 220.544 332.656 220.032 333.168C219.52 333.68 219.264 334.456 219.264 335.496ZM230.631 342L237.447 325.344H239.079L245.871 342H243.423L237.831 327.912H238.671L233.031 342H230.631ZM233.871 338.232V336.264H242.631V338.232H233.871ZM248.378 342V325.344H250.634V342H248.378ZM259.174 342V330.6H261.334V342H259.174ZM266.878 342V335.112C266.878 334.264 266.614 333.6 266.086 333.12C265.574 332.624 264.926 332.376 264.142 332.376C263.614 332.376 263.142 332.488 262.726 332.712C262.31 332.936 261.974 333.248 261.718 333.648C261.462 334.048 261.334 334.528 261.334 335.088L260.446 334.656C260.446 333.792 260.63 333.04 260.998 332.4C261.382 331.76 261.902 331.264 262.558 330.912C263.214 330.544 263.95 330.36 264.766 330.36C265.566 330.36 266.286 330.536 266.926 330.888C267.582 331.24 268.094 331.736 268.462 332.376C268.846 333.016 269.038 333.776 269.038 334.656V342H266.878ZM274.582 342V335.112C274.582 334.264 274.318 333.6 273.79 333.12C273.278 332.624 272.638 332.376 271.87 332.376C271.342 332.376 270.862 332.488 270.43 332.712C270.014 332.936 269.678 333.248 269.422 333.648C269.166 334.048 269.038 334.528 269.038 335.088L267.814 334.656C267.862 333.776 268.094 333.024 268.51 332.4C268.942 331.76 269.494 331.264 270.166 330.912C270.838 330.544 271.574 330.36 272.374 330.36C273.206 330.36 273.95 330.536 274.606 330.888C275.262 331.24 275.782 331.736 276.166 332.376C276.566 333.016 276.766 333.784 276.766 334.68V342H274.582ZM284.913 342.24C283.793 342.24 282.785 341.976 281.889 341.448C280.993 340.92 280.281 340.208 279.753 339.312C279.225 338.4 278.961 337.384 278.961 336.264C278.961 335.16 279.225 334.168 279.753 333.288C280.281 332.392 280.993 331.68 281.889 331.152C282.785 330.624 283.793 330.36 284.913 330.36C286.017 330.36 287.017 330.624 287.913 331.152C288.825 331.664 289.545 332.368 290.073 333.264C290.601 334.16 290.865 335.16 290.865 336.264C290.865 337.384 290.601 338.4 290.073 339.312C289.545 340.208 288.825 340.92 287.913 341.448C287.017 341.976 286.017 342.24 284.913 342.24ZM284.913 340.152C285.633 340.152 286.273 339.984 286.833 339.648C287.393 339.312 287.833 338.856 288.153 338.28C288.473 337.688 288.633 337.016 288.633 336.264C288.633 335.528 288.465 334.872 288.129 334.296C287.809 333.72 287.369 333.272 286.809 332.952C286.265 332.616 285.633 332.448 284.913 332.448C284.193 332.448 283.553 332.616 282.993 332.952C282.433 333.272 281.993 333.72 281.673 334.296C281.353 334.872 281.193 335.528 281.193 336.264C281.193 337.016 281.353 337.688 281.673 338.28C281.993 338.856 282.433 339.312 282.993 339.648C283.553 339.984 284.193 340.152 284.913 340.152ZM298.123 342.24C297.067 342.24 296.123 341.984 295.291 341.472C294.459 340.944 293.795 340.232 293.299 339.336C292.819 338.44 292.579 337.432 292.579 336.312C292.579 335.192 292.819 334.184 293.299 333.288C293.795 332.392 294.459 331.68 295.291 331.152C296.123 330.624 297.067 330.36 298.123 330.36C298.971 330.36 299.739 330.544 300.427 330.912C301.115 331.264 301.667 331.76 302.083 332.4C302.515 333.024 302.755 333.752 302.803 334.584V338.016C302.755 338.832 302.523 339.56 302.107 340.2C301.691 340.84 301.139 341.344 300.451 341.712C299.763 342.064 298.987 342.24 298.123 342.24ZM298.483 340.2C299.203 340.2 299.827 340.032 300.355 339.696C300.899 339.36 301.323 338.904 301.627 338.328C301.931 337.736 302.083 337.064 302.083 336.312C302.083 335.528 301.923 334.848 301.603 334.272C301.299 333.696 300.875 333.24 300.331 332.904C299.803 332.568 299.179 332.4 298.459 332.4C297.739 332.4 297.107 332.568 296.563 332.904C296.019 333.24 295.587 333.704 295.267 334.296C294.963 334.872 294.811 335.536 294.811 336.288C294.811 337.056 294.963 337.736 295.267 338.328C295.587 338.904 296.019 339.36 296.563 339.696C297.123 340.032 297.763 340.2 298.483 340.2ZM304.123 342H301.939V338.928L302.347 336.144L301.939 333.384V324.864H304.123V342ZM312.548 342.24C311.412 342.24 310.388 341.984 309.476 341.472C308.564 340.944 307.844 340.232 307.316 339.336C306.788 338.44 306.524 337.424 306.524 336.288C306.524 335.168 306.78 334.16 307.292 333.264C307.82 332.368 308.524 331.664 309.404 331.152C310.3 330.624 311.3 330.36 312.404 330.36C313.46 330.36 314.388 330.6 315.188 331.08C316.004 331.56 316.636 332.224 317.084 333.072C317.548 333.92 317.78 334.88 317.78 335.952C317.78 336.112 317.772 336.288 317.756 336.48C317.74 336.656 317.708 336.864 317.66 337.104H308.036V335.304H316.508L315.716 336C315.716 335.232 315.58 334.584 315.308 334.056C315.036 333.512 314.652 333.096 314.156 332.808C313.66 332.504 313.06 332.352 312.356 332.352C311.62 332.352 310.972 332.512 310.412 332.832C309.852 333.152 309.42 333.6 309.116 334.176C308.812 334.752 308.66 335.432 308.66 336.216C308.66 337.016 308.82 337.72 309.14 338.328C309.46 338.92 309.916 339.384 310.508 339.72C311.1 340.04 311.78 340.2 312.548 340.2C313.188 340.2 313.772 340.088 314.3 339.864C314.844 339.64 315.308 339.304 315.692 338.856L317.084 340.272C316.54 340.912 315.868 341.4 315.068 341.736C314.284 342.072 313.444 342.24 312.548 342.24ZM320.135 342V324.864H322.295V342H320.135Z" fill="white"/>
<defs>
<linearGradient id="paint0_linear_230_779" x1="250" y1="0" x2="250" y2="520" gradientUnits="userSpaceOnUse">
<stop stop-color="#06FF61" stop-opacity="0.2"/>
<stop offset="1" stop-color="#06FF61" stop-opacity="0"/>
</linearGradient>
<linearGradient id="paint1_linear_230_779" x1="250" y1="0" x2="250" y2="400" gradientUnits="userSpaceOnUse">
<stop stop-color="#06FF61" stop-opacity="0.2"/>
<stop offset="1" stop-color="#06FF61" stop-opacity="0"/>
</linearGradient>
<linearGradient id="paint2_linear_230_779" x1="249.5" y1="31" x2="249.5" y2="181" gradientUnits="userSpaceOnUse">
<stop stop-color="#06FF61" stop-opacity="0"/>
<stop offset="0.307292" stop-color="#06FF61"/>
<stop offset="0.697917" stop-color="#06FF61"/>
<stop offset="1" stop-color="#06FF61" stop-opacity="0"/>
</linearGradient>
<linearGradient id="paint3_linear_230_779" x1="386" y1="199" x2="386" y2="469" gradientUnits="userSpaceOnUse">
<stop stop-color="#06FF61" stop-opacity="0"/>
<stop offset="0.307292" stop-color="#06FF61"/>
<stop offset="0.697917" stop-color="#06FF61"/>
<stop offset="1" stop-color="#06FF61" stop-opacity="0"/>
</linearGradient>
<linearGradient id="paint4_linear_230_779" x1="230" y1="0" x2="230" y2="90" gradientUnits="userSpaceOnUse">
<stop stop-color="#06FF61" stop-opacity="0.5"/>
<stop offset="0.364583" stop-color="#06FF61" stop-opacity="0"/>
<stop offset="0.697917" stop-color="#06FF61" stop-opacity="0"/>
<stop offset="1" stop-color="#06FF61" stop-opacity="0.5"/>
</linearGradient>
<clipPath id="clip0_230_779">
<rect width="48.1707" height="50" fill="white" transform="translate(226.415 252)"/>
</clipPath>
</defs>
</svg>
