<svg width="456" height="12" viewBox="0 0 456 12" fill="none" xmlns="http://www.w3.org/2000/svg">
<path d="M3.33333 6C3.33333 7.47276 4.52724 8.66667 6 8.66667C7.47276 8.66667 8.66667 7.47276 8.66667 6C8.66667 4.52724 7.47276 3.33333 6 3.33333C4.52724 3.33333 3.33333 4.52724 3.33333 6ZM456 6L451 3.11325V8.88675L456 6ZM6 6.5H8.96053V5.5H6V6.5ZM14.8816 6.5H20.8026V5.5H14.8816V6.5ZM26.7237 6.5H32.6447V5.5H26.7237V6.5ZM38.5658 6.5H44.4868V5.5H38.5658V6.5ZM50.4079 6.5H56.3289V5.5H50.4079V6.5ZM62.25 6.5H68.171V5.5H62.25V6.5ZM74.0921 6.5H80.0131V5.5H74.0921V6.5ZM85.9342 6.5H91.8552V5.5H85.9342V6.5ZM97.7763 6.5H103.697V5.5H97.7763V6.5ZM109.618 6.5H115.539V5.5H109.618V6.5ZM121.461 6.5H127.382V5.5H121.461V6.5ZM133.303 6.5H139.224V5.5H133.303V6.5ZM145.145 6.5H151.066V5.5H145.145V6.5ZM156.987 6.5H162.908V5.5H156.987V6.5ZM168.829 6.5H174.75V5.5H168.829V6.5ZM180.671 6.5H186.592V5.5H180.671V6.5ZM192.513 6.5H198.434V5.5H192.513V6.5ZM204.355 6.5H210.276V5.5H204.355V6.5ZM216.197 6.5H222.118V5.5H216.197V6.5ZM228.039 6.5H233.96V5.5H228.039V6.5ZM239.882 6.5H245.803V5.5H239.882V6.5ZM251.724 6.5H257.645V5.5H251.724V6.5ZM263.566 6.5H269.487V5.5H263.566V6.5ZM275.408 6.5H281.329V5.5H275.408V6.5ZM287.25 6.5H293.171V5.5H287.25V6.5ZM299.092 6.5H305.013V5.5H299.092V6.5ZM310.934 6.5H316.855V5.5H310.934V6.5ZM322.776 6.5H328.697V5.5H322.776V6.5ZM334.618 6.5H340.539V5.5H334.618V6.5ZM346.46 6.5H352.382V5.5H346.46V6.5ZM358.303 6.5H364.224V5.5H358.303V6.5ZM370.145 6.5H376.066V5.5H370.145V6.5ZM381.987 6.5H387.908V5.5H381.987V6.5ZM393.829 6.5H399.75V5.5H393.829V6.5ZM405.671 6.5H411.592V5.5H405.671V6.5ZM417.513 6.5H423.434V5.5H417.513V6.5ZM429.355 6.5H435.276V5.5H429.355V6.5ZM441.197 6.5H447.118V5.5H441.197V6.5ZM0.666667 6C0.666667 8.94552 3.05448 11.3333 6 11.3333C8.94552 11.3333 11.3333 8.94552 11.3333 6C11.3333 3.05448 8.94552 0.666667 6 0.666667C3.05448 0.666667 0.666667 3.05448 0.666667 6ZM456 6L446 0.226497V11.7735L456 6ZM6 7H8.96053V5H6V7ZM14.8816 7H20.8026V5H14.8816V7ZM26.7237 7H32.6447V5H26.7237V7ZM38.5658 7H44.4868V5H38.5658V7ZM50.4079 7H56.3289V5H50.4079V7ZM62.25 7H68.171V5H62.25V7ZM74.0921 7H80.0131V5H74.0921V7ZM85.9342 7H91.8552V5H85.9342V7ZM97.7763 7H103.697V5H97.7763V7ZM109.618 7H115.539V5H109.618V7ZM121.461 7H127.382V5H121.461V7ZM133.303 7H139.224V5H133.303V7ZM145.145 7H151.066V5H145.145V7ZM156.987 7H162.908V5H156.987V7ZM168.829 7H174.75V5H168.829V7ZM180.671 7H186.592V5H180.671V7ZM192.513 7H198.434V5H192.513V7ZM204.355 7H210.276V5H204.355V7ZM216.197 7H222.118V5H216.197V7ZM228.039 7H233.96V5H228.039V7ZM239.882 7H245.803V5H239.882V7ZM251.724 7H257.645V5H251.724V7ZM263.566 7H269.487V5H263.566V7ZM275.408 7H281.329V5H275.408V7ZM287.25 7H293.171V5H287.25V7ZM299.092 7H305.013V5H299.092V7ZM310.934 7H316.855V5H310.934V7ZM322.776 7H328.697V5H322.776V7ZM334.618 7H340.539V5H334.618V7ZM346.46 7H352.382V5H346.46V7ZM358.303 7H364.224V5H358.303V7ZM370.145 7H376.066V5H370.145V7ZM381.987 7H387.908V5H381.987V7ZM393.829 7H399.75V5H393.829V7ZM405.671 7H411.592V5H405.671V7ZM417.513 7H423.434V5H417.513V7ZM429.355 7H435.276V5H429.355V7ZM441.197 7H447.118V5H441.197V7Z" fill="#06FF61"/>
</svg>
