<svg width="456" height="12" viewBox="0 0 456 12" fill="none" xmlns="http://www.w3.org/2000/svg">
<path d="M452.667 6C452.667 7.47276 451.473 8.66667 450 8.66667C448.527 8.66667 447.333 7.47276 447.333 6C447.333 4.52724 448.527 3.33333 450 3.33333C451.473 3.33333 452.667 4.52724 452.667 6ZM0 6L5 3.11325V8.88675L0 6ZM450 6.5H447.039V5.5H450V6.5ZM441.118 6.5H435.197V5.5H441.118V6.5ZM429.276 6.5H423.355V5.5H429.276V6.5ZM417.434 6.5H411.513V5.5H417.434V6.5ZM405.592 6.5H399.671V5.5H405.592V6.5ZM393.75 6.5H387.829V5.5H393.75V6.5ZM381.908 6.5H375.987V5.5H381.908V6.5ZM370.066 6.5H364.145V5.5H370.066V6.5ZM358.224 6.5H352.303V5.5H358.224V6.5ZM346.382 6.5H340.461V5.5H346.382V6.5ZM334.539 6.5H328.618V5.5H334.539V6.5ZM322.697 6.5H316.776V5.5H322.697V6.5ZM310.855 6.5H304.934V5.5H310.855V6.5ZM299.013 6.5H293.092V5.5H299.013V6.5ZM287.171 6.5H281.25V5.5H287.171V6.5ZM275.329 6.5H269.408V5.5H275.329V6.5ZM263.487 6.5H257.566V5.5H263.487V6.5ZM251.645 6.5H245.724V5.5H251.645V6.5ZM239.803 6.5H233.882V5.5H239.803V6.5ZM227.961 6.5H222.04V5.5H227.961V6.5ZM216.118 6.5H210.197V5.5H216.118V6.5ZM204.276 6.5H198.355V5.5H204.276V6.5ZM192.434 6.5H186.513V5.5H192.434V6.5ZM180.592 6.5H174.671V5.5H180.592V6.5ZM168.75 6.5H162.829V5.5H168.75V6.5ZM156.908 6.5H150.987V5.5H156.908V6.5ZM145.066 6.5H139.145V5.5H145.066V6.5ZM133.224 6.5H127.303V5.5H133.224V6.5ZM121.382 6.5H115.461V5.5H121.382V6.5ZM109.54 6.5H103.618V5.5H109.54V6.5ZM97.6974 6.5H91.7764V5.5H97.6974V6.5ZM85.8553 6.5H79.9343V5.5H85.8553V6.5ZM74.0132 6.5H68.0922V5.5H74.0132V6.5ZM62.1711 6.5H56.2501V5.5H62.1711V6.5ZM50.329 6.5H44.408V5.5H50.329V6.5ZM38.4869 6.5H32.5659V5.5H38.4869V6.5ZM26.6448 6.5H20.7238V5.5H26.6448V6.5ZM14.8027 6.5H8.88168V5.5H14.8027V6.5ZM455.333 6C455.333 8.94552 452.946 11.3333 450 11.3333C447.054 11.3333 444.667 8.94552 444.667 6C444.667 3.05448 447.054 0.666667 450 0.666667C452.946 0.666667 455.333 3.05448 455.333 6ZM0 6L10 0.226497V11.7735L0 6ZM450 7H447.039V5H450V7ZM441.118 7H435.197V5H441.118V7ZM429.276 7H423.355V5H429.276V7ZM417.434 7H411.513V5H417.434V7ZM405.592 7H399.671V5H405.592V7ZM393.75 7H387.829V5H393.75V7ZM381.908 7H375.987V5H381.908V7ZM370.066 7H364.145V5H370.066V7ZM358.224 7H352.303V5H358.224V7ZM346.382 7H340.461V5H346.382V7ZM334.539 7H328.618V5H334.539V7ZM322.697 7H316.776V5H322.697V7ZM310.855 7H304.934V5H310.855V7ZM299.013 7H293.092V5H299.013V7ZM287.171 7H281.25V5H287.171V7ZM275.329 7H269.408V5H275.329V7ZM263.487 7H257.566V5H263.487V7ZM251.645 7H245.724V5H251.645V7ZM239.803 7H233.882V5H239.803V7ZM227.961 7H222.04V5H227.961V7ZM216.118 7H210.197V5H216.118V7ZM204.276 7H198.355V5H204.276V7ZM192.434 7H186.513V5H192.434V7ZM180.592 7H174.671V5H180.592V7ZM168.75 7H162.829V5H168.75V7ZM156.908 7H150.987V5H156.908V7ZM145.066 7H139.145V5H145.066V7ZM133.224 7H127.303V5H133.224V7ZM121.382 7H115.461V5H121.382V7ZM109.54 7H103.618V5H109.54V7ZM97.6974 7H91.7764V5H97.6974V7ZM85.8553 7H79.9343V5H85.8553V7ZM74.0132 7H68.0922V5H74.0132V7ZM62.1711 7H56.2501V5H62.1711V7ZM50.329 7H44.408V5H50.329V7ZM38.4869 7H32.5659V5H38.4869V7ZM26.6448 7H20.7238V5H26.6448V7ZM14.8027 7H8.88168V5H14.8027V7Z" fill="#06FF61"/>
</svg>
