<svg width="119" height="31" viewBox="0 0 119 31" fill="none" xmlns="http://www.w3.org/2000/svg">
<path d="M5.38906 0.679998V30.44H0.589063V0.679998H5.38906ZM25.5797 19C25.5797 17.1867 25.153 15.7733 24.2997 14.76C23.4464 13.7467 22.233 13.24 20.6597 13.24C19.6997 13.24 18.8197 13.48 18.0197 13.96C17.2464 14.44 16.633 15.12 16.1797 16C15.7264 16.88 15.513 17.88 15.5397 19V30.44H10.7397V9.2H15.5397V12.76C16.153 11.7467 16.9797 10.92 18.0197 10.28C19.0597 9.64 20.1397 9.32 21.2597 9.32C22.8064 9.32 24.2597 9.62667 25.6197 10.24C27.0064 10.8533 28.1397 11.88 29.0197 13.32C29.9264 14.7333 30.3797 16.5867 30.3797 18.88V30.44H25.5797V19Z" fill="#06FF61"/>
<path d="M37.5147 30.44V13.68H33.6747V9.52H37.5147V7.44C37.5147 6.05333 37.8214 4.8 38.4347 3.68C39.0747 2.56 39.9414 1.68 41.0347 1.04C42.1547 0.373333 43.408 0.0399995 44.7947 0.0399995C45.6214 0.0399995 46.4747 0.173333 47.3547 0.439999C48.2347 0.706666 48.928 1.05333 49.4347 1.48L47.1147 4.96C46.4747 4.45333 45.8214 4.2 45.1547 4.2C44.9147 4.2 44.7414 4.21333 44.6347 4.24C43.9414 4.32 43.3814 4.65333 42.9547 5.24C42.528 5.82667 42.3147 6.56 42.3147 7.44V9.52H48.4347V13.68H42.3147V30.44H37.5147ZM65.735 18.08C65.5217 16.72 64.975 15.56 64.095 14.6C63.215 13.6133 61.9883 13.12 60.415 13.12C58.9483 13.12 57.6817 13.6 56.615 14.56C55.5483 15.52 54.895 16.6933 54.655 18.08H65.735ZM50.175 19.88C50.175 17.8 50.6017 15.96 51.455 14.36C52.335 12.7333 53.5483 11.4667 55.095 10.56C56.6417 9.65333 58.4017 9.2 60.375 9.2C63.1483 9.2 65.1883 9.88 66.495 11.24C67.8283 12.5733 68.735 13.8 69.215 14.92C69.8283 16.28 70.135 17.96 70.135 19.96C70.135 20.4667 70.1217 20.8533 70.095 21.12C70.095 21.36 70.095 21.52 70.095 21.6H54.655C54.895 23.04 55.575 24.2267 56.695 25.16C57.815 26.0933 59.055 26.56 60.415 26.56C61.535 26.56 62.455 26.4 63.175 26.08C63.9217 25.7333 64.4017 25.44 64.615 25.2C64.855 24.9333 65.135 24.6 65.455 24.2L69.335 25.84C68.695 27.1467 67.615 28.2533 66.095 29.16C64.575 30.0667 62.6683 30.52 60.375 30.52C58.4017 30.52 56.6417 30.08 55.095 29.2C53.5483 28.2933 52.335 27.04 51.455 25.44C50.6017 23.8133 50.175 21.96 50.175 19.88ZM78.5419 13.04C79.1285 11.8933 80.0085 10.96 81.1819 10.24C82.3819 9.52 83.6352 9.16 84.9419 9.16V13.44C83.7152 13.44 82.6085 13.7733 81.6219 14.44C80.6619 15.08 79.9019 15.92 79.3419 16.96C78.8085 17.9733 78.5419 19 78.5419 20.04V30.44H73.7819V9.2H78.5419V13.04ZM93.9075 9.4V30.44H89.1075V9.4H93.9075ZM88.9075 2.68C88.9075 1.90667 89.1475 1.28 89.6275 0.799999C90.1342 0.319999 90.7608 0.079999 91.5075 0.079999C92.2808 0.079999 92.9075 0.333332 93.3875 0.839999C93.8942 1.32 94.1475 1.93333 94.1475 2.68C94.1475 3.45333 93.8942 4.09333 93.3875 4.6C92.9075 5.08 92.2808 5.32 91.5075 5.32C90.7342 5.32 90.1075 5.08 89.6275 4.6C89.1475 4.09333 88.9075 3.45333 88.9075 2.68ZM110.956 19.88L118.676 30.44H112.756L108.036 23.56L103.356 30.44H97.4359L105.036 19.88L97.2359 9.2H103.196L108.036 16.36L112.796 9.2H118.796L110.956 19.88Z" fill="white"/>
</svg>
