<svg width="22" height="190" viewBox="0 0 22 190" fill="none" xmlns="http://www.w3.org/2000/svg">
<circle cx="11" cy="179" r="11" fill="#06FF61"/>
<line x1="10.5" y1="182" x2="10.5" y2="20" stroke="#06FF61" stroke-dasharray="4 4"/>
<path d="M10.1701 2.79961C10.3491 2.69187 10.5733 2.69276 10.7515 2.80192L17.1231 6.705C17.4815 6.92455 17.4794 7.44593 17.1193 7.66262L10.8304 11.4466C10.6513 11.5544 10.4272 11.5535 10.249 11.4443L3.87738 7.54122C3.51898 7.32168 3.52105 6.80029 3.88118 6.5836L10.1701 2.79961Z" fill="#06FF61"/>
<path opacity="0.3" d="M3.21804 8.61487C3.21804 8.17815 3.69561 7.90941 4.06891 8.13606L10.0781 11.7846C10.2454 11.8862 10.3476 12.0677 10.3476 12.2634L10.3476 18.2349C10.3476 18.6716 9.87007 18.9403 9.49677 18.7137L3.48754 15.0651C3.32025 14.9635 3.2181 14.782 3.2181 14.5863L3.21804 8.61487Z" fill="#06FF61"/>
<path opacity="0.5" d="M10.6524 18.2352C10.6524 18.6719 11.1299 18.9407 11.5032 18.714L17.5125 15.0655C17.6798 14.9639 17.7819 14.7824 17.7819 14.5867L17.782 8.61521C17.782 8.17849 17.3044 7.90975 16.9311 8.1364L10.9219 11.785C10.7546 11.8866 10.6524 12.0681 10.6524 12.2638L10.6524 18.2352Z" fill="#06FF61"/>
</svg>
