<svg width="98" height="40" viewBox="0 0 98 40" fill="none" xmlns="http://www.w3.org/2000/svg">
<path d="M2.45725 32V9.408H7.48125V32H2.45725ZM21.6563 32V23.136C21.6563 22.3253 21.4003 21.6747 20.8883 21.184C20.3976 20.672 19.7683 20.416 19.0003 20.416C18.4669 20.416 17.9976 20.5333 17.5923 20.768C17.1869 20.9813 16.8669 21.3013 16.6323 21.728C16.3976 22.1333 16.2803 22.6027 16.2803 23.136L14.3923 22.208C14.3923 20.992 14.6589 19.9253 15.1923 19.008C15.7256 18.0907 16.4616 17.3867 17.4003 16.896C18.3603 16.384 19.4376 16.128 20.6323 16.128C21.7843 16.128 22.7976 16.4053 23.6723 16.96C24.5683 17.4933 25.2723 18.208 25.7843 19.104C26.2963 20 26.5522 20.9813 26.5522 22.048V32H21.6563ZM11.3843 32V16.448H16.2803V32H11.3843ZM31.4933 32V15.104C31.4933 13.8453 31.7706 12.7147 32.3253 11.712C32.9013 10.688 33.7013 9.888 34.7253 9.312C35.7493 8.71467 36.9653 8.416 38.3733 8.416C39.4399 8.416 40.3679 8.59733 41.1573 8.96C41.9679 9.30133 42.6719 9.78133 43.2693 10.4L40.1973 13.472C39.9839 13.2587 39.7386 13.0987 39.4613 12.992C39.2053 12.864 38.8959 12.8 38.5333 12.8C37.8719 12.8 37.3493 12.992 36.9653 13.376C36.5813 13.76 36.3893 14.2827 36.3893 14.944V32H31.4933ZM28.0693 20.608V16.448H40.8693V20.608H28.0693ZM50.4392 32.352C48.7539 32.352 47.2499 32.0107 45.9273 31.328C44.6259 30.624 43.6019 29.6533 42.8553 28.416C42.1086 27.1787 41.7353 25.7813 41.7353 24.224C41.7353 22.6667 42.0979 21.28 42.8233 20.064C43.5699 18.8267 44.5726 17.856 45.8313 17.152C47.0899 16.448 48.5086 16.096 50.0873 16.096C51.6233 16.096 52.9779 16.4267 54.1513 17.088C55.3246 17.7493 56.2419 18.6667 56.9033 19.84C57.5859 21.0133 57.9272 22.3573 57.9272 23.872C57.9272 24.1493 57.9059 24.448 57.8633 24.768C57.8419 25.0667 57.7886 25.4187 57.7033 25.824L44.2953 25.856V22.496L55.6233 22.464L53.5113 23.872C53.4899 22.976 53.3513 22.24 53.0953 21.664C52.8393 21.0667 52.4553 20.6187 51.9433 20.32C51.4526 20 50.8446 19.84 50.1193 19.84C49.3513 19.84 48.6793 20.0213 48.1033 20.384C47.5486 20.7253 47.1113 21.216 46.7913 21.856C46.4926 22.496 46.3433 23.2747 46.3433 24.192C46.3433 25.1093 46.5033 25.8987 46.8233 26.56C47.1646 27.2 47.6339 27.7013 48.2313 28.064C48.8499 28.4053 49.5753 28.576 50.4073 28.576C51.1753 28.576 51.8686 28.448 52.4873 28.192C53.1059 27.9147 53.6499 27.5093 54.1193 26.976L56.8073 29.664C56.0393 30.56 55.1113 31.232 54.0233 31.68C52.9353 32.128 51.7406 32.352 50.4392 32.352ZM60.2905 32V16.448H65.1865V32H60.2905ZM65.1865 23.456L63.1385 21.856C63.5438 20.0427 64.2265 18.6347 65.1865 17.632C66.1465 16.6293 67.4798 16.128 69.1865 16.128C69.9332 16.128 70.5838 16.2453 71.1385 16.48C71.7145 16.6933 72.2158 17.0347 72.6425 17.504L69.7305 21.184C69.5172 20.9493 69.2505 20.768 68.9305 20.64C68.6105 20.512 68.2478 20.448 67.8425 20.448C67.0318 20.448 66.3812 20.704 65.8905 21.216C65.4212 21.7067 65.1865 22.4533 65.1865 23.456ZM73.9468 32V16.448H78.8428V32H73.9468ZM76.4108 14.304C75.6428 14.304 75.0028 14.048 74.4908 13.536C74.0001 13.0027 73.7548 12.3627 73.7548 11.616C73.7548 10.848 74.0001 10.208 74.4908 9.696C75.0028 9.184 75.6428 8.928 76.4108 8.928C77.1788 8.928 77.8081 9.184 78.2988 9.696C78.7894 10.208 79.0348 10.848 79.0348 11.616C79.0348 12.3627 78.7894 13.0027 78.2988 13.536C77.8081 14.048 77.1788 14.304 76.4108 14.304ZM91.9225 32L88.1785 25.952L87.1225 25.28L81.0105 16.448H86.7385L90.2265 22.112L91.2505 22.752L97.5865 32H91.9225ZM80.7225 32L87.0905 22.944L89.8745 26.08L86.0665 32H80.7225ZM91.2185 25.248L88.4345 22.112L91.9545 16.448H97.2665L91.2185 25.248Z" fill="black"/>
</svg>
