<svg width="316" height="21" viewBox="0 0 316 21" fill="none" xmlns="http://www.w3.org/2000/svg">
<mask id="mask0_230_668" style="mask-type:alpha" maskUnits="userSpaceOnUse" x="0" y="0" width="21" height="21">
<path d="M0 20.3992V0H3.39917V20.3992H0Z" fill="white"/>
<path d="M6.80664 20.3992V3.39917H10.2058V6.80249H13.605V10.2017H10.2058V20.3992H6.80664ZM17.0042 20.3992V13.6008H13.605V10.2017H17.0042V3.39917H20.4033V20.3992H17.0042Z" fill="white"/>
</mask>
<g mask="url(#mask0_230_668)">
<rect y="-2" width="22" height="24" fill="#06FF61"/>
</g>
<path d="M24.4033 20.3992V3.39917H38V6.80249H27.8025V10.2017H38V13.6008H27.8025V20.3992H24.4033Z" fill="white"/>
<path d="M51.6008 10.2017V6.80249H44.8025V10.2017H51.6008ZM41.4033 20.3992V3.39917H55V13.6008H44.8025V17H55V20.3992H41.4033Z" fill="white"/>
<path d="M58.4033 20.3992V3.39917H72V6.80249H61.8025V20.3992H58.4033Z" fill="white"/>
<path d="M75.4033 20.3992V10.2017H78.8025V20.3992H75.4033ZM75.4033 6.80249V3.39917H78.8025V6.80249H75.4033Z" fill="white"/>
<path d="M82.21 20.3992V17H85.6091V20.3992H82.21ZM95.8066 20.3992V17H99.21V20.3992H95.8066ZM85.6091 17V13.6008H89.0083V17H85.6091ZM92.4075 17V13.6008H95.8066V17H92.4075ZM89.0083 13.6008V10.2017H92.4075V13.6008H89.0083ZM85.6091 10.2017V6.80249H89.0083V10.2017H85.6091ZM92.4075 10.2017V6.80249H95.8066V10.2017H92.4075ZM82.21 6.80249V3.39917H85.6091V6.80249H82.21ZM95.8066 6.80249V3.39917H99.21V6.80249H95.8066Z" fill="white"/>
<path d="M117.514 16.3992V15.0232H120.602C121.423 15.0232 122.143 14.8472 122.762 14.4952C123.381 14.1325 123.861 13.6365 124.202 13.0072C124.554 12.3778 124.73 11.6525 124.73 10.8312C124.73 10.0205 124.554 9.3005 124.202 8.67117C123.85 8.04184 123.365 7.55117 122.746 7.19917C122.127 6.84717 121.413 6.67117 120.602 6.67117H117.53V5.29517H120.634C121.445 5.29517 122.191 5.43384 122.874 5.71117C123.567 5.9885 124.165 6.37784 124.666 6.87917C125.178 7.3805 125.573 7.96717 125.85 8.63917C126.138 9.31117 126.282 10.0472 126.282 10.8472C126.282 11.6365 126.138 12.3725 125.85 13.0552C125.573 13.7272 125.183 14.3138 124.682 14.8152C124.181 15.3165 123.583 15.7058 122.89 15.9832C122.207 16.2605 121.466 16.3992 120.666 16.3992H117.514ZM116.522 16.3992V5.29517H118.026V16.3992H116.522ZM131.63 16.5592C130.872 16.5592 130.19 16.3885 129.582 16.0472C128.974 15.6952 128.494 15.2205 128.142 14.6232C127.79 14.0258 127.614 13.3485 127.614 12.5912C127.614 11.8445 127.784 11.1725 128.126 10.5752C128.478 9.97784 128.947 9.5085 129.534 9.16717C130.131 8.81517 130.798 8.63917 131.534 8.63917C132.238 8.63917 132.856 8.79917 133.39 9.11917C133.934 9.43917 134.355 9.88184 134.654 10.4472C134.963 11.0125 135.118 11.6525 135.118 12.3672C135.118 12.4738 135.112 12.5912 135.102 12.7192C135.091 12.8365 135.07 12.9752 135.038 13.1352H128.622V11.9352H134.27L133.742 12.3992C133.742 11.8872 133.651 11.4552 133.47 11.1032C133.288 10.7405 133.032 10.4632 132.702 10.2712C132.371 10.0685 131.971 9.96717 131.502 9.96717C131.011 9.96717 130.579 10.0738 130.206 10.2872C129.832 10.5005 129.544 10.7992 129.342 11.1832C129.139 11.5672 129.038 12.0205 129.038 12.5432C129.038 13.0765 129.144 13.5458 129.358 13.9512C129.571 14.3458 129.875 14.6552 130.27 14.8792C130.664 15.0925 131.118 15.1992 131.63 15.1992C132.056 15.1992 132.446 15.1245 132.798 14.9752C133.16 14.8258 133.47 14.6018 133.726 14.3032L134.654 15.2472C134.291 15.6738 133.843 15.9992 133.31 16.2232C132.787 16.4472 132.227 16.5592 131.63 16.5592ZM140.16 16.5592C139.413 16.5592 138.736 16.3832 138.128 16.0312C137.531 15.6792 137.056 15.2045 136.704 14.6072C136.363 13.9992 136.192 13.3272 136.192 12.5912C136.192 11.8445 136.363 11.1725 136.704 10.5752C137.056 9.97784 137.531 9.5085 138.128 9.16717C138.736 8.81517 139.413 8.63917 140.16 8.63917C140.747 8.63917 141.291 8.75117 141.792 8.97517C142.293 9.1885 142.725 9.50317 143.088 9.91917L142.128 10.8792C141.893 10.6018 141.605 10.3938 141.264 10.2552C140.933 10.1058 140.565 10.0312 140.16 10.0312C139.68 10.0312 139.253 10.1432 138.88 10.3672C138.507 10.5805 138.213 10.8792 138 11.2632C137.787 11.6472 137.68 12.0898 137.68 12.5912C137.68 13.0925 137.787 13.5352 138 13.9192C138.213 14.3032 138.507 14.6072 138.88 14.8312C139.253 15.0552 139.68 15.1672 140.16 15.1672C140.565 15.1672 140.933 15.0978 141.264 14.9592C141.605 14.8098 141.899 14.5965 142.144 14.3192L143.088 15.2792C142.736 15.6845 142.304 15.9992 141.792 16.2232C141.291 16.4472 140.747 16.5592 140.16 16.5592ZM147.88 16.5592C147.122 16.5592 146.44 16.3885 145.832 16.0472C145.224 15.6952 144.744 15.2205 144.392 14.6232C144.04 14.0258 143.864 13.3485 143.864 12.5912C143.864 11.8445 144.034 11.1725 144.376 10.5752C144.728 9.97784 145.197 9.5085 145.784 9.16717C146.381 8.81517 147.048 8.63917 147.784 8.63917C148.488 8.63917 149.106 8.79917 149.64 9.11917C150.184 9.43917 150.605 9.88184 150.904 10.4472C151.213 11.0125 151.368 11.6525 151.368 12.3672C151.368 12.4738 151.362 12.5912 151.352 12.7192C151.341 12.8365 151.32 12.9752 151.288 13.1352H144.872V11.9352H150.52L149.992 12.3992C149.992 11.8872 149.901 11.4552 149.72 11.1032C149.538 10.7405 149.282 10.4632 148.952 10.2712C148.621 10.0685 148.221 9.96717 147.752 9.96717C147.261 9.96717 146.829 10.0738 146.456 10.2872C146.082 10.5005 145.794 10.7992 145.592 11.1832C145.389 11.5672 145.288 12.0205 145.288 12.5432C145.288 13.0765 145.394 13.5458 145.608 13.9512C145.821 14.3458 146.125 14.6552 146.52 14.8792C146.914 15.0925 147.368 15.1992 147.88 15.1992C148.306 15.1992 148.696 15.1245 149.048 14.9752C149.41 14.8258 149.72 14.6018 149.976 14.3032L150.904 15.2472C150.541 15.6738 150.093 15.9992 149.56 16.2232C149.037 16.4472 148.477 16.5592 147.88 16.5592ZM158.314 16.3992V11.9672C158.314 11.3912 158.133 10.9165 157.77 10.5432C157.407 10.1698 156.938 9.98317 156.362 9.98317C155.978 9.98317 155.637 10.0685 155.338 10.2392C155.039 10.4098 154.805 10.6445 154.634 10.9432C154.463 11.2418 154.378 11.5832 154.378 11.9672L153.786 11.6312C153.786 11.0552 153.914 10.5432 154.17 10.0952C154.426 9.64717 154.783 9.29517 155.242 9.03917C155.701 8.7725 156.218 8.63917 156.794 8.63917C157.37 8.63917 157.877 8.78317 158.314 9.07117C158.762 9.35917 159.114 9.73784 159.37 10.2072C159.626 10.6658 159.754 11.1565 159.754 11.6792V16.3992H158.314ZM152.938 16.3992V8.79917H154.378V16.3992H152.938ZM162.778 16.3992V5.61517H164.218V16.3992H162.778ZM160.906 10.1112V8.79917H166.09V10.1112H160.906ZM167.5 16.3992V8.79917H168.94V16.3992H167.5ZM168.94 12.0632L168.396 11.8232C168.396 10.8525 168.62 10.0792 169.068 9.50317C169.516 8.92717 170.162 8.63917 171.004 8.63917C171.388 8.63917 171.735 8.7085 172.044 8.84717C172.354 8.97517 172.642 9.19384 172.908 9.50317L171.964 10.4792C171.804 10.3085 171.628 10.1858 171.436 10.1112C171.244 10.0365 171.02 9.99917 170.764 9.99917C170.231 9.99917 169.794 10.1698 169.452 10.5112C169.111 10.8525 168.94 11.3698 168.94 12.0632ZM176.904 16.5592C176.211 16.5592 175.582 16.3885 175.016 16.0472C174.451 15.6952 174.003 15.2205 173.672 14.6232C173.352 14.0258 173.192 13.3538 173.192 12.6072C173.192 11.8605 173.352 11.1885 173.672 10.5912C174.003 9.99384 174.446 9.51917 175 9.16717C175.566 8.81517 176.2 8.63917 176.904 8.63917C177.48 8.63917 177.992 8.76184 178.44 9.00717C178.899 9.24184 179.267 9.5725 179.544 9.99917C179.822 10.4152 179.976 10.9005 180.008 11.4552V13.7432C179.976 14.2872 179.822 14.7725 179.544 15.1992C179.278 15.6258 178.915 15.9618 178.456 16.2072C178.008 16.4418 177.491 16.5592 176.904 16.5592ZM177.144 15.1992C177.859 15.1992 178.435 14.9592 178.872 14.4792C179.31 13.9885 179.528 13.3645 179.528 12.6072C179.528 12.0845 179.427 11.6312 179.224 11.2472C179.032 10.8525 178.755 10.5485 178.392 10.3352C178.03 10.1112 177.608 9.99917 177.128 9.99917C176.648 9.99917 176.222 10.1112 175.848 10.3352C175.486 10.5592 175.198 10.8685 174.984 11.2632C174.782 11.6472 174.68 12.0898 174.68 12.5912C174.68 13.1032 174.782 13.5565 174.984 13.9512C175.198 14.3352 175.491 14.6392 175.864 14.8632C176.238 15.0872 176.664 15.1992 177.144 15.1992ZM179.432 16.3992V14.3512L179.704 12.4952L179.432 10.6552V8.79917H180.888V16.3992H179.432ZM182.377 15.6152L186.889 9.58317H188.585L184.073 15.6152H182.377ZM182.377 16.3992V15.6152L183.657 15.0872H188.489V16.3992H182.377ZM182.649 10.1112V8.79917H188.585V9.58317L187.257 10.1112H182.649ZM190.141 16.3992V4.97517H191.581V16.3992H190.141ZM193.704 16.3992V8.79917H195.144V16.3992H193.704ZM194.424 7.27917C194.157 7.27917 193.939 7.19384 193.768 7.02317C193.597 6.84184 193.512 6.61784 193.512 6.35117C193.512 6.09517 193.597 5.88184 193.768 5.71117C193.939 5.52984 194.157 5.43917 194.424 5.43917C194.691 5.43917 194.909 5.52984 195.08 5.71117C195.251 5.88184 195.336 6.09517 195.336 6.35117C195.336 6.61784 195.251 6.84184 195.08 7.02317C194.909 7.19384 194.691 7.27917 194.424 7.27917ZM200.786 16.5592C200.029 16.5592 199.346 16.3885 198.738 16.0472C198.13 15.6952 197.65 15.2205 197.298 14.6232C196.946 14.0258 196.77 13.3485 196.77 12.5912C196.77 11.8445 196.941 11.1725 197.282 10.5752C197.634 9.97784 198.103 9.5085 198.69 9.16717C199.287 8.81517 199.954 8.63917 200.69 8.63917C201.394 8.63917 202.013 8.79917 202.546 9.11917C203.09 9.43917 203.511 9.88184 203.81 10.4472C204.119 11.0125 204.274 11.6525 204.274 12.3672C204.274 12.4738 204.269 12.5912 204.258 12.7192C204.247 12.8365 204.226 12.9752 204.194 13.1352H197.778V11.9352H203.426L202.898 12.3992C202.898 11.8872 202.807 11.4552 202.626 11.1032C202.445 10.7405 202.189 10.4632 201.858 10.2712C201.527 10.0685 201.127 9.96717 200.658 9.96717C200.167 9.96717 199.735 10.0738 199.362 10.2872C198.989 10.5005 198.701 10.7992 198.498 11.1832C198.295 11.5672 198.194 12.0205 198.194 12.5432C198.194 13.0765 198.301 13.5458 198.514 13.9512C198.727 14.3458 199.031 14.6552 199.426 14.8792C199.821 15.0925 200.274 15.1992 200.786 15.1992C201.213 15.1992 201.602 15.1245 201.954 14.9752C202.317 14.8258 202.626 14.6018 202.882 14.3032L203.81 15.2472C203.447 15.6738 202.999 15.9992 202.466 16.2232C201.943 16.4472 201.383 16.5592 200.786 16.5592ZM209.06 16.5592C208.356 16.5592 207.727 16.3885 207.172 16.0472C206.617 15.6952 206.175 15.2205 205.844 14.6232C205.524 14.0258 205.364 13.3538 205.364 12.6072C205.364 11.8605 205.524 11.1885 205.844 10.5912C206.175 9.99384 206.617 9.51917 207.172 9.16717C207.727 8.81517 208.356 8.63917 209.06 8.63917C209.625 8.63917 210.137 8.76184 210.596 9.00717C211.055 9.24184 211.423 9.5725 211.7 9.99917C211.988 10.4152 212.148 10.9005 212.18 11.4552V13.7432C212.148 14.2872 211.993 14.7725 211.716 15.1992C211.439 15.6258 211.071 15.9618 210.612 16.2072C210.153 16.4418 209.636 16.5592 209.06 16.5592ZM209.3 15.1992C209.78 15.1992 210.196 15.0872 210.548 14.8632C210.911 14.6392 211.193 14.3352 211.396 13.9512C211.599 13.5565 211.7 13.1085 211.7 12.6072C211.7 12.0845 211.593 11.6312 211.38 11.2472C211.177 10.8632 210.895 10.5592 210.532 10.3352C210.18 10.1112 209.764 9.99917 209.284 9.99917C208.804 9.99917 208.383 10.1112 208.02 10.3352C207.657 10.5592 207.369 10.8685 207.156 11.2632C206.953 11.6472 206.852 12.0898 206.852 12.5912C206.852 13.1032 206.953 13.5565 207.156 13.9512C207.369 14.3352 207.657 14.6392 208.02 14.8632C208.393 15.0872 208.82 15.1992 209.3 15.1992ZM213.06 16.3992H211.604V14.3512L211.876 12.4952L211.604 10.6552V4.97517H213.06V16.3992ZM223.765 16.5592C222.986 16.5592 222.255 16.4152 221.573 16.1272C220.901 15.8285 220.309 15.4178 219.797 14.8952C219.295 14.3725 218.901 13.7645 218.613 13.0712C218.325 12.3778 218.181 11.6312 218.181 10.8312C218.181 10.0312 218.325 9.28984 218.613 8.60717C218.901 7.91384 219.301 7.30584 219.813 6.78317C220.325 6.2605 220.922 5.85517 221.605 5.56717C222.298 5.27917 223.05 5.13517 223.861 5.13517C224.746 5.13517 225.562 5.30584 226.309 5.64717C227.055 5.9885 227.679 6.47917 228.181 7.11917L227.141 8.15917C226.789 7.64717 226.325 7.25784 225.749 6.99117C225.173 6.71384 224.543 6.57517 223.861 6.57517C223.05 6.57517 222.33 6.7565 221.701 7.11917C221.082 7.48184 220.597 7.98317 220.245 8.62317C219.903 9.26317 219.733 9.99917 219.733 10.8312C219.733 11.6738 219.909 12.4152 220.261 13.0552C220.613 13.6952 221.087 14.1965 221.685 14.5592C222.282 14.9218 222.965 15.1032 223.733 15.1032C224.511 15.1032 225.183 14.9538 225.749 14.6552C226.325 14.3565 226.767 13.9192 227.077 13.3432C227.386 12.7565 227.541 12.0418 227.541 11.1992L228.453 11.8552H223.653V10.4792H229.093V10.7032C229.093 11.9938 228.863 13.0765 228.405 13.9512C227.957 14.8152 227.327 15.4658 226.517 15.9032C225.717 16.3405 224.799 16.5592 223.765 16.5592ZM232.124 12.0792V10.7672H235.148C235.564 10.7672 235.932 10.6818 236.252 10.5112C236.582 10.3405 236.838 10.1005 237.02 9.79117C237.212 9.48184 237.308 9.11384 237.308 8.68717C237.308 8.2605 237.212 7.8925 237.02 7.58317C236.838 7.27384 236.582 7.03384 236.252 6.86317C235.932 6.6925 235.564 6.60717 235.148 6.60717H232.124V5.29517H235.244C235.926 5.29517 236.534 5.43384 237.068 5.71117C237.612 5.9885 238.038 6.38317 238.348 6.89517C238.668 7.3965 238.828 7.99384 238.828 8.68717C238.828 9.36984 238.668 9.96717 238.348 10.4792C238.038 10.9805 237.612 11.3752 237.068 11.6632C236.534 11.9405 235.926 12.0792 235.244 12.0792H232.124ZM231.116 16.3992V5.29517H232.62V16.3992H231.116ZM244.979 16.5592C244.158 16.5592 243.422 16.3778 242.771 16.0152C242.131 15.6418 241.624 15.1352 241.251 14.4952C240.878 13.8445 240.691 13.1085 240.691 12.2872V5.29517H242.195V12.2552C242.195 12.8418 242.318 13.3485 242.563 13.7752C242.808 14.2018 243.139 14.5325 243.555 14.7672C243.982 15.0018 244.456 15.1192 244.979 15.1192C245.523 15.1192 245.998 15.0018 246.403 14.7672C246.819 14.5325 247.144 14.2018 247.379 13.7752C247.624 13.3485 247.747 12.8472 247.747 12.2712V5.29517H249.267V12.3032C249.267 13.1245 249.08 13.8552 248.707 14.4952C248.334 15.1352 247.827 15.6418 247.187 16.0152C246.547 16.3778 245.811 16.5592 244.979 16.5592ZM255.069 16.3992V5.29517H256.125L256.573 7.03917V16.3992H255.069ZM262.749 16.3992L255.933 7.29517L256.125 5.29517L262.957 14.3832L262.749 16.3992ZM262.749 16.3992L262.301 14.7512V5.29517H263.805V16.3992H262.749ZM269.692 16.5592C268.935 16.5592 268.252 16.3885 267.644 16.0472C267.036 15.6952 266.556 15.2205 266.204 14.6232C265.852 14.0258 265.676 13.3485 265.676 12.5912C265.676 11.8445 265.847 11.1725 266.188 10.5752C266.54 9.97784 267.01 9.5085 267.596 9.16717C268.194 8.81517 268.86 8.63917 269.596 8.63917C270.3 8.63917 270.919 8.79917 271.452 9.11917C271.996 9.43917 272.418 9.88184 272.716 10.4472C273.026 11.0125 273.18 11.6525 273.18 12.3672C273.18 12.4738 273.175 12.5912 273.164 12.7192C273.154 12.8365 273.132 12.9752 273.1 13.1352H266.684V11.9352H272.332L271.804 12.3992C271.804 11.8872 271.714 11.4552 271.532 11.1032C271.351 10.7405 271.095 10.4632 270.764 10.2712C270.434 10.0685 270.034 9.96717 269.564 9.96717C269.074 9.96717 268.642 10.0738 268.268 10.2872C267.895 10.5005 267.607 10.7992 267.404 11.1832C267.202 11.5672 267.1 12.0205 267.1 12.5432C267.1 13.0765 267.207 13.5458 267.42 13.9512C267.634 14.3458 267.938 14.6552 268.332 14.8792C268.727 15.0925 269.18 15.1992 269.692 15.1992C270.119 15.1992 270.508 15.1245 270.86 14.9752C271.223 14.8258 271.532 14.6018 271.788 14.3032L272.716 15.2472C272.354 15.6738 271.906 15.9992 271.372 16.2232C270.85 16.4472 270.29 16.5592 269.692 16.5592ZM275.684 16.3992V5.61517H277.124V16.3992H275.684ZM273.812 10.1112V8.79917H278.996V10.1112H273.812ZM282.583 16.3992L279.575 8.79917H281.079L283.255 14.7192H282.775L284.935 8.79917H285.767L287.927 14.7192H287.447L289.623 8.79917H291.127L288.135 16.3992H287.287L285.095 10.6552H285.623L283.415 16.3992H282.583ZM295.66 16.5592C294.913 16.5592 294.241 16.3832 293.644 16.0312C293.047 15.6792 292.572 15.2045 292.22 14.6072C291.868 13.9992 291.692 13.3218 291.692 12.5752C291.692 11.8392 291.868 11.1778 292.22 10.5912C292.572 9.99384 293.047 9.51917 293.644 9.16717C294.241 8.81517 294.913 8.63917 295.66 8.63917C296.396 8.63917 297.063 8.81517 297.66 9.16717C298.268 9.5085 298.748 9.97784 299.1 10.5752C299.452 11.1725 299.628 11.8392 299.628 12.5752C299.628 13.3218 299.452 13.9992 299.1 14.6072C298.748 15.2045 298.268 15.6792 297.66 16.0312C297.063 16.3832 296.396 16.5592 295.66 16.5592ZM295.66 15.1672C296.14 15.1672 296.567 15.0552 296.94 14.8312C297.313 14.6072 297.607 14.3032 297.82 13.9192C298.033 13.5245 298.14 13.0765 298.14 12.5752C298.14 12.0845 298.028 11.6472 297.804 11.2632C297.591 10.8792 297.297 10.5805 296.924 10.3672C296.561 10.1432 296.14 10.0312 295.66 10.0312C295.18 10.0312 294.753 10.1432 294.38 10.3672C294.007 10.5805 293.713 10.8792 293.5 11.2632C293.287 11.6472 293.18 12.0845 293.18 12.5752C293.18 13.0765 293.287 13.5245 293.5 13.9192C293.713 14.3032 294.007 14.6072 294.38 14.8312C294.753 15.0552 295.18 15.1672 295.66 15.1672ZM301.25 16.3992V8.79917H302.69V16.3992H301.25ZM302.69 12.0632L302.146 11.8232C302.146 10.8525 302.37 10.0792 302.818 9.50317C303.266 8.92717 303.912 8.63917 304.754 8.63917C305.138 8.63917 305.485 8.7085 305.794 8.84717C306.104 8.97517 306.392 9.19384 306.658 9.50317L305.714 10.4792C305.554 10.3085 305.378 10.1858 305.186 10.1112C304.994 10.0365 304.77 9.99917 304.514 9.99917C303.981 9.99917 303.544 10.1698 303.202 10.5112C302.861 10.8525 302.69 11.3698 302.69 12.0632ZM312.536 16.3992L308.984 12.5112L312.504 8.79917H314.248L310.328 12.8952L310.392 12.0632L314.392 16.3992H312.536ZM307.672 16.3992V4.97517H309.112V16.3992H307.672Z" fill="white"/>
</svg>
