<svg width="657" height="166" viewBox="0 0 657 166" fill="none" xmlns="http://www.w3.org/2000/svg">
<path d="M645.667 54C645.667 51.0545 648.055 48.6667 651 48.6667C653.945 48.6667 656.333 51.0545 656.333 54C656.333 56.9455 653.945 59.3333 651 59.3333C648.055 59.3333 645.667 56.9455 645.667 54ZM6 166L0.226497 156H11.7735L6 166ZM6 1H5V0H6V1ZM651 1V0H652V1H651ZM5 163.054C5 162.501 5.44772 162.054 6 162.054C6.55228 162.054 7 162.501 7 163.054H5ZM7 157.161C7 157.713 6.55228 158.161 6 158.161C5.44772 158.161 5 157.713 5 157.161H7ZM5 151.268C5 150.716 5.44772 150.268 6 150.268C6.55228 150.268 7 150.716 7 151.268H5ZM7 145.375C7 145.927 6.55228 146.375 6 146.375C5.44772 146.375 5 145.927 5 145.375H7ZM5 139.482C5 138.93 5.44772 138.482 6 138.482C6.55228 138.482 7 138.93 7 139.482H5ZM7 133.589C7 134.142 6.55228 134.589 6 134.589C5.44772 134.589 5 134.142 5 133.589H7ZM5 127.696C5 127.144 5.44772 126.696 6 126.696C6.55228 126.696 7 127.144 7 127.696H5ZM7 121.804C7 122.356 6.55228 122.804 6 122.804C5.44772 122.804 5 122.356 5 121.804H7ZM5 115.911C5 115.358 5.44772 114.911 6 114.911C6.55228 114.911 7 115.358 7 115.911H5ZM7 110.018C7 110.57 6.55228 111.018 6 111.018C5.44772 111.018 5 110.57 5 110.018H7ZM5 104.125C5 103.573 5.44772 103.125 6 103.125C6.55228 103.125 7 103.573 7 104.125H5ZM7 98.2321C7 98.7844 6.55228 99.2321 6 99.2321C5.44772 99.2321 5 98.7844 5 98.2321H7ZM5 92.3393C5 91.787 5.44772 91.3393 6 91.3393C6.55228 91.3393 7 91.787 7 92.3393H5ZM7 86.4464C7 86.9987 6.55228 87.4464 6 87.4464C5.44772 87.4464 5 86.9987 5 86.4464H7ZM5 80.5536C5 80.0013 5.44772 79.5536 6 79.5536C6.55228 79.5536 7 80.0013 7 80.5536H5ZM7 74.6607C7 75.213 6.55228 75.6607 6 75.6607C5.44772 75.6607 5 75.213 5 74.6607H7ZM5 68.7678C5 68.2156 5.44772 67.7678 6 67.7678C6.55228 67.7678 7 68.2156 7 68.7678H5ZM7 62.875C7 63.4273 6.55228 63.875 6 63.875C5.44772 63.875 5 63.4273 5 62.875H7ZM5 56.9821C5 56.4298 5.44772 55.9821 6 55.9821C6.55228 55.9821 7 56.4298 7 56.9821H5ZM7 51.0893C7 51.6415 6.55228 52.0893 6 52.0893C5.44772 52.0893 5 51.6415 5 51.0893H7ZM5 45.1964C5 44.6441 5.44772 44.1964 6 44.1964C6.55228 44.1964 7 44.6441 7 45.1964H5ZM7 39.3035C7 39.8558 6.55228 40.3035 6 40.3035C5.44772 40.3035 5 39.8558 5 39.3035H7ZM5 33.4107C5 32.8584 5.44772 32.4107 6 32.4107C6.55228 32.4107 7 32.8584 7 33.4107H5ZM7 27.5178C7 28.0701 6.55228 28.5178 6 28.5178C5.44772 28.5178 5 28.0701 5 27.5178H7ZM5 21.625C5 21.0727 5.44772 20.625 6 20.625C6.55228 20.625 7 21.0727 7 21.625H5ZM7 15.7321C7 16.2844 6.55228 16.7321 6 16.7321C5.44772 16.7321 5 16.2844 5 15.7321H7ZM5 9.83928C5 9.287 5.44772 8.83928 6 8.83928C6.55228 8.83928 7 9.287 7 9.83928H5ZM7 3.94643C7 4.49872 6.55228 4.94643 6 4.94643C5.44772 4.94643 5 4.49872 5 3.94643H7ZM8.98611 0C9.5384 0 9.98611 0.447708 9.98611 1C9.98611 1.55229 9.5384 2 8.98611 2V0ZM14.9583 2C14.406 2 13.9583 1.55229 13.9583 1C13.9583 0.447708 14.406 0 14.9583 0V2ZM20.9306 0C21.4828 0 21.9306 0.447708 21.9306 1C21.9306 1.55229 21.4828 2 20.9306 2V0ZM26.9028 2C26.3505 2 25.9028 1.55229 25.9028 1C25.9028 0.447708 26.3505 0 26.9028 0V2ZM32.875 0C33.4273 0 33.875 0.447708 33.875 1C33.875 1.55229 33.4273 2 32.875 2V0ZM38.8472 2C38.2949 2 37.8472 1.55229 37.8472 1C37.8472 0.447708 38.2949 0 38.8472 0V2ZM44.8194 0C45.3717 0 45.8194 0.447708 45.8194 1C45.8194 1.55229 45.3717 2 44.8194 2V0ZM50.7917 2C50.2394 2 49.7917 1.55229 49.7917 1C49.7917 0.447708 50.2394 0 50.7917 0V2ZM56.7639 0C57.3162 0 57.7639 0.447708 57.7639 1C57.7639 1.55229 57.3162 2 56.7639 2V0ZM62.7361 2C62.1838 2 61.7361 1.55229 61.7361 1C61.7361 0.447708 62.1838 0 62.7361 0V2ZM68.7083 0C69.2606 0 69.7083 0.447708 69.7083 1C69.7083 1.55229 69.2606 2 68.7083 2V0ZM74.6805 2C74.1283 2 73.6805 1.55229 73.6805 1C73.6805 0.447708 74.1283 0 74.6805 0V2ZM80.6528 0C81.2051 0 81.6528 0.447708 81.6528 1C81.6528 1.55229 81.2051 2 80.6528 2V0ZM86.625 2C86.0727 2 85.625 1.55229 85.625 1C85.625 0.447708 86.0727 0 86.625 0V2ZM92.5972 0C93.1495 0 93.5972 0.447708 93.5972 1C93.5972 1.55229 93.1495 2 92.5972 2V0ZM98.5694 2C98.0172 2 97.5694 1.55229 97.5694 1C97.5694 0.447708 98.0172 0 98.5694 0V2ZM104.542 0C105.094 0 105.542 0.447708 105.542 1C105.542 1.55229 105.094 2 104.542 2V0ZM110.514 2C109.962 2 109.514 1.55229 109.514 1C109.514 0.447708 109.962 0 110.514 0V2ZM116.486 0C117.038 0 117.486 0.447708 117.486 1C117.486 1.55229 117.038 2 116.486 2V0ZM122.458 2C121.906 2 121.458 1.55229 121.458 1C121.458 0.447708 121.906 0 122.458 0V2ZM128.431 0C128.983 0 129.431 0.447708 129.431 1C129.431 1.55229 128.983 2 128.431 2V0ZM134.403 2C133.85 2 133.403 1.55229 133.403 1C133.403 0.447708 133.85 0 134.403 0V2ZM140.375 0C140.927 0 141.375 0.447708 141.375 1C141.375 1.55229 140.927 2 140.375 2V0ZM146.347 2C145.795 2 145.347 1.55229 145.347 1C145.347 0.447708 145.795 0 146.347 0V2ZM152.319 0C152.872 0 153.319 0.447708 153.319 1C153.319 1.55229 152.872 2 152.319 2V0ZM158.292 2C157.739 2 157.292 1.55229 157.292 1C157.292 0.447708 157.739 0 158.292 0V2ZM164.264 0C164.816 0 165.264 0.447708 165.264 1C165.264 1.55229 164.816 2 164.264 2V0ZM170.236 2C169.684 2 169.236 1.55229 169.236 1C169.236 0.447708 169.684 0 170.236 0V2ZM176.208 0C176.761 0 177.208 0.447708 177.208 1C177.208 1.55229 176.761 2 176.208 2V0ZM182.181 2C181.628 2 181.181 1.55229 181.181 1C181.181 0.447708 181.628 0 182.181 0V2ZM188.153 0C188.705 0 189.153 0.447708 189.153 1C189.153 1.55229 188.705 2 188.153 2V0ZM194.125 2C193.573 2 193.125 1.55229 193.125 1C193.125 0.447708 193.573 0 194.125 0V2ZM200.097 0C200.65 0 201.097 0.447708 201.097 1C201.097 1.55229 200.65 2 200.097 2V0ZM206.07 2C205.517 2 205.07 1.55229 205.07 1C205.07 0.447708 205.517 0 206.07 0V2ZM212.042 0C212.594 0 213.042 0.447708 213.042 1C213.042 1.55229 212.594 2 212.042 2V0ZM218.014 2C217.462 2 217.014 1.55229 217.014 1C217.014 0.447708 217.462 0 218.014 0V2ZM223.986 0C224.538 0 224.986 0.447708 224.986 1C224.986 1.55229 224.538 2 223.986 2V0ZM229.958 2C229.406 2 228.958 1.55229 228.958 1C228.958 0.447708 229.406 0 229.958 0V2ZM235.931 0C236.483 0 236.931 0.447708 236.931 1C236.931 1.55229 236.483 2 235.931 2V0ZM241.903 2C241.351 2 240.903 1.55229 240.903 1C240.903 0.447708 241.351 0 241.903 0V2ZM247.875 0C248.427 0 248.875 0.447708 248.875 1C248.875 1.55229 248.427 2 247.875 2V0ZM253.847 2C253.295 2 252.847 1.55229 252.847 1C252.847 0.447708 253.295 0 253.847 0V2ZM259.82 0C260.372 0 260.82 0.447708 260.82 1C260.82 1.55229 260.372 2 259.82 2V0ZM265.792 2C265.24 2 264.792 1.55229 264.792 1C264.792 0.447708 265.24 0 265.792 0V2ZM271.764 0C272.316 0 272.764 0.447708 272.764 1C272.764 1.55229 272.316 2 271.764 2V0ZM277.736 2C277.184 2 276.736 1.55229 276.736 1C276.736 0.447708 277.184 0 277.736 0V2ZM283.708 0C284.261 0 284.708 0.447708 284.708 1C284.708 1.55229 284.261 2 283.708 2V0ZM289.681 2C289.128 2 288.681 1.55229 288.681 1C288.681 0.447708 289.128 0 289.681 0V2ZM295.653 0C296.205 0 296.653 0.447708 296.653 1C296.653 1.55229 296.205 2 295.653 2V0ZM301.625 2C301.073 2 300.625 1.55229 300.625 1C300.625 0.447708 301.073 0 301.625 0V2ZM307.597 0C308.15 0 308.597 0.447708 308.597 1C308.597 1.55229 308.15 2 307.597 2V0ZM313.57 2C313.017 2 312.57 1.55229 312.57 1C312.57 0.447708 313.017 0 313.57 0V2ZM319.542 0C320.094 0 320.542 0.447708 320.542 1C320.542 1.55229 320.094 2 319.542 2V0ZM325.514 2C324.962 2 324.514 1.55229 324.514 1C324.514 0.447708 324.962 0 325.514 0V2ZM331.486 0C332.039 0 332.486 0.447708 332.486 1C332.486 1.55229 332.039 2 331.486 2V0ZM337.459 2C336.906 2 336.459 1.55229 336.459 1C336.459 0.447708 336.906 0 337.459 0V2ZM343.431 0C343.983 0 344.431 0.447708 344.431 1C344.431 1.55229 343.983 2 343.431 2V0ZM349.403 2C348.851 2 348.403 1.55229 348.403 1C348.403 0.447708 348.851 0 349.403 0V2ZM355.375 0C355.928 0 356.375 0.447708 356.375 1C356.375 1.55229 355.928 2 355.375 2V0ZM361.347 2C360.795 2 360.347 1.55229 360.347 1C360.347 0.447708 360.795 0 361.347 0V2ZM367.32 0C367.872 0 368.32 0.447708 368.32 1C368.32 1.55229 367.872 2 367.32 2V0ZM373.292 2C372.74 2 372.292 1.55229 372.292 1C372.292 0.447708 372.74 0 373.292 0V2ZM379.264 0C379.816 0 380.264 0.447708 380.264 1C380.264 1.55229 379.816 2 379.264 2V0ZM385.236 2C384.684 2 384.236 1.55229 384.236 1C384.236 0.447708 384.684 0 385.236 0V2ZM391.209 0C391.761 0 392.209 0.447708 392.209 1C392.209 1.55229 391.761 2 391.209 2V0ZM397.181 2C396.629 2 396.181 1.55229 396.181 1C396.181 0.447708 396.629 0 397.181 0V2ZM403.153 0C403.705 0 404.153 0.447708 404.153 1C404.153 1.55229 403.705 2 403.153 2V0ZM409.125 2C408.573 2 408.125 1.55229 408.125 1C408.125 0.447708 408.573 0 409.125 0V2ZM415.098 0C415.65 0 416.098 0.447708 416.098 1C416.098 1.55229 415.65 2 415.098 2V0ZM421.07 2C420.517 2 420.07 1.55229 420.07 1C420.07 0.447708 420.517 0 421.07 0V2ZM427.042 0C427.594 0 428.042 0.447708 428.042 1C428.042 1.55229 427.594 2 427.042 2V0ZM433.014 2C432.462 2 432.014 1.55229 432.014 1C432.014 0.447708 432.462 0 433.014 0V2ZM438.986 0C439.539 0 439.986 0.447708 439.986 1C439.986 1.55229 439.539 2 438.986 2V0ZM444.959 2C444.406 2 443.959 1.55229 443.959 1C443.959 0.447708 444.406 0 444.959 0V2ZM450.931 0C451.483 0 451.931 0.447708 451.931 1C451.931 1.55229 451.483 2 450.931 2V0ZM456.903 2C456.351 2 455.903 1.55229 455.903 1C455.903 0.447708 456.351 0 456.903 0V2ZM462.875 0C463.428 0 463.875 0.447708 463.875 1C463.875 1.55229 463.428 2 462.875 2V0ZM468.848 2C468.295 2 467.848 1.55229 467.848 1C467.848 0.447708 468.295 0 468.848 0V2ZM474.82 0C475.372 0 475.82 0.447708 475.82 1C475.82 1.55229 475.372 2 474.82 2V0ZM480.792 2C480.24 2 479.792 1.55229 479.792 1C479.792 0.447708 480.24 0 480.792 0V2ZM486.764 0C487.317 0 487.764 0.447708 487.764 1C487.764 1.55229 487.317 2 486.764 2V0ZM492.737 2C492.184 2 491.737 1.55229 491.737 1C491.737 0.447708 492.184 0 492.737 0V2ZM498.709 0C499.261 0 499.709 0.447708 499.709 1C499.709 1.55229 499.261 2 498.709 2V0ZM504.681 2C504.129 2 503.681 1.55229 503.681 1C503.681 0.447708 504.129 0 504.681 0V2ZM510.653 0C511.205 0 511.653 0.447708 511.653 1C511.653 1.55229 511.205 2 510.653 2V0ZM516.625 2C516.073 2 515.625 1.55229 515.625 1C515.625 0.447708 516.073 0 516.625 0V2ZM522.598 0C523.15 0 523.598 0.447708 523.598 1C523.598 1.55229 523.15 2 522.598 2V0ZM528.57 2C528.018 2 527.57 1.55229 527.57 1C527.57 0.447708 528.018 0 528.57 0V2ZM534.542 0C535.094 0 535.542 0.447708 535.542 1C535.542 1.55229 535.094 2 534.542 2V0ZM540.514 2C539.962 2 539.514 1.55229 539.514 1C539.514 0.447708 539.962 0 540.514 0V2ZM546.487 0C547.039 0 547.487 0.447708 547.487 1C547.487 1.55229 547.039 2 546.487 2V0ZM552.459 2C551.906 2 551.459 1.55229 551.459 1C551.459 0.447708 551.906 0 552.459 0V2ZM558.431 0C558.983 0 559.431 0.447708 559.431 1C559.431 1.55229 558.983 2 558.431 2V0ZM564.403 2C563.851 2 563.403 1.55229 563.403 1C563.403 0.447708 563.851 0 564.403 0V2ZM570.375 0C570.928 0 571.375 0.447708 571.375 1C571.375 1.55229 570.928 2 570.375 2V0ZM576.348 2C575.795 2 575.348 1.55229 575.348 1C575.348 0.447708 575.795 0 576.348 0V2ZM582.32 0C582.872 0 583.32 0.447708 583.32 1C583.32 1.55229 582.872 2 582.32 2V0ZM588.292 2C587.74 2 587.292 1.55229 587.292 1C587.292 0.447708 587.74 0 588.292 0V2ZM594.264 0C594.817 0 595.264 0.447708 595.264 1C595.264 1.55229 594.817 2 594.264 2V0ZM600.237 2C599.684 2 599.237 1.55229 599.237 1C599.237 0.447708 599.684 0 600.237 0V2ZM606.209 0C606.761 0 607.209 0.447708 607.209 1C607.209 1.55229 606.761 2 606.209 2V0ZM612.181 2C611.629 2 611.181 1.55229 611.181 1C611.181 0.447708 611.629 0 612.181 0V2ZM618.153 0C618.706 0 619.153 0.447708 619.153 1C619.153 1.55229 618.706 2 618.153 2V0ZM624.126 2C623.573 2 623.126 1.55229 623.126 1C623.126 0.447708 623.573 0 624.126 0V2ZM630.098 0C630.65 0 631.098 0.447708 631.098 1C631.098 1.55229 630.65 2 630.098 2V0ZM636.07 2C635.518 2 635.07 1.55229 635.07 1C635.07 0.447708 635.518 0 636.07 0V2ZM642.042 0C642.595 0 643.042 0.447708 643.042 1C643.042 1.55229 642.595 2 642.042 2V0ZM648.014 2C647.462 2 647.014 1.55229 647.014 1C647.014 0.447708 647.462 0 648.014 0V2ZM652 4.3125C652 4.86479 651.552 5.3125 651 5.3125C650.448 5.3125 650 4.86479 650 4.3125H652ZM650 10.9375C650 10.3852 650.448 9.9375 651 9.9375C651.552 9.9375 652 10.3852 652 10.9375H650ZM652 17.5625C652 18.1148 651.552 18.5625 651 18.5625C650.448 18.5625 650 18.1148 650 17.5625H652ZM650 24.1875C650 23.6352 650.448 23.1875 651 23.1875C651.552 23.1875 652 23.6352 652 24.1875H650ZM652 30.8125C652 31.3648 651.552 31.8125 651 31.8125C650.448 31.8125 650 31.3648 650 30.8125H652ZM650 37.4375C650 36.8852 650.448 36.4375 651 36.4375C651.552 36.4375 652 36.8852 652 37.4375H650ZM652 44.0625C652 44.6148 651.552 45.0625 651 45.0625C650.448 45.0625 650 44.6148 650 44.0625H652ZM650 50.6875C650 50.1352 650.448 49.6875 651 49.6875C651.552 49.6875 652 50.1352 652 50.6875H650ZM5 157.161V151.268H7V157.161H5ZM5 145.375V139.482H7V145.375H5ZM5 133.589V127.696H7V133.589H5ZM5 121.804V115.911H7V121.804H5ZM5 110.018V104.125H7V110.018H5ZM5 98.2321V92.3393H7V98.2321H5ZM5 86.4464V80.5536H7V86.4464H5ZM5 74.6607V68.7678H7V74.6607H5ZM5 62.875V56.9821H7V62.875H5ZM5 51.0893V45.1964H7V51.0893H5ZM5 39.3035V33.4107H7V39.3035H5ZM5 27.5178V21.625H7V27.5178H5ZM5 15.7321V9.83928H7V15.7321H5ZM5 3.94643V1H7V3.94643H5ZM6 0H8.98611V2H6V0ZM14.9583 0H20.9306V2H14.9583V0ZM26.9028 0H32.875V2H26.9028V0ZM38.8472 0H44.8194V2H38.8472V0ZM50.7917 0H56.7639V2H50.7917V0ZM62.7361 0H68.7083V2H62.7361V0ZM74.6805 0H80.6528V2H74.6805V0ZM86.625 0H92.5972V2H86.625V0ZM98.5694 0H104.542V2H98.5694V0ZM110.514 0H116.486V2H110.514V0ZM122.458 0H128.431V2H122.458V0ZM134.403 0H140.375V2H134.403V0ZM146.347 0H152.319V2H146.347V0ZM158.292 0H164.264V2H158.292V0ZM170.236 0H176.208V2H170.236V0ZM182.181 0H188.153V2H182.181V0ZM194.125 0H200.097V2H194.125V0ZM206.07 0H212.042V2H206.07V0ZM218.014 0H223.986V2H218.014V0ZM229.958 0H235.931V2H229.958V0ZM241.903 0H247.875V2H241.903V0ZM253.847 0H259.82V2H253.847V0ZM265.792 0H271.764V2H265.792V0ZM277.736 0H283.708V2H277.736V0ZM289.681 0H295.653V2H289.681V0ZM301.625 0H307.597V2H301.625V0ZM313.57 0H319.542V2H313.57V0ZM325.514 0H331.486V2H325.514V0ZM337.459 0H343.431V2H337.459V0ZM349.403 0H355.375V2H349.403V0ZM361.347 0H367.32V2H361.347V0ZM373.292 0H379.264V2H373.292V0ZM385.236 0H391.209V2H385.236V0ZM397.181 0H403.153V2H397.181V0ZM409.125 0H415.098V2H409.125V0ZM421.07 0H427.042V2H421.07V0ZM433.014 0H438.986V2H433.014V0ZM444.959 0H450.931V2H444.959V0ZM456.903 0H462.875V2H456.903V0ZM468.848 0H474.82V2H468.848V0ZM480.792 0H486.764V2H480.792V0ZM492.737 0H498.709V2H492.737V0ZM504.681 0H510.653V2H504.681V0ZM516.625 0H522.598V2H516.625V0ZM528.57 0H534.542V2H528.57V0ZM540.514 0H546.487V2H540.514V0ZM552.459 0H558.431V2H552.459V0ZM564.403 0H570.375V2H564.403V0ZM576.348 0H582.32V2H576.348V0ZM588.292 0H594.264V2H588.292V0ZM600.237 0H606.209V2H600.237V0ZM612.181 0H618.153V2H612.181V0ZM624.126 0H630.098V2H624.126V0ZM636.07 0H642.042V2H636.07V0ZM648.014 0H651V2H648.014V0ZM652 1V4.3125H650V1H652ZM652 10.9375V17.5625H650V10.9375H652ZM652 24.1875V30.8125H650V24.1875H652ZM652 37.4375V44.0625H650V37.4375H652ZM652 50.6875V54H650V50.6875H652Z" fill="#06FF61"/>
</svg>
