<svg width="662" height="131" viewBox="0 0 662 131" fill="none" xmlns="http://www.w3.org/2000/svg">
<path d="M11.3333 6.28485C11.3333 9.23037 8.9455 11.6182 6 11.6182C3.0545 11.6182 0.666687 9.23037 0.666687 6.28485C0.666687 3.33933 3.0545 0.951514 6 0.951514C8.9455 0.951514 11.3333 3.33933 11.3333 6.28485ZM656 6.28479L661.774 16.2848H650.226L656 6.28479ZM656 130H657V131H656V130ZM6 130V131H5V130H6ZM657 15.5634V21.7492H655V15.5634H657ZM657 27.9349V34.1207H655V27.9349H657ZM657 40.3065V46.4922H655V40.3065H657ZM657 52.678V58.8637H655V52.678H657ZM657 65.0495V71.2352H655V65.0495H657ZM657 77.421V83.6068H655V77.421H657ZM657 89.7925V95.9783H655V89.7925H657ZM657 102.164V108.35H655V102.164H657ZM657 114.536V120.721H655V114.536H657ZM657 126.907V130H655V126.907H657ZM656 131H652.991V129H656V131ZM646.972 131H640.954V129H646.972V131ZM634.935 131H628.917V129H634.935V131ZM622.898 131H616.88V129H622.898V131ZM610.861 131H604.843V129H610.861V131ZM598.824 131H592.806V129H598.824V131ZM586.787 131H580.769V129H586.787V131ZM574.75 131H568.731V129H574.75V131ZM562.713 131H556.694V129H562.713V131ZM550.676 131H544.657V129H550.676V131ZM538.639 131H532.62V129H538.639V131ZM526.602 131H520.583V129H526.602V131ZM514.565 131H508.546V129H514.565V131ZM502.528 131H496.509V129H502.528V131ZM490.491 131H484.472V129H490.491V131ZM478.454 131H472.435V129H478.454V131ZM466.417 131H460.398V129H466.417V131ZM454.38 131H448.361V129H454.38V131ZM442.343 131H436.324V129H442.343V131ZM430.305 131H424.287V129H430.305V131ZM418.268 131H412.25V129H418.268V131ZM406.231 131H400.213V129H406.231V131ZM394.194 131H388.176V129H394.194V131ZM382.157 131H376.139V129H382.157V131ZM370.12 131H364.102V129H370.12V131ZM358.083 131H352.065V129H358.083V131ZM346.046 131H340.028V129H346.046V131ZM334.009 131H327.991V129H334.009V131ZM321.972 131H315.954V129H321.972V131ZM309.935 131H303.917V129H309.935V131ZM297.898 131H291.879V129H297.898V131ZM285.861 131H279.842V129H285.861V131ZM273.824 131H267.805V129H273.824V131ZM261.787 131H255.768V129H261.787V131ZM249.75 131H243.731V129H249.75V131ZM237.713 131H231.694V129H237.713V131ZM225.676 131H219.657V129H225.676V131ZM213.639 131H207.62V129H213.639V131ZM201.602 131H195.583V129H201.602V131ZM189.565 131H183.546V129H189.565V131ZM177.527 131H171.509V129H177.527V131ZM165.49 131H159.472V129H165.49V131ZM153.453 131H147.435V129H153.453V131ZM141.416 131H135.398V129H141.416V131ZM129.379 131H123.361V129H129.379V131ZM117.342 131H111.324V129H117.342V131ZM105.305 131H99.2869V129H105.305V131ZM93.2684 131H87.2499V129H93.2684V131ZM81.2314 131H75.213V129H81.2314V131ZM69.1945 131H63.176V129H69.1945V131ZM57.1575 131H51.139V129H57.1575V131ZM45.1205 131H39.102V129H45.1205V131ZM33.0835 131H27.065V129H33.0835V131ZM21.0465 131H15.028V129H21.0465V131ZM9.00952 131H6V129H9.00952V131ZM5 130V126.907H7V130H5ZM5 120.721V114.536H7V120.721H5ZM5 108.35V102.164H7V108.35H5ZM5 95.9783V89.7925H7V95.9783H5ZM5 83.6068V77.421H7V83.6068H5ZM5 71.2353V65.0495H7V71.2353H5ZM5 58.8638V52.678H7V58.8638H5ZM5 46.4923V40.3065H7V46.4923H5ZM5 34.1208V27.935H7V34.1208H5ZM5 21.7492V15.5635H7V21.7492H5ZM5 9.37774V6.28485H7V9.37774H5Z" fill="#06FF61"/>
</svg>
