<svg width="24" height="24" viewBox="0 0 24 24" fill="none" xmlns="http://www.w3.org/2000/svg">
<g id="fi-br-angle-small-right">
<path id="Vector" d="M15.7501 9.52497L11.1641 4.93897C10.8827 4.65771 10.5011 4.49975 10.1033 4.49985C9.70543 4.49994 9.3239 4.65808 9.04264 4.93947C8.76138 5.22087 8.60342 5.60247 8.60352 6.00033C8.60361 6.39819 8.76175 6.77971 9.04314 7.06097L13.6291 11.646C13.6757 11.6924 13.7126 11.7476 13.7378 11.8083C13.7631 11.8691 13.776 11.9342 13.776 12C13.776 12.0657 13.7631 12.1309 13.7378 12.1916C13.7126 12.2524 13.6757 12.3075 13.6291 12.354L9.04314 16.939C8.76175 17.2202 8.60361 17.6018 8.60352 17.9996C8.60342 18.3975 8.76138 18.7791 9.04264 19.0605C9.3239 19.3419 9.70543 19.5 10.1033 19.5001C10.5011 19.5002 10.8827 19.3422 11.1641 19.061L15.7501 14.475C16.4054 13.8179 16.7733 12.9279 16.7733 12C16.7733 11.0721 16.4054 10.182 15.7501 9.52497Z" fill="#4F4F4F"/>
</g>
</svg>
