<svg width="57" height="57" viewBox="0 0 57 57" fill="none" xmlns="http://www.w3.org/2000/svg">
<g filter="url(#filter0_d_1318_3558)">
<path d="M28.1486 41.7972C35.6865 41.7972 41.7972 35.6865 41.7972 28.1486C41.7972 20.6107 35.6865 14.5 28.1486 14.5C20.6107 14.5 14.5 20.6107 14.5 28.1486C14.5 35.6865 20.6107 41.7972 28.1486 41.7972Z" fill="black" stroke="#BDBDBD"/>
<path d="M35.9599 20.2256L32.8359 20.2256L32.8359 23.4175L35.9599 23.4175L35.9599 20.2256ZM35.9599 32.9933L32.8359 32.9933L32.8359 36.1852L35.9599 36.1852L35.9599 32.9933ZM32.8359 23.4175L29.7119 23.4175L29.7119 26.6094L32.8359 26.6094L32.8359 23.4175ZM32.8359 29.8014L29.7119 29.8014L29.7119 32.9933L32.8359 32.9933L32.8359 29.8014ZM29.7119 26.6094L26.5879 26.6094L26.5879 29.8014L29.7119 29.8014L29.7119 26.6094ZM26.5879 23.4175L23.4639 23.4175L23.4639 26.6094L26.5879 26.6094L26.5879 23.4175ZM26.5879 29.8014L23.4639 29.8014L23.4639 32.9933L26.5879 32.9933L26.5879 29.8014ZM23.4639 20.2256L20.3398 20.2256L20.3398 23.4175L23.4639 23.4175L23.4639 20.2256ZM23.4639 32.9933L20.3398 32.9933L20.3398 36.1852L23.4639 36.1852L23.4639 32.9933Z" fill="#01CAAC"/>
</g>
<defs>
<filter id="filter0_d_1318_3558" x="0" y="0" width="56.2969" height="56.2969" filterUnits="userSpaceOnUse" color-interpolation-filters="sRGB">
<feFlood flood-opacity="0" result="BackgroundImageFix"/>
<feColorMatrix in="SourceAlpha" type="matrix" values="0 0 0 0 0 0 0 0 0 0 0 0 0 0 0 0 0 0 127 0" result="hardAlpha"/>
<feOffset/>
<feGaussianBlur stdDeviation="7"/>
<feComposite in2="hardAlpha" operator="out"/>
<feColorMatrix type="matrix" values="0 0 0 0 0 0 0 0 0 1 0 0 0 0 0.76 0 0 0 1 0"/>
<feBlend mode="normal" in2="BackgroundImageFix" result="effect1_dropShadow_1318_3558"/>
<feBlend mode="normal" in="SourceGraphic" in2="effect1_dropShadow_1318_3558" result="shape"/>
</filter>
</defs>
</svg>
