<svg width="238" height="16" viewBox="0 0 238 16" fill="none" xmlns="http://www.w3.org/2000/svg">
    <path d="M1.39645 7.64645C1.20118 7.84171 1.20118 8.15829 1.39645 8.35355L4.57843 11.5355C4.77369 11.7308 5.09027 11.7308 5.28553 11.5355C5.4808 11.3403 5.4808 11.0237 5.28553 10.8284L2.45711 8L5.28553 5.17157C5.4808 4.97631 5.4808 4.65973 5.28553 4.46447C5.09027 4.2692 4.77369 4.2692 4.57843 4.46447L1.39645 7.64645ZM237.104 8.35355C237.299 8.15829 237.299 7.84171 237.104 7.64645L233.922 4.46447C233.726 4.2692 233.41 4.2692 233.214 4.46447C233.019 4.65973 233.019 4.97631 233.214 5.17157L236.043 8L233.214 10.8284C233.019 11.0237 233.019 11.3403 233.214 11.5355C233.41 11.7308 233.726 11.7308 233.922 11.5355L237.104 8.35355ZM5.66667 8.5C5.94281 8.5 6.16667 8.27614 6.16667 8C6.16667 7.72386 5.94281 7.5 5.66667 7.5V8.5ZM13.5 7.5C13.2239 7.5 13 7.72386 13 8C13 8.27614 13.2239 8.5 13.5 8.5V7.5ZM21.3333 8.5C21.6095 8.5 21.8333 8.27614 21.8333 8C21.8333 7.72386 21.6095 7.5 21.3333 7.5V8.5ZM29.1667 7.5C28.8905 7.5 28.6667 7.72386 28.6667 8C28.6667 8.27614 28.8905 8.5 29.1667 8.5V7.5ZM37 8.5C37.2761 8.5 37.5 8.27614 37.5 8C37.5 7.72386 37.2761 7.5 37 7.5V8.5ZM44.8333 7.5C44.5572 7.5 44.3333 7.72386 44.3333 8C44.3333 8.27614 44.5572 8.5 44.8333 8.5V7.5ZM52.6667 8.5C52.9428 8.5 53.1667 8.27614 53.1667 8C53.1667 7.72386 52.9428 7.5 52.6667 7.5V8.5ZM60.5 7.5C60.2239 7.5 60 7.72386 60 8C60 8.27614 60.2239 8.5 60.5 8.5V7.5ZM68.3333 8.5C68.6095 8.5 68.8333 8.27614 68.8333 8C68.8333 7.72386 68.6095 7.5 68.3333 7.5V8.5ZM76.1667 7.5C75.8905 7.5 75.6667 7.72386 75.6667 8C75.6667 8.27614 75.8905 8.5 76.1667 8.5V7.5ZM84 8.5C84.2762 8.5 84.5 8.27614 84.5 8C84.5 7.72386 84.2762 7.5 84 7.5V8.5ZM91.8334 7.5C91.5572 7.5 91.3334 7.72386 91.3334 8C91.3334 8.27614 91.5572 8.5 91.8334 8.5V7.5ZM99.6667 8.5C99.9428 8.5 100.167 8.27614 100.167 8C100.167 7.72386 99.9428 7.5 99.6667 7.5V8.5ZM107.5 7.5C107.224 7.5 107 7.72386 107 8C107 8.27614 107.224 8.5 107.5 8.5V7.5ZM115.333 8.5C115.609 8.5 115.833 8.27614 115.833 8C115.833 7.72386 115.609 7.5 115.333 7.5V8.5ZM123.167 7.5C122.891 7.5 122.667 7.72386 122.667 8C122.667 8.27614 122.891 8.5 123.167 8.5V7.5ZM131 8.5C131.276 8.5 131.5 8.27614 131.5 8C131.5 7.72386 131.276 7.5 131 7.5V8.5ZM138.833 7.5C138.557 7.5 138.333 7.72386 138.333 8C138.333 8.27614 138.557 8.5 138.833 8.5V7.5ZM146.667 8.5C146.943 8.5 147.167 8.27614 147.167 8C147.167 7.72386 146.943 7.5 146.667 7.5V8.5ZM154.5 7.5C154.224 7.5 154 7.72386 154 8C154 8.27614 154.224 8.5 154.5 8.5V7.5ZM162.333 8.5C162.609 8.5 162.833 8.27614 162.833 8C162.833 7.72386 162.609 7.5 162.333 7.5V8.5ZM170.167 7.5C169.891 7.5 169.667 7.72386 169.667 8C169.667 8.27614 169.891 8.5 170.167 8.5V7.5ZM178 8.5C178.276 8.5 178.5 8.27614 178.5 8C178.5 7.72386 178.276 7.5 178 7.5V8.5ZM185.833 7.5C185.557 7.5 185.333 7.72386 185.333 8C185.333 8.27614 185.557 8.5 185.833 8.5V7.5ZM193.667 8.5C193.943 8.5 194.167 8.27614 194.167 8C194.167 7.72386 193.943 7.5 193.667 7.5V8.5ZM201.5 7.5C201.224 7.5 201 7.72386 201 8C201 8.27614 201.224 8.5 201.5 8.5V7.5ZM209.333 8.5C209.609 8.5 209.833 8.27614 209.833 8C209.833 7.72386 209.609 7.5 209.333 7.5V8.5ZM217.167 7.5C216.891 7.5 216.667 7.72386 216.667 8C216.667 8.27614 216.891 8.5 217.167 8.5V7.5ZM225 8.5C225.276 8.5 225.5 8.27614 225.5 8C225.5 7.72386 225.276 7.5 225 7.5V8.5ZM232.833 7.5C232.557 7.5 232.333 7.72386 232.333 8C232.333 8.27614 232.557 8.5 232.833 8.5V7.5ZM1.75 8.5H5.66667V7.5H1.75V8.5ZM13.5 8.5H21.3333V7.5H13.5V8.5ZM29.1667 8.5H37V7.5H29.1667V8.5ZM44.8333 8.5H52.6667V7.5H44.8333V8.5ZM60.5 8.5H68.3333V7.5H60.5V8.5ZM76.1667 8.5H84V7.5H76.1667V8.5ZM91.8334 8.5H99.6667V7.5H91.8334V8.5ZM107.5 8.5H115.333V7.5H107.5V8.5ZM123.167 8.5H131V7.5H123.167V8.5ZM138.833 8.5H146.667V7.5H138.833V8.5ZM154.5 8.5H162.333V7.5H154.5V8.5ZM170.167 8.5H178V7.5H170.167V8.5ZM185.833 8.5H193.667V7.5H185.833V8.5ZM201.5 8.5H209.333V7.5H201.5V8.5ZM217.167 8.5H225V7.5H217.167V8.5ZM232.833 8.5H236.75V7.5H232.833V8.5ZM1.04289 7.29289C0.652369 7.68342 0.652369 8.31658 1.04289 8.70711L7.40685 15.0711C7.79738 15.4616 8.43054 15.4616 8.82107 15.0711C9.21159 14.6805 9.21159 14.0474 8.82107 13.6569L3.16421 8L8.82107 2.34315C9.21159 1.95262 9.21159 1.31946 8.82107 0.928932C8.43054 0.538408 7.79738 0.538408 7.40685 0.928932L1.04289 7.29289ZM237.457 8.70711C237.848 8.31658 237.848 7.68342 237.457 7.29289L231.093 0.928932C230.703 0.538408 230.069 0.538408 229.679 0.928932C229.288 1.31946 229.288 1.95262 229.679 2.34315L235.336 8L229.679 13.6569C229.288 14.0474 229.288 14.6805 229.679 15.0711C230.069 15.4616 230.703 15.4616 231.093 15.0711L237.457 8.70711ZM5.66667 9C6.21895 9 6.66667 8.55228 6.66667 8C6.66667 7.44772 6.21895 7 5.66667 7V9ZM13.5 7C12.9477 7 12.5 7.44772 12.5 8C12.5 8.55228 12.9477 9 13.5 9V7ZM21.3333 9C21.8856 9 22.3333 8.55228 22.3333 8C22.3333 7.44772 21.8856 7 21.3333 7V9ZM29.1667 7C28.6144 7 28.1667 7.44772 28.1667 8C28.1667 8.55228 28.6144 9 29.1667 9V7ZM37 9C37.5523 9 38 8.55228 38 8C38 7.44772 37.5523 7 37 7V9ZM44.8333 7C44.2811 7 43.8333 7.44772 43.8333 8C43.8333 8.55228 44.2811 9 44.8333 9V7ZM52.6667 9C53.219 9 53.6667 8.55228 53.6667 8C53.6667 7.44772 53.219 7 52.6667 7V9ZM60.5 7C59.9477 7 59.5 7.44772 59.5 8C59.5 8.55228 59.9477 9 60.5 9V7ZM68.3333 9C68.8856 9 69.3333 8.55228 69.3333 8C69.3333 7.44772 68.8856 7 68.3333 7V9ZM76.1667 7C75.6144 7 75.1667 7.44772 75.1667 8C75.1667 8.55228 75.6144 9 76.1667 9V7ZM84 9C84.5523 9 85 8.55228 85 8C85 7.44772 84.5523 7 84 7V9ZM91.8334 7C91.2811 7 90.8334 7.44772 90.8334 8C90.8334 8.55228 91.2811 9 91.8334 9V7ZM99.6667 9C100.219 9 100.667 8.55228 100.667 8C100.667 7.44772 100.219 7 99.6667 7V9ZM107.5 7C106.948 7 106.5 7.44772 106.5 8C106.5 8.55228 106.948 9 107.5 9V7ZM115.333 9C115.886 9 116.333 8.55228 116.333 8C116.333 7.44772 115.886 7 115.333 7V9ZM123.167 7C122.614 7 122.167 7.44772 122.167 8C122.167 8.55228 122.614 9 123.167 9V7ZM131 9C131.552 9 132 8.55228 132 8C132 7.44772 131.552 7 131 7V9ZM138.833 7C138.281 7 137.833 7.44772 137.833 8C137.833 8.55228 138.281 9 138.833 9V7ZM146.667 9C147.219 9 147.667 8.55228 147.667 8C147.667 7.44772 147.219 7 146.667 7V9ZM154.5 7C153.948 7 153.5 7.44772 153.5 8C153.5 8.55228 153.948 9 154.5 9V7ZM162.333 9C162.886 9 163.333 8.55228 163.333 8C163.333 7.44772 162.886 7 162.333 7V9ZM170.167 7C169.614 7 169.167 7.44772 169.167 8C169.167 8.55228 169.614 9 170.167 9V7ZM178 9C178.552 9 179 8.55228 179 8C179 7.44772 178.552 7 178 7V9ZM185.833 7C185.281 7 184.833 7.44772 184.833 8C184.833 8.55228 185.281 9 185.833 9V7ZM193.667 9C194.219 9 194.667 8.55228 194.667 8C194.667 7.44772 194.219 7 193.667 7V9ZM201.5 7C200.948 7 200.5 7.44772 200.5 8C200.5 8.55228 200.948 9 201.5 9V7ZM209.333 9C209.886 9 210.333 8.55228 210.333 8C210.333 7.44772 209.886 7 209.333 7V9ZM217.167 7C216.614 7 216.167 7.44772 216.167 8C216.167 8.55228 216.614 9 217.167 9V7ZM225 9C225.552 9 226 8.55228 226 8C226 7.44772 225.552 7 225 7V9ZM232.833 7C232.281 7 231.833 7.44772 231.833 8C231.833 8.55228 232.281 9 232.833 9V7ZM1.75 9H5.66667V7H1.75V9ZM13.5 9H21.3333V7H13.5V9ZM29.1667 9H37V7H29.1667V9ZM44.8333 9H52.6667V7H44.8333V9ZM60.5 9H68.3333V7H60.5V9ZM76.1667 9H84V7H76.1667V9ZM91.8334 9H99.6667V7H91.8334V9ZM107.5 9H115.333V7H107.5V9ZM123.167 9H131V7H123.167V9ZM138.833 9H146.667V7H138.833V9ZM154.5 9H162.333V7H154.5V9ZM170.167 9H178V7H170.167V9ZM185.833 9H193.667V7H185.833V9ZM201.5 9H209.333V7H201.5V9ZM217.167 9H225V7H217.167V9ZM232.833 9H236.75V7H232.833V9Z" fill="white" fill-opacity="0.5"/>
</svg>
