<svg width="92" height="16" viewBox="0 0 92 16" fill="none" xmlns="http://www.w3.org/2000/svg">
    <path d="M0.6932 7.64645C0.497937 7.84171 0.497937 8.15829 0.6932 8.35355L3.87518 11.5355C4.07044 11.7308 4.38702 11.7308 4.58229 11.5355C4.77755 11.3403 4.77755 11.0237 4.58229 10.8284L1.75386 8L4.58229 5.17157C4.77755 4.97631 4.77755 4.65973 4.58229 4.46447C4.38702 4.2692 4.07044 4.2692 3.87518 4.46447L0.6932 7.64645ZM91.267 8.35355C91.4623 8.15829 91.4623 7.84171 91.267 7.64645L88.085 4.46447C87.8898 4.2692 87.5732 4.2692 87.3779 4.46447C87.1826 4.65973 87.1826 4.97631 87.3779 5.17157L90.2063 8L87.3779 10.8284C87.1826 11.0237 87.1826 11.3403 87.3779 11.5355C87.5732 11.7308 87.8898 11.7308 88.085 11.5355L91.267 8.35355ZM1.04675 8.5H4.7912V7.5H1.04675V8.5ZM12.2801 8.5H19.769V7.5H12.2801V8.5ZM27.2579 8.5H34.7468V7.5H27.2579V8.5ZM42.2357 8.5H49.7245V7.5H42.2357V8.5ZM57.2134 8.5H64.7023V7.5H57.2134V8.5ZM72.1912 8.5H79.6801V7.5H72.1912V8.5ZM87.169 8.5H90.9134V7.5H87.169V8.5ZM0.339646 7.29289C-0.0508782 7.68342 -0.0508782 8.31658 0.339646 8.70711L6.70361 15.0711C7.09413 15.4616 7.7273 15.4616 8.11782 15.0711C8.50835 14.6805 8.50835 14.0474 8.11782 13.6569L2.46097 8L8.11782 2.34315C8.50835 1.95262 8.50835 1.31946 8.11782 0.928932C7.7273 0.538408 7.09413 0.538408 6.70361 0.928932L0.339646 7.29289ZM91.6206 8.70711C92.0111 8.31658 92.0111 7.68342 91.6206 7.29289L85.2566 0.928932C84.8661 0.538408 84.2329 0.538408 83.8424 0.928932C83.4519 1.31946 83.4519 1.95262 83.8424 2.34315L89.4992 8L83.8424 13.6569C83.4519 14.0474 83.4519 14.6805 83.8424 15.0711C84.2329 15.4616 84.8661 15.4616 85.2566 15.0711L91.6206 8.70711ZM1.04675 9H4.7912V7H1.04675V9ZM12.2801 9H19.769V7H12.2801V9ZM27.2579 9H34.7468V7H27.2579V9ZM42.2357 9H49.7245V7H42.2357V9ZM57.2134 9H64.7023V7H57.2134V9ZM72.1912 9H79.6801V7H72.1912V9ZM87.169 9H90.9134V7H87.169V9Z" fill="white"/>
</svg>
