<svg width="16" height="152" viewBox="0 0 16 152" fill="none" xmlns="http://www.w3.org/2000/svg">
    <path d="M7.49087 151.354C7.68613 151.549 8.00271 151.549 8.19797 151.354L11.38 148.172C11.5752 147.976 11.5752 147.66 11.38 147.464C11.1847 147.269 10.8681 147.269 10.6728 147.464L7.84442 150.293L5.01599 147.464C4.82073 147.269 4.50415 147.269 4.30889 147.464C4.11363 147.66 4.11363 147.976 4.30889 148.172L7.49087 151.354ZM8.19797 0.646454C8.00271 0.451187 7.68612 0.451187 7.49086 0.646454L4.30888 3.82843C4.11362 4.0237 4.11362 4.34027 4.30888 4.53554C4.50414 4.73079 4.82073 4.73079 5.01599 4.53554L7.84441 1.70711L10.6728 4.53554C10.8681 4.73079 11.1847 4.73079 11.3799 4.53554C11.5752 4.34027 11.5752 4.0237 11.3799 3.82843L8.19797 0.646454ZM8.34442 146.833C8.34442 146.557 8.12056 146.333 7.84442 146.333C7.56828 146.333 7.34442 146.557 7.34442 146.833L8.34442 146.833ZM7.34442 138.5C7.34442 138.776 7.56828 139 7.84442 139C8.12056 139 8.34442 138.776 8.34442 138.5L7.34442 138.5ZM8.34442 130.167C8.34442 129.891 8.12056 129.667 7.84442 129.667C7.56828 129.667 7.34442 129.891 7.34442 130.167L8.34442 130.167ZM7.34442 121.833C7.34442 122.109 7.56828 122.333 7.84442 122.333C8.12056 122.333 8.34442 122.109 8.34442 121.833L7.34442 121.833ZM8.34442 113.5C8.34442 113.224 8.12056 113 7.84442 113C7.56828 113 7.34442 113.224 7.34442 113.5L8.34442 113.5ZM7.34442 105.167C7.34442 105.443 7.56828 105.667 7.84442 105.667C8.12056 105.667 8.34442 105.443 8.34442 105.167L7.34442 105.167ZM8.34442 96.8333C8.34442 96.5572 8.12056 96.3333 7.84442 96.3333C7.56828 96.3333 7.34442 96.5572 7.34442 96.8333L8.34442 96.8333ZM7.34442 88.5C7.34442 88.7761 7.56828 89 7.84442 89C8.12056 89 8.34442 88.7761 8.34442 88.5L7.34442 88.5ZM8.34442 80.1667C8.34442 79.8905 8.12056 79.6667 7.84442 79.6667C7.56828 79.6667 7.34442 79.8905 7.34442 80.1667L8.34442 80.1667ZM7.34442 71.8333C7.34442 72.1095 7.56828 72.3333 7.84442 72.3333C8.12056 72.3333 8.34442 72.1095 8.34442 71.8333L7.34442 71.8333ZM8.34442 63.5C8.34442 63.2239 8.12056 63 7.84442 63C7.56828 63 7.34442 63.2239 7.34442 63.5L8.34442 63.5ZM7.34442 55.1667C7.34442 55.4428 7.56827 55.6667 7.84442 55.6667C8.12056 55.6667 8.34442 55.4428 8.34442 55.1667L7.34442 55.1667ZM8.34442 46.8333C8.34442 46.5572 8.12056 46.3333 7.84442 46.3333C7.56827 46.3333 7.34442 46.5572 7.34442 46.8333L8.34442 46.8333ZM7.34442 38.5C7.34442 38.7761 7.56827 39 7.84442 39C8.12056 39 8.34442 38.7761 8.34442 38.5L7.34442 38.5ZM8.34442 30.1667C8.34442 29.8905 8.12056 29.6667 7.84442 29.6667C7.56827 29.6667 7.34442 29.8905 7.34442 30.1667L8.34442 30.1667ZM7.34442 21.8333C7.34442 22.1095 7.56827 22.3333 7.84442 22.3333C8.12056 22.3333 8.34442 22.1095 8.34442 21.8333L7.34442 21.8333ZM8.34442 13.5C8.34442 13.2239 8.12056 13 7.84442 13C7.56827 13 7.34442 13.2239 7.34442 13.5L8.34442 13.5ZM7.34442 5.16667C7.34442 5.44281 7.56827 5.66667 7.84442 5.66667C8.12056 5.66667 8.34442 5.44281 8.34442 5.16667L7.34442 5.16667ZM8.34442 151L8.34442 146.833L7.34442 146.833L7.34442 151L8.34442 151ZM8.34442 138.5L8.34442 130.167L7.34442 130.167L7.34442 138.5L8.34442 138.5ZM8.34442 121.833L8.34442 113.5L7.34442 113.5L7.34442 121.833L8.34442 121.833ZM8.34442 105.167L8.34442 96.8333L7.34442 96.8333L7.34442 105.167L8.34442 105.167ZM8.34442 88.5L8.34442 80.1667L7.34442 80.1667L7.34442 88.5L8.34442 88.5ZM8.34442 71.8333L8.34442 63.5L7.34442 63.5L7.34442 71.8333L8.34442 71.8333ZM8.34442 55.1667L8.34442 46.8333L7.34442 46.8333L7.34442 55.1667L8.34442 55.1667ZM8.34442 38.5L8.34442 30.1667L7.34442 30.1667L7.34442 38.5L8.34442 38.5ZM8.34442 21.8333L8.34442 13.5L7.34442 13.5L7.34442 21.8333L8.34442 21.8333ZM8.34442 5.16667L8.34441 1L7.34441 1L7.34442 5.16667L8.34442 5.16667ZM7.13731 151.707C7.52784 152.098 8.161 152.098 8.55153 151.707L14.9155 145.343C15.306 144.953 15.306 144.319 14.9155 143.929C14.525 143.538 13.8918 143.538 13.5013 143.929L7.84442 149.586L2.18757 143.929C1.79704 143.538 1.16388 143.538 0.773353 143.929C0.382829 144.319 0.382829 144.953 0.773353 145.343L7.13731 151.707ZM8.55152 0.292892C8.161 -0.0976257 7.52783 -0.0976257 7.13731 0.292892L0.773347 6.65686C0.382823 7.04738 0.382823 7.68054 0.773347 8.07108C1.16387 8.46159 1.79704 8.46159 2.18756 8.07108L7.84441 2.41422L13.5013 8.07108C13.8918 8.46159 14.525 8.46159 14.9155 8.07108C15.306 7.68054 15.306 7.04738 14.9155 6.65686L8.55152 0.292892ZM8.84442 146.833C8.84442 146.281 8.39671 145.833 7.84442 145.833C7.29214 145.833 6.84442 146.281 6.84442 146.833L8.84442 146.833ZM6.84442 138.5C6.84442 139.052 7.29214 139.5 7.84442 139.5C8.39671 139.5 8.84442 139.052 8.84442 138.5L6.84442 138.5ZM8.84442 130.167C8.84442 129.614 8.39671 129.167 7.84442 129.167C7.29214 129.167 6.84442 129.614 6.84442 130.167L8.84442 130.167ZM6.84442 121.833C6.84442 122.386 7.29214 122.833 7.84442 122.833C8.3967 122.833 8.84442 122.386 8.84442 121.833L6.84442 121.833ZM8.84442 113.5C8.84442 112.948 8.3967 112.5 7.84442 112.5C7.29213 112.5 6.84442 112.948 6.84442 113.5L8.84442 113.5ZM6.84442 105.167C6.84442 105.719 7.29213 106.167 7.84442 106.167C8.3967 106.167 8.84442 105.719 8.84442 105.167L6.84442 105.167ZM8.84442 96.8333C8.84442 96.2811 8.3967 95.8333 7.84442 95.8333C7.29213 95.8333 6.84442 96.2811 6.84442 96.8333L8.84442 96.8333ZM6.84442 88.5C6.84442 89.0523 7.29213 89.5 7.84442 89.5C8.3967 89.5 8.84442 89.0523 8.84442 88.5L6.84442 88.5ZM8.84442 80.1667C8.84442 79.6144 8.3967 79.1667 7.84442 79.1667C7.29213 79.1667 6.84442 79.6144 6.84442 80.1667L8.84442 80.1667ZM6.84442 71.8333C6.84442 72.3856 7.29213 72.8333 7.84442 72.8333C8.3967 72.8333 8.84442 72.3856 8.84442 71.8333L6.84442 71.8333ZM8.84442 63.5C8.84442 62.9477 8.3967 62.5 7.84442 62.5C7.29213 62.5 6.84442 62.9477 6.84442 63.5L8.84442 63.5ZM6.84442 55.1667C6.84442 55.7189 7.29213 56.1667 7.84442 56.1667C8.3967 56.1667 8.84442 55.7189 8.84442 55.1667L6.84442 55.1667ZM8.84442 46.8333C8.84442 46.281 8.3967 45.8333 7.84442 45.8333C7.29213 45.8333 6.84442 46.281 6.84442 46.8333L8.84442 46.8333ZM6.84442 38.5C6.84442 39.0523 7.29213 39.5 7.84442 39.5C8.3967 39.5 8.84442 39.0523 8.84442 38.5L6.84442 38.5ZM8.84442 30.1667C8.84442 29.6144 8.3967 29.1667 7.84442 29.1667C7.29213 29.1667 6.84442 29.6144 6.84442 30.1667L8.84442 30.1667ZM6.84442 21.8333C6.84442 22.3856 7.29213 22.8333 7.84442 22.8333C8.3967 22.8333 8.84442 22.3856 8.84442 21.8333L6.84442 21.8333ZM8.84442 13.5C8.84442 12.9477 8.3967 12.5 7.84442 12.5C7.29213 12.5 6.84442 12.9477 6.84442 13.5L8.84442 13.5ZM6.84442 5.16667C6.84442 5.71895 7.29213 6.16667 7.84442 6.16667C8.3967 6.16667 8.84442 5.71895 8.84442 5.16667L6.84442 5.16667ZM8.84442 151L8.84442 146.833L6.84442 146.833L6.84442 151L8.84442 151ZM8.84442 138.5L8.84442 130.167L6.84442 130.167L6.84442 138.5L8.84442 138.5ZM8.84442 121.833L8.84442 113.5L6.84442 113.5L6.84442 121.833L8.84442 121.833ZM8.84442 105.167L8.84442 96.8333L6.84442 96.8333L6.84442 105.167L8.84442 105.167ZM8.84442 88.5L8.84442 80.1667L6.84442 80.1667L6.84442 88.5L8.84442 88.5ZM8.84442 71.8333L8.84442 63.5L6.84442 63.5L6.84442 71.8333L8.84442 71.8333ZM8.84442 55.1667L8.84442 46.8333L6.84442 46.8333L6.84442 55.1667L8.84442 55.1667ZM8.84442 38.5L8.84442 30.1667L6.84442 30.1667L6.84442 38.5L8.84442 38.5ZM8.84442 21.8333L8.84442 13.5L6.84442 13.5L6.84442 21.8333L8.84442 21.8333ZM8.84442 5.16667L8.84441 1L6.84441 1L6.84442 5.16667L8.84442 5.16667Z" fill="white"/>
</svg>
