<svg width="56" height="57" viewBox="0 0 56 57" fill="none" xmlns="http://www.w3.org/2000/svg">
    <g clip-path="url(#clip0_931_312)">
        <path fill-rule="evenodd" clip-rule="evenodd" d="M11.4154 19.8237L27.2587 28.9702V47.2637L11.4154 38.1172V19.8237ZM29.0087 47.2637V28.9703L44.8504 19.8237V38.1172L29.0087 47.2637ZM28.1337 9.16152L12.2904 18.308L28.1337 27.455L43.9753 18.308L28.1337 9.16152ZM4.78298 44.0727C4.84735 44.1679 4.92984 44.2495 5.02576 44.3129C5.12167 44.3762 5.22912 44.4201 5.34197 44.4419C5.45482 44.4637 5.57087 44.4631 5.68348 44.4401C5.79609 44.417 5.90307 44.3721 5.9983 44.3077C6.09353 44.2433 6.17515 44.1608 6.23849 44.0649C6.30184 43.969 6.34567 43.8616 6.3675 43.7487C6.38932 43.6358 6.3887 43.5198 6.36567 43.4072C6.34264 43.2946 6.29766 43.1876 6.23329 43.0924C-0.788585 32.7081 0.559025 18.727 9.43721 9.84872C19.1844 0.101222 34.5441 -0.460637 44.9381 8.35466H41.7089C41.4768 8.35466 41.2542 8.44685 41.0901 8.61094C40.926 8.77503 40.8339 8.99759 40.8339 9.22966C40.8339 9.46172 40.926 9.68428 41.0901 9.84838C41.2542 10.0125 41.4768 10.1047 41.7089 10.1047H47.1788C47.4109 10.1047 47.6334 10.0125 47.7975 9.84838C47.9616 9.68428 48.0538 9.46172 48.0538 9.22966V3.75971C48.0538 3.52764 47.9616 3.30508 47.7975 3.14099C47.6334 2.97689 47.4109 2.88471 47.1788 2.88471C46.9467 2.88471 46.7242 2.97689 46.5601 3.14099C46.396 3.30508 46.3038 3.52764 46.3038 3.75971V7.22263C40.9518 2.59803 34.0477 0.170534 26.9792 0.427994C19.9106 0.685453 13.2015 3.60879 8.20007 8.61049C-1.27104 18.0815 -2.7068 32.9951 4.78298 44.0727ZM49.4247 13.2358C53.155 18.5035 54.8138 24.9608 54.0844 31.3741C53.3549 37.7874 50.2883 43.7073 45.4704 48.0027C40.6524 52.298 34.4209 54.6679 27.9662 54.6595C21.5116 54.6511 15.2862 52.2651 10.4794 47.9572H13.7943C14.0263 47.9572 14.2489 47.865 14.413 47.7009C14.5771 47.5368 14.6693 47.3142 14.6693 47.0822C14.6693 46.8501 14.5771 46.6275 14.413 46.4634C14.2489 46.2993 14.0263 46.2072 13.7943 46.2072H8.32345C8.09147 46.2074 7.86908 46.2997 7.70505 46.4638C7.54102 46.6278 7.44874 46.8502 7.44845 47.0822V52.5525C7.44845 52.7846 7.54063 53.0072 7.70473 53.1713C7.86882 53.3354 8.09138 53.4275 8.32345 53.4275C8.55551 53.4275 8.77807 53.3354 8.94217 53.1713C9.10626 53.0072 9.19845 52.7846 9.19845 52.5525V49.1603C14.311 53.7903 20.9524 56.3707 27.8498 56.4068C34.7472 56.4428 41.4153 53.932 46.576 49.3557C51.7366 44.7793 55.0268 38.4594 55.8158 31.6071C56.6048 24.7549 54.8372 17.8526 50.8517 12.223C50.7858 12.128 50.7016 12.047 50.6042 11.9847C50.5067 11.9224 50.3978 11.88 50.2839 11.8601C50.1699 11.8401 50.0532 11.8429 49.9403 11.8684C49.8275 11.8939 49.7208 11.9415 49.6265 12.0084C49.5321 12.0754 49.452 12.1604 49.3907 12.2585C49.3295 12.3566 49.2883 12.4659 49.2695 12.58C49.2507 12.6942 49.2548 12.8109 49.2814 12.9235C49.3081 13.036 49.3568 13.1422 49.4247 13.2358Z" fill="url(#paint0_linear_931_312)"/>
    </g>
    <defs>
        <linearGradient id="paint0_linear_931_312" x1="0.00134277" y1="56.4071" x2="55.9991" y2="0.408806" gradientUnits="userSpaceOnUse">
            <stop stop-color="#00D6D9"/>
            <stop offset="1" stop-color="#00C085"/>
        </linearGradient>
        <clipPath id="clip0_931_312">
            <rect width="56" height="56" fill="white" transform="translate(0 0.409668)"/>
        </clipPath>
    </defs>
</svg>
