<svg width="40" height="40" viewBox="0 0 40 40" fill="none" xmlns="http://www.w3.org/2000/svg">
    <g clip-path="url(#clip0_931_538)">
        <path d="M17.8047 21.0988C17.8047 22.7051 16.6539 24.0121 15.207 24.0121C13.7828 24.0121 12.6094 22.7051 12.6094 21.0988C12.6094 19.4934 13.7602 18.1855 15.207 18.1855C16.6648 18.1855 17.8273 19.5051 17.8047 21.0988ZM27.4086 21.0988C27.4086 22.7051 26.2695 24.0121 24.8109 24.0121C23.3867 24.0121 22.2133 22.7051 22.2133 21.0988C22.2133 19.4934 23.3641 18.1855 24.8109 18.1855C26.2695 18.1855 27.4312 19.5051 27.4086 21.0988Z" fill="white"/>
        <path d="M20 0C8.95469 0 0 8.95469 0 20C0 31.0453 8.95469 40 20 40C31.0453 40 40 31.0453 40 20C40 8.95469 31.0453 0 20 0ZM34.2898 27.3633C31.818 29.1789 29.4227 30.2812 27.0609 31.0117C27.0234 31.0234 26.9828 31.0094 26.9594 30.9773C26.4141 30.218 25.9188 29.4172 25.4844 28.5766C25.4594 28.5273 25.482 28.468 25.5336 28.4484C26.3203 28.1508 27.0688 27.7953 27.7891 27.375C27.8461 27.3414 27.8492 27.2602 27.7969 27.2211C27.6445 27.1078 27.493 26.9883 27.3484 26.8688C27.3354 26.858 27.3196 26.8513 27.3029 26.8492C27.2861 26.8471 27.2692 26.8498 27.2539 26.857C22.5789 29.0172 17.4578 29.0172 12.7273 26.857C12.6969 26.8438 12.6602 26.8484 12.6344 26.8703C12.4898 26.9891 12.3383 27.1078 12.1867 27.2211C12.1344 27.2602 12.1383 27.3414 12.1953 27.375C12.9156 27.7875 13.6641 28.1508 14.45 28.4492C14.5016 28.4688 14.5258 28.5273 14.5 28.5766C14.0758 29.4188 13.5797 30.2188 13.0242 30.9781C13 31.0094 12.9602 31.0234 12.9227 31.0117C10.5719 30.2812 8.17734 29.1789 5.70469 27.3633C5.68437 27.3469 5.66953 27.3219 5.66719 27.2953C5.16406 21.9023 6.19062 16.4422 9.9375 10.8438C9.94687 10.8289 9.96016 10.8172 9.97656 10.8109C11.8499 9.94975 13.8275 9.33626 15.8594 8.98594C15.8969 8.98047 15.9344 8.99766 15.9539 9.03047C16.2094 9.48281 16.5008 10.0617 16.6984 10.5352C18.8742 10.2031 21.0844 10.2031 23.3063 10.5352C23.5031 10.0719 23.7844 9.48281 24.0383 9.03047C24.0578 8.99609 24.0953 8.97891 24.1328 8.98594C26.1647 9.33701 28.1425 9.95047 30.0164 10.8109C30.0328 10.8172 30.0461 10.8289 30.0539 10.8453C33.318 15.6461 34.9305 21.0617 34.3273 27.2969C34.325 27.3234 34.3117 27.3469 34.2898 27.3633Z" fill="white"/>
    </g>
    <defs>
        <clipPath id="clip0_931_538">
            <rect width="40" height="40" fill="white"/>
        </clipPath>
    </defs>
</svg>
