<svg width="56" height="57" viewBox="0 0 56 57" fill="none" xmlns="http://www.w3.org/2000/svg">
    <g clip-path="url(#clip0_931_327)">
        <path d="M19.1524 0.409668C7.86561 0.409668 0 4.32907 0 7.84678C0 11.3645 7.86561 15.2839 19.1524 15.2839C30.4391 15.2839 38.3047 11.3644 38.3047 7.84678C38.3047 4.32919 30.4392 0.409668 19.1524 0.409668ZM0 42.0166V48.9726C0 52.4903 7.86561 56.4097 19.1524 56.4097C24.2109 56.4097 28.9856 55.613 32.597 54.1661C34.9508 53.2232 36.6929 52.0536 37.5998 50.8383C35.8917 49.5019 33.9196 47.5805 32.2014 44.9294C28.4194 46.1404 23.9492 46.7758 19.1525 46.7758C13.117 46.7758 7.47109 45.736 3.2547 43.848C2.02485 43.2973 0.937043 42.6836 0 42.0166ZM0.000119658 28.3398L0 35.2009C0 38.7185 7.86561 42.6379 19.1524 42.6379C23.1553 42.6379 26.9959 42.1359 30.2136 41.2071C29.0468 38.5095 28.2924 35.5317 27.9597 32.3093C25.2074 32.827 22.2081 33.0972 19.1524 33.0972C13.078 33.0972 7.40552 32.0456 3.17991 30.1362C1.98046 29.5942 0.917658 28.9923 0.000119658 28.3398Z" fill="url(#paint0_linear_931_327)"/>
        <path d="M0 14.6562V21.522C0 25.0396 7.86561 28.9591 19.1524 28.9591C22.1711 28.9591 25.114 28.6747 27.7631 28.1311C27.7668 27.4809 27.9608 25.7888 29.5273 25.3587C31.996 24.681 33.7235 23.0541 33.8763 20.8225C33.9392 19.9037 35.0889 18.6163 35.9453 18.6291H38.3048V14.6562C37.3872 15.3087 36.3249 15.9107 35.1255 16.4534C30.8945 18.3674 25.2218 19.4216 19.1525 19.4216C13.0832 19.4216 7.41055 18.3674 3.17956 16.4534C1.97998 15.9107 0.917658 15.3087 0 14.6562ZM50.1323 22.7672H37.7877C37.0975 25.6369 34.8909 27.9912 31.9061 29.0177C32.1383 42.7929 40.0562 48.0455 43.5471 49.6924C43.7466 49.7864 43.9831 49.7764 44.1799 49.6657C47.6844 47.6909 55.6301 41.8127 56 29.013C53.0225 27.984 50.8216 25.6326 50.1323 22.7672ZM43.2204 40.7059C42.3827 41.5676 40.9407 41.5203 40.1612 40.6057L36.2276 35.99L39.3781 33.3063L41.8371 36.192L48.6977 29.1356L51.6656 32.0197L43.2204 40.7059Z" fill="url(#paint1_linear_931_327)"/>
    </g>
    <defs>
        <linearGradient id="paint0_linear_931_327" x1="0" y1="56.4097" x2="52.1908" y2="20.7105" gradientUnits="userSpaceOnUse">
            <stop stop-color="#00D6D9"/>
            <stop offset="1" stop-color="#00C085"/>
        </linearGradient>
        <linearGradient id="paint1_linear_931_327" x1="0" y1="49.7564" x2="31.5902" y2="-0.643564" gradientUnits="userSpaceOnUse">
            <stop stop-color="#00D6D9"/>
            <stop offset="1" stop-color="#00C085"/>
        </linearGradient>
        <clipPath id="clip0_931_327">
            <rect width="56" height="56" fill="white" transform="translate(0 0.409668)"/>
        </clipPath>
    </defs>
</svg>
