<svg width="105" height="21" viewBox="0 0 105 21" fill="none" xmlns="http://www.w3.org/2000/svg">
<circle opacity="0.4" cx="6.5" cy="10.5" r="6.5" fill="url(#paint0_linear_401_17)"/>
<circle cx="6.5" cy="10.5" r="3.5" fill="#06FF61"/>
<path d="M9.5 10.65L86.65 10.6499" stroke="#06FF61" stroke-width="0.7" stroke-linecap="round" stroke-dasharray="1.5 1.5"/>
<path d="M94.1701 2.79961C94.3491 2.69187 94.5733 2.69276 94.7515 2.80192L101.123 6.705C101.481 6.92455 101.479 7.44593 101.119 7.66262L94.8304 11.4466C94.6513 11.5544 94.4272 11.5535 94.249 11.4443L87.8774 7.54122C87.519 7.32168 87.5211 6.80029 87.8812 6.5836L94.1701 2.79961Z" fill="#06FF61"/>
<path opacity="0.3" d="M87.218 8.61487C87.218 8.17815 87.6956 7.90941 88.0689 8.13606L94.0781 11.7846C94.2454 11.8862 94.3476 12.0677 94.3476 12.2634L94.3476 18.2349C94.3476 18.6716 93.8701 18.9403 93.4968 18.7137L87.4875 15.0651C87.3202 14.9635 87.2181 14.782 87.2181 14.5863L87.218 8.61487Z" fill="#06FF61"/>
<path opacity="0.5" d="M94.6524 18.235C94.6524 18.6717 95.13 18.9404 95.5033 18.7138L101.513 15.0652C101.68 14.9636 101.782 14.7821 101.782 14.5864L101.782 8.61497C101.782 8.17825 101.304 7.90951 100.931 8.13616L94.9219 11.7847C94.7546 11.8863 94.6525 12.0678 94.6525 12.2635L94.6524 18.235Z" fill="#06FF61"/>
<defs>
<linearGradient id="paint0_linear_401_17" x1="-9.09831e-08" y1="5.5" x2="14.5" y2="25" gradientUnits="userSpaceOnUse">
<stop stop-color="#06FF61"/>
<stop offset="1" stop-color="#686868" stop-opacity="0"/>
</linearGradient>
</defs>
</svg>
