<svg width="105" height="21" viewBox="0 0 105 21" fill="none" xmlns="http://www.w3.org/2000/svg">
<circle cx="6.5" cy="10.5" r="6.5" fill="#06FF61"/>
<line x1="13" y1="10.5" x2="87" y2="10.5" stroke="#06FF61" stroke-dasharray="4 4"/>
<path d="M94.1701 2.79961C94.3491 2.69187 94.5733 2.69276 94.7515 2.80192L101.123 6.705C101.481 6.92455 101.479 7.44593 101.119 7.66262L94.8304 11.4466C94.6513 11.5544 94.4272 11.5535 94.249 11.4443L87.8774 7.54122C87.519 7.32168 87.5211 6.80029 87.8812 6.5836L94.1701 2.79961Z" fill="#06FF61"/>
<path opacity="0.3" d="M87.218 8.61487C87.218 8.17815 87.6956 7.90941 88.0689 8.13606L94.0781 11.7846C94.2454 11.8862 94.3476 12.0677 94.3476 12.2634L94.3476 18.2349C94.3476 18.6716 93.8701 18.9403 93.4968 18.7137L87.4875 15.0651C87.3202 14.9635 87.2181 14.782 87.2181 14.5863L87.218 8.61487Z" fill="#06FF61"/>
<path opacity="0.5" d="M94.6525 18.2352C94.6525 18.6719 95.1301 18.9407 95.5034 18.714L101.513 15.0655C101.68 14.9639 101.782 14.7824 101.782 14.5867L101.782 8.61521C101.782 8.17849 101.305 7.90975 100.931 8.1364L94.922 11.785C94.7547 11.8866 94.6525 12.0681 94.6525 12.2638L94.6525 18.2352Z" fill="#06FF61"/>
</svg>
