<svg width="17" height="16" viewBox="0 0 17 16" fill="none" xmlns="http://www.w3.org/2000/svg">
    <g opacity="0.6">
        <path fill-rule="evenodd" clip-rule="evenodd" d="M8.50073 11.0273C8.22473 11.0273 8.00073 10.8033 8.00073 10.5273V2.5C8.00073 2.224 8.22473 2 8.50073 2C8.77673 2 9.00073 2.224 9.00073 2.5V10.5273C9.00073 10.8033 8.77673 11.0273 8.50073 11.0273Z" fill="white"/>
        <path fill-rule="evenodd" clip-rule="evenodd" d="M8.50071 11.0275C8.36805 11.0275 8.24005 10.9749 8.14671 10.8802L6.20271 8.92885C6.00805 8.73285 6.00871 8.41618 6.20405 8.22152C6.40005 8.02685 6.71605 8.02685 6.91071 8.22285L8.50071 9.81952L10.0907 8.22285C10.2854 8.02685 10.6014 8.02685 10.7974 8.22152C10.9927 8.41618 10.9934 8.73285 10.7987 8.92885L8.85471 10.8802C8.76138 10.9749 8.63338 11.0275 8.50071 11.0275Z" fill="white"/>
        <mask id="mask0_67_31375" style="mask-type:luminance" maskUnits="userSpaceOnUse" x="1" y="5" width="15" height="10">
            <path fill-rule="evenodd" clip-rule="evenodd" d="M1.8335 5.15479H15.1667V14.3175H1.8335V5.15479Z" fill="white"/>
        </mask>
        <g mask="url(#mask0_67_31375)">
            <path fill-rule="evenodd" clip-rule="evenodd" d="M12.2168 14.3175H4.79016C3.16016 14.3175 1.8335 12.9915 1.8335 11.3608V8.10412C1.8335 6.47745 3.15683 5.15479 4.78416 5.15479H5.4115C5.6875 5.15479 5.9115 5.37879 5.9115 5.65479C5.9115 5.93079 5.6875 6.15479 5.4115 6.15479H4.78416C3.70816 6.15479 2.8335 7.02878 2.8335 8.10412V11.3608C2.8335 12.4401 3.71083 13.3175 4.79016 13.3175H12.2168C13.2915 13.3175 14.1668 12.4421 14.1668 11.3675V8.11145C14.1668 7.03212 13.2888 6.15479 12.2108 6.15479H11.5895C11.3135 6.15479 11.0895 5.93079 11.0895 5.65479C11.0895 5.37879 11.3135 5.15479 11.5895 5.15479H12.2108C13.8408 5.15479 15.1668 6.48145 15.1668 8.11145V11.3675C15.1668 12.9941 13.8428 14.3175 12.2168 14.3175Z" fill="white"/>
        </g>
    </g>
</svg>
