<svg width="100" height="21" viewBox="0 0 100 21" fill="none" xmlns="http://www.w3.org/2000/svg">
<mask id="mask0_36_118" style="mask-type:alpha" maskUnits="userSpaceOnUse" x="0" y="0" width="21" height="21">
<path d="M0 20.3992V0H3.39917V20.3992H0Z" fill="white"/>
<path d="M6.80664 20.3992V3.39917H10.2058V6.80249H13.605V10.2017H10.2058V20.3992H6.80664ZM17.0042 20.3992V13.6008H13.605V10.2017H17.0042V3.39917H20.4033V20.3992H17.0042Z" fill="white"/>
</mask>
<g mask="url(#mask0_36_118)">
<rect y="-2" width="22" height="24" fill="#06FF61"/>
</g>
<path d="M24.4033 20.3992V3.39917H38V6.80249H27.8025V10.2017H38V13.6008H27.8025V20.3992H24.4033Z" fill="white"/>
<path d="M51.6008 10.2017V6.80249H44.8025V10.2017H51.6008ZM41.4033 20.3992V3.39917H55V13.6008H44.8025V17H55V20.3992H41.4033Z" fill="white"/>
<path d="M58.4033 20.3992V3.39917H72V6.80249H61.8025V20.3992H58.4033Z" fill="white"/>
<path d="M75.4033 20.3992V10.2017H78.8025V20.3992H75.4033ZM75.4033 6.80249V3.39917H78.8025V6.80249H75.4033Z" fill="white"/>
<path d="M82.21 20.3992V17H85.6091V20.3992H82.21ZM95.8066 20.3992V17H99.21V20.3992H95.8066ZM85.6091 17V13.6008H89.0083V17H85.6091ZM92.4075 17V13.6008H95.8066V17H92.4075ZM89.0083 13.6008V10.2017H92.4075V13.6008H89.0083ZM85.6091 10.2017V6.80249H89.0083V10.2017H85.6091ZM92.4075 10.2017V6.80249H95.8066V10.2017H92.4075ZM82.21 6.80249V3.39917H85.6091V6.80249H82.21ZM95.8066 6.80249V3.39917H99.21V6.80249H95.8066Z" fill="white"/>
</svg>
