<svg width="41" height="40" viewBox="0 0 41 40" fill="none" xmlns="http://www.w3.org/2000/svg">
    <g clip-path="url(#clip0_67_31367)">
        <path d="M26.6934 20.1672C26.5107 21.6638 25.8322 23.056 24.7661 24.122C23.4442 25.4446 21.5965 26.0673 19.2762 25.9735C17.6488 25.9087 16.8973 26.3345 16.7738 26.4118C16.2754 26.8485 15.6426 27.0876 14.9746 27.0876C14.2441 27.0876 13.5574 26.8032 13.041 26.2868C12.1496 25.3954 12.0058 24.0204 12.6144 22.9727L13.0511 22.2805C13.1996 21.9188 13.4004 21.2048 13.3535 20.0508C13.2605 17.7297 13.8832 15.8828 15.2051 14.561C16.2879 13.4789 17.6723 12.8086 19.1691 12.6297C19.3812 11.6117 19.8385 10.6607 20.5012 9.85938H4.79954C3.07452 9.85938 1.67061 11.2625 1.67061 12.9875V28.5025H34.3114V13.0969L30.345 17.9579C29.4169 19.0909 28.1278 19.8709 26.6934 20.1672ZM1.67061 31.8462C1.67061 33.5705 3.07452 34.9736 4.79954 34.9736H13.6917V37.6564H11.7207C11.0736 37.6564 10.5489 38.1811 10.5489 38.8283C10.5489 39.4755 11.0736 40.0002 11.7207 40.0002H24.2609C24.9081 40.0002 25.4328 39.4755 25.4328 38.8283C25.4328 38.1811 24.9081 37.6564 24.2609 37.6564H22.2899V34.9736H31.1824C32.9074 34.9736 34.3113 33.5705 34.3113 31.8462V30.8462H1.67053V31.8462H1.67061Z" fill="url(#paint0_linear_67_31367)"/>
        <path d="M14.7266 24.0497C14.7263 24.0499 14.7261 24.0501 14.726 24.0503C14.7258 24.0504 14.7257 24.0505 14.7256 24.0506L14.7253 24.051L14.7249 24.0513C14.7249 24.0516 14.7248 24.0516 14.7246 24.0517L14.7245 24.0518L14.7241 24.0522L14.724 24.0523C14.7239 24.0524 14.7238 24.0525 14.7237 24.0527L14.7236 24.0527L14.7232 24.0531L14.7231 24.0532L14.7228 24.0536C14.6513 24.1275 14.6118 24.2265 14.6128 24.3293C14.6139 24.4321 14.6554 24.5303 14.7284 24.6027C14.8014 24.6751 14.9 24.7158 15.0028 24.7159C15.1056 24.7161 15.2043 24.6757 15.2775 24.6036C15.3014 24.581 16.4848 23.487 19.4 23.6042C21.0401 23.6702 22.2976 23.2773 23.138 22.437C24.8601 20.7149 24.8601 17.9129 23.138 16.1907C22.3037 15.3565 21.1946 14.8971 20.0148 14.8971C18.835 14.8971 17.7259 15.3564 16.8917 16.1907C16.0514 17.0311 15.6586 18.2887 15.7246 19.9287C15.8424 22.8598 14.736 24.0399 14.7271 24.0492L14.7266 24.0497ZM26.5918 17.7577C27.3628 17.5268 28.0473 17.0709 28.5575 16.4483L30.0548 14.6133L24.7207 9.27922L22.8934 10.7717C22.2693 11.2806 21.812 11.9647 21.5801 12.7358C22.7879 13.0194 23.8957 13.6342 24.7949 14.5335C25.7152 15.4538 26.3145 16.5749 26.5918 17.7577ZM38.6255 0.703701C38.2065 0.282587 37.6456 0.0327593 37.0523 0.00300047C36.459 -0.0267584 35.8759 0.165688 35.4169 0.542763L26.5451 7.78913L31.5441 12.7881L38.7872 3.91161C39.164 3.45254 39.3562 2.86954 39.3263 2.2764C39.2964 1.68327 39.0465 1.12255 38.6255 0.703701Z" fill="url(#paint1_linear_67_31367)"/>
    </g>
    <defs>
        <linearGradient id="paint0_linear_67_31367" x1="1.67053" y1="40.0002" x2="31.7159" y2="7.46264" gradientUnits="userSpaceOnUse">
            <stop stop-color="#00D6D9"/>
            <stop offset="1" stop-color="#00C085"/>
        </linearGradient>
        <linearGradient id="paint1_linear_67_31367" x1="14.6128" y1="24.7159" x2="39.3287" y2="-0.000570291" gradientUnits="userSpaceOnUse">
            <stop stop-color="#00D6D9"/>
            <stop offset="1" stop-color="#00C085"/>
        </linearGradient>
        <clipPath id="clip0_67_31367">
            <rect width="40" height="40" fill="white" transform="translate(0.5)"/>
        </clipPath>
    </defs>
</svg>
