<svg width="41" height="40" viewBox="0 0 41 40" fill="none" xmlns="http://www.w3.org/2000/svg">
    <g clip-path="url(#clip0_67_31381)">
        <path d="M40.0871 12.8274L38.8014 11.5416C38.5285 11.2659 38.1456 11.1559 37.7756 11.1273H7.19881V7.42862C7.19881 7.04973 7.0483 6.68635 6.78038 6.41843C6.51246 6.15051 6.14908 6 5.77019 6H1.92862C1.54973 6 1.18635 6.15051 0.918434 6.41843C0.650515 6.68635 0.5 7.04973 0.5 7.42862C0.5 7.80752 0.650515 8.17089 0.918434 8.43881C1.18635 8.70673 1.54973 8.85724 1.92862 8.85724H4.34299V38.1712C4.34299 38.55 4.49351 38.9134 4.76143 39.1813C5.02935 39.4493 5.39272 39.5998 5.77162 39.5998C6.15051 39.5998 6.51389 39.4493 6.78181 39.1813C7.04972 38.9134 7.20024 38.55 7.20024 38.1712V34.471H37.7728C38.1485 34.4939 38.5042 34.3053 38.7999 34.0567L40.0857 32.771C40.3486 32.5138 40.4929 32.1309 40.5 31.7709V13.8274C40.5 13.7274 40.3186 13.0517 40.0871 12.8274ZM35.7441 22.7992C35.7441 26.3422 32.8583 29.228 29.3153 29.228C25.7723 29.228 22.8865 26.3422 22.8865 22.7992C22.8865 19.2562 25.7723 16.3704 29.3153 16.3704C32.8583 16.3704 35.7441 19.2562 35.7441 22.7992ZM15.772 24.2278H11.4861C10.7004 24.2278 10.0575 23.5849 10.0575 22.7992C10.0575 22.0134 10.7004 21.3705 11.4861 21.3705H15.772C16.5577 21.3705 17.2006 22.0134 17.2006 22.7992C17.2006 23.5849 16.5577 24.2278 15.772 24.2278ZM17.2006 27.7994C17.2006 28.5851 16.5577 29.228 15.772 29.228H11.4861C10.7004 29.228 10.0575 28.5851 10.0575 27.7994C10.0575 27.0136 10.7004 26.3707 11.4861 26.3707H15.772C16.5577 26.3707 17.2006 27.0136 17.2006 27.7994ZM15.772 19.2276H11.4861C10.7004 19.2276 10.0575 18.5847 10.0575 17.799C10.0575 17.0133 10.7004 16.3704 11.4861 16.3704H15.772C16.5577 16.3704 17.2006 17.0133 17.2006 17.799C17.2006 18.5847 16.5577 19.2276 15.772 19.2276Z" fill="url(#paint0_linear_67_31381)"/>
        <path d="M27.9153 22.7992C27.9153 23.585 28.5582 24.2279 29.3439 24.2279C30.1439 24.2279 30.7725 23.585 30.7725 22.7992C30.7725 22.0135 30.1439 21.3706 29.3439 21.3706H29.3296C28.5439 21.3706 27.9153 22.0135 27.9153 22.7992Z" fill="url(#paint1_linear_67_31381)"/>
    </g>
    <defs>
        <linearGradient id="paint0_linear_67_31381" x1="0.5" y1="39.5998" x2="33.5954" y2="0.200195" gradientUnits="userSpaceOnUse">
            <stop stop-color="#00D6D9"/>
            <stop offset="1" stop-color="#00C085"/>
        </linearGradient>
        <linearGradient id="paint1_linear_67_31381" x1="27.9153" y1="24.2279" x2="30.7725" y2="21.3706" gradientUnits="userSpaceOnUse">
            <stop stop-color="#00D6D9"/>
            <stop offset="1" stop-color="#00C085"/>
        </linearGradient>
        <clipPath id="clip0_67_31381">
            <rect width="40" height="40" fill="white" transform="translate(0.5)"/>
        </clipPath>
    </defs>
</svg>
