<svg width="77" height="21" viewBox="0 0 77 21" fill="none" xmlns="http://www.w3.org/2000/svg">
<path d="M4.58594 20H0.777344V1.61719H4.58594V20ZM11.3779 20H7.62012V6.21289H11.2002V8.625H11.3525C11.6657 7.8125 12.182 7.17773 12.9014 6.7207C13.6292 6.26367 14.4967 6.03516 15.5039 6.03516C16.4518 6.03516 17.2812 6.24251 17.9922 6.65723C18.7116 7.07194 19.266 7.67285 19.6553 8.45996C20.0531 9.23861 20.252 10.1569 20.252 11.2148V20H16.4941V11.8623C16.4941 11.3037 16.3968 10.8213 16.2021 10.415C16.016 10.0088 15.7324 9.69987 15.3516 9.48828C14.9792 9.26823 14.5348 9.1582 14.0186 9.1582C13.4938 9.1582 13.0326 9.27246 12.6348 9.50098C12.237 9.72103 11.9281 10.0469 11.708 10.4785C11.488 10.9102 11.3779 11.4222 11.3779 12.0146V20Z" fill="#06FF61"/>
<path d="M30.5098 9.03125H22.042V6.21289H30.5098V9.03125ZM24.0098 5.17188C24.0098 4.22396 24.1917 3.41992 24.5557 2.75977C24.9281 2.09115 25.4486 1.5918 26.1172 1.26172C26.7943 0.923177 27.5941 0.753906 28.5166 0.753906C28.9398 0.753906 29.3333 0.775065 29.6973 0.817383C30.0697 0.851237 30.4294 0.90625 30.7764 0.982422V3.83887C30.4378 3.81348 30.1289 3.78385 29.8496 3.75C29.7988 3.75846 29.7523 3.7627 29.71 3.7627C29.6761 3.75423 29.6423 3.75 29.6084 3.75C28.9906 3.75846 28.5293 3.88965 28.2246 4.14355C27.9199 4.39746 27.7676 4.80371 27.7676 5.3623V20H24.0098V5.17188ZM38.457 20.2666C37.0605 20.2666 35.846 19.9788 34.8135 19.4033C33.7894 18.8278 33.0023 18.0068 32.4521 16.9404C31.902 15.874 31.627 14.6214 31.627 13.1826C31.627 11.7692 31.902 10.5208 32.4521 9.4375C33.0107 8.35417 33.7894 7.51628 34.7881 6.92383C35.7952 6.33138 36.9674 6.03516 38.3047 6.03516C39.5404 6.03516 40.6449 6.29753 41.6182 6.82227C42.5915 7.33854 43.3574 8.12142 43.916 9.1709C44.4831 10.2204 44.7666 11.5026 44.7666 13.0176V14.0713H33.1631V11.7227H41.2246C41.2161 11.1725 41.0892 10.6774 40.8438 10.2373C40.6068 9.7972 40.2725 9.45443 39.8408 9.20898C39.4092 8.96354 38.9183 8.84082 38.3682 8.84082C37.7842 8.84082 37.2637 8.97624 36.8066 9.24707C36.3496 9.50944 35.9899 9.87337 35.7275 10.3389C35.4736 10.8044 35.3424 11.3122 35.334 11.8623V14.0713C35.334 14.7653 35.4652 15.3662 35.7275 15.874C35.9984 16.3734 36.3708 16.7627 36.8447 17.042C37.3187 17.3213 37.873 17.4609 38.5078 17.4609C38.931 17.4525 39.3161 17.389 39.6631 17.2705C40.0101 17.152 40.3021 16.9954 40.5391 16.8008C40.776 16.5977 40.9622 16.3607 41.0977 16.0898H44.6777C44.4915 16.9362 44.1234 17.6725 43.5732 18.2988C43.0231 18.9251 42.3122 19.4118 41.4404 19.7588C40.5687 20.0973 39.5742 20.2666 38.457 20.2666ZM47.1279 6.21289H50.7588V8.6123H50.9111C51.1566 7.77441 51.5755 7.13542 52.168 6.69531C52.7604 6.24674 53.446 6.01823 54.2246 6.00977C54.7663 6.02669 55.1683 6.06901 55.4307 6.13672V9.48828C55.2445 9.42904 54.999 9.38249 54.6943 9.34863C54.3896 9.30632 54.0977 9.28516 53.8184 9.28516C53.2598 9.28516 52.7604 9.40788 52.3203 9.65332C51.8802 9.89876 51.529 10.2415 51.2666 10.6816C51.0127 11.1133 50.8857 11.6084 50.8857 12.167V20H47.1279V6.21289ZM57.2588 6.21289H61.0166V20H57.2588V6.21289ZM59.1377 4.39746C58.7568 4.39746 58.4098 4.31283 58.0967 4.14355C57.792 3.96582 57.5465 3.73307 57.3604 3.44531C57.1742 3.15755 57.0811 2.84017 57.0811 2.49316C57.0811 2.15462 57.1742 1.83724 57.3604 1.54102C57.5465 1.24479 57.7962 1.01204 58.1094 0.842773C58.4225 0.673503 58.7653 0.588867 59.1377 0.588867C59.5016 0.588867 59.8402 0.673503 60.1533 0.842773C60.4665 1.01204 60.7161 1.24479 60.9023 1.54102C61.0885 1.83724 61.1816 2.15462 61.1816 2.49316C61.1816 2.84017 61.0885 3.15755 60.9023 3.44531C60.7161 3.73307 60.4665 3.96582 60.1533 4.14355C59.8402 4.31283 59.5016 4.39746 59.1377 4.39746ZM69.624 11.0625L72.2393 6.21289H76.1113L72.0996 13.0938L76.2129 20H72.3789L69.624 15.2012L66.9326 20H63.0352L67.1357 13.0938L63.1748 6.21289H67.0723L69.624 11.0625Z" fill="white"/>
</svg>
