<svg width="388" height="1067" viewBox="0 0 388 1067" fill="none" xmlns="http://www.w3.org/2000/svg">
<path d="M194 397.667C195.473 397.667 196.667 396.473 196.667 395C196.667 393.527 195.473 392.333 194 392.333C192.527 392.333 191.333 393.527 191.333 395C191.333 396.473 192.527 397.667 194 397.667ZM194 282L191.113 287L196.887 287L194 282ZM194.5 395L194.5 391.861L193.5 391.861L193.5 395L194.5 395ZM194.5 385.583L194.5 379.306L193.5 379.306L193.5 385.583L194.5 385.583ZM194.5 373.028L194.5 366.75L193.5 366.75L193.5 373.028L194.5 373.028ZM194.5 360.472L194.5 354.194L193.5 354.194L193.5 360.472L194.5 360.472ZM194.5 347.917L194.5 341.639L193.5 341.639L193.5 347.917L194.5 347.917ZM194.5 335.361L194.5 329.083L193.5 329.083L193.5 335.361L194.5 335.361ZM194.5 322.806L194.5 316.528L193.5 316.528L193.5 322.806L194.5 322.806ZM194.5 310.25L194.5 303.972L193.5 303.972L193.5 310.25L194.5 310.25ZM194.5 297.694L194.5 291.417L193.5 291.417L193.5 297.694L194.5 297.694ZM194 400.333C196.946 400.333 199.333 397.946 199.333 395C199.333 392.054 196.946 389.667 194 389.667C191.054 389.667 188.667 392.054 188.667 395C188.667 397.946 191.054 400.333 194 400.333ZM194 282L188.227 292L199.774 292L194 282ZM195 395L195 391.861L193 391.861L193 395L195 395ZM195 385.583L195 379.306L193 379.306L193 385.583L195 385.583ZM195 373.028L195 366.75L193 366.75L193 373.028L195 373.028ZM195 360.472L195 354.194L193 354.194L193 360.472L195 360.472ZM195 347.917L195 341.639L193 341.639L193 347.917L195 347.917ZM195 335.361L195 329.083L193 329.083L193 335.361L195 335.361ZM195 322.806L195 316.528L193 316.528L193 322.806L195 322.806ZM195 310.25L195 303.972L193 303.972L193 310.25L195 310.25ZM195 297.694L195 291.417L193 291.417L193 297.694L195 297.694Z" fill="#06FF61"/>
<path d="M194 603.333C195.473 603.333 196.667 604.527 196.667 606C196.667 607.473 195.473 608.667 194 608.667C192.527 608.667 191.333 607.473 191.333 606C191.333 604.527 192.527 603.333 194 603.333ZM194 749L191.113 744L196.887 744L194 749ZM194.5 606L194.5 608.979L193.5 608.979L193.5 606L194.5 606ZM194.5 614.937L194.5 620.896L193.5 620.896L193.5 614.938L194.5 614.937ZM194.5 626.854L194.5 632.813L193.5 632.813L193.5 626.854L194.5 626.854ZM194.5 638.771L194.5 644.729L193.5 644.729L193.5 638.771L194.5 638.771ZM194.5 650.687L194.5 656.646L193.5 656.646L193.5 650.688L194.5 650.687ZM194.5 662.604L194.5 668.562L193.5 668.562L193.5 662.604L194.5 662.604ZM194.5 674.521L194.5 680.479L193.5 680.479L193.5 674.521L194.5 674.521ZM194.5 686.437L194.5 692.396L193.5 692.396L193.5 686.438L194.5 686.437ZM194.5 698.354L194.5 704.313L193.5 704.313L193.5 698.354L194.5 698.354ZM194.5 710.271L194.5 716.229L193.5 716.229L193.5 710.271L194.5 710.271ZM194.5 722.188L194.5 728.146L193.5 728.146L193.5 722.188L194.5 722.188ZM194.5 734.104L194.5 740.063L193.5 740.063L193.5 734.104L194.5 734.104ZM194 600.667C196.946 600.667 199.333 603.054 199.333 606C199.333 608.946 196.946 611.333 194 611.333C191.054 611.333 188.667 608.946 188.667 606C188.667 603.054 191.054 600.667 194 600.667ZM194 749L188.227 739L199.774 739L194 749ZM195 606L195 608.979L193 608.979L193 606L195 606ZM195 614.937L195 620.896L193 620.896L193 614.938L195 614.937ZM195 626.854L195 632.813L193 632.813L193 626.854L195 626.854ZM195 638.771L195 644.729L193 644.729L193 638.771L195 638.771ZM195 650.687L195 656.646L193 656.646L193 650.688L195 650.687ZM195 662.604L195 668.562L193 668.562L193 662.604L195 662.604ZM195 674.521L195 680.479L193 680.479L193 674.521L195 674.521ZM195 686.437L195 692.396L193 692.396L193 686.438L195 686.437ZM195 698.354L195 704.313L193 704.313L193 698.354L195 698.354ZM195 710.271L195 716.229L193 716.229L193 710.271L195 710.271ZM195 722.188L195 728.146L193 728.146L193 722.188L195 722.188ZM195 734.104L195 740.063L193 740.063L193 734.104L195 734.104Z" fill="#06FF61"/>
<path d="M56.8813 697V684.508H58.5733V697H56.8813ZM67.2819 697V692.014C67.2819 691.366 67.0779 690.832 66.6699 690.412C66.2619 689.992 65.7339 689.782 65.0859 689.782C64.6539 689.782 64.2699 689.878 63.9339 690.07C63.5979 690.262 63.3339 690.526 63.1419 690.862C62.9499 691.198 62.8539 691.582 62.8539 692.014L62.1879 691.636C62.1879 690.988 62.3319 690.412 62.6199 689.908C62.9079 689.404 63.3099 689.008 63.8259 688.72C64.3419 688.42 64.9239 688.27 65.5719 688.27C66.2199 688.27 66.7899 688.432 67.2819 688.756C67.7859 689.08 68.1819 689.506 68.4699 690.034C68.7579 690.55 68.9019 691.102 68.9019 691.69V697H67.2819ZM61.2339 697V688.45H62.8539V697H61.2339ZM72.3038 697V684.868H73.9238V697H72.3038ZM70.1978 689.926V688.45H76.0298V689.926H70.1978ZM81.313 697.18C80.461 697.18 79.693 696.988 79.009 696.604C78.325 696.208 77.785 695.674 77.389 695.002C76.993 694.33 76.795 693.568 76.795 692.716C76.795 691.876 76.987 691.12 77.371 690.448C77.767 689.776 78.295 689.248 78.955 688.864C79.627 688.468 80.377 688.27 81.205 688.27C81.997 688.27 82.693 688.45 83.293 688.81C83.905 689.17 84.379 689.668 84.715 690.304C85.063 690.94 85.237 691.66 85.237 692.464C85.237 692.584 85.231 692.716 85.219 692.86C85.207 692.992 85.183 693.148 85.147 693.328H77.929V691.978H84.283L83.689 692.5C83.689 691.924 83.587 691.438 83.383 691.042C83.179 690.634 82.891 690.322 82.519 690.106C82.147 689.878 81.697 689.764 81.169 689.764C80.617 689.764 80.131 689.884 79.711 690.124C79.291 690.364 78.967 690.7 78.739 691.132C78.511 691.564 78.397 692.074 78.397 692.662C78.397 693.262 78.517 693.79 78.757 694.246C78.997 694.69 79.339 695.038 79.783 695.29C80.227 695.53 80.737 695.65 81.313 695.65C81.793 695.65 82.231 695.566 82.627 695.398C83.035 695.23 83.383 694.978 83.671 694.642L84.715 695.704C84.307 696.184 83.803 696.55 83.203 696.802C82.615 697.054 81.985 697.18 81.313 697.18ZM87.0034 697V688.45H88.6234V697H87.0034ZM88.6234 692.122L88.0114 691.852C88.0114 690.76 88.2634 689.89 88.7674 689.242C89.2714 688.594 89.9974 688.27 90.9454 688.27C91.3774 688.27 91.7674 688.348 92.1154 688.504C92.4634 688.648 92.7874 688.894 93.0874 689.242L92.0254 690.34C91.8454 690.148 91.6474 690.01 91.4314 689.926C91.2154 689.842 90.9634 689.8 90.6754 689.8C90.0754 689.8 89.5834 689.992 89.1994 690.376C88.8154 690.76 88.6234 691.342 88.6234 692.122ZM97.9068 697.18C97.0548 697.18 96.2868 696.988 95.6028 696.604C94.9188 696.208 94.3788 695.674 93.9828 695.002C93.5868 694.33 93.3888 693.568 93.3888 692.716C93.3888 691.876 93.5808 691.12 93.9648 690.448C94.3608 689.776 94.8888 689.248 95.5488 688.864C96.2208 688.468 96.9708 688.27 97.7988 688.27C98.5908 688.27 99.2868 688.45 99.8868 688.81C100.499 689.17 100.973 689.668 101.309 690.304C101.657 690.94 101.831 691.66 101.831 692.464C101.831 692.584 101.825 692.716 101.813 692.86C101.801 692.992 101.777 693.148 101.741 693.328H94.5228V691.978H100.877L100.283 692.5C100.283 691.924 100.181 691.438 99.9768 691.042C99.7728 690.634 99.4848 690.322 99.1128 690.106C98.7408 689.878 98.2908 689.764 97.7628 689.764C97.2108 689.764 96.7248 689.884 96.3048 690.124C95.8848 690.364 95.5608 690.7 95.3328 691.132C95.1048 691.564 94.9908 692.074 94.9908 692.662C94.9908 693.262 95.1108 693.79 95.3508 694.246C95.5908 694.69 95.9328 695.038 96.3768 695.29C96.8208 695.53 97.3308 695.65 97.9068 695.65C98.3868 695.65 98.8248 695.566 99.2208 695.398C99.6288 695.23 99.9768 694.978 100.265 694.642L101.309 695.704C100.901 696.184 100.397 696.55 99.7968 696.802C99.2088 697.054 98.5788 697.18 97.9068 697.18ZM109.645 697V692.014C109.645 691.366 109.441 690.832 109.033 690.412C108.625 689.992 108.097 689.782 107.449 689.782C107.017 689.782 106.633 689.878 106.297 690.07C105.961 690.262 105.697 690.526 105.505 690.862C105.313 691.198 105.217 691.582 105.217 692.014L104.551 691.636C104.551 690.988 104.695 690.412 104.983 689.908C105.271 689.404 105.673 689.008 106.189 688.72C106.705 688.42 107.287 688.27 107.935 688.27C108.583 688.27 109.153 688.432 109.645 688.756C110.149 689.08 110.545 689.506 110.833 690.034C111.121 690.55 111.265 691.102 111.265 691.69V697H109.645ZM103.597 697V688.45H105.217V697H103.597ZM117.365 697.18C116.525 697.18 115.763 696.982 115.079 696.586C114.407 696.19 113.873 695.656 113.477 694.984C113.093 694.3 112.901 693.544 112.901 692.716C112.901 691.876 113.093 691.12 113.477 690.448C113.873 689.776 114.407 689.248 115.079 688.864C115.763 688.468 116.525 688.27 117.365 688.27C118.025 688.27 118.637 688.396 119.201 688.648C119.765 688.888 120.251 689.242 120.659 689.71L119.579 690.79C119.315 690.478 118.991 690.244 118.607 690.088C118.235 689.92 117.821 689.836 117.365 689.836C116.825 689.836 116.345 689.962 115.925 690.214C115.505 690.454 115.175 690.79 114.935 691.222C114.695 691.654 114.575 692.152 114.575 692.716C114.575 693.28 114.695 693.778 114.935 694.21C115.175 694.642 115.505 694.984 115.925 695.236C116.345 695.488 116.825 695.614 117.365 695.614C117.821 695.614 118.235 695.536 118.607 695.38C118.991 695.212 119.321 694.972 119.597 694.66L120.659 695.74C120.263 696.196 119.777 696.55 119.201 696.802C118.637 697.054 118.025 697.18 117.365 697.18ZM126.049 697.18C125.197 697.18 124.429 696.988 123.745 696.604C123.061 696.208 122.521 695.674 122.125 695.002C121.729 694.33 121.531 693.568 121.531 692.716C121.531 691.876 121.723 691.12 122.107 690.448C122.503 689.776 123.031 689.248 123.691 688.864C124.363 688.468 125.113 688.27 125.941 688.27C126.733 688.27 127.429 688.45 128.029 688.81C128.641 689.17 129.115 689.668 129.451 690.304C129.799 690.94 129.973 691.66 129.973 692.464C129.973 692.584 129.967 692.716 129.955 692.86C129.943 692.992 129.919 693.148 129.883 693.328H122.665V691.978H129.019L128.425 692.5C128.425 691.924 128.323 691.438 128.119 691.042C127.915 690.634 127.627 690.322 127.255 690.106C126.883 689.878 126.433 689.764 125.905 689.764C125.353 689.764 124.867 689.884 124.447 690.124C124.027 690.364 123.703 690.7 123.475 691.132C123.247 691.564 123.133 692.074 123.133 692.662C123.133 693.262 123.253 693.79 123.493 694.246C123.733 694.69 124.075 695.038 124.519 695.29C124.963 695.53 125.473 695.65 126.049 695.65C126.529 695.65 126.967 695.566 127.363 695.398C127.771 695.23 128.119 694.978 128.407 694.642L129.451 695.704C129.043 696.184 128.539 696.55 127.939 696.802C127.351 697.054 126.721 697.18 126.049 697.18ZM134.344 697L139.456 684.508H140.68L145.774 697H143.938L139.744 686.434H140.374L136.144 697H134.344ZM136.774 694.174V692.698H143.344V694.174H136.774ZM148.789 692.14V690.664H152.191C152.659 690.664 153.073 690.568 153.433 690.376C153.805 690.184 154.093 689.914 154.297 689.566C154.513 689.218 154.621 688.804 154.621 688.324C154.621 687.844 154.513 687.43 154.297 687.082C154.093 686.734 153.805 686.464 153.433 686.272C153.073 686.08 152.659 685.984 152.191 685.984H148.789V684.508H152.299C153.067 684.508 153.751 684.664 154.351 684.976C154.963 685.288 155.443 685.732 155.791 686.308C156.151 686.872 156.331 687.544 156.331 688.324C156.331 689.092 156.151 689.764 155.791 690.34C155.443 690.904 154.963 691.348 154.351 691.672C153.751 691.984 153.067 692.14 152.299 692.14H148.789ZM147.655 697V684.508H149.347V697H147.655ZM158.43 697V684.508H160.122V697H158.43Z" fill="#06FF61"/>
<path d="M230.51 697.18C229.694 697.18 228.95 697.03 228.278 696.73C227.618 696.418 227.06 695.968 226.604 695.38L227.756 694.228C228.032 694.648 228.41 694.984 228.89 695.236C229.37 695.476 229.904 695.596 230.492 695.596C231.044 695.596 231.518 695.494 231.914 695.29C232.322 695.074 232.64 694.774 232.868 694.39C233.108 694.006 233.228 693.562 233.228 693.058C233.228 692.542 233.108 692.098 232.868 691.726C232.64 691.342 232.316 691.048 231.896 690.844C231.476 690.64 230.978 690.538 230.402 690.538C230.186 690.538 229.97 690.556 229.754 690.592C229.538 690.616 229.328 690.658 229.124 690.718L229.844 689.746C230.072 689.638 230.318 689.554 230.582 689.494C230.846 689.434 231.11 689.404 231.374 689.404C232.046 689.404 232.646 689.56 233.174 689.872C233.714 690.184 234.14 690.622 234.452 691.186C234.776 691.75 234.938 692.404 234.938 693.148C234.938 693.94 234.746 694.642 234.362 695.254C233.99 695.854 233.474 696.328 232.814 696.676C232.154 697.012 231.386 697.18 230.51 697.18ZM229.124 690.718V689.692L232.778 685.534L234.794 685.516L231.032 689.782L229.124 690.718ZM227.198 686.02V684.508H234.794V685.516L233.318 686.02H227.198ZM238.342 697V695.452H241.816C242.74 695.452 243.55 695.254 244.246 694.858C244.942 694.45 245.482 693.892 245.866 693.184C246.262 692.476 246.46 691.66 246.46 690.736C246.46 689.824 246.262 689.014 245.866 688.306C245.47 687.598 244.924 687.046 244.228 686.65C243.532 686.254 242.728 686.056 241.816 686.056H238.36V684.508H241.852C242.764 684.508 243.604 684.664 244.372 684.976C245.152 685.288 245.824 685.726 246.388 686.29C246.964 686.854 247.408 687.514 247.72 688.27C248.044 689.026 248.206 689.854 248.206 690.754C248.206 691.642 248.044 692.47 247.72 693.238C247.408 693.994 246.97 694.654 246.406 695.218C245.842 695.782 245.17 696.22 244.39 696.532C243.622 696.844 242.788 697 241.888 697H238.342ZM237.226 697V684.508H238.918V697H237.226ZM254.006 697V688.45H255.626V697H254.006ZM255.626 692.122L255.014 691.852C255.014 690.76 255.266 689.89 255.77 689.242C256.274 688.594 257 688.27 257.948 688.27C258.38 688.27 258.77 688.348 259.118 688.504C259.466 688.648 259.79 688.894 260.09 689.242L259.028 690.34C258.848 690.148 258.65 690.01 258.434 689.926C258.218 689.842 257.966 689.8 257.678 689.8C257.078 689.8 256.586 689.992 256.202 690.376C255.818 690.76 255.626 691.342 255.626 692.122ZM264.91 697.18C264.058 697.18 263.29 696.988 262.606 696.604C261.922 696.208 261.382 695.674 260.986 695.002C260.59 694.33 260.392 693.568 260.392 692.716C260.392 691.876 260.584 691.12 260.968 690.448C261.364 689.776 261.892 689.248 262.552 688.864C263.224 688.468 263.974 688.27 264.802 688.27C265.594 688.27 266.29 688.45 266.89 688.81C267.502 689.17 267.976 689.668 268.312 690.304C268.66 690.94 268.834 691.66 268.834 692.464C268.834 692.584 268.828 692.716 268.816 692.86C268.804 692.992 268.78 693.148 268.744 693.328H261.526V691.978H267.88L267.286 692.5C267.286 691.924 267.184 691.438 266.98 691.042C266.776 690.634 266.488 690.322 266.116 690.106C265.744 689.878 265.294 689.764 264.766 689.764C264.214 689.764 263.728 689.884 263.308 690.124C262.888 690.364 262.564 690.7 262.336 691.132C262.108 691.564 261.994 692.074 261.994 692.662C261.994 693.262 262.114 693.79 262.354 694.246C262.594 694.69 262.936 695.038 263.38 695.29C263.824 695.53 264.334 695.65 264.91 695.65C265.39 695.65 265.828 695.566 266.224 695.398C266.632 695.23 266.98 694.978 267.268 694.642L268.312 695.704C267.904 696.184 267.4 696.55 266.8 696.802C266.212 697.054 265.582 697.18 264.91 697.18ZM276.648 697V692.014C276.648 691.366 276.444 690.832 276.036 690.412C275.628 689.992 275.1 689.782 274.452 689.782C274.02 689.782 273.636 689.878 273.3 690.07C272.964 690.262 272.7 690.526 272.508 690.862C272.316 691.198 272.22 691.582 272.22 692.014L271.554 691.636C271.554 690.988 271.698 690.412 271.986 689.908C272.274 689.404 272.676 689.008 273.192 688.72C273.708 688.42 274.29 688.27 274.938 688.27C275.586 688.27 276.156 688.432 276.648 688.756C277.152 689.08 277.548 689.506 277.836 690.034C278.124 690.55 278.268 691.102 278.268 691.69V697H276.648ZM270.6 697V688.45H272.22V697H270.6ZM284.079 697.18C283.287 697.18 282.579 696.988 281.955 696.604C281.331 696.208 280.833 695.674 280.461 695.002C280.101 694.33 279.921 693.574 279.921 692.734C279.921 691.894 280.101 691.138 280.461 690.466C280.833 689.794 281.331 689.26 281.955 688.864C282.579 688.468 283.287 688.27 284.079 688.27C284.715 688.27 285.291 688.408 285.807 688.684C286.323 688.948 286.737 689.32 287.049 689.8C287.373 690.268 287.553 690.814 287.589 691.438V694.012C287.553 694.624 287.379 695.17 287.067 695.65C286.755 696.13 286.341 696.508 285.825 696.784C285.309 697.048 284.727 697.18 284.079 697.18ZM284.349 695.65C284.889 695.65 285.357 695.524 285.753 695.272C286.161 695.02 286.479 694.678 286.707 694.246C286.935 693.802 287.049 693.298 287.049 692.734C287.049 692.146 286.929 691.636 286.689 691.204C286.461 690.772 286.143 690.43 285.735 690.178C285.339 689.926 284.871 689.8 284.331 689.8C283.791 689.8 283.317 689.926 282.909 690.178C282.501 690.43 282.177 690.778 281.937 691.222C281.709 691.654 281.595 692.152 281.595 692.716C281.595 693.292 281.709 693.802 281.937 694.246C282.177 694.678 282.501 695.02 282.909 695.272C283.329 695.524 283.809 695.65 284.349 695.65ZM288.579 697H286.941V694.696L287.247 692.608L286.941 690.538V684.148H288.579V697ZM294.898 697.18C294.046 697.18 293.278 696.988 292.594 696.604C291.91 696.208 291.37 695.674 290.974 695.002C290.578 694.33 290.38 693.568 290.38 692.716C290.38 691.876 290.572 691.12 290.956 690.448C291.352 689.776 291.88 689.248 292.54 688.864C293.212 688.468 293.962 688.27 294.79 688.27C295.582 688.27 296.278 688.45 296.878 688.81C297.49 689.17 297.964 689.668 298.3 690.304C298.648 690.94 298.822 691.66 298.822 692.464C298.822 692.584 298.816 692.716 298.804 692.86C298.792 692.992 298.768 693.148 298.732 693.328H291.514V691.978H297.868L297.274 692.5C297.274 691.924 297.172 691.438 296.968 691.042C296.764 690.634 296.476 690.322 296.104 690.106C295.732 689.878 295.282 689.764 294.754 689.764C294.202 689.764 293.716 689.884 293.296 690.124C292.876 690.364 292.552 690.7 292.324 691.132C292.096 691.564 291.982 692.074 291.982 692.662C291.982 693.262 292.102 693.79 292.342 694.246C292.582 694.69 292.924 695.038 293.368 695.29C293.812 695.53 294.322 695.65 294.898 695.65C295.378 695.65 295.816 695.566 296.212 695.398C296.62 695.23 296.968 694.978 297.256 694.642L298.3 695.704C297.892 696.184 297.388 696.55 296.788 696.802C296.2 697.054 295.57 697.18 294.898 697.18ZM300.588 697V688.45H302.208V697H300.588ZM302.208 692.122L301.596 691.852C301.596 690.76 301.848 689.89 302.352 689.242C302.856 688.594 303.582 688.27 304.53 688.27C304.962 688.27 305.352 688.348 305.7 688.504C306.048 688.648 306.372 688.894 306.672 689.242L305.61 690.34C305.43 690.148 305.232 690.01 305.016 689.926C304.8 689.842 304.548 689.8 304.26 689.8C303.66 689.8 303.168 689.992 302.784 690.376C302.4 690.76 302.208 691.342 302.208 692.122ZM307.831 697V688.45H309.451V697H307.831ZM308.641 686.74C308.341 686.74 308.095 686.644 307.903 686.452C307.711 686.248 307.615 685.996 307.615 685.696C307.615 685.408 307.711 685.168 307.903 684.976C308.095 684.772 308.341 684.67 308.641 684.67C308.941 684.67 309.187 684.772 309.379 684.976C309.571 685.168 309.667 685.408 309.667 685.696C309.667 685.996 309.571 686.248 309.379 686.452C309.187 686.644 308.941 686.74 308.641 686.74ZM317.886 697V692.014C317.886 691.366 317.682 690.832 317.274 690.412C316.866 689.992 316.338 689.782 315.69 689.782C315.258 689.782 314.874 689.878 314.538 690.07C314.202 690.262 313.938 690.526 313.746 690.862C313.554 691.198 313.458 691.582 313.458 692.014L312.792 691.636C312.792 690.988 312.936 690.412 313.224 689.908C313.512 689.404 313.914 689.008 314.43 688.72C314.946 688.42 315.528 688.27 316.176 688.27C316.824 688.27 317.394 688.432 317.886 688.756C318.39 689.08 318.786 689.506 319.074 690.034C319.362 690.55 319.506 691.102 319.506 691.69V697H317.886ZM311.838 697V688.45H313.458V697H311.838ZM325.246 700.762C324.37 700.762 323.59 700.6 322.906 700.276C322.234 699.952 321.694 699.496 321.286 698.908L322.33 697.846C322.678 698.29 323.092 698.626 323.572 698.854C324.052 699.094 324.622 699.214 325.282 699.214C326.158 699.214 326.848 698.98 327.352 698.512C327.868 698.056 328.126 697.438 328.126 696.658V694.534L328.414 692.608L328.126 690.7V688.45H329.746V696.658C329.746 697.474 329.554 698.188 329.17 698.8C328.798 699.412 328.27 699.892 327.586 700.24C326.914 700.588 326.134 700.762 325.246 700.762ZM325.246 696.856C324.466 696.856 323.764 696.67 323.14 696.298C322.528 695.926 322.042 695.416 321.682 694.768C321.322 694.108 321.142 693.37 321.142 692.554C321.142 691.738 321.322 691.012 321.682 690.376C322.042 689.728 322.528 689.218 323.14 688.846C323.764 688.462 324.466 688.27 325.246 688.27C325.918 688.27 326.512 688.402 327.028 688.666C327.544 688.93 327.952 689.302 328.252 689.782C328.564 690.25 328.732 690.802 328.756 691.438V693.706C328.72 694.33 328.546 694.882 328.234 695.362C327.934 695.83 327.526 696.196 327.01 696.46C326.494 696.724 325.906 696.856 325.246 696.856ZM325.57 695.326C326.098 695.326 326.56 695.212 326.956 694.984C327.364 694.756 327.676 694.438 327.892 694.03C328.108 693.61 328.216 693.124 328.216 692.572C328.216 692.02 328.102 691.54 327.874 691.132C327.658 690.712 327.352 690.388 326.956 690.16C326.56 689.92 326.092 689.8 325.552 689.8C325.012 689.8 324.538 689.92 324.13 690.16C323.722 690.388 323.398 690.712 323.158 691.132C322.93 691.54 322.816 692.014 322.816 692.554C322.816 693.094 322.93 693.574 323.158 693.994C323.398 694.414 323.722 694.744 324.13 694.984C324.55 695.212 325.03 695.326 325.57 695.326Z" fill="#06FF61"/>
<rect x="39.5" y="795.5" width="309" height="84" rx="9.5" fill="#0D1524"/>
<path d="M150.153 845V842.56H153.473C154.086 842.56 154.566 842.38 154.913 842.02C155.259 841.66 155.433 841.22 155.433 840.7C155.433 840.34 155.353 840.02 155.193 839.74C155.033 839.46 154.806 839.24 154.513 839.08C154.233 838.92 153.886 838.84 153.473 838.84H150.153V836.46H153.213C153.733 836.46 154.153 836.333 154.473 836.08C154.793 835.813 154.953 835.413 154.953 834.88C154.953 834.36 154.793 833.973 154.473 833.72C154.153 833.453 153.733 833.32 153.213 833.32H150.153V830.88H153.813C154.719 830.88 155.486 831.047 156.113 831.38C156.753 831.713 157.239 832.16 157.573 832.72C157.906 833.28 158.073 833.9 158.073 834.58C158.073 835.447 157.793 836.18 157.233 836.78C156.673 837.38 155.846 837.793 154.753 838.02L154.833 836.96C156.019 837.187 156.933 837.647 157.573 838.34C158.226 839.033 158.553 839.887 158.553 840.9C158.553 841.673 158.359 842.373 157.973 843C157.599 843.613 157.053 844.1 156.333 844.46C155.626 844.82 154.773 845 153.773 845H150.153ZM147.753 845V830.88H150.853V845H147.753ZM159.685 843.24L165.105 837.64C165.438 837.307 165.705 837 165.905 836.72C166.105 836.44 166.252 836.18 166.345 835.94C166.438 835.687 166.485 835.433 166.485 835.18C166.485 834.633 166.305 834.207 165.945 833.9C165.598 833.58 165.138 833.42 164.565 833.42C164.005 833.42 163.498 833.573 163.045 833.88C162.605 834.173 162.178 834.66 161.765 835.34L159.665 833.52C160.225 832.573 160.938 831.86 161.805 831.38C162.672 830.9 163.665 830.66 164.785 830.66C165.758 830.66 166.598 830.84 167.305 831.2C168.025 831.56 168.578 832.073 168.965 832.74C169.365 833.407 169.565 834.187 169.565 835.08C169.565 835.64 169.492 836.16 169.345 836.64C169.198 837.107 168.958 837.573 168.625 838.04C168.305 838.493 167.872 838.993 167.325 839.54L163.565 843.28L159.685 843.24ZM159.685 845V843.24L162.345 842.32H169.845V845H159.685ZM174.254 845V842.56H177.574C178.187 842.56 178.667 842.38 179.014 842.02C179.361 841.66 179.534 841.22 179.534 840.7C179.534 840.34 179.454 840.02 179.294 839.74C179.134 839.46 178.907 839.24 178.614 839.08C178.334 838.92 177.987 838.84 177.574 838.84H174.254V836.46H177.314C177.834 836.46 178.254 836.333 178.574 836.08C178.894 835.813 179.054 835.413 179.054 834.88C179.054 834.36 178.894 833.973 178.574 833.72C178.254 833.453 177.834 833.32 177.314 833.32H174.254V830.88H177.914C178.821 830.88 179.587 831.047 180.214 831.38C180.854 831.713 181.341 832.16 181.674 832.72C182.007 833.28 182.174 833.9 182.174 834.58C182.174 835.447 181.894 836.18 181.334 836.78C180.774 837.38 179.947 837.793 178.854 838.02L178.934 836.96C180.121 837.187 181.034 837.647 181.674 838.34C182.327 839.033 182.654 839.887 182.654 840.9C182.654 841.673 182.461 842.373 182.074 843C181.701 843.613 181.154 844.1 180.434 844.46C179.727 844.82 178.874 845 177.874 845H174.254ZM171.854 845V830.88H174.954V845H171.854ZM195.175 845.22C194.122 845.22 193.142 845.04 192.235 844.68C191.342 844.307 190.555 843.787 189.875 843.12C189.209 842.453 188.689 841.68 188.315 840.8C187.942 839.907 187.755 838.947 187.755 837.92C187.755 836.893 187.942 835.94 188.315 835.06C188.689 834.167 189.209 833.393 189.875 832.74C190.542 832.087 191.322 831.58 192.215 831.22C193.122 830.847 194.102 830.66 195.155 830.66C196.275 830.66 197.269 830.84 198.135 831.2C199.015 831.56 199.782 832.053 200.435 832.68L198.335 834.8C197.962 834.4 197.509 834.087 196.975 833.86C196.455 833.633 195.849 833.52 195.155 833.52C194.542 833.52 193.975 833.627 193.455 833.84C192.949 834.04 192.509 834.333 192.135 834.72C191.775 835.107 191.489 835.573 191.275 836.12C191.075 836.667 190.975 837.267 190.975 837.92C190.975 838.587 191.075 839.193 191.275 839.74C191.489 840.287 191.775 840.753 192.135 841.14C192.509 841.527 192.949 841.827 193.455 842.04C193.975 842.253 194.542 842.36 195.155 842.36C195.875 842.36 196.502 842.247 197.035 842.02C197.569 841.793 198.029 841.48 198.415 841.08L200.535 843.2C199.855 843.827 199.075 844.32 198.195 844.68C197.329 845.04 196.322 845.22 195.175 845.22ZM201.984 845V830.48H205.044V845H201.984ZM207.199 845V835.28H210.259V845H207.199ZM208.739 833.94C208.259 833.94 207.859 833.78 207.539 833.46C207.232 833.127 207.079 832.727 207.079 832.26C207.079 831.78 207.232 831.38 207.539 831.06C207.859 830.74 208.259 830.58 208.739 830.58C209.219 830.58 209.612 830.74 209.919 831.06C210.226 831.38 210.379 831.78 210.379 832.26C210.379 832.727 210.226 833.127 209.919 833.46C209.612 833.78 209.219 833.94 208.739 833.94ZM217.214 845.22C216.161 845.22 215.221 845.007 214.394 844.58C213.581 844.14 212.941 843.533 212.474 842.76C212.007 841.987 211.774 841.113 211.774 840.14C211.774 839.167 212.001 838.3 212.454 837.54C212.921 836.767 213.547 836.16 214.334 835.72C215.121 835.28 216.007 835.06 216.994 835.06C217.954 835.06 218.801 835.267 219.534 835.68C220.267 836.093 220.841 836.667 221.254 837.4C221.681 838.133 221.894 838.973 221.894 839.92C221.894 840.093 221.881 840.28 221.854 840.48C221.841 840.667 221.807 840.887 221.754 841.14L213.374 841.16V839.06L220.454 839.04L219.134 839.92C219.121 839.36 219.034 838.9 218.874 838.54C218.714 838.167 218.474 837.887 218.154 837.7C217.847 837.5 217.467 837.4 217.014 837.4C216.534 837.4 216.114 837.513 215.754 837.74C215.407 837.953 215.134 838.26 214.934 838.66C214.747 839.06 214.654 839.547 214.654 840.12C214.654 840.693 214.754 841.187 214.954 841.6C215.167 842 215.461 842.313 215.834 842.54C216.221 842.753 216.674 842.86 217.194 842.86C217.674 842.86 218.107 842.78 218.494 842.62C218.881 842.447 219.221 842.193 219.514 841.86L221.194 843.54C220.714 844.1 220.134 844.52 219.454 844.8C218.774 845.08 218.027 845.22 217.214 845.22ZM229.791 845V839.46C229.791 838.953 229.631 838.547 229.311 838.24C229.004 837.92 228.611 837.76 228.131 837.76C227.798 837.76 227.504 837.833 227.251 837.98C226.998 838.113 226.798 838.313 226.651 838.58C226.504 838.833 226.431 839.127 226.431 839.46L225.251 838.88C225.251 838.12 225.418 837.453 225.751 836.88C226.084 836.307 226.544 835.867 227.131 835.56C227.731 835.24 228.404 835.08 229.151 835.08C229.871 835.08 230.504 835.253 231.051 835.6C231.611 835.933 232.051 836.38 232.371 836.94C232.691 837.5 232.851 838.113 232.851 838.78V845H229.791ZM223.371 845V835.28H226.431V845H223.371ZM236.079 845V831.26H239.139V845H236.079ZM233.879 837.88V835.28H241.339V837.88H233.879Z" fill="#06FF61"/>
<rect x="39.5" y="795.5" width="309" height="84" rx="9.5" stroke="url(#paint0_linear_338_536)"/>
<g filter="url(#filter0_d_338_536)">
<rect x="127.5" y="900" width="133" height="39" rx="19.5" fill="#090F1B" shape-rendering="crispEdges"/>
<path d="M164.566 926.18C163.57 926.18 162.724 926 162.028 925.64C161.332 925.28 160.708 924.752 160.156 924.056L161.56 922.652C161.908 923.156 162.322 923.552 162.802 923.84C163.282 924.116 163.894 924.254 164.638 924.254C165.334 924.254 165.886 924.11 166.294 923.822C166.714 923.534 166.924 923.138 166.924 922.634C166.924 922.214 166.816 921.872 166.6 921.608C166.384 921.344 166.096 921.128 165.736 920.96C165.388 920.78 164.998 920.624 164.566 920.492C164.146 920.348 163.72 920.192 163.288 920.024C162.868 919.844 162.478 919.622 162.118 919.358C161.77 919.094 161.488 918.752 161.272 918.332C161.056 917.912 160.948 917.378 160.948 916.73C160.948 915.986 161.128 915.356 161.488 914.84C161.86 914.312 162.358 913.91 162.982 913.634C163.606 913.358 164.302 913.22 165.07 913.22C165.898 913.22 166.636 913.382 167.284 913.706C167.944 914.03 168.478 914.444 168.886 914.948L167.482 916.352C167.122 915.944 166.744 915.644 166.348 915.452C165.964 915.248 165.52 915.146 165.016 915.146C164.392 915.146 163.9 915.272 163.54 915.524C163.192 915.776 163.018 916.13 163.018 916.586C163.018 916.97 163.126 917.282 163.342 917.522C163.558 917.75 163.84 917.948 164.188 918.116C164.548 918.272 164.938 918.422 165.358 918.566C165.79 918.71 166.216 918.872 166.636 919.052C167.068 919.232 167.458 919.466 167.806 919.754C168.166 920.03 168.454 920.39 168.67 920.834C168.886 921.278 168.994 921.836 168.994 922.508C168.994 923.636 168.592 924.53 167.788 925.19C166.996 925.85 165.922 926.18 164.566 926.18ZM172.101 926V913.76H174.081V926H172.101ZM170.031 919.16V917.36H176.151V919.16H170.031ZM180.962 926.18C180.182 926.18 179.474 925.982 178.838 925.586C178.214 925.19 177.716 924.656 177.344 923.984C176.984 923.3 176.804 922.538 176.804 921.698C176.804 920.846 176.984 920.084 177.344 919.412C177.716 918.728 178.214 918.188 178.838 917.792C179.474 917.384 180.182 917.18 180.962 917.18C181.622 917.18 182.204 917.324 182.708 917.612C183.224 917.888 183.632 918.272 183.932 918.764C184.232 919.256 184.382 919.814 184.382 920.438V922.922C184.382 923.546 184.232 924.104 183.932 924.596C183.644 925.088 183.242 925.478 182.726 925.766C182.21 926.042 181.622 926.18 180.962 926.18ZM181.286 924.308C182.018 924.308 182.606 924.062 183.05 923.57C183.506 923.078 183.734 922.448 183.734 921.68C183.734 921.164 183.632 920.708 183.428 920.312C183.224 919.916 182.936 919.61 182.564 919.394C182.204 919.166 181.778 919.052 181.286 919.052C180.806 919.052 180.38 919.166 180.008 919.394C179.648 919.61 179.36 919.916 179.144 920.312C178.94 920.708 178.838 921.164 178.838 921.68C178.838 922.196 178.94 922.652 179.144 923.048C179.36 923.444 179.648 923.756 180.008 923.984C180.38 924.2 180.806 924.308 181.286 924.308ZM183.608 926V923.678L183.95 921.572L183.608 919.484V917.36H185.588V926H183.608ZM187.786 926V917.36H189.766V926H187.786ZM189.766 921.194L189.082 920.852C189.082 919.76 189.322 918.878 189.802 918.206C190.294 917.522 191.032 917.18 192.016 917.18C192.448 917.18 192.838 917.258 193.186 917.414C193.534 917.57 193.858 917.822 194.158 918.17L192.862 919.502C192.706 919.334 192.532 919.214 192.34 919.142C192.148 919.07 191.926 919.034 191.674 919.034C191.122 919.034 190.666 919.208 190.306 919.556C189.946 919.904 189.766 920.45 189.766 921.194ZM196.447 926V913.76H198.427V926H196.447ZM194.377 919.16V917.36H200.497V919.16H194.377ZM205.482 926.18C204.75 926.18 204.096 926.018 203.52 925.694C202.956 925.37 202.512 924.926 202.188 924.362C201.876 923.786 201.72 923.126 201.72 922.382V917.36H203.7V922.292C203.7 922.712 203.766 923.072 203.898 923.372C204.042 923.66 204.246 923.882 204.51 924.038C204.786 924.194 205.11 924.272 205.482 924.272C206.058 924.272 206.496 924.104 206.796 923.768C207.108 923.42 207.264 922.928 207.264 922.292V917.36H209.244V922.382C209.244 923.138 209.082 923.804 208.758 924.38C208.446 924.944 208.008 925.388 207.444 925.712C206.88 926.024 206.226 926.18 205.482 926.18ZM215.861 926.18C215.201 926.18 214.613 926.042 214.097 925.766C213.581 925.478 213.173 925.088 212.873 924.596C212.585 924.104 212.441 923.546 212.441 922.922V920.438C212.441 919.814 212.591 919.256 212.891 918.764C213.191 918.272 213.599 917.888 214.115 917.612C214.631 917.324 215.213 917.18 215.861 917.18C216.641 917.18 217.343 917.384 217.967 917.792C218.603 918.188 219.101 918.728 219.461 919.412C219.833 920.084 220.019 920.846 220.019 921.698C220.019 922.538 219.833 923.3 219.461 923.984C219.101 924.656 218.603 925.19 217.967 925.586C217.343 925.982 216.641 926.18 215.861 926.18ZM215.537 924.308C216.017 924.308 216.437 924.2 216.797 923.984C217.169 923.756 217.457 923.444 217.661 923.048C217.877 922.652 217.985 922.196 217.985 921.68C217.985 921.164 217.877 920.708 217.661 920.312C217.457 919.916 217.169 919.61 216.797 919.394C216.437 919.166 216.017 919.052 215.537 919.052C215.057 919.052 214.631 919.166 214.259 919.394C213.887 919.61 213.599 919.916 213.395 920.312C213.191 920.708 213.089 921.164 213.089 921.68C213.089 922.196 213.191 922.652 213.395 923.048C213.599 923.444 213.887 923.756 214.259 923.984C214.631 924.2 215.057 924.308 215.537 924.308ZM211.235 929.6V917.36H213.215V919.682L212.873 921.788L213.215 923.876V929.6H211.235ZM224.502 926.18C224.022 926.18 223.56 926.12 223.116 926C222.672 925.868 222.264 925.688 221.892 925.46C221.52 925.22 221.196 924.932 220.92 924.596L222.18 923.336C222.48 923.684 222.822 923.948 223.206 924.128C223.602 924.296 224.046 924.38 224.538 924.38C224.982 924.38 225.318 924.314 225.546 924.182C225.774 924.05 225.888 923.858 225.888 923.606C225.888 923.342 225.78 923.138 225.564 922.994C225.348 922.85 225.066 922.73 224.718 922.634C224.382 922.526 224.022 922.418 223.638 922.31C223.266 922.202 222.906 922.058 222.558 921.878C222.222 921.686 221.946 921.428 221.73 921.104C221.514 920.78 221.406 920.36 221.406 919.844C221.406 919.292 221.532 918.818 221.784 918.422C222.048 918.026 222.414 917.72 222.882 917.504C223.362 917.288 223.932 917.18 224.592 917.18C225.288 917.18 225.9 917.306 226.428 917.558C226.968 917.798 227.418 918.164 227.778 918.656L226.518 919.916C226.266 919.604 225.978 919.37 225.654 919.214C225.33 919.058 224.958 918.98 224.538 918.98C224.142 918.98 223.836 919.04 223.62 919.16C223.404 919.28 223.296 919.454 223.296 919.682C223.296 919.922 223.404 920.108 223.62 920.24C223.836 920.372 224.112 920.486 224.448 920.582C224.796 920.678 225.156 920.786 225.528 920.906C225.912 921.014 226.272 921.17 226.608 921.374C226.956 921.566 227.238 921.83 227.454 922.166C227.67 922.49 227.778 922.916 227.778 923.444C227.778 924.284 227.484 924.95 226.896 925.442C226.308 925.934 225.51 926.18 224.502 926.18Z" fill="#06FF61"/>
<rect x="128" y="900.5" width="132" height="38" rx="19" stroke="#06FF61" shape-rendering="crispEdges"/>
</g>
<g filter="url(#filter1_d_338_536)">
<rect x="127" y="959" width="134" height="39" rx="19.5" fill="#090F1B" shape-rendering="crispEdges"/>
<path d="M161.994 980.248V978.448H165.144C165.576 978.448 165.954 978.364 166.278 978.196C166.614 978.016 166.878 977.77 167.07 977.458C167.262 977.134 167.358 976.756 167.358 976.324C167.358 975.892 167.262 975.52 167.07 975.208C166.878 974.884 166.614 974.638 166.278 974.47C165.954 974.29 165.576 974.2 165.144 974.2H161.994V972.4H165.252C166.044 972.4 166.752 972.562 167.376 972.886C168.012 973.21 168.51 973.666 168.87 974.254C169.242 974.842 169.428 975.532 169.428 976.324C169.428 977.116 169.242 977.806 168.87 978.394C168.51 978.982 168.012 979.438 167.376 979.762C166.752 980.086 166.044 980.248 165.252 980.248H161.994ZM160.572 985V972.4H162.642V985H160.572ZM174.74 985.18C173.876 985.18 173.096 984.988 172.4 984.604C171.716 984.208 171.17 983.668 170.762 982.984C170.366 982.3 170.168 981.532 170.168 980.68C170.168 979.828 170.366 979.066 170.762 978.394C171.158 977.71 171.692 977.17 172.364 976.774C173.048 976.378 173.804 976.18 174.632 976.18C175.436 976.18 176.144 976.366 176.756 976.738C177.38 977.11 177.866 977.62 178.214 978.268C178.574 978.916 178.754 979.654 178.754 980.482C178.754 980.626 178.742 980.776 178.718 980.932C178.706 981.076 178.682 981.238 178.646 981.418H171.554V979.798H177.62L176.882 980.446C176.858 979.918 176.756 979.474 176.576 979.114C176.396 978.754 176.138 978.478 175.802 978.286C175.478 978.094 175.076 977.998 174.596 977.998C174.092 977.998 173.654 978.106 173.282 978.322C172.91 978.538 172.622 978.844 172.418 979.24C172.214 979.624 172.112 980.086 172.112 980.626C172.112 981.166 172.22 981.64 172.436 982.048C172.652 982.456 172.958 982.774 173.354 983.002C173.75 983.218 174.206 983.326 174.722 983.326C175.166 983.326 175.574 983.248 175.946 983.092C176.33 982.936 176.654 982.708 176.918 982.408L178.178 983.686C177.758 984.178 177.248 984.55 176.648 984.802C176.048 985.054 175.412 985.18 174.74 985.18ZM180.341 985V976.36H182.321V985H180.341ZM182.321 980.194L181.637 979.852C181.637 978.76 181.877 977.878 182.357 977.206C182.849 976.522 183.587 976.18 184.571 976.18C185.003 976.18 185.393 976.258 185.741 976.414C186.089 976.57 186.413 976.822 186.713 977.17L185.417 978.502C185.261 978.334 185.087 978.214 184.895 978.142C184.703 978.07 184.481 978.034 184.229 978.034C183.677 978.034 183.221 978.208 182.861 978.556C182.501 978.904 182.321 979.45 182.321 980.194ZM190.304 985.18C189.824 985.18 189.362 985.12 188.918 985C188.474 984.868 188.066 984.688 187.694 984.46C187.322 984.22 186.998 983.932 186.722 983.596L187.982 982.336C188.282 982.684 188.624 982.948 189.008 983.128C189.404 983.296 189.848 983.38 190.34 983.38C190.784 983.38 191.12 983.314 191.348 983.182C191.576 983.05 191.69 982.858 191.69 982.606C191.69 982.342 191.582 982.138 191.366 981.994C191.15 981.85 190.868 981.73 190.52 981.634C190.184 981.526 189.824 981.418 189.44 981.31C189.068 981.202 188.708 981.058 188.36 980.878C188.024 980.686 187.748 980.428 187.532 980.104C187.316 979.78 187.208 979.36 187.208 978.844C187.208 978.292 187.334 977.818 187.586 977.422C187.85 977.026 188.216 976.72 188.684 976.504C189.164 976.288 189.734 976.18 190.394 976.18C191.09 976.18 191.702 976.306 192.23 976.558C192.77 976.798 193.22 977.164 193.58 977.656L192.32 978.916C192.068 978.604 191.78 978.37 191.456 978.214C191.132 978.058 190.76 977.98 190.34 977.98C189.944 977.98 189.638 978.04 189.422 978.16C189.206 978.28 189.098 978.454 189.098 978.682C189.098 978.922 189.206 979.108 189.422 979.24C189.638 979.372 189.914 979.486 190.25 979.582C190.598 979.678 190.958 979.786 191.33 979.906C191.714 980.014 192.074 980.17 192.41 980.374C192.758 980.566 193.04 980.83 193.256 981.166C193.472 981.49 193.58 981.916 193.58 982.444C193.58 983.284 193.286 983.95 192.698 984.442C192.11 984.934 191.312 985.18 190.304 985.18ZM199.172 985.18C198.332 985.18 197.57 984.982 196.886 984.586C196.202 984.178 195.656 983.632 195.248 982.948C194.852 982.264 194.654 981.502 194.654 980.662C194.654 979.822 194.852 979.066 195.248 978.394C195.656 977.722 196.202 977.188 196.886 976.792C197.57 976.384 198.332 976.18 199.172 976.18C200.024 976.18 200.792 976.378 201.476 976.774C202.16 977.17 202.7 977.71 203.096 978.394C203.504 979.066 203.708 979.822 203.708 980.662C203.708 981.502 203.504 982.264 203.096 982.948C202.7 983.632 202.16 984.178 201.476 984.586C200.792 984.982 200.024 985.18 199.172 985.18ZM199.172 983.272C199.664 983.272 200.096 983.164 200.468 982.948C200.852 982.72 201.146 982.408 201.35 982.012C201.566 981.616 201.674 981.166 201.674 980.662C201.674 980.158 201.566 979.714 201.35 979.33C201.134 978.946 200.84 978.646 200.468 978.43C200.096 978.202 199.664 978.088 199.172 978.088C198.692 978.088 198.26 978.202 197.876 978.43C197.504 978.646 197.21 978.946 196.994 979.33C196.79 979.714 196.688 980.158 196.688 980.662C196.688 981.166 196.79 981.616 196.994 982.012C197.21 982.408 197.504 982.72 197.876 982.948C198.26 983.164 198.692 983.272 199.172 983.272ZM211.277 985V980.014C211.277 979.438 211.091 978.964 210.719 978.592C210.359 978.22 209.891 978.034 209.315 978.034C208.931 978.034 208.589 978.118 208.289 978.286C207.989 978.454 207.755 978.688 207.587 978.988C207.419 979.288 207.335 979.63 207.335 980.014L206.561 979.582C206.561 978.922 206.705 978.34 206.993 977.836C207.281 977.32 207.677 976.918 208.181 976.63C208.697 976.33 209.273 976.18 209.909 976.18C210.557 976.18 211.133 976.348 211.637 976.684C212.141 977.008 212.537 977.434 212.825 977.962C213.113 978.478 213.257 979.018 213.257 979.582V985H211.277ZM205.355 985V976.36H207.335V985H205.355ZM218.887 985.18C218.107 985.18 217.399 984.982 216.763 984.586C216.139 984.19 215.641 983.656 215.269 982.984C214.909 982.3 214.729 981.538 214.729 980.698C214.729 979.846 214.909 979.084 215.269 978.412C215.641 977.728 216.139 977.188 216.763 976.792C217.399 976.384 218.107 976.18 218.887 976.18C219.547 976.18 220.129 976.324 220.633 976.612C221.149 976.888 221.557 977.272 221.857 977.764C222.157 978.256 222.307 978.814 222.307 979.438V981.922C222.307 982.546 222.157 983.104 221.857 983.596C221.569 984.088 221.167 984.478 220.651 984.766C220.135 985.042 219.547 985.18 218.887 985.18ZM219.211 983.308C219.943 983.308 220.531 983.062 220.975 982.57C221.431 982.078 221.659 981.448 221.659 980.68C221.659 980.164 221.557 979.708 221.353 979.312C221.149 978.916 220.861 978.61 220.489 978.394C220.129 978.166 219.703 978.052 219.211 978.052C218.731 978.052 218.305 978.166 217.933 978.394C217.573 978.61 217.285 978.916 217.069 979.312C216.865 979.708 216.763 980.164 216.763 980.68C216.763 981.196 216.865 981.652 217.069 982.048C217.285 982.444 217.573 982.756 217.933 982.984C218.305 983.2 218.731 983.308 219.211 983.308ZM221.533 985V982.678L221.875 980.572L221.533 978.484V976.36H223.513V985H221.533ZM225.71 985V972.04H227.69V985H225.71Z" fill="#06FF61"/>
<rect x="127.5" y="959.5" width="133" height="38" rx="19" stroke="#06FF61" shape-rendering="crispEdges"/>
</g>
<g filter="url(#filter2_d_338_536)">
<rect x="116" y="1018" width="156" height="39" rx="19.5" fill="#090F1B" shape-rendering="crispEdges"/>
<path d="M149.691 1044V1031.4H151.761V1044H149.691ZM151.113 1044V1042.11H157.701V1044H151.113ZM162.637 1044.18C161.857 1044.18 161.149 1043.98 160.513 1043.59C159.889 1043.19 159.391 1042.66 159.019 1041.98C158.659 1041.3 158.479 1040.54 158.479 1039.7C158.479 1038.85 158.659 1038.08 159.019 1037.41C159.391 1036.73 159.889 1036.19 160.513 1035.79C161.149 1035.38 161.857 1035.18 162.637 1035.18C163.297 1035.18 163.879 1035.32 164.383 1035.61C164.899 1035.89 165.307 1036.27 165.607 1036.76C165.907 1037.26 166.057 1037.81 166.057 1038.44V1040.92C166.057 1041.55 165.907 1042.1 165.607 1042.6C165.319 1043.09 164.917 1043.48 164.401 1043.77C163.885 1044.04 163.297 1044.18 162.637 1044.18ZM162.961 1042.31C163.693 1042.31 164.281 1042.06 164.725 1041.57C165.181 1041.08 165.409 1040.45 165.409 1039.68C165.409 1039.16 165.307 1038.71 165.103 1038.31C164.899 1037.92 164.611 1037.61 164.239 1037.39C163.879 1037.17 163.453 1037.05 162.961 1037.05C162.481 1037.05 162.055 1037.17 161.683 1037.39C161.323 1037.61 161.035 1037.92 160.819 1038.31C160.615 1038.71 160.513 1039.16 160.513 1039.68C160.513 1040.2 160.615 1040.65 160.819 1041.05C161.035 1041.44 161.323 1041.76 161.683 1041.98C162.055 1042.2 162.481 1042.31 162.961 1042.31ZM165.283 1044V1041.68L165.625 1039.57L165.283 1037.48V1035.36H167.263V1044H165.283ZM174.086 1044.18C173.426 1044.18 172.838 1044.04 172.322 1043.77C171.806 1043.48 171.398 1043.09 171.098 1042.6C170.81 1042.1 170.666 1041.55 170.666 1040.92V1038.44C170.666 1037.81 170.816 1037.26 171.116 1036.76C171.416 1036.27 171.824 1035.89 172.34 1035.61C172.856 1035.32 173.438 1035.18 174.086 1035.18C174.866 1035.18 175.568 1035.38 176.192 1035.79C176.828 1036.19 177.326 1036.73 177.686 1037.41C178.058 1038.08 178.244 1038.85 178.244 1039.7C178.244 1040.54 178.058 1041.3 177.686 1041.98C177.326 1042.66 176.828 1043.19 176.192 1043.59C175.568 1043.98 174.866 1044.18 174.086 1044.18ZM173.762 1042.31C174.242 1042.31 174.662 1042.2 175.022 1041.98C175.394 1041.76 175.682 1041.44 175.886 1041.05C176.102 1040.65 176.21 1040.2 176.21 1039.68C176.21 1039.16 176.102 1038.71 175.886 1038.31C175.682 1037.92 175.394 1037.61 175.022 1037.39C174.662 1037.17 174.242 1037.05 173.762 1037.05C173.282 1037.05 172.856 1037.17 172.484 1037.39C172.112 1037.61 171.824 1037.92 171.62 1038.31C171.416 1038.71 171.314 1039.16 171.314 1039.68C171.314 1040.2 171.416 1040.65 171.62 1041.05C171.824 1041.44 172.112 1041.76 172.484 1041.98C172.856 1042.2 173.282 1042.31 173.762 1042.31ZM169.46 1044V1031.04H171.44V1037.48L171.098 1039.57L171.44 1041.68V1044H169.46ZM183.862 1044.18C183.022 1044.18 182.26 1043.98 181.576 1043.59C180.892 1043.18 180.346 1042.63 179.938 1041.95C179.542 1041.26 179.344 1040.5 179.344 1039.66C179.344 1038.82 179.542 1038.07 179.938 1037.39C180.346 1036.72 180.892 1036.19 181.576 1035.79C182.26 1035.38 183.022 1035.18 183.862 1035.18C184.714 1035.18 185.482 1035.38 186.166 1035.77C186.85 1036.17 187.39 1036.71 187.786 1037.39C188.194 1038.07 188.398 1038.82 188.398 1039.66C188.398 1040.5 188.194 1041.26 187.786 1041.95C187.39 1042.63 186.85 1043.18 186.166 1043.59C185.482 1043.98 184.714 1044.18 183.862 1044.18ZM183.862 1042.27C184.354 1042.27 184.786 1042.16 185.158 1041.95C185.542 1041.72 185.836 1041.41 186.04 1041.01C186.256 1040.62 186.364 1040.17 186.364 1039.66C186.364 1039.16 186.256 1038.71 186.04 1038.33C185.824 1037.95 185.53 1037.65 185.158 1037.43C184.786 1037.2 184.354 1037.09 183.862 1037.09C183.382 1037.09 182.95 1037.2 182.566 1037.43C182.194 1037.65 181.9 1037.95 181.684 1038.33C181.48 1038.71 181.378 1039.16 181.378 1039.66C181.378 1040.17 181.48 1040.62 181.684 1041.01C181.9 1041.41 182.194 1041.72 182.566 1041.95C182.95 1042.16 183.382 1042.27 183.862 1042.27ZM190.044 1044V1035.36H192.024V1044H190.044ZM192.024 1039.19L191.34 1038.85C191.34 1037.76 191.58 1036.88 192.06 1036.21C192.552 1035.52 193.29 1035.18 194.274 1035.18C194.706 1035.18 195.096 1035.26 195.444 1035.41C195.792 1035.57 196.116 1035.82 196.416 1036.17L195.12 1037.5C194.964 1037.33 194.79 1037.21 194.598 1037.14C194.406 1037.07 194.184 1037.03 193.932 1037.03C193.38 1037.03 192.924 1037.21 192.564 1037.56C192.204 1037.9 192.024 1038.45 192.024 1039.19ZM200.729 1044.18C199.949 1044.18 199.241 1043.98 198.605 1043.59C197.981 1043.19 197.483 1042.66 197.111 1041.98C196.751 1041.3 196.571 1040.54 196.571 1039.7C196.571 1038.85 196.751 1038.08 197.111 1037.41C197.483 1036.73 197.981 1036.19 198.605 1035.79C199.241 1035.38 199.949 1035.18 200.729 1035.18C201.389 1035.18 201.971 1035.32 202.475 1035.61C202.991 1035.89 203.399 1036.27 203.699 1036.76C203.999 1037.26 204.149 1037.81 204.149 1038.44V1040.92C204.149 1041.55 203.999 1042.1 203.699 1042.6C203.411 1043.09 203.009 1043.48 202.493 1043.77C201.977 1044.04 201.389 1044.18 200.729 1044.18ZM201.053 1042.31C201.785 1042.31 202.373 1042.06 202.817 1041.57C203.273 1041.08 203.501 1040.45 203.501 1039.68C203.501 1039.16 203.399 1038.71 203.195 1038.31C202.991 1037.92 202.703 1037.61 202.331 1037.39C201.971 1037.17 201.545 1037.05 201.053 1037.05C200.573 1037.05 200.147 1037.17 199.775 1037.39C199.415 1037.61 199.127 1037.92 198.911 1038.31C198.707 1038.71 198.605 1039.16 198.605 1039.68C198.605 1040.2 198.707 1040.65 198.911 1041.05C199.127 1041.44 199.415 1041.76 199.775 1041.98C200.147 1042.2 200.573 1042.31 201.053 1042.31ZM203.375 1044V1041.68L203.717 1039.57L203.375 1037.48V1035.36H205.355V1044H203.375ZM208.866 1044V1031.76H210.846V1044H208.866ZM206.796 1037.16V1035.36H212.916V1037.16H206.796ZM218.069 1044.18C217.229 1044.18 216.467 1043.98 215.783 1043.59C215.099 1043.18 214.553 1042.63 214.145 1041.95C213.749 1041.26 213.551 1040.5 213.551 1039.66C213.551 1038.82 213.749 1038.07 214.145 1037.39C214.553 1036.72 215.099 1036.19 215.783 1035.79C216.467 1035.38 217.229 1035.18 218.069 1035.18C218.921 1035.18 219.689 1035.38 220.373 1035.77C221.057 1036.17 221.597 1036.71 221.993 1037.39C222.401 1038.07 222.605 1038.82 222.605 1039.66C222.605 1040.5 222.401 1041.26 221.993 1041.95C221.597 1042.63 221.057 1043.18 220.373 1043.59C219.689 1043.98 218.921 1044.18 218.069 1044.18ZM218.069 1042.27C218.561 1042.27 218.993 1042.16 219.365 1041.95C219.749 1041.72 220.043 1041.41 220.247 1041.01C220.463 1040.62 220.571 1040.17 220.571 1039.66C220.571 1039.16 220.463 1038.71 220.247 1038.33C220.031 1037.95 219.737 1037.65 219.365 1037.43C218.993 1037.2 218.561 1037.09 218.069 1037.09C217.589 1037.09 217.157 1037.2 216.773 1037.43C216.401 1037.65 216.107 1037.95 215.891 1038.33C215.687 1038.71 215.585 1039.16 215.585 1039.66C215.585 1040.17 215.687 1040.62 215.891 1041.01C216.107 1041.41 216.401 1041.72 216.773 1041.95C217.157 1042.16 217.589 1042.27 218.069 1042.27ZM224.251 1044V1035.36H226.231V1044H224.251ZM226.231 1039.19L225.547 1038.85C225.547 1037.76 225.787 1036.88 226.267 1036.21C226.759 1035.52 227.497 1035.18 228.481 1035.18C228.913 1035.18 229.303 1035.26 229.651 1035.41C229.999 1035.57 230.323 1035.82 230.623 1036.17L229.327 1037.5C229.171 1037.33 228.997 1037.21 228.805 1037.14C228.613 1037.07 228.391 1037.03 228.139 1037.03C227.587 1037.03 227.131 1037.21 226.771 1037.56C226.411 1037.9 226.231 1038.45 226.231 1039.19ZM234.248 1044.09L230.558 1035.36H232.736L235.256 1041.77H234.626L237.29 1035.36H239.486L235.472 1044.09H234.248ZM231.674 1047.6L234.356 1042.07L235.472 1044.09L233.87 1047.6H231.674Z" fill="#06FF61"/>
<rect x="116.5" y="1018.5" width="155" height="38" rx="19" stroke="#06FF61" shape-rendering="crispEdges"/>
</g>
<circle opacity="0.1" cx="194" cy="500" r="163" fill="#06FF61"/>
<circle opacity="0.2" cx="194" cy="500" r="137" fill="#06FF61"/>
<circle opacity="0.3" cx="194" cy="500" r="103" fill="#06FF61"/>
<g filter="url(#filter3_d_338_536)">
<circle cx="194" cy="500" r="69" fill="url(#paint1_linear_338_536)"/>
</g>
<path d="M156.684 507V488.644H160.766V507H156.684ZM172.283 507V499.798C172.283 499.139 172.075 498.611 171.659 498.212C171.261 497.796 170.749 497.588 170.125 497.588C169.692 497.588 169.311 497.683 168.981 497.874C168.652 498.047 168.392 498.307 168.201 498.654C168.011 498.983 167.915 499.365 167.915 499.798L166.381 499.044C166.381 498.056 166.598 497.189 167.031 496.444C167.465 495.699 168.063 495.127 168.825 494.728C169.605 494.312 170.481 494.104 171.451 494.104C172.387 494.104 173.211 494.329 173.921 494.78C174.649 495.213 175.221 495.794 175.637 496.522C176.053 497.25 176.261 498.047 176.261 498.914V507H172.283ZM163.937 507V494.364H167.915V507H163.937ZM180.276 507V493.272C180.276 492.249 180.501 491.331 180.952 490.516C181.42 489.684 182.07 489.034 182.902 488.566C183.734 488.081 184.722 487.838 185.866 487.838C186.732 487.838 187.486 487.985 188.128 488.28C188.786 488.557 189.358 488.947 189.844 489.45L187.348 491.946C187.174 491.773 186.975 491.643 186.75 491.556C186.542 491.452 186.29 491.4 185.996 491.4C185.458 491.4 185.034 491.556 184.722 491.868C184.41 492.18 184.254 492.605 184.254 493.142V507H180.276ZM177.494 497.744V494.364H187.894V497.744H177.494ZM195.669 507.286C194.3 507.286 193.078 507.009 192.003 506.454C190.946 505.882 190.114 505.093 189.507 504.088C188.901 503.083 188.597 501.947 188.597 500.682C188.597 499.417 188.892 498.29 189.481 497.302C190.088 496.297 190.903 495.508 191.925 494.936C192.948 494.364 194.101 494.078 195.383 494.078C196.631 494.078 197.732 494.347 198.685 494.884C199.639 495.421 200.384 496.167 200.921 497.12C201.476 498.073 201.753 499.165 201.753 500.396C201.753 500.621 201.736 500.864 201.701 501.124C201.684 501.367 201.641 501.653 201.571 501.982L190.677 502.008V499.278L199.881 499.252L198.165 500.396C198.148 499.668 198.035 499.07 197.827 498.602C197.619 498.117 197.307 497.753 196.891 497.51C196.493 497.25 195.999 497.12 195.409 497.12C194.785 497.12 194.239 497.267 193.771 497.562C193.321 497.839 192.965 498.238 192.705 498.758C192.463 499.278 192.341 499.911 192.341 500.656C192.341 501.401 192.471 502.043 192.731 502.58C193.009 503.1 193.39 503.507 193.875 503.802C194.378 504.079 194.967 504.218 195.643 504.218C196.267 504.218 196.831 504.114 197.333 503.906C197.836 503.681 198.278 503.351 198.659 502.918L200.843 505.102C200.219 505.83 199.465 506.376 198.581 506.74C197.697 507.104 196.727 507.286 195.669 507.286ZM203.674 507V494.364H207.652V507H203.674ZM207.652 500.058L205.988 498.758C206.317 497.285 206.872 496.141 207.652 495.326C208.432 494.511 209.515 494.104 210.902 494.104C211.508 494.104 212.037 494.199 212.488 494.39C212.956 494.563 213.363 494.841 213.71 495.222L211.344 498.212C211.17 498.021 210.954 497.874 210.694 497.77C210.434 497.666 210.139 497.614 209.81 497.614C209.151 497.614 208.622 497.822 208.224 498.238C207.842 498.637 207.652 499.243 207.652 500.058ZM214.769 507V494.364H218.747V507H214.769ZM216.771 492.622C216.147 492.622 215.627 492.414 215.211 491.998C214.813 491.565 214.613 491.045 214.613 490.438C214.613 489.814 214.813 489.294 215.211 488.878C215.627 488.462 216.147 488.254 216.771 488.254C217.395 488.254 217.907 488.462 218.305 488.878C218.704 489.294 218.903 489.814 218.903 490.438C218.903 491.045 218.704 491.565 218.305 491.998C217.907 492.414 217.395 492.622 216.771 492.622ZM229.375 507L226.333 502.086L225.475 501.54L220.509 494.364H225.163L227.997 498.966L228.829 499.486L233.977 507H229.375ZM220.275 507L225.449 499.642L227.711 502.19L224.617 507H220.275ZM228.803 501.514L226.541 498.966L229.401 494.364H233.717L228.803 501.514Z" fill="black"/>
<rect x="34.5" y="0.5" width="309" height="84" rx="9.5" fill="#0D1524"/>
<path d="M106.626 50.22C105.466 50.22 104.439 49.9733 103.546 49.48C102.666 48.9867 101.973 48.3067 101.466 47.44C100.973 46.56 100.726 45.56 100.726 44.44V35.88H103.886V44.62C103.886 45.18 104.006 45.6667 104.246 46.08C104.486 46.4933 104.813 46.8133 105.226 47.04C105.653 47.2533 106.119 47.36 106.626 47.36C107.159 47.36 107.626 47.2533 108.026 47.04C108.426 46.8133 108.739 46.5 108.966 46.1C109.206 45.6867 109.326 45.2 109.326 44.64V35.88H112.486V44.46C112.486 45.58 112.239 46.5733 111.746 47.44C111.253 48.3067 110.566 48.9867 109.686 49.48C108.806 49.9733 107.786 50.22 106.626 50.22ZM121.129 50V44.46C121.129 43.9533 120.969 43.5467 120.649 43.24C120.342 42.92 119.949 42.76 119.469 42.76C119.136 42.76 118.842 42.8333 118.589 42.98C118.336 43.1133 118.136 43.3133 117.989 43.58C117.842 43.8333 117.769 44.1267 117.769 44.46L116.589 43.88C116.589 43.12 116.756 42.4533 117.089 41.88C117.422 41.3067 117.882 40.8667 118.469 40.56C119.069 40.24 119.742 40.08 120.489 40.08C121.209 40.08 121.842 40.2533 122.389 40.6C122.949 40.9333 123.389 41.38 123.709 41.94C124.029 42.5 124.189 43.1133 124.189 43.78V50H121.129ZM114.709 50V40.28H117.769V50H114.709ZM130.294 50.2C129.374 50.2 128.554 49.98 127.834 49.54C127.128 49.1 126.568 48.5 126.154 47.74C125.754 46.98 125.554 46.1133 125.554 45.14C125.554 44.1667 125.754 43.3 126.154 42.54C126.568 41.78 127.128 41.18 127.834 40.74C128.554 40.3 129.374 40.08 130.294 40.08C130.961 40.08 131.561 40.2067 132.094 40.46C132.641 40.7133 133.088 41.0667 133.434 41.52C133.794 41.96 133.994 42.4667 134.034 43.04V47.14C133.994 47.7133 133.801 48.2333 133.454 48.7C133.108 49.1533 132.661 49.52 132.114 49.8C131.568 50.0667 130.961 50.2 130.294 50.2ZM130.834 47.44C131.274 47.44 131.654 47.3467 131.974 47.16C132.294 46.96 132.548 46.6867 132.734 46.34C132.921 45.9933 133.014 45.5933 133.014 45.14C133.014 44.6867 132.921 44.2933 132.734 43.96C132.561 43.6133 132.308 43.34 131.974 43.14C131.654 42.94 131.281 42.84 130.854 42.84C130.428 42.84 130.048 42.94 129.714 43.14C129.394 43.34 129.134 43.6133 128.934 43.96C128.748 44.3067 128.654 44.7 128.654 45.14C128.654 45.58 128.748 45.9733 128.934 46.32C129.121 46.6667 129.381 46.94 129.714 47.14C130.048 47.34 130.421 47.44 130.834 47.44ZM135.894 50H132.894V47.38L133.354 45.02L132.834 42.66V35.48H135.894V50ZM142.849 50.22C141.795 50.22 140.855 50.0067 140.029 49.58C139.215 49.14 138.575 48.5333 138.109 47.76C137.642 46.9867 137.409 46.1133 137.409 45.14C137.409 44.1667 137.635 43.3 138.089 42.54C138.555 41.7667 139.182 41.16 139.969 40.72C140.755 40.28 141.642 40.06 142.629 40.06C143.589 40.06 144.435 40.2667 145.169 40.68C145.902 41.0933 146.475 41.6667 146.889 42.4C147.315 43.1333 147.529 43.9733 147.529 44.92C147.529 45.0933 147.515 45.28 147.489 45.48C147.475 45.6667 147.442 45.8867 147.389 46.14L139.009 46.16V44.06L146.089 44.04L144.769 44.92C144.755 44.36 144.669 43.9 144.509 43.54C144.349 43.1667 144.109 42.8867 143.789 42.7C143.482 42.5 143.102 42.4 142.649 42.4C142.169 42.4 141.749 42.5133 141.389 42.74C141.042 42.9533 140.769 43.26 140.569 43.66C140.382 44.06 140.289 44.5467 140.289 45.12C140.289 45.6933 140.389 46.1867 140.589 46.6C140.802 47 141.095 47.3133 141.469 47.54C141.855 47.7533 142.309 47.86 142.829 47.86C143.309 47.86 143.742 47.78 144.129 47.62C144.515 47.4467 144.855 47.1933 145.149 46.86L146.829 48.54C146.349 49.1 145.769 49.52 145.089 49.8C144.409 50.08 143.662 50.22 142.849 50.22ZM149.006 50V40.28H152.066V50H149.006ZM152.066 44.66L150.786 43.66C151.039 42.5267 151.466 41.6467 152.066 41.02C152.666 40.3933 153.499 40.08 154.566 40.08C155.032 40.08 155.439 40.1533 155.786 40.3C156.146 40.4333 156.459 40.6467 156.726 40.94L154.906 43.24C154.772 43.0933 154.606 42.98 154.406 42.9C154.206 42.82 153.979 42.78 153.726 42.78C153.219 42.78 152.812 42.94 152.506 43.26C152.212 43.5667 152.066 44.0333 152.066 44.66ZM161.861 50.22C160.968 50.22 160.174 50.04 159.481 49.68C158.801 49.3067 158.268 48.8 157.881 48.16C157.494 47.5067 157.301 46.76 157.301 45.92V40.28H160.361V45.88C160.361 46.2133 160.414 46.5 160.521 46.74C160.641 46.98 160.814 47.1667 161.041 47.3C161.268 47.4333 161.541 47.5 161.861 47.5C162.314 47.5 162.674 47.36 162.941 47.08C163.208 46.7867 163.341 46.3867 163.341 45.88V40.28H166.401V45.9C166.401 46.7533 166.208 47.5067 165.821 48.16C165.434 48.8 164.901 49.3067 164.221 49.68C163.541 50.04 162.754 50.22 161.861 50.22ZM169.702 50V36.26H172.762V50H169.702ZM167.502 42.88V40.28H174.962V42.88H167.502ZM176.31 50V40.28H179.37V50H176.31ZM177.85 38.94C177.37 38.94 176.97 38.78 176.65 38.46C176.344 38.1267 176.19 37.7267 176.19 37.26C176.19 36.78 176.344 36.38 176.65 36.06C176.97 35.74 177.37 35.58 177.85 35.58C178.33 35.58 178.724 35.74 179.03 36.06C179.337 36.38 179.49 36.78 179.49 37.26C179.49 37.7267 179.337 38.1267 179.03 38.46C178.724 38.78 178.33 38.94 177.85 38.94ZM181.525 50V35.48H184.585V50H181.525ZM186.74 50V40.28H189.8V50H186.74ZM188.28 38.94C187.8 38.94 187.4 38.78 187.08 38.46C186.773 38.1267 186.62 37.7267 186.62 37.26C186.62 36.78 186.773 36.38 187.08 36.06C187.4 35.74 187.8 35.58 188.28 35.58C188.76 35.58 189.153 35.74 189.46 36.06C189.767 36.38 189.92 36.78 189.92 37.26C189.92 37.7267 189.767 38.1267 189.46 38.46C189.153 38.78 188.76 38.94 188.28 38.94ZM191.335 48.2L196.215 42.06H199.935L195.055 48.2H191.335ZM191.335 50V48.2L193.515 47.44H199.815V50H191.335ZM191.695 42.84V40.28H199.935V42.06L197.775 42.84H191.695ZM206.169 50.22C205.116 50.22 204.176 50.0067 203.349 49.58C202.536 49.14 201.896 48.5333 201.429 47.76C200.962 46.9867 200.729 46.1133 200.729 45.14C200.729 44.1667 200.956 43.3 201.409 42.54C201.876 41.7667 202.502 41.16 203.289 40.72C204.076 40.28 204.962 40.06 205.949 40.06C206.909 40.06 207.756 40.2667 208.489 40.68C209.222 41.0933 209.796 41.6667 210.209 42.4C210.636 43.1333 210.849 43.9733 210.849 44.92C210.849 45.0933 210.836 45.28 210.809 45.48C210.796 45.6667 210.762 45.8867 210.709 46.14L202.329 46.16V44.06L209.409 44.04L208.089 44.92C208.076 44.36 207.989 43.9 207.829 43.54C207.669 43.1667 207.429 42.8867 207.109 42.7C206.802 42.5 206.422 42.4 205.969 42.4C205.489 42.4 205.069 42.5133 204.709 42.74C204.362 42.9533 204.089 43.26 203.889 43.66C203.702 44.06 203.609 44.5467 203.609 45.12C203.609 45.6933 203.709 46.1867 203.909 46.6C204.122 47 204.416 47.3133 204.789 47.54C205.176 47.7533 205.629 47.86 206.149 47.86C206.629 47.86 207.062 47.78 207.449 47.62C207.836 47.4467 208.176 47.1933 208.469 46.86L210.149 48.54C209.669 49.1 209.089 49.52 208.409 49.8C207.729 50.08 206.982 50.22 206.169 50.22ZM216.466 50.2C215.546 50.2 214.726 49.98 214.006 49.54C213.299 49.1 212.739 48.5 212.326 47.74C211.926 46.98 211.726 46.1133 211.726 45.14C211.726 44.1667 211.926 43.3 212.326 42.54C212.739 41.78 213.299 41.18 214.006 40.74C214.726 40.3 215.546 40.08 216.466 40.08C217.133 40.08 217.733 40.2067 218.266 40.46C218.813 40.7133 219.259 41.0667 219.606 41.52C219.966 41.96 220.166 42.4667 220.206 43.04V47.14C220.166 47.7133 219.973 48.2333 219.626 48.7C219.279 49.1533 218.833 49.52 218.286 49.8C217.739 50.0667 217.133 50.2 216.466 50.2ZM217.006 47.44C217.446 47.44 217.826 47.3467 218.146 47.16C218.466 46.96 218.719 46.6867 218.906 46.34C219.093 45.9933 219.186 45.5933 219.186 45.14C219.186 44.6867 219.093 44.2933 218.906 43.96C218.733 43.6133 218.479 43.34 218.146 43.14C217.826 42.94 217.453 42.84 217.026 42.84C216.599 42.84 216.219 42.94 215.886 43.14C215.566 43.34 215.306 43.6133 215.106 43.96C214.919 44.3067 214.826 44.7 214.826 45.14C214.826 45.58 214.919 45.9733 215.106 46.32C215.293 46.6667 215.553 46.94 215.886 47.14C216.219 47.34 216.593 47.44 217.006 47.44ZM222.066 50H219.066V47.38L219.526 45.02L219.006 42.66V35.48H222.066V50ZM234.969 50.22C233.943 50.22 232.976 50.0333 232.069 49.66C231.176 49.2867 230.396 48.7733 229.729 48.12C229.063 47.4533 228.536 46.68 228.149 45.8C227.776 44.9067 227.589 43.9467 227.589 42.92C227.589 41.8933 227.783 40.94 228.169 40.06C228.556 39.18 229.089 38.4133 229.769 37.76C230.463 37.0933 231.269 36.58 232.189 36.22C233.109 35.8467 234.096 35.66 235.149 35.66C236.363 35.66 237.463 35.88 238.449 36.32C239.449 36.76 240.276 37.3667 240.929 38.14L238.789 40.28C238.336 39.6933 237.803 39.2533 237.189 38.96C236.576 38.6667 235.883 38.52 235.109 38.52C234.283 38.52 233.543 38.7067 232.889 39.08C232.236 39.44 231.723 39.9533 231.349 40.62C230.989 41.2733 230.809 42.04 230.809 42.92C230.809 43.8 230.989 44.5733 231.349 45.24C231.709 45.9067 232.203 46.4267 232.829 46.8C233.456 47.1733 234.176 47.36 234.989 47.36C235.816 47.36 236.516 47.2067 237.089 46.9C237.676 46.58 238.123 46.1267 238.429 45.54C238.749 44.94 238.909 44.2133 238.909 43.36L240.989 44.76L234.689 44.66V42H242.109V42.46C242.109 44.1533 241.803 45.58 241.189 46.74C240.589 47.8867 239.749 48.7533 238.669 49.34C237.603 49.9267 236.369 50.22 234.969 50.22ZM246.412 44.86V42.42H249.452C249.839 42.42 250.192 42.34 250.512 42.18C250.832 42.02 251.086 41.7867 251.272 41.48C251.459 41.1733 251.552 40.8 251.552 40.36C251.552 39.9333 251.459 39.5667 251.272 39.26C251.086 38.9533 250.832 38.72 250.512 38.56C250.192 38.4 249.839 38.32 249.452 38.32H246.412V35.88H249.912C250.806 35.88 251.612 36.06 252.332 36.42C253.052 36.78 253.619 37.3 254.032 37.98C254.459 38.6467 254.672 39.44 254.672 40.36C254.672 41.28 254.459 42.08 254.032 42.76C253.619 43.4267 253.052 43.9467 252.332 44.32C251.612 44.68 250.806 44.86 249.912 44.86H246.412ZM244.012 50V35.88H247.152V50H244.012ZM262.251 50.22C261.091 50.22 260.064 49.9733 259.171 49.48C258.291 48.9867 257.598 48.3067 257.091 47.44C256.598 46.56 256.351 45.56 256.351 44.44V35.88H259.511V44.62C259.511 45.18 259.631 45.6667 259.871 46.08C260.111 46.4933 260.438 46.8133 260.851 47.04C261.278 47.2533 261.744 47.36 262.251 47.36C262.784 47.36 263.251 47.2533 263.651 47.04C264.051 46.8133 264.364 46.5 264.591 46.1C264.831 45.6867 264.951 45.2 264.951 44.64V35.88H268.111V44.46C268.111 45.58 267.864 46.5733 267.371 47.44C266.878 48.3067 266.191 48.9867 265.311 49.48C264.431 49.9733 263.411 50.22 262.251 50.22ZM273.874 50.24C273.301 50.24 272.734 50.1667 272.174 50.02C271.627 49.8733 271.114 49.6667 270.634 49.4C270.167 49.12 269.767 48.8 269.434 48.44L271.174 46.68C271.494 47.0267 271.874 47.3 272.314 47.5C272.754 47.6867 273.234 47.78 273.754 47.78C274.114 47.78 274.387 47.7267 274.574 47.62C274.774 47.5133 274.874 47.3667 274.874 47.18C274.874 46.94 274.754 46.76 274.514 46.64C274.287 46.5067 273.994 46.3933 273.634 46.3C273.274 46.1933 272.894 46.08 272.494 45.96C272.094 45.84 271.714 45.6733 271.354 45.46C270.994 45.2467 270.701 44.9533 270.474 44.58C270.247 44.1933 270.134 43.7067 270.134 43.12C270.134 42.4933 270.294 41.9533 270.614 41.5C270.934 41.0333 271.387 40.6667 271.974 40.4C272.561 40.1333 273.247 40 274.034 40C274.861 40 275.621 40.1467 276.314 40.44C277.021 40.72 277.594 41.14 278.034 41.7L276.294 43.46C275.987 43.1 275.641 42.8467 275.254 42.7C274.881 42.5533 274.514 42.48 274.154 42.48C273.807 42.48 273.547 42.5333 273.374 42.64C273.201 42.7333 273.114 42.8733 273.114 43.06C273.114 43.26 273.227 43.42 273.454 43.54C273.681 43.66 273.974 43.7667 274.334 43.86C274.694 43.9533 275.074 44.0667 275.474 44.2C275.874 44.3333 276.254 44.5133 276.614 44.74C276.974 44.9667 277.267 45.2733 277.494 45.66C277.721 46.0333 277.834 46.5267 277.834 47.14C277.834 48.0867 277.474 48.84 276.754 49.4C276.047 49.96 275.087 50.24 273.874 50.24Z" fill="#06FF61"/>
<rect x="34.5" y="0.5" width="309" height="84" rx="9.5" stroke="url(#paint2_linear_338_536)"/>
<path d="M297 49C299.209 49 301 47.2091 301 45C301 42.7909 299.209 41 297 41C294.791 41 293 42.7909 293 45C293 47.2091 294.791 49 297 49ZM297 507L304.5 511.33V502.67L297 507ZM369 507V507.75H369.75V507H369ZM369 45H369.75V44.25H369V45ZM306 507.75H312V506.25H306V507.75ZM318 507.75H324V506.25H318V507.75ZM330 507.75H336V506.25H330V507.75ZM342 507.75H348V506.25H342V507.75ZM354 507.75H360V506.25H354V507.75ZM366 507.75H369V506.25H366V507.75ZM369.75 507V504.038H368.25V507H369.75ZM369.75 498.115V492.192H368.25V498.115H369.75ZM369.75 486.269V480.346H368.25V486.269H369.75ZM369.75 474.423V468.5H368.25V474.423H369.75ZM369.75 462.577V456.654H368.25V462.577H369.75ZM369.75 450.731V444.808H368.25V450.731H369.75ZM369.75 438.885V432.962H368.25V438.885H369.75ZM369.75 427.038V421.115H368.25V427.038H369.75ZM369.75 415.192V409.269H368.25V415.192H369.75ZM369.75 403.346V397.423H368.25V403.346H369.75ZM369.75 391.5V385.577H368.25V391.5H369.75ZM369.75 379.654V373.731H368.25V379.654H369.75ZM369.75 367.808V361.885H368.25V367.808H369.75ZM369.75 355.961V350.038H368.25V355.961H369.75ZM369.75 344.115V338.192H368.25V344.115H369.75ZM369.75 332.269V326.346H368.25V332.269H369.75ZM369.75 320.423V314.5H368.25V320.423H369.75ZM369.75 308.577V302.654H368.25V308.577H369.75ZM369.75 296.731V290.808H368.25V296.731H369.75ZM369.75 284.885V278.961H368.25V284.885H369.75ZM369.75 273.038V267.115H368.25V273.038H369.75ZM369.75 261.192V255.269H368.25V261.192H369.75ZM369.75 249.346V243.423H368.25V249.346H369.75ZM369.75 237.5V231.577H368.25V237.5H369.75ZM369.75 225.654V219.731H368.25V225.654H369.75ZM369.75 213.808V207.885H368.25V213.808H369.75ZM369.75 201.962V196.038H368.25V201.962H369.75ZM369.75 190.115V184.192H368.25V190.115H369.75ZM369.75 178.269V172.346H368.25V178.269H369.75ZM369.75 166.423V160.5H368.25V166.423H369.75ZM369.75 154.577V148.654H368.25V154.577H369.75ZM369.75 142.731V136.808H368.25V142.731H369.75ZM369.75 130.885V124.962H368.25V130.885H369.75ZM369.75 119.039V113.116H368.25V119.039H369.75ZM369.75 107.192V101.269H368.25V107.192H369.75ZM369.75 95.3463V89.4233H368.25V95.3463H369.75ZM369.75 83.5002V77.5771H368.25V83.5002H369.75ZM369.75 71.6541V65.731H368.25V71.6541H369.75ZM369.75 59.808V53.8849H368.25V59.808H369.75ZM369.75 47.9618V45H368.25V47.9618H369.75ZM369 44.25H366V45.75H369V44.25ZM360 44.25H354V45.75H360V44.25ZM348 44.25H342V45.75H348V44.25ZM336 44.25H330V45.75H336V44.25ZM324 44.25H318V45.75H324V44.25ZM312 44.25H306V45.75H312V44.25ZM300 44.25H297V45.75H300V44.25Z" fill="#06FF61"/>
<g filter="url(#filter4_d_338_536)">
<circle cx="4" cy="4" r="4" transform="matrix(0 1 1 0 365 156)" fill="#06FF61"/>
</g>
<g filter="url(#filter5_d_338_536)">
<circle cx="4" cy="4" r="4" transform="matrix(0 1 1 0 365 374)" fill="#06FF61"/>
</g>
<g filter="url(#filter6_d_338_536)">
<rect x="143" y="105" width="102" height="39" rx="19.5" fill="#090F1B" shape-rendering="crispEdges"/>
<path d="M182.458 131.18C181.594 131.18 180.778 131.012 180.01 130.676C179.242 130.34 178.57 129.878 177.994 129.29C177.418 128.69 176.962 128 176.626 127.22C176.302 126.428 176.14 125.582 176.14 124.682C176.14 123.782 176.302 122.942 176.626 122.162C176.962 121.382 177.418 120.698 177.994 120.11C178.582 119.51 179.266 119.048 180.046 118.724C180.838 118.388 181.69 118.22 182.602 118.22C183.598 118.22 184.522 118.412 185.374 118.796C186.226 119.18 186.94 119.726 187.516 120.434L186.112 121.838C185.74 121.31 185.242 120.908 184.618 120.632C183.994 120.344 183.322 120.2 182.602 120.2C181.738 120.2 180.976 120.392 180.316 120.776C179.668 121.148 179.164 121.67 178.804 122.342C178.444 123.014 178.264 123.794 178.264 124.682C178.264 125.57 178.444 126.356 178.804 127.04C179.176 127.712 179.674 128.24 180.298 128.624C180.922 129.008 181.63 129.2 182.422 129.2C183.262 129.2 183.982 129.05 184.582 128.75C185.194 128.438 185.662 127.982 185.986 127.382C186.31 126.77 186.472 126.02 186.472 125.132L187.768 126.068H182.386V124.178H188.614V124.466C188.614 125.966 188.344 127.214 187.804 128.21C187.276 129.206 186.55 129.95 185.626 130.442C184.702 130.934 183.646 131.18 182.458 131.18ZM192.097 126.248V124.448H195.247C195.679 124.448 196.057 124.364 196.381 124.196C196.717 124.016 196.981 123.77 197.173 123.458C197.365 123.134 197.461 122.756 197.461 122.324C197.461 121.892 197.365 121.52 197.173 121.208C196.981 120.884 196.717 120.638 196.381 120.47C196.057 120.29 195.679 120.2 195.247 120.2H192.097V118.4H195.355C196.147 118.4 196.855 118.562 197.479 118.886C198.115 119.21 198.613 119.666 198.973 120.254C199.345 120.842 199.531 121.532 199.531 122.324C199.531 123.116 199.345 123.806 198.973 124.394C198.613 124.982 198.115 125.438 197.479 125.762C196.855 126.086 196.147 126.248 195.355 126.248H192.097ZM190.675 131V118.4H192.745V131H190.675ZM206.398 131.18C205.45 131.18 204.598 130.964 203.842 130.532C203.086 130.1 202.486 129.512 202.042 128.768C201.61 128.012 201.394 127.16 201.394 126.212V118.4H203.464V126.194C203.464 126.806 203.59 127.34 203.842 127.796C204.106 128.24 204.46 128.588 204.904 128.84C205.348 129.08 205.846 129.2 206.398 129.2C206.962 129.2 207.46 129.08 207.892 128.84C208.324 128.588 208.666 128.24 208.918 127.796C209.17 127.34 209.296 126.812 209.296 126.212V118.4H211.366V126.23C211.366 127.178 211.15 128.024 210.718 128.768C210.286 129.512 209.698 130.1 208.954 130.532C208.21 130.964 207.358 131.18 206.398 131.18Z" fill="#06FF61"/>
<rect x="143.5" y="105.5" width="101" height="38" rx="19" stroke="#06FF61" shape-rendering="crispEdges"/>
</g>
<g filter="url(#filter7_d_338_536)">
<rect x="143" y="164" width="102" height="39" rx="19.5" fill="#090F1B" shape-rendering="crispEdges"/>
<path d="M182.458 190.18C181.594 190.18 180.778 190.012 180.01 189.676C179.242 189.34 178.57 188.878 177.994 188.29C177.418 187.69 176.962 187 176.626 186.22C176.302 185.428 176.14 184.582 176.14 183.682C176.14 182.782 176.302 181.942 176.626 181.162C176.962 180.382 177.418 179.698 177.994 179.11C178.582 178.51 179.266 178.048 180.046 177.724C180.838 177.388 181.69 177.22 182.602 177.22C183.598 177.22 184.522 177.412 185.374 177.796C186.226 178.18 186.94 178.726 187.516 179.434L186.112 180.838C185.74 180.31 185.242 179.908 184.618 179.632C183.994 179.344 183.322 179.2 182.602 179.2C181.738 179.2 180.976 179.392 180.316 179.776C179.668 180.148 179.164 180.67 178.804 181.342C178.444 182.014 178.264 182.794 178.264 183.682C178.264 184.57 178.444 185.356 178.804 186.04C179.176 186.712 179.674 187.24 180.298 187.624C180.922 188.008 181.63 188.2 182.422 188.2C183.262 188.2 183.982 188.05 184.582 187.75C185.194 187.438 185.662 186.982 185.986 186.382C186.31 185.77 186.472 185.02 186.472 184.132L187.768 185.068H182.386V183.178H188.614V183.466C188.614 184.966 188.344 186.214 187.804 187.21C187.276 188.206 186.55 188.95 185.626 189.442C184.702 189.934 183.646 190.18 182.458 190.18ZM192.097 185.248V183.448H195.247C195.679 183.448 196.057 183.364 196.381 183.196C196.717 183.016 196.981 182.77 197.173 182.458C197.365 182.134 197.461 181.756 197.461 181.324C197.461 180.892 197.365 180.52 197.173 180.208C196.981 179.884 196.717 179.638 196.381 179.47C196.057 179.29 195.679 179.2 195.247 179.2H192.097V177.4H195.355C196.147 177.4 196.855 177.562 197.479 177.886C198.115 178.21 198.613 178.666 198.973 179.254C199.345 179.842 199.531 180.532 199.531 181.324C199.531 182.116 199.345 182.806 198.973 183.394C198.613 183.982 198.115 184.438 197.479 184.762C196.855 185.086 196.147 185.248 195.355 185.248H192.097ZM190.675 190V177.4H192.745V190H190.675ZM206.398 190.18C205.45 190.18 204.598 189.964 203.842 189.532C203.086 189.1 202.486 188.512 202.042 187.768C201.61 187.012 201.394 186.16 201.394 185.212V177.4H203.464V185.194C203.464 185.806 203.59 186.34 203.842 186.796C204.106 187.24 204.46 187.588 204.904 187.84C205.348 188.08 205.846 188.2 206.398 188.2C206.962 188.2 207.46 188.08 207.892 187.84C208.324 187.588 208.666 187.24 208.918 186.796C209.17 186.34 209.296 185.812 209.296 185.212V177.4H211.366V185.23C211.366 186.178 211.15 187.024 210.718 187.768C210.286 188.512 209.698 189.1 208.954 189.532C208.21 189.964 207.358 190.18 206.398 190.18Z" fill="#06FF61"/>
<rect x="143.5" y="164.5" width="101" height="38" rx="19" stroke="#06FF61" shape-rendering="crispEdges"/>
</g>
<g filter="url(#filter8_d_338_536)">
<rect x="143" y="223" width="102" height="39" rx="19.5" fill="#090F1B" shape-rendering="crispEdges"/>
<path d="M182.458 249.18C181.594 249.18 180.778 249.012 180.01 248.676C179.242 248.34 178.57 247.878 177.994 247.29C177.418 246.69 176.962 246 176.626 245.22C176.302 244.428 176.14 243.582 176.14 242.682C176.14 241.782 176.302 240.942 176.626 240.162C176.962 239.382 177.418 238.698 177.994 238.11C178.582 237.51 179.266 237.048 180.046 236.724C180.838 236.388 181.69 236.22 182.602 236.22C183.598 236.22 184.522 236.412 185.374 236.796C186.226 237.18 186.94 237.726 187.516 238.434L186.112 239.838C185.74 239.31 185.242 238.908 184.618 238.632C183.994 238.344 183.322 238.2 182.602 238.2C181.738 238.2 180.976 238.392 180.316 238.776C179.668 239.148 179.164 239.67 178.804 240.342C178.444 241.014 178.264 241.794 178.264 242.682C178.264 243.57 178.444 244.356 178.804 245.04C179.176 245.712 179.674 246.24 180.298 246.624C180.922 247.008 181.63 247.2 182.422 247.2C183.262 247.2 183.982 247.05 184.582 246.75C185.194 246.438 185.662 245.982 185.986 245.382C186.31 244.77 186.472 244.02 186.472 243.132L187.768 244.068H182.386V242.178H188.614V242.466C188.614 243.966 188.344 245.214 187.804 246.21C187.276 247.206 186.55 247.95 185.626 248.442C184.702 248.934 183.646 249.18 182.458 249.18ZM192.097 244.248V242.448H195.247C195.679 242.448 196.057 242.364 196.381 242.196C196.717 242.016 196.981 241.77 197.173 241.458C197.365 241.134 197.461 240.756 197.461 240.324C197.461 239.892 197.365 239.52 197.173 239.208C196.981 238.884 196.717 238.638 196.381 238.47C196.057 238.29 195.679 238.2 195.247 238.2H192.097V236.4H195.355C196.147 236.4 196.855 236.562 197.479 236.886C198.115 237.21 198.613 237.666 198.973 238.254C199.345 238.842 199.531 239.532 199.531 240.324C199.531 241.116 199.345 241.806 198.973 242.394C198.613 242.982 198.115 243.438 197.479 243.762C196.855 244.086 196.147 244.248 195.355 244.248H192.097ZM190.675 249V236.4H192.745V249H190.675ZM206.398 249.18C205.45 249.18 204.598 248.964 203.842 248.532C203.086 248.1 202.486 247.512 202.042 246.768C201.61 246.012 201.394 245.16 201.394 244.212V236.4H203.464V244.194C203.464 244.806 203.59 245.34 203.842 245.796C204.106 246.24 204.46 246.588 204.904 246.84C205.348 247.08 205.846 247.2 206.398 247.2C206.962 247.2 207.46 247.08 207.892 246.84C208.324 246.588 208.666 246.24 208.918 245.796C209.17 245.34 209.296 244.812 209.296 244.212V236.4H211.366V244.23C211.366 245.178 211.15 246.024 210.718 246.768C210.286 247.512 209.698 248.1 208.954 248.532C208.21 248.964 207.358 249.18 206.398 249.18Z" fill="#06FF61"/>
<rect x="143.5" y="223.5" width="101" height="38" rx="19" stroke="#06FF61" shape-rendering="crispEdges"/>
</g>
<path d="M96 834C93.7908 834 92 835.791 92 838C92 840.209 93.7908 842 96 842C98.2091 842 100 840.209 100 838C100 835.791 98.2091 834 96 834ZM96 499L88.5 494.67V503.33L96 499ZM17.8929 499V498.25H17.1429V499H17.8929ZM17.8929 838H17.1429V838.75H17.8929V838ZM87.6314 498.25H82.0523V499.75H87.6314V498.25ZM76.4732 498.25H70.8941V499.75H76.4732V498.25ZM65.3151 498.25H59.736V499.75H65.3151V498.25ZM54.1569 498.25H48.5778V499.75H54.1569V498.25ZM42.9987 498.25H37.4196V499.75H42.9987V498.25ZM31.8406 498.25H26.2615V499.75H31.8406V498.25ZM20.6824 498.25H17.8929V499.75H20.6824V498.25ZM17.1429 499V502.027H18.6429V499H17.1429ZM17.1429 508.08V514.134H18.6429V508.08H17.1429ZM17.1429 520.187V526.241H18.6429V520.187H17.1429ZM17.1429 532.295V538.348H18.6429V532.295H17.1429ZM17.1429 544.402V550.455H18.6429V544.402H17.1429ZM17.1429 556.509V562.562H18.6429V556.509H17.1429ZM17.1429 568.616V574.67H18.6429V568.616H17.1429ZM17.1429 580.723V586.777H18.6429V580.723H17.1429ZM17.1429 592.83V598.884H18.6429V592.83H17.1429ZM17.1429 604.938V610.991H18.6429V604.938H17.1429ZM17.1429 617.045V623.098H18.6429V617.045H17.1429ZM17.1429 629.152V635.205H18.6429V629.152H17.1429ZM17.1429 641.259V647.313H18.6429V641.259H17.1429ZM17.1429 653.366V659.42H18.6429V653.366H17.1429ZM17.1429 665.473V671.527H18.6429V665.473H17.1429ZM17.1429 677.58V683.634H18.6429V677.58H17.1429ZM17.1429 689.688V695.741H18.6429V689.688H17.1429ZM17.1429 701.795V707.848H18.6429V701.795H17.1429ZM17.1429 713.902V719.955H18.6429V713.902H17.1429ZM17.1429 726.009V732.063H18.6429V726.009H17.1429ZM17.1429 738.116V744.17H18.6429V738.116H17.1429ZM17.1429 750.223V756.277H18.6429V750.223H17.1429ZM17.1429 762.33V768.384H18.6429V762.33H17.1429ZM17.1429 774.438V780.491H18.6429V774.438H17.1429ZM17.1429 786.545V792.598H18.6429V786.545H17.1429ZM17.1429 798.652V804.705H18.6429V798.652H17.1429ZM17.1429 810.759V816.812H18.6429V810.759H17.1429ZM17.1429 822.866V828.92H18.6429V822.866H17.1429ZM17.1429 834.973V838H18.6429V834.973H17.1429ZM17.8929 838.75H20.6824V837.25H17.8929V838.75ZM26.2615 838.75H31.8406V837.25H26.2615V838.75ZM37.4196 838.75H42.9987V837.25H37.4196V838.75ZM48.5778 838.75H54.1569V837.25H48.5778V838.75ZM59.736 838.75H65.315V837.25H59.736V838.75ZM70.8941 838.75H76.4732V837.25H70.8941V838.75ZM82.0523 838.75H87.6313V837.25H82.0523V838.75ZM93.2104 838.75H96V837.25H93.2104V838.75Z" fill="#06FF61"/>
<g filter="url(#filter9_d_338_536)">
<ellipse cx="4" cy="2.89286" rx="4" ry="2.89286" transform="matrix(0 -1 -1 0 20.7858 795)" fill="#06FF61"/>
</g>
<g filter="url(#filter10_d_338_536)">
<ellipse cx="4" cy="2.89286" rx="4" ry="2.89286" transform="matrix(0 -1 -1 0 20.7858 610)" fill="#06FF61"/>
</g>
<defs>
<filter id="filter0_d_338_536" x="117.5" y="890" width="153" height="59" filterUnits="userSpaceOnUse" color-interpolation-filters="sRGB">
<feFlood flood-opacity="0" result="BackgroundImageFix"/>
<feColorMatrix in="SourceAlpha" type="matrix" values="0 0 0 0 0 0 0 0 0 0 0 0 0 0 0 0 0 0 127 0" result="hardAlpha"/>
<feOffset/>
<feGaussianBlur stdDeviation="5"/>
<feComposite in2="hardAlpha" operator="out"/>
<feColorMatrix type="matrix" values="0 0 0 0 0.486275 0 0 0 0 0.529412 0 0 0 0 1 0 0 0 0.7 0"/>
<feBlend mode="normal" in2="BackgroundImageFix" result="effect1_dropShadow_338_536"/>
<feBlend mode="normal" in="SourceGraphic" in2="effect1_dropShadow_338_536" result="shape"/>
</filter>
<filter id="filter1_d_338_536" x="117" y="949" width="154" height="59" filterUnits="userSpaceOnUse" color-interpolation-filters="sRGB">
<feFlood flood-opacity="0" result="BackgroundImageFix"/>
<feColorMatrix in="SourceAlpha" type="matrix" values="0 0 0 0 0 0 0 0 0 0 0 0 0 0 0 0 0 0 127 0" result="hardAlpha"/>
<feOffset/>
<feGaussianBlur stdDeviation="5"/>
<feComposite in2="hardAlpha" operator="out"/>
<feColorMatrix type="matrix" values="0 0 0 0 0.486275 0 0 0 0 0.529412 0 0 0 0 1 0 0 0 0.7 0"/>
<feBlend mode="normal" in2="BackgroundImageFix" result="effect1_dropShadow_338_536"/>
<feBlend mode="normal" in="SourceGraphic" in2="effect1_dropShadow_338_536" result="shape"/>
</filter>
<filter id="filter2_d_338_536" x="106" y="1008" width="176" height="59" filterUnits="userSpaceOnUse" color-interpolation-filters="sRGB">
<feFlood flood-opacity="0" result="BackgroundImageFix"/>
<feColorMatrix in="SourceAlpha" type="matrix" values="0 0 0 0 0 0 0 0 0 0 0 0 0 0 0 0 0 0 127 0" result="hardAlpha"/>
<feOffset/>
<feGaussianBlur stdDeviation="5"/>
<feComposite in2="hardAlpha" operator="out"/>
<feColorMatrix type="matrix" values="0 0 0 0 0.486275 0 0 0 0 0.529412 0 0 0 0 1 0 0 0 0.7 0"/>
<feBlend mode="normal" in2="BackgroundImageFix" result="effect1_dropShadow_338_536"/>
<feBlend mode="normal" in="SourceGraphic" in2="effect1_dropShadow_338_536" result="shape"/>
</filter>
<filter id="filter3_d_338_536" x="105" y="411" width="178" height="178" filterUnits="userSpaceOnUse" color-interpolation-filters="sRGB">
<feFlood flood-opacity="0" result="BackgroundImageFix"/>
<feColorMatrix in="SourceAlpha" type="matrix" values="0 0 0 0 0 0 0 0 0 0 0 0 0 0 0 0 0 0 127 0" result="hardAlpha"/>
<feOffset/>
<feGaussianBlur stdDeviation="10"/>
<feComposite in2="hardAlpha" operator="out"/>
<feColorMatrix type="matrix" values="0 0 0 0 0.0235294 0 0 0 0 1 0 0 0 0 0.380392 0 0 0 0.7 0"/>
<feBlend mode="normal" in2="BackgroundImageFix" result="effect1_dropShadow_338_536"/>
<feBlend mode="normal" in="SourceGraphic" in2="effect1_dropShadow_338_536" result="shape"/>
</filter>
<filter id="filter4_d_338_536" x="350" y="141" width="38" height="38" filterUnits="userSpaceOnUse" color-interpolation-filters="sRGB">
<feFlood flood-opacity="0" result="BackgroundImageFix"/>
<feColorMatrix in="SourceAlpha" type="matrix" values="0 0 0 0 0 0 0 0 0 0 0 0 0 0 0 0 0 0 127 0" result="hardAlpha"/>
<feMorphology radius="5" operator="dilate" in="SourceAlpha" result="effect1_dropShadow_338_536"/>
<feOffset/>
<feGaussianBlur stdDeviation="5"/>
<feComposite in2="hardAlpha" operator="out"/>
<feColorMatrix type="matrix" values="0 0 0 0 0.0235294 0 0 0 0 1 0 0 0 0 0.380392 0 0 0 0.7 0"/>
<feBlend mode="normal" in2="BackgroundImageFix" result="effect1_dropShadow_338_536"/>
<feBlend mode="normal" in="SourceGraphic" in2="effect1_dropShadow_338_536" result="shape"/>
</filter>
<filter id="filter5_d_338_536" x="350" y="359" width="38" height="38" filterUnits="userSpaceOnUse" color-interpolation-filters="sRGB">
<feFlood flood-opacity="0" result="BackgroundImageFix"/>
<feColorMatrix in="SourceAlpha" type="matrix" values="0 0 0 0 0 0 0 0 0 0 0 0 0 0 0 0 0 0 127 0" result="hardAlpha"/>
<feMorphology radius="5" operator="dilate" in="SourceAlpha" result="effect1_dropShadow_338_536"/>
<feOffset/>
<feGaussianBlur stdDeviation="5"/>
<feComposite in2="hardAlpha" operator="out"/>
<feColorMatrix type="matrix" values="0 0 0 0 0.0235294 0 0 0 0 1 0 0 0 0 0.380392 0 0 0 0.7 0"/>
<feBlend mode="normal" in2="BackgroundImageFix" result="effect1_dropShadow_338_536"/>
<feBlend mode="normal" in="SourceGraphic" in2="effect1_dropShadow_338_536" result="shape"/>
</filter>
<filter id="filter6_d_338_536" x="133" y="95" width="122" height="59" filterUnits="userSpaceOnUse" color-interpolation-filters="sRGB">
<feFlood flood-opacity="0" result="BackgroundImageFix"/>
<feColorMatrix in="SourceAlpha" type="matrix" values="0 0 0 0 0 0 0 0 0 0 0 0 0 0 0 0 0 0 127 0" result="hardAlpha"/>
<feOffset/>
<feGaussianBlur stdDeviation="5"/>
<feComposite in2="hardAlpha" operator="out"/>
<feColorMatrix type="matrix" values="0 0 0 0 0.721569 0 0 0 0 0.74902 0 0 0 0 0.992157 0 0 0 0.7 0"/>
<feBlend mode="normal" in2="BackgroundImageFix" result="effect1_dropShadow_338_536"/>
<feBlend mode="normal" in="SourceGraphic" in2="effect1_dropShadow_338_536" result="shape"/>
</filter>
<filter id="filter7_d_338_536" x="133" y="154" width="122" height="59" filterUnits="userSpaceOnUse" color-interpolation-filters="sRGB">
<feFlood flood-opacity="0" result="BackgroundImageFix"/>
<feColorMatrix in="SourceAlpha" type="matrix" values="0 0 0 0 0 0 0 0 0 0 0 0 0 0 0 0 0 0 127 0" result="hardAlpha"/>
<feOffset/>
<feGaussianBlur stdDeviation="5"/>
<feComposite in2="hardAlpha" operator="out"/>
<feColorMatrix type="matrix" values="0 0 0 0 0.721569 0 0 0 0 0.74902 0 0 0 0 0.992157 0 0 0 0.7 0"/>
<feBlend mode="normal" in2="BackgroundImageFix" result="effect1_dropShadow_338_536"/>
<feBlend mode="normal" in="SourceGraphic" in2="effect1_dropShadow_338_536" result="shape"/>
</filter>
<filter id="filter8_d_338_536" x="133" y="213" width="122" height="59" filterUnits="userSpaceOnUse" color-interpolation-filters="sRGB">
<feFlood flood-opacity="0" result="BackgroundImageFix"/>
<feColorMatrix in="SourceAlpha" type="matrix" values="0 0 0 0 0 0 0 0 0 0 0 0 0 0 0 0 0 0 127 0" result="hardAlpha"/>
<feOffset/>
<feGaussianBlur stdDeviation="5"/>
<feComposite in2="hardAlpha" operator="out"/>
<feColorMatrix type="matrix" values="0 0 0 0 0.721569 0 0 0 0 0.74902 0 0 0 0 0.992157 0 0 0 0.7 0"/>
<feBlend mode="normal" in2="BackgroundImageFix" result="effect1_dropShadow_338_536"/>
<feBlend mode="normal" in="SourceGraphic" in2="effect1_dropShadow_338_536" result="shape"/>
</filter>
<filter id="filter9_d_338_536" x="0" y="772" width="35.7858" height="38" filterUnits="userSpaceOnUse" color-interpolation-filters="sRGB">
<feFlood flood-opacity="0" result="BackgroundImageFix"/>
<feColorMatrix in="SourceAlpha" type="matrix" values="0 0 0 0 0 0 0 0 0 0 0 0 0 0 0 0 0 0 127 0" result="hardAlpha"/>
<feMorphology radius="5" operator="dilate" in="SourceAlpha" result="effect1_dropShadow_338_536"/>
<feOffset/>
<feGaussianBlur stdDeviation="5"/>
<feComposite in2="hardAlpha" operator="out"/>
<feColorMatrix type="matrix" values="0 0 0 0 0.0235294 0 0 0 0 1 0 0 0 0 0.380392 0 0 0 0.7 0"/>
<feBlend mode="normal" in2="BackgroundImageFix" result="effect1_dropShadow_338_536"/>
<feBlend mode="normal" in="SourceGraphic" in2="effect1_dropShadow_338_536" result="shape"/>
</filter>
<filter id="filter10_d_338_536" x="0" y="587" width="35.7858" height="38" filterUnits="userSpaceOnUse" color-interpolation-filters="sRGB">
<feFlood flood-opacity="0" result="BackgroundImageFix"/>
<feColorMatrix in="SourceAlpha" type="matrix" values="0 0 0 0 0 0 0 0 0 0 0 0 0 0 0 0 0 0 127 0" result="hardAlpha"/>
<feMorphology radius="5" operator="dilate" in="SourceAlpha" result="effect1_dropShadow_338_536"/>
<feOffset/>
<feGaussianBlur stdDeviation="5"/>
<feComposite in2="hardAlpha" operator="out"/>
<feColorMatrix type="matrix" values="0 0 0 0 0.0235294 0 0 0 0 1 0 0 0 0 0.380392 0 0 0 0.7 0"/>
<feBlend mode="normal" in2="BackgroundImageFix" result="effect1_dropShadow_338_536"/>
<feBlend mode="normal" in="SourceGraphic" in2="effect1_dropShadow_338_536" result="shape"/>
</filter>
<linearGradient id="paint0_linear_338_536" x1="194" y1="795" x2="194" y2="880" gradientUnits="userSpaceOnUse">
<stop stop-color="#232C49"/>
<stop offset="1" stop-color="#232C49" stop-opacity="0"/>
</linearGradient>
<linearGradient id="paint1_linear_338_536" x1="194" y1="431" x2="194" y2="569" gradientUnits="userSpaceOnUse">
<stop stop-color="#06FF61"/>
<stop offset="0.635417" stop-color="#93FFBA"/>
</linearGradient>
<linearGradient id="paint2_linear_338_536" x1="189" y1="0" x2="189" y2="85" gradientUnits="userSpaceOnUse">
<stop stop-color="#232C49"/>
<stop offset="1" stop-color="#232C49" stop-opacity="0"/>
</linearGradient>
</defs>
</svg>
