<svg width="192" height="50" viewBox="0 0 192 50" fill="none" xmlns="http://www.w3.org/2000/svg">
<path d="M11.0625 49H0.4375V3.75H11.0625V49ZM28.4375 49H17.9062V15.0625H27.9062V21.2188H28.25C29.0208 19.1562 30.3125 17.5417 32.125 16.375C33.9375 15.2083 36.0833 14.625 38.5625 14.625C40.9167 14.625 42.9792 15.1562 44.75 16.2188C46.5417 17.2604 47.9167 18.75 48.875 20.6875C49.8542 22.6042 50.3438 24.8229 50.3438 27.3438V49H39.8125V29.375C39.8125 28.125 39.5938 27.0417 39.1562 26.125C38.7396 25.2083 38.1042 24.5 37.25 24C36.4167 23.5 35.4167 23.25 34.25 23.25C33.0833 23.25 32.0625 23.5104 31.1875 24.0312C30.3125 24.5312 29.6354 25.2604 29.1562 26.2188C28.6771 27.1562 28.4375 28.2708 28.4375 29.5625V49Z" fill="#06FF61"/>
<path d="M76.0938 22.8125H54.4062V15.0625H76.0938V22.8125ZM59.0625 13.1875C59.0625 10.6667 59.5312 8.54167 60.4688 6.8125C61.4271 5.08333 62.7604 3.79167 64.4688 2.9375C66.1979 2.0625 68.25 1.625 70.625 1.625C71.8125 1.625 72.8854 1.67708 73.8438 1.78125C74.8021 1.88542 75.7604 2.04167 76.7188 2.25V10.0312C75.7604 9.96875 74.9896 9.89583 74.4062 9.8125C74.2604 9.83333 74.1458 9.84375 74.0625 9.84375C73.9792 9.82292 73.8958 9.8125 73.8125 9.8125C72.4167 9.83333 71.3646 10.1354 70.6562 10.7188C69.9479 11.2812 69.5938 12.1771 69.5938 13.4062V49H59.0625V13.1875ZM95.8125 49.625C92.2917 49.625 89.2396 48.9271 86.6562 47.5312C84.0938 46.1354 82.125 44.125 80.75 41.5C79.375 38.875 78.6875 35.7604 78.6875 32.1562C78.6875 28.6979 79.375 25.6354 80.75 22.9688C82.1458 20.3021 84.1042 18.25 86.625 16.8125C89.1667 15.3542 92.125 14.625 95.5 14.625C98.6875 14.625 101.5 15.2917 103.938 16.625C106.396 17.9583 108.323 19.9271 109.719 22.5312C111.115 25.1146 111.812 28.2396 111.812 31.9062V34.625H82.5V28.4062H102C101.979 27.2188 101.698 26.1562 101.156 25.2188C100.615 24.2812 99.8646 23.5521 98.9062 23.0312C97.9688 22.5104 96.8958 22.25 95.6875 22.25C94.4375 22.25 93.3125 22.5312 92.3125 23.0938C91.3125 23.6354 90.5208 24.3958 89.9375 25.375C89.375 26.3333 89.0833 27.4062 89.0625 28.5938V34.8125C89.0625 36.2708 89.3438 37.5417 89.9062 38.625C90.4896 39.6875 91.2917 40.5208 92.3125 41.125C93.3542 41.7083 94.5833 42 96 42C96.9375 42 97.8021 41.8646 98.5938 41.5938C99.3854 41.3229 100.052 40.9583 100.594 40.5C101.135 40.0208 101.552 39.4583 101.844 38.8125H111.688C111.25 41 110.344 42.9167 108.969 44.5625C107.594 46.1875 105.781 47.4375 103.531 48.3125C101.281 49.1875 98.7083 49.625 95.8125 49.625ZM117.219 15.0625H127.406V21.1875H127.781C128.385 19.0208 129.385 17.3854 130.781 16.2812C132.177 15.1562 133.833 14.5938 135.75 14.5938C136.938 14.6146 137.938 14.7396 138.75 14.9688V24.1562C138.25 23.9896 137.594 23.8542 136.781 23.75C135.99 23.6458 135.25 23.5938 134.562 23.5938C133.271 23.5938 132.104 23.8854 131.062 24.4688C130.042 25.0521 129.229 25.8542 128.625 26.875C128.042 27.8958 127.75 29.0729 127.75 30.4062V49H117.219V15.0625ZM143.031 15.0625H153.562V49H143.031V15.0625ZM148.281 11C147.281 11 146.365 10.7708 145.531 10.3125C144.719 9.85417 144.052 9.23958 143.531 8.46875C143.031 7.69792 142.781 6.85417 142.781 5.9375C142.781 5.02083 143.031 4.17708 143.531 3.40625C144.052 2.61458 144.719 1.98958 145.531 1.53125C146.365 1.07292 147.281 0.84375 148.281 0.84375C149.26 0.84375 150.167 1.07292 151 1.53125C151.833 1.98958 152.5 2.61458 153 3.40625C153.5 4.17708 153.75 5.02083 153.75 5.9375C153.75 6.85417 153.5 7.69792 153 8.46875C152.5 9.23958 151.833 9.85417 151 10.3125C150.167 10.7708 149.26 11 148.281 11ZM174.969 26.375L180.844 15.0625H191.531L182 32L191.844 49H181.281L174.969 37.625L168.812 49H158.094L167.969 32L158.562 15.0625H169.281L174.969 26.375Z" fill="white"/>
</svg>
