<svg width="291" height="582" viewBox="0 0 291 582" fill="none" xmlns="http://www.w3.org/2000/svg">
<path d="M187 88V10.5C187 4.97715 191.477 0.5 197 0.5H280C285.523 0.5 290 4.97714 290 10.5V571.5C290 577.023 285.523 581.5 280 581.5H11C5.47715 581.5 1 577.023 1 571.5V495C1 489.477 5.47715 485 11 485H177C182.523 485 187 480.523 187 475V296C187 290.477 182.523 286 177 286H11C5.47715 286 1 281.523 1 276V108C1 102.477 5.47715 98 11 98H177C182.523 98 187 93.5229 187 88Z" stroke="url(#paint0_linear_1316_3553)"/>
<defs>
<linearGradient id="paint0_linear_1316_3553" x1="145.5" y1="0.5" x2="145.5" y2="581.5" gradientUnits="userSpaceOnUse">
<stop stop-color="white"/>
<stop offset="0.911458" stop-color="white" stop-opacity="0.3"/>
</linearGradient>
</defs>
</svg>
