<svg width="201" height="57" viewBox="0 0 201 57" fill="none" xmlns="http://www.w3.org/2000/svg">
<mask id="mask0_379_724" style="mask-type:alpha" maskUnits="userSpaceOnUse" x="50" y="0" width="22" height="21">
<path d="M50.895 20.3992V0H54.2942V20.3992H50.895Z" fill="white"/>
<path d="M57.7017 20.3992V3.39917H61.1008V6.80249H64.5V10.2017H61.1008V20.3992H57.7017ZM67.8992 20.3992V13.6008H64.5V10.2017H67.8992V3.39917H71.2983V20.3992H67.8992Z" fill="white"/>
</mask>
<g mask="url(#mask0_379_724)">
<rect x="50.895" y="-2" width="22" height="24" fill="#06FF61"/>
</g>
<path d="M75.2983 20.3994V3.39941H88.895V6.80273H78.6975V10.2019H88.895V13.6011H78.6975V20.3994H75.2983Z" fill="white"/>
<path d="M102.496 10.2019V6.80273H95.6975V10.2019H102.496ZM92.2983 20.3994V3.39941H105.895V13.6011H95.6975V17.0002H105.895V20.3994H92.2983Z" fill="white"/>
<path d="M109.298 20.3994V3.39941H122.895V6.80273H112.698V20.3994H109.298Z" fill="white"/>
<path d="M126.298 20.3994V10.2019H129.698V20.3994H126.298ZM126.298 6.80273V3.39941H129.698V6.80273H126.298Z" fill="white"/>
<path d="M133.105 20.3994V17.0002H136.504V20.3994H133.105ZM146.702 20.3994V17.0002H150.105V20.3994H146.702ZM136.504 17.0002V13.6011H139.903V17.0002H136.504ZM143.302 17.0002V13.6011H146.702V17.0002H143.302ZM139.903 13.6011V10.2019H143.302V13.6011H139.903ZM136.504 10.2019V6.80273H139.903V10.2019H136.504ZM143.302 10.2019V6.80273H146.702V10.2019H143.302ZM133.105 6.80273V3.39941H136.504V6.80273H133.105ZM146.702 6.80273V3.39941H150.105V6.80273H146.702Z" fill="white"/>
<path d="M2.804 52.3994V51.0234H5.892C6.71333 51.0234 7.43333 50.8474 8.052 50.4954C8.67067 50.1327 9.15067 49.6367 9.492 49.0074C9.844 48.3781 10.02 47.6527 10.02 46.8314C10.02 46.0207 9.844 45.3007 9.492 44.6714C9.14 44.0421 8.65467 43.5514 8.036 43.1994C7.41733 42.8474 6.70267 42.6714 5.892 42.6714H2.82V41.2954H5.924C6.73467 41.2954 7.48133 41.4341 8.164 41.7114C8.85733 41.9887 9.45467 42.3781 9.956 42.8794C10.468 43.3807 10.8627 43.9674 11.14 44.6394C11.428 45.3114 11.572 46.0474 11.572 46.8474C11.572 47.6367 11.428 48.3727 11.14 49.0554C10.8627 49.7274 10.4733 50.3141 9.972 50.8154C9.47067 51.3167 8.87333 51.7061 8.18 51.9834C7.49733 52.2607 6.756 52.3994 5.956 52.3994H2.804ZM1.812 52.3994V41.2954H3.316V52.3994H1.812ZM16.9198 52.5594C16.1624 52.5594 15.4798 52.3887 14.8718 52.0474C14.2638 51.6954 13.7838 51.2207 13.4318 50.6234C13.0798 50.0261 12.9038 49.3487 12.9038 48.5914C12.9038 47.8447 13.0744 47.1727 13.4158 46.5754C13.7678 45.9781 14.2371 45.5087 14.8238 45.1674C15.4211 44.8154 16.0878 44.6394 16.8238 44.6394C17.5278 44.6394 18.1464 44.7994 18.6798 45.1194C19.2238 45.4394 19.6451 45.8821 19.9438 46.4474C20.2531 47.0127 20.4078 47.6527 20.4078 48.3674C20.4078 48.4741 20.4024 48.5914 20.3918 48.7194C20.3811 48.8367 20.3598 48.9754 20.3278 49.1354H13.9118V47.9354H19.5598L19.0318 48.3994C19.0318 47.8874 18.9411 47.4554 18.7598 47.1034C18.5784 46.7407 18.3224 46.4634 17.9918 46.2714C17.6611 46.0687 17.2611 45.9674 16.7918 45.9674C16.3011 45.9674 15.8691 46.0741 15.4958 46.2874C15.1224 46.5007 14.8344 46.7994 14.6318 47.1834C14.4291 47.5674 14.3278 48.0207 14.3278 48.5434C14.3278 49.0767 14.4344 49.5461 14.6478 49.9514C14.8611 50.3461 15.1651 50.6554 15.5598 50.8794C15.9544 51.0927 16.4078 51.1994 16.9198 51.1994C17.3464 51.1994 17.7358 51.1247 18.0878 50.9754C18.4504 50.8261 18.7598 50.6021 19.0158 50.3034L19.9438 51.2474C19.5811 51.6741 19.1331 51.9994 18.5998 52.2234C18.0771 52.4474 17.5171 52.5594 16.9198 52.5594ZM25.4499 52.5594C24.7032 52.5594 24.0259 52.3834 23.4179 52.0314C22.8205 51.6794 22.3459 51.2047 21.9939 50.6074C21.6525 49.9994 21.4819 49.3274 21.4819 48.5914C21.4819 47.8447 21.6525 47.1727 21.9939 46.5754C22.3459 45.9781 22.8205 45.5087 23.4179 45.1674C24.0259 44.8154 24.7032 44.6394 25.4499 44.6394C26.0365 44.6394 26.5805 44.7514 27.0819 44.9754C27.5832 45.1887 28.0152 45.5034 28.3779 45.9194L27.4179 46.8794C27.1832 46.6021 26.8952 46.3941 26.5539 46.2554C26.2232 46.1061 25.8552 46.0314 25.4499 46.0314C24.9699 46.0314 24.5432 46.1434 24.1699 46.3674C23.7965 46.5807 23.5032 46.8794 23.2899 47.2634C23.0765 47.6474 22.9699 48.0901 22.9699 48.5914C22.9699 49.0927 23.0765 49.5354 23.2899 49.9194C23.5032 50.3034 23.7965 50.6074 24.1699 50.8314C24.5432 51.0554 24.9699 51.1674 25.4499 51.1674C25.8552 51.1674 26.2232 51.0981 26.5539 50.9594C26.8952 50.8101 27.1885 50.5967 27.4339 50.3194L28.3779 51.2794C28.0259 51.6847 27.5939 51.9994 27.0819 52.2234C26.5805 52.4474 26.0365 52.5594 25.4499 52.5594ZM33.1698 52.5594C32.4124 52.5594 31.7298 52.3887 31.1218 52.0474C30.5138 51.6954 30.0338 51.2207 29.6818 50.6234C29.3298 50.0261 29.1538 49.3487 29.1538 48.5914C29.1538 47.8447 29.3244 47.1727 29.6658 46.5754C30.0178 45.9781 30.4871 45.5087 31.0738 45.1674C31.6711 44.8154 32.3378 44.6394 33.0738 44.6394C33.7778 44.6394 34.3964 44.7994 34.9298 45.1194C35.4738 45.4394 35.8951 45.8821 36.1938 46.4474C36.5031 47.0127 36.6578 47.6527 36.6578 48.3674C36.6578 48.4741 36.6524 48.5914 36.6418 48.7194C36.6311 48.8367 36.6098 48.9754 36.5778 49.1354H30.1618V47.9354H35.8098L35.2818 48.3994C35.2818 47.8874 35.1911 47.4554 35.0098 47.1034C34.8284 46.7407 34.5724 46.4634 34.2418 46.2714C33.9111 46.0687 33.5111 45.9674 33.0418 45.9674C32.5511 45.9674 32.1191 46.0741 31.7458 46.2874C31.3724 46.5007 31.0844 46.7994 30.8818 47.1834C30.6791 47.5674 30.5778 48.0207 30.5778 48.5434C30.5778 49.0767 30.6844 49.5461 30.8978 49.9514C31.1111 50.3461 31.4151 50.6554 31.8098 50.8794C32.2044 51.0927 32.6578 51.1994 33.1698 51.1994C33.5964 51.1994 33.9858 51.1247 34.3378 50.9754C34.7004 50.8261 35.0098 50.6021 35.2658 50.3034L36.1938 51.2474C35.8311 51.6741 35.3831 51.9994 34.8498 52.2234C34.3271 52.4474 33.7671 52.5594 33.1698 52.5594ZM43.6039 52.3994V47.9674C43.6039 47.3914 43.4225 46.9167 43.0599 46.5434C42.6972 46.1701 42.2279 45.9834 41.6519 45.9834C41.2679 45.9834 40.9265 46.0687 40.6279 46.2394C40.3292 46.4101 40.0945 46.6447 39.9239 46.9434C39.7532 47.2421 39.6679 47.5834 39.6679 47.9674L39.0759 47.6314C39.0759 47.0554 39.2039 46.5434 39.4599 46.0954C39.7159 45.6474 40.0732 45.2954 40.5319 45.0394C40.9905 44.7727 41.5079 44.6394 42.0839 44.6394C42.6599 44.6394 43.1665 44.7834 43.6039 45.0714C44.0519 45.3594 44.4039 45.7381 44.6599 46.2074C44.9159 46.6661 45.0439 47.1567 45.0439 47.6794V52.3994H43.6039ZM38.2279 52.3994V44.7994H39.6679V52.3994H38.2279ZM48.0678 52.3994V41.6154H49.5078V52.3994H48.0678ZM46.1958 46.1114V44.7994H51.3798V46.1114H46.1958ZM52.7904 52.3994V44.7994H54.2304V52.3994H52.7904ZM54.2304 48.0634L53.6864 47.8234C53.6864 46.8527 53.9104 46.0794 54.3584 45.5034C54.8064 44.9274 55.4517 44.6394 56.2944 44.6394C56.6784 44.6394 57.025 44.7087 57.3344 44.8474C57.6437 44.9754 57.9317 45.1941 58.1984 45.5034L57.2544 46.4794C57.0944 46.3087 56.9184 46.1861 56.7264 46.1114C56.5344 46.0367 56.3104 45.9994 56.0544 45.9994C55.521 45.9994 55.0837 46.1701 54.7424 46.5114C54.401 46.8527 54.2304 47.3701 54.2304 48.0634ZM62.1943 52.5594C61.5009 52.5594 60.8716 52.3887 60.3063 52.0474C59.7409 51.6954 59.2929 51.2207 58.9622 50.6234C58.6423 50.0261 58.4823 49.3541 58.4823 48.6074C58.4823 47.8607 58.6423 47.1887 58.9622 46.5914C59.2929 45.9941 59.7356 45.5194 60.2903 45.1674C60.8556 44.8154 61.4903 44.6394 62.1943 44.6394C62.7703 44.6394 63.2823 44.7621 63.7303 45.0074C64.1889 45.2421 64.5569 45.5727 64.8343 45.9994C65.1116 46.4154 65.2663 46.9007 65.2983 47.4554V49.7434C65.2663 50.2874 65.1116 50.7727 64.8343 51.1994C64.5676 51.6261 64.2049 51.9621 63.7463 52.2074C63.2983 52.4421 62.7809 52.5594 62.1943 52.5594ZM62.4343 51.1994C63.1489 51.1994 63.7249 50.9594 64.1623 50.4794C64.5996 49.9887 64.8183 49.3647 64.8183 48.6074C64.8183 48.0847 64.7169 47.6314 64.5143 47.2474C64.3223 46.8527 64.0449 46.5487 63.6823 46.3354C63.3196 46.1114 62.8983 45.9994 62.4183 45.9994C61.9383 45.9994 61.5116 46.1114 61.1383 46.3354C60.7756 46.5594 60.4876 46.8687 60.2743 47.2634C60.0716 47.6474 59.9703 48.0901 59.9703 48.5914C59.9703 49.1034 60.0716 49.5567 60.2743 49.9514C60.4876 50.3354 60.7809 50.6394 61.1543 50.8634C61.5276 51.0874 61.9543 51.1994 62.4343 51.1994ZM64.7223 52.3994V50.3514L64.9943 48.4954L64.7223 46.6554V44.7994H66.1783V52.3994H64.7223ZM67.6668 51.6154L72.1788 45.5834H73.8748L69.3628 51.6154H67.6668ZM67.6668 52.3994V51.6154L68.9468 51.0874H73.7788V52.3994H67.6668ZM67.9388 46.1114V44.7994H73.8748V45.5834L72.5468 46.1114H67.9388ZM75.431 52.3994V40.9754H76.871V52.3994H75.431ZM78.9939 52.3994V44.7994H80.4339V52.3994H78.9939ZM79.7139 43.2794C79.4472 43.2794 79.2285 43.1941 79.0579 43.0234C78.8872 42.8421 78.8019 42.6181 78.8019 42.3514C78.8019 42.0954 78.8872 41.8821 79.0579 41.7114C79.2285 41.5301 79.4472 41.4394 79.7139 41.4394C79.9805 41.4394 80.1992 41.5301 80.3699 41.7114C80.5405 41.8821 80.6259 42.0954 80.6259 42.3514C80.6259 42.6181 80.5405 42.8421 80.3699 43.0234C80.1992 43.1941 79.9805 43.2794 79.7139 43.2794ZM86.076 52.5594C85.3187 52.5594 84.636 52.3887 84.028 52.0474C83.42 51.6954 82.94 51.2207 82.588 50.6234C82.236 50.0261 82.06 49.3487 82.06 48.5914C82.06 47.8447 82.2307 47.1727 82.572 46.5754C82.924 45.9781 83.3933 45.5087 83.98 45.1674C84.5773 44.8154 85.244 44.6394 85.98 44.6394C86.684 44.6394 87.3027 44.7994 87.836 45.1194C88.38 45.4394 88.8013 45.8821 89.1 46.4474C89.4093 47.0127 89.564 47.6527 89.564 48.3674C89.564 48.4741 89.5587 48.5914 89.548 48.7194C89.5373 48.8367 89.516 48.9754 89.484 49.1354H83.068V47.9354H88.716L88.188 48.3994C88.188 47.8874 88.0973 47.4554 87.916 47.1034C87.7347 46.7407 87.4787 46.4634 87.148 46.2714C86.8173 46.0687 86.4173 45.9674 85.948 45.9674C85.4573 45.9674 85.0253 46.0741 84.652 46.2874C84.2787 46.5007 83.9907 46.7994 83.788 47.1834C83.5853 47.5674 83.484 48.0207 83.484 48.5434C83.484 49.0767 83.5907 49.5461 83.804 49.9514C84.0173 50.3461 84.3213 50.6554 84.716 50.8794C85.1107 51.0927 85.564 51.1994 86.076 51.1994C86.5027 51.1994 86.892 51.1247 87.244 50.9754C87.6067 50.8261 87.916 50.6021 88.172 50.3034L89.1 51.2474C88.7373 51.6741 88.2893 51.9994 87.756 52.2234C87.2333 52.4474 86.6733 52.5594 86.076 52.5594ZM94.3501 52.5594C93.6461 52.5594 93.0168 52.3887 92.4621 52.0474C91.9075 51.6954 91.4648 51.2207 91.1341 50.6234C90.8141 50.0261 90.6541 49.3541 90.6541 48.6074C90.6541 47.8607 90.8141 47.1887 91.1341 46.5914C91.4648 45.9941 91.9075 45.5194 92.4621 45.1674C93.0168 44.8154 93.6461 44.6394 94.3501 44.6394C94.9155 44.6394 95.4275 44.7621 95.8861 45.0074C96.3448 45.2421 96.7128 45.5727 96.9901 45.9994C97.2781 46.4154 97.4381 46.9007 97.4701 47.4554V49.7434C97.4381 50.2874 97.2835 50.7727 97.0061 51.1994C96.7288 51.6261 96.3608 51.9621 95.9021 52.2074C95.4435 52.4421 94.9261 52.5594 94.3501 52.5594ZM94.5901 51.1994C95.0701 51.1994 95.4861 51.0874 95.8381 50.8634C96.2008 50.6394 96.4835 50.3354 96.6861 49.9514C96.8888 49.5567 96.9901 49.1087 96.9901 48.6074C96.9901 48.0847 96.8835 47.6314 96.6701 47.2474C96.4675 46.8634 96.1848 46.5594 95.8221 46.3354C95.4701 46.1114 95.0541 45.9994 94.5741 45.9994C94.0941 45.9994 93.6728 46.1114 93.3101 46.3354C92.9475 46.5594 92.6595 46.8687 92.4461 47.2634C92.2435 47.6474 92.1421 48.0901 92.1421 48.5914C92.1421 49.1034 92.2435 49.5567 92.4461 49.9514C92.6595 50.3354 92.9475 50.6394 93.3101 50.8634C93.6835 51.0874 94.1101 51.1994 94.5901 51.1994ZM98.3501 52.3994H96.8941V50.3514L97.1661 48.4954L96.8941 46.6554V40.9754H98.3501V52.3994ZM109.055 52.5594C108.276 52.5594 107.545 52.4154 106.863 52.1274C106.191 51.8287 105.599 51.4181 105.087 50.8954C104.585 50.3727 104.191 49.7647 103.903 49.0714C103.615 48.3781 103.471 47.6314 103.471 46.8314C103.471 46.0314 103.615 45.2901 103.903 44.6074C104.191 43.9141 104.591 43.3061 105.103 42.7834C105.615 42.2607 106.212 41.8554 106.895 41.5674C107.588 41.2794 108.34 41.1354 109.151 41.1354C110.036 41.1354 110.852 41.3061 111.599 41.6474C112.345 41.9887 112.969 42.4794 113.471 43.1194L112.431 44.1594C112.079 43.6474 111.615 43.2581 111.039 42.9914C110.463 42.7141 109.833 42.5754 109.151 42.5754C108.34 42.5754 107.62 42.7567 106.991 43.1194C106.372 43.4821 105.887 43.9834 105.535 44.6234C105.193 45.2634 105.023 45.9994 105.023 46.8314C105.023 47.6741 105.199 48.4154 105.551 49.0554C105.903 49.6954 106.377 50.1967 106.975 50.5594C107.572 50.9221 108.255 51.1034 109.023 51.1034C109.801 51.1034 110.473 50.9541 111.039 50.6554C111.615 50.3567 112.057 49.9194 112.367 49.3434C112.676 48.7567 112.831 48.0421 112.831 47.1994L113.743 47.8554H108.943V46.4794H114.383V46.7034C114.383 47.9941 114.153 49.0767 113.695 49.9514C113.247 50.8154 112.617 51.4661 111.807 51.9034C111.007 52.3407 110.089 52.5594 109.055 52.5594ZM117.414 48.0794V46.7674H120.438C120.854 46.7674 121.222 46.6821 121.542 46.5114C121.872 46.3407 122.128 46.1007 122.31 45.7914C122.502 45.4821 122.598 45.1141 122.598 44.6874C122.598 44.2607 122.502 43.8927 122.31 43.5834C122.128 43.2741 121.872 43.0341 121.542 42.8634C121.222 42.6927 120.854 42.6074 120.438 42.6074H117.414V41.2954H120.534C121.216 41.2954 121.824 41.4341 122.358 41.7114C122.902 41.9887 123.328 42.3834 123.638 42.8954C123.958 43.3967 124.118 43.9941 124.118 44.6874C124.118 45.3701 123.958 45.9674 123.638 46.4794C123.328 46.9807 122.902 47.3754 122.358 47.6634C121.824 47.9407 121.216 48.0794 120.534 48.0794H117.414ZM116.406 52.3994V41.2954H117.91V52.3994H116.406ZM130.269 52.5594C129.448 52.5594 128.712 52.3781 128.061 52.0154C127.421 51.6421 126.914 51.1354 126.541 50.4954C126.168 49.8447 125.981 49.1087 125.981 48.2874V41.2954H127.485V48.2554C127.485 48.8421 127.608 49.3487 127.853 49.7754C128.098 50.2021 128.429 50.5327 128.845 50.7674C129.272 51.0021 129.746 51.1194 130.269 51.1194C130.813 51.1194 131.288 51.0021 131.693 50.7674C132.109 50.5327 132.434 50.2021 132.669 49.7754C132.914 49.3487 133.037 48.8474 133.037 48.2714V41.2954H134.557V48.3034C134.557 49.1247 134.37 49.8554 133.997 50.4954C133.624 51.1354 133.117 51.6421 132.477 52.0154C131.837 52.3781 131.101 52.5594 130.269 52.5594ZM140.359 52.3994V41.2954H141.415L141.863 43.0394V52.3994H140.359ZM148.039 52.3994L141.223 43.2954L141.415 41.2954L148.247 50.3834L148.039 52.3994ZM148.039 52.3994L147.591 50.7514V41.2954H149.095V52.3994H148.039ZM154.982 52.5594C154.225 52.5594 153.542 52.3887 152.934 52.0474C152.326 51.6954 151.846 51.2207 151.494 50.6234C151.142 50.0261 150.966 49.3487 150.966 48.5914C150.966 47.8447 151.137 47.1727 151.478 46.5754C151.83 45.9781 152.3 45.5087 152.886 45.1674C153.484 44.8154 154.15 44.6394 154.886 44.6394C155.59 44.6394 156.209 44.7994 156.742 45.1194C157.286 45.4394 157.708 45.8821 158.006 46.4474C158.316 47.0127 158.47 47.6527 158.47 48.3674C158.47 48.4741 158.465 48.5914 158.454 48.7194C158.444 48.8367 158.422 48.9754 158.39 49.1354H151.974V47.9354H157.622L157.094 48.3994C157.094 47.8874 157.004 47.4554 156.822 47.1034C156.641 46.7407 156.385 46.4634 156.054 46.2714C155.724 46.0687 155.324 45.9674 154.854 45.9674C154.364 45.9674 153.932 46.0741 153.558 46.2874C153.185 46.5007 152.897 46.7994 152.694 47.1834C152.492 47.5674 152.39 48.0207 152.39 48.5434C152.39 49.0767 152.497 49.5461 152.71 49.9514C152.924 50.3461 153.228 50.6554 153.622 50.8794C154.017 51.0927 154.47 51.1994 154.982 51.1994C155.409 51.1994 155.798 51.1247 156.15 50.9754C156.513 50.8261 156.822 50.6021 157.078 50.3034L158.006 51.2474C157.644 51.6741 157.196 51.9994 156.662 52.2234C156.14 52.4474 155.58 52.5594 154.982 52.5594ZM160.974 52.3994V41.6154H162.414V52.3994H160.974ZM159.102 46.1114V44.7994H164.286V46.1114H159.102ZM167.873 52.3994L164.865 44.7994H166.369L168.545 50.7194H168.065L170.225 44.7994H171.057L173.217 50.7194H172.737L174.913 44.7994H176.417L173.425 52.3994H172.577L170.385 46.6554H170.913L168.705 52.3994H167.873ZM180.95 52.5594C180.203 52.5594 179.531 52.3834 178.934 52.0314C178.337 51.6794 177.862 51.2047 177.51 50.6074C177.158 49.9994 176.982 49.3221 176.982 48.5754C176.982 47.8394 177.158 47.1781 177.51 46.5914C177.862 45.9941 178.337 45.5194 178.934 45.1674C179.531 44.8154 180.203 44.6394 180.95 44.6394C181.686 44.6394 182.353 44.8154 182.95 45.1674C183.558 45.5087 184.038 45.9781 184.39 46.5754C184.742 47.1727 184.918 47.8394 184.918 48.5754C184.918 49.3221 184.742 49.9994 184.39 50.6074C184.038 51.2047 183.558 51.6794 182.95 52.0314C182.353 52.3834 181.686 52.5594 180.95 52.5594ZM180.95 51.1674C181.43 51.1674 181.857 51.0554 182.23 50.8314C182.603 50.6074 182.897 50.3034 183.11 49.9194C183.323 49.5247 183.43 49.0767 183.43 48.5754C183.43 48.0847 183.318 47.6474 183.094 47.2634C182.881 46.8794 182.587 46.5807 182.214 46.3674C181.851 46.1434 181.43 46.0314 180.95 46.0314C180.47 46.0314 180.043 46.1434 179.67 46.3674C179.297 46.5807 179.003 46.8794 178.79 47.2634C178.577 47.6474 178.47 48.0847 178.47 48.5754C178.47 49.0767 178.577 49.5247 178.79 49.9194C179.003 50.3034 179.297 50.6074 179.67 50.8314C180.043 51.0554 180.47 51.1674 180.95 51.1674ZM186.54 52.3994V44.7994H187.98V52.3994H186.54ZM187.98 48.0634L187.436 47.8234C187.436 46.8527 187.66 46.0794 188.108 45.5034C188.556 44.9274 189.202 44.6394 190.044 44.6394C190.428 44.6394 190.775 44.7087 191.084 44.8474C191.394 44.9754 191.682 45.1941 191.948 45.5034L191.004 46.4794C190.844 46.3087 190.668 46.1861 190.476 46.1114C190.284 46.0367 190.06 45.9994 189.804 45.9994C189.271 45.9994 188.834 46.1701 188.492 46.5114C188.151 46.8527 187.98 47.3701 187.98 48.0634ZM197.826 52.3994L194.274 48.5114L197.794 44.7994H199.538L195.618 48.8954L195.682 48.0634L199.682 52.3994H197.826ZM192.962 52.3994V40.9754H194.402V52.3994H192.962Z" fill="white"/>
</svg>
