<svg width="40" height="40" viewBox="0 0 40 40" fill="none" xmlns="http://www.w3.org/2000/svg">
    <g clip-path="url(#clip0_931_534)">
        <path d="M20 0C16.0444 0 12.1776 1.17298 8.8886 3.37061C5.59962 5.56824 3.03617 8.69181 1.52242 12.3463C0.00866576 16.0009 -0.387401 20.0222 0.384303 23.9018C1.15601 27.7814 3.06082 31.3451 5.85787 34.1421C8.65492 36.9392 12.2186 38.844 16.0982 39.6157C19.9778 40.3874 23.9992 39.9913 27.6537 38.4776C31.3082 36.9638 34.4318 34.4004 36.6294 31.1114C38.827 27.8224 40 23.9556 40 20C40 14.6957 37.8929 9.60859 34.1421 5.85786C30.3914 2.10714 25.3043 0 20 0ZM32.5 10.5227L30.5046 12.4295C30.4194 12.4927 30.3531 12.578 30.313 12.6762C30.273 12.7743 30.2606 12.8816 30.2773 12.9864V27.0159C30.2608 27.1203 30.2732 27.2272 30.3133 27.325C30.3534 27.4228 30.4195 27.5077 30.5046 27.5705L32.4523 29.4795V29.8955H22.65V29.4773L24.6705 27.5227C24.8659 27.3273 24.8659 27.2659 24.8659 26.9659V15.6318L19.25 29.8591H18.4886L11.9568 15.6318V25.1773C11.9291 25.375 11.9472 25.5765 12.0099 25.7661C12.0726 25.9556 12.178 26.1282 12.3182 26.2705L14.9432 29.4523V29.8705H7.50001V29.4591L10.125 26.2773C10.2649 26.1324 10.3679 25.956 10.4253 25.763C10.4826 25.5699 10.4927 25.3659 10.4546 25.1682V14.1432C10.4687 13.992 10.4476 13.8396 10.3928 13.698C10.3379 13.5564 10.2509 13.4295 10.1386 13.3273L7.81592 10.5227V10.1045H15.0614L20.6636 22.3636L25.5886 10.1045H32.5V10.5227Z" fill="white"/>
    </g>
    <defs>
        <clipPath id="clip0_931_534">
            <rect width="40" height="40" fill="white"/>
        </clipPath>
    </defs>
</svg>
