<svg width="113" height="39" viewBox="0 0 113 39" fill="none" xmlns="http://www.w3.org/2000/svg">
<mask id="mask0_338_412" style="mask-type:alpha" maskUnits="userSpaceOnUse" x="0" y="0" width="21" height="20">
<path d="M0 20V1.52588e-05H3.40696V20H0Z" fill="white"/>
<path d="M6.82224 20V3.33267H10.2292V6.66939H13.6362V10.002H10.2292V20H6.82224ZM17.0431 20V13.3347H13.6362V10.002H17.0431V3.33267H20.4501V20H17.0431Z" fill="white"/>
</mask>
<g mask="url(#mask0_338_412)">
<rect y="-1.96085" width="22.0504" height="23.5304" fill="#06FF61"/>
</g>
<path d="M25.1295 20V3.97929H38.7378V7.18657H28.5316V10.3899H38.7378V13.5933H28.5316V20H25.1295Z" fill="white"/>
<path d="M52.3502 10.3899V7.18657H45.5461V10.3899H52.3502ZM42.144 20V3.97929H55.7523V13.5933H45.5461V16.7966H55.7523V20H42.144Z" fill="white"/>
<path d="M59.1585 20V3.97929H72.7668V7.18657H62.5606V20H59.1585Z" fill="white"/>
<path d="M76.173 20V10.3899H79.5751V20H76.173ZM76.173 7.18657V3.97929H79.5751V7.18657H76.173Z" fill="white"/>
<path d="M82.9855 20V16.7966H86.3876V20H82.9855ZM96.5938 20V16.7966H100V20H96.5938ZM86.3876 16.7966V13.5933H89.7896V16.7966H86.3876ZM93.1917 16.7966V13.5933H96.5938V16.7966H93.1917ZM89.7896 13.5933V10.3899H93.1917V13.5933H89.7896ZM86.3876 10.3899V7.18657H89.7896V10.3899H86.3876ZM93.1917 10.3899V7.18657H96.5938V10.3899H93.1917ZM82.9855 7.18657V3.97929H86.3876V7.18657H82.9855ZM96.5938 7.18657V3.97929H100V7.18657H96.5938Z" fill="white"/>
<path d="M1.296 37V36.226H3.033C3.495 36.226 3.9 36.127 4.248 35.929C4.596 35.725 4.866 35.446 5.058 35.092C5.256 34.738 5.355 34.33 5.355 33.868C5.355 33.412 5.256 33.007 5.058 32.653C4.86 32.299 4.587 32.023 4.239 31.825C3.891 31.627 3.489 31.528 3.033 31.528H1.305V30.754H3.051C3.507 30.754 3.927 30.832 4.311 30.988C4.701 31.144 5.037 31.363 5.319 31.645C5.607 31.927 5.829 32.257 5.985 32.635C6.147 33.013 6.228 33.427 6.228 33.877C6.228 34.321 6.147 34.735 5.985 35.119C5.829 35.497 5.61 35.827 5.328 36.109C5.046 36.391 4.71 36.61 4.32 36.766C3.936 36.922 3.519 37 3.069 37H1.296ZM0.738 37V30.754H1.584V37H0.738ZM9.23611 37.09C8.81011 37.09 8.42611 36.994 8.08411 36.802C7.74211 36.604 7.47211 36.337 7.27411 36.001C7.07611 35.665 6.97711 35.284 6.97711 34.858C6.97711 34.438 7.07311 34.06 7.26511 33.724C7.46311 33.388 7.72711 33.124 8.05711 32.932C8.39311 32.734 8.76811 32.635 9.18211 32.635C9.57811 32.635 9.92611 32.725 10.2261 32.905C10.5321 33.085 10.7691 33.334 10.9371 33.652C11.1111 33.97 11.1981 34.33 11.1981 34.732C11.1981 34.792 11.1951 34.858 11.1891 34.93C11.1831 34.996 11.1711 35.074 11.1531 35.164H7.54411V34.489H10.7211L10.4241 34.75C10.4241 34.462 10.3731 34.219 10.2711 34.021C10.1691 33.817 10.0251 33.661 9.83911 33.553C9.65311 33.439 9.42811 33.382 9.16411 33.382C8.88811 33.382 8.64511 33.442 8.43511 33.562C8.22511 33.682 8.06311 33.85 7.94911 34.066C7.83511 34.282 7.77811 34.537 7.77811 34.831C7.77811 35.131 7.83811 35.395 7.95811 35.623C8.07811 35.845 8.24911 36.019 8.47111 36.145C8.69311 36.265 8.94811 36.325 9.23611 36.325C9.47611 36.325 9.69511 36.283 9.89311 36.199C10.0971 36.115 10.2711 35.989 10.4151 35.821L10.9371 36.352C10.7331 36.592 10.4811 36.775 10.1811 36.901C9.88711 37.027 9.57211 37.09 9.23611 37.09ZM14.0343 37.09C13.6143 37.09 13.2333 36.991 12.8913 36.793C12.5553 36.595 12.2883 36.328 12.0903 35.992C11.8983 35.65 11.8023 35.272 11.8023 34.858C11.8023 34.438 11.8983 34.06 12.0903 33.724C12.2883 33.388 12.5553 33.124 12.8913 32.932C13.2333 32.734 13.6143 32.635 14.0343 32.635C14.3643 32.635 14.6703 32.698 14.9523 32.824C15.2343 32.944 15.4773 33.121 15.6813 33.355L15.1413 33.895C15.0093 33.739 14.8473 33.622 14.6553 33.544C14.4693 33.46 14.2623 33.418 14.0343 33.418C13.7643 33.418 13.5243 33.481 13.3143 33.607C13.1043 33.727 12.9393 33.895 12.8193 34.111C12.6993 34.327 12.6393 34.576 12.6393 34.858C12.6393 35.14 12.6993 35.389 12.8193 35.605C12.9393 35.821 13.1043 35.992 13.3143 36.118C13.5243 36.244 13.7643 36.307 14.0343 36.307C14.2623 36.307 14.4693 36.268 14.6553 36.19C14.8473 36.106 15.0123 35.986 15.1503 35.83L15.6813 36.37C15.4833 36.598 15.2403 36.775 14.9523 36.901C14.6703 37.027 14.3643 37.09 14.0343 37.09ZM18.3767 37.09C17.9507 37.09 17.5667 36.994 17.2247 36.802C16.8827 36.604 16.6127 36.337 16.4147 36.001C16.2167 35.665 16.1177 35.284 16.1177 34.858C16.1177 34.438 16.2137 34.06 16.4057 33.724C16.6037 33.388 16.8677 33.124 17.1977 32.932C17.5337 32.734 17.9087 32.635 18.3227 32.635C18.7187 32.635 19.0667 32.725 19.3667 32.905C19.6727 33.085 19.9097 33.334 20.0777 33.652C20.2517 33.97 20.3387 34.33 20.3387 34.732C20.3387 34.792 20.3357 34.858 20.3297 34.93C20.3237 34.996 20.3117 35.074 20.2937 35.164H16.6847V34.489H19.8617L19.5647 34.75C19.5647 34.462 19.5137 34.219 19.4117 34.021C19.3097 33.817 19.1657 33.661 18.9797 33.553C18.7937 33.439 18.5687 33.382 18.3047 33.382C18.0287 33.382 17.7857 33.442 17.5757 33.562C17.3657 33.682 17.2037 33.85 17.0897 34.066C16.9757 34.282 16.9187 34.537 16.9187 34.831C16.9187 35.131 16.9787 35.395 17.0987 35.623C17.2187 35.845 17.3897 36.019 17.6117 36.145C17.8337 36.265 18.0887 36.325 18.3767 36.325C18.6167 36.325 18.8357 36.283 19.0337 36.199C19.2377 36.115 19.4117 35.989 19.5557 35.821L20.0777 36.352C19.8737 36.592 19.6217 36.775 19.3217 36.901C19.0277 37.027 18.7127 37.09 18.3767 37.09ZM24.2459 37V34.507C24.2459 34.183 24.1439 33.916 23.9399 33.706C23.7359 33.496 23.4719 33.391 23.1479 33.391C22.9319 33.391 22.7399 33.439 22.5719 33.535C22.4039 33.631 22.2719 33.763 22.1759 33.931C22.0799 34.099 22.0319 34.291 22.0319 34.507L21.6989 34.318C21.6989 33.994 21.7709 33.706 21.9149 33.454C22.0589 33.202 22.2599 33.004 22.5179 32.86C22.7759 32.71 23.0669 32.635 23.3909 32.635C23.7149 32.635 23.9999 32.716 24.2459 32.878C24.4979 33.04 24.6959 33.253 24.8399 33.517C24.9839 33.775 25.0559 34.051 25.0559 34.345V37H24.2459ZM21.2219 37V32.725H22.0319V37H21.2219ZM26.7569 37V30.934H27.5669V37H26.7569ZM25.7039 33.463V32.725H28.6199V33.463H25.7039ZM29.4133 37V32.725H30.2233V37H29.4133ZM30.2233 34.561L29.9173 34.426C29.9173 33.88 30.0433 33.445 30.2953 33.121C30.5473 32.797 30.9103 32.635 31.3843 32.635C31.6003 32.635 31.7953 32.674 31.9693 32.752C32.1433 32.824 32.3053 32.947 32.4553 33.121L31.9243 33.67C31.8343 33.574 31.7353 33.505 31.6273 33.463C31.5193 33.421 31.3933 33.4 31.2493 33.4C30.9493 33.4 30.7033 33.496 30.5113 33.688C30.3193 33.88 30.2233 34.171 30.2233 34.561ZM34.703 37.09C34.313 37.09 33.959 36.994 33.641 36.802C33.323 36.604 33.071 36.337 32.885 36.001C32.705 35.665 32.615 35.287 32.615 34.867C32.615 34.447 32.705 34.069 32.885 33.733C33.071 33.397 33.32 33.13 33.632 32.932C33.95 32.734 34.307 32.635 34.703 32.635C35.027 32.635 35.315 32.704 35.567 32.842C35.825 32.974 36.032 33.16 36.188 33.4C36.344 33.634 36.431 33.907 36.449 34.219V35.506C36.431 35.812 36.344 36.085 36.188 36.325C36.038 36.565 35.834 36.754 35.576 36.892C35.324 37.024 35.033 37.09 34.703 37.09ZM34.838 36.325C35.24 36.325 35.564 36.19 35.81 35.92C36.056 35.644 36.179 35.293 36.179 34.867C36.179 34.573 36.122 34.318 36.008 34.102C35.9 33.88 35.744 33.709 35.54 33.589C35.336 33.463 35.099 33.4 34.829 33.4C34.559 33.4 34.319 33.463 34.109 33.589C33.905 33.715 33.743 33.889 33.623 34.111C33.509 34.327 33.452 34.576 33.452 34.858C33.452 35.146 33.509 35.401 33.623 35.623C33.743 35.839 33.908 36.01 34.118 36.136C34.328 36.262 34.568 36.325 34.838 36.325ZM36.125 37V35.848L36.278 34.804L36.125 33.769V32.725H36.944V37H36.125ZM37.7813 36.559L40.3193 33.166H41.2733L38.7353 36.559H37.7813ZM37.7813 37V36.559L38.5013 36.262H41.2193V37H37.7813ZM37.9343 33.463V32.725H41.2733V33.166L40.5263 33.463H37.9343ZM42.1487 37V30.574H42.9587V37H42.1487ZM44.1528 37V32.725H44.9628V37H44.1528ZM44.5578 31.87C44.4078 31.87 44.2848 31.822 44.1888 31.726C44.0928 31.624 44.0448 31.498 44.0448 31.348C44.0448 31.204 44.0928 31.084 44.1888 30.988C44.2848 30.886 44.4078 30.835 44.5578 30.835C44.7078 30.835 44.8308 30.886 44.9268 30.988C45.0228 31.084 45.0708 31.204 45.0708 31.348C45.0708 31.498 45.0228 31.624 44.9268 31.726C44.8308 31.822 44.7078 31.87 44.5578 31.87ZM48.1365 37.09C47.7105 37.09 47.3265 36.994 46.9845 36.802C46.6425 36.604 46.3725 36.337 46.1745 36.001C45.9765 35.665 45.8775 35.284 45.8775 34.858C45.8775 34.438 45.9735 34.06 46.1655 33.724C46.3635 33.388 46.6275 33.124 46.9575 32.932C47.2935 32.734 47.6685 32.635 48.0825 32.635C48.4785 32.635 48.8265 32.725 49.1265 32.905C49.4325 33.085 49.6695 33.334 49.8375 33.652C50.0115 33.97 50.0985 34.33 50.0985 34.732C50.0985 34.792 50.0955 34.858 50.0895 34.93C50.0835 34.996 50.0715 35.074 50.0535 35.164H46.4445V34.489H49.6215L49.3245 34.75C49.3245 34.462 49.2735 34.219 49.1715 34.021C49.0695 33.817 48.9255 33.661 48.7395 33.553C48.5535 33.439 48.3285 33.382 48.0645 33.382C47.7885 33.382 47.5455 33.442 47.3355 33.562C47.1255 33.682 46.9635 33.85 46.8495 34.066C46.7355 34.282 46.6785 34.537 46.6785 34.831C46.6785 35.131 46.7385 35.395 46.8585 35.623C46.9785 35.845 47.1495 36.019 47.3715 36.145C47.5935 36.265 47.8485 36.325 48.1365 36.325C48.3765 36.325 48.5955 36.283 48.7935 36.199C48.9975 36.115 49.1715 35.989 49.3155 35.821L49.8375 36.352C49.6335 36.592 49.3815 36.775 49.0815 36.901C48.7875 37.027 48.4725 37.09 48.1365 37.09ZM52.7907 37.09C52.3947 37.09 52.0407 36.994 51.7287 36.802C51.4167 36.604 51.1677 36.337 50.9817 36.001C50.8017 35.665 50.7117 35.287 50.7117 34.867C50.7117 34.447 50.8017 34.069 50.9817 33.733C51.1677 33.397 51.4167 33.13 51.7287 32.932C52.0407 32.734 52.3947 32.635 52.7907 32.635C53.1087 32.635 53.3967 32.704 53.6547 32.842C53.9127 32.974 54.1197 33.16 54.2757 33.4C54.4377 33.634 54.5277 33.907 54.5457 34.219V35.506C54.5277 35.812 54.4407 36.085 54.2847 36.325C54.1287 36.565 53.9217 36.754 53.6637 36.892C53.4057 37.024 53.1147 37.09 52.7907 37.09ZM52.9257 36.325C53.1957 36.325 53.4297 36.262 53.6277 36.136C53.8317 36.01 53.9907 35.839 54.1047 35.623C54.2187 35.401 54.2757 35.149 54.2757 34.867C54.2757 34.573 54.2157 34.318 54.0957 34.102C53.9817 33.886 53.8227 33.715 53.6187 33.589C53.4207 33.463 53.1867 33.4 52.9167 33.4C52.6467 33.4 52.4097 33.463 52.2057 33.589C52.0017 33.715 51.8397 33.889 51.7197 34.111C51.6057 34.327 51.5487 34.576 51.5487 34.858C51.5487 35.146 51.6057 35.401 51.7197 35.623C51.8397 35.839 52.0017 36.01 52.2057 36.136C52.4157 36.262 52.6557 36.325 52.9257 36.325ZM55.0407 37H54.2217V35.848L54.3747 34.804L54.2217 33.769V30.574H55.0407V37ZM61.062 37.09C60.624 37.09 60.213 37.009 59.829 36.847C59.451 36.679 59.118 36.448 58.83 36.154C58.548 35.86 58.326 35.518 58.164 35.128C58.002 34.738 57.921 34.318 57.921 33.868C57.921 33.418 58.002 33.001 58.164 32.617C58.326 32.227 58.551 31.885 58.839 31.591C59.127 31.297 59.463 31.069 59.847 30.907C60.237 30.745 60.66 30.664 61.116 30.664C61.614 30.664 62.073 30.76 62.493 30.952C62.913 31.144 63.264 31.42 63.546 31.78L62.961 32.365C62.763 32.077 62.502 31.858 62.178 31.708C61.854 31.552 61.5 31.474 61.116 31.474C60.66 31.474 60.255 31.576 59.901 31.78C59.553 31.984 59.28 32.266 59.082 32.626C58.89 32.986 58.794 33.4 58.794 33.868C58.794 34.342 58.893 34.759 59.091 35.119C59.289 35.479 59.556 35.761 59.892 35.965C60.228 36.169 60.612 36.271 61.044 36.271C61.482 36.271 61.86 36.187 62.178 36.019C62.502 35.851 62.751 35.605 62.925 35.281C63.099 34.951 63.186 34.549 63.186 34.075L63.699 34.444H60.999V33.67H64.059V33.796C64.059 34.522 63.93 35.131 63.672 35.623C63.42 36.109 63.066 36.475 62.61 36.721C62.16 36.967 61.644 37.09 61.062 37.09ZM65.764 34.57V33.832H67.465C67.699 33.832 67.906 33.784 68.086 33.688C68.272 33.592 68.416 33.457 68.518 33.283C68.626 33.109 68.68 32.902 68.68 32.662C68.68 32.422 68.626 32.215 68.518 32.041C68.416 31.867 68.272 31.732 68.086 31.636C67.906 31.54 67.699 31.492 67.465 31.492H65.764V30.754H67.519C67.903 30.754 68.245 30.832 68.545 30.988C68.851 31.144 69.091 31.366 69.265 31.654C69.445 31.936 69.535 32.272 69.535 32.662C69.535 33.046 69.445 33.382 69.265 33.67C69.091 33.952 68.851 34.174 68.545 34.336C68.245 34.492 67.903 34.57 67.519 34.57H65.764ZM65.197 37V30.754H66.043V37H65.197ZM72.995 37.09C72.533 37.09 72.119 36.988 71.753 36.784C71.393 36.574 71.108 36.289 70.898 35.929C70.688 35.563 70.583 35.149 70.583 34.687V30.754H71.429V34.669C71.429 34.999 71.498 35.284 71.636 35.524C71.774 35.764 71.96 35.95 72.194 36.082C72.434 36.214 72.701 36.28 72.995 36.28C73.301 36.28 73.568 36.214 73.796 36.082C74.03 35.95 74.213 35.764 74.345 35.524C74.483 35.284 74.552 35.002 74.552 34.678V30.754H75.407V34.696C75.407 35.158 75.302 35.569 75.092 35.929C74.882 36.289 74.597 36.574 74.237 36.784C73.877 36.988 73.463 37.09 72.995 37.09ZM78.6706 37V30.754H79.2646L79.5166 31.735V37H78.6706ZM82.9906 37L79.1566 31.879L79.2646 30.754L83.1076 35.866L82.9906 37ZM82.9906 37L82.7386 36.073V30.754H83.5846V37H82.9906ZM86.8963 37.09C86.4703 37.09 86.0863 36.994 85.7443 36.802C85.4023 36.604 85.1323 36.337 84.9343 36.001C84.7363 35.665 84.6373 35.284 84.6373 34.858C84.6373 34.438 84.7333 34.06 84.9253 33.724C85.1233 33.388 85.3873 33.124 85.7173 32.932C86.0533 32.734 86.4283 32.635 86.8423 32.635C87.2383 32.635 87.5863 32.725 87.8863 32.905C88.1923 33.085 88.4293 33.334 88.5973 33.652C88.7713 33.97 88.8583 34.33 88.8583 34.732C88.8583 34.792 88.8553 34.858 88.8493 34.93C88.8433 34.996 88.8313 35.074 88.8133 35.164H85.2043V34.489H88.3813L88.0843 34.75C88.0843 34.462 88.0333 34.219 87.9313 34.021C87.8293 33.817 87.6853 33.661 87.4993 33.553C87.3133 33.439 87.0883 33.382 86.8243 33.382C86.5483 33.382 86.3053 33.442 86.0953 33.562C85.8853 33.682 85.7233 33.85 85.6093 34.066C85.4953 34.282 85.4383 34.537 85.4383 34.831C85.4383 35.131 85.4983 35.395 85.6183 35.623C85.7383 35.845 85.9093 36.019 86.1313 36.145C86.3533 36.265 86.6083 36.325 86.8963 36.325C87.1363 36.325 87.3553 36.283 87.5533 36.199C87.7573 36.115 87.9313 35.989 88.0753 35.821L88.5973 36.352C88.3933 36.592 88.1413 36.775 87.8413 36.901C87.5473 37.027 87.2323 37.09 86.8963 37.09ZM90.2666 37V30.934H91.0766V37H90.2666ZM89.2136 33.463V32.725H92.1296V33.463H89.2136ZM94.1471 37L92.4551 32.725H93.3011L94.5251 36.055H94.2551L95.4701 32.725H95.9381L97.1531 36.055H96.8831L98.1071 32.725H98.9531L97.2701 37H96.7931L95.5601 33.769H95.8571L94.6151 37H94.1471ZM101.503 37.09C101.083 37.09 100.705 36.991 100.369 36.793C100.033 36.595 99.7661 36.328 99.5681 35.992C99.3701 35.65 99.2711 35.269 99.2711 34.849C99.2711 34.435 99.3701 34.063 99.5681 33.733C99.7661 33.397 100.033 33.13 100.369 32.932C100.705 32.734 101.083 32.635 101.503 32.635C101.917 32.635 102.292 32.734 102.628 32.932C102.97 33.124 103.24 33.388 103.438 33.724C103.636 34.06 103.735 34.435 103.735 34.849C103.735 35.269 103.636 35.65 103.438 35.992C103.24 36.328 102.97 36.595 102.628 36.793C102.292 36.991 101.917 37.09 101.503 37.09ZM101.503 36.307C101.773 36.307 102.013 36.244 102.223 36.118C102.433 35.992 102.598 35.821 102.718 35.605C102.838 35.383 102.898 35.131 102.898 34.849C102.898 34.573 102.835 34.327 102.709 34.111C102.589 33.895 102.424 33.727 102.214 33.607C102.01 33.481 101.773 33.418 101.503 33.418C101.233 33.418 100.993 33.481 100.783 33.607C100.573 33.727 100.408 33.895 100.288 34.111C100.168 34.327 100.108 34.573 100.108 34.849C100.108 35.131 100.168 35.383 100.288 35.605C100.408 35.821 100.573 35.992 100.783 36.118C100.993 36.244 101.233 36.307 101.503 36.307ZM104.648 37V32.725H105.458V37H104.648ZM105.458 34.561L105.152 34.426C105.152 33.88 105.278 33.445 105.53 33.121C105.782 32.797 106.145 32.635 106.619 32.635C106.835 32.635 107.03 32.674 107.204 32.752C107.378 32.824 107.54 32.947 107.69 33.121L107.159 33.67C107.069 33.574 106.97 33.505 106.862 33.463C106.754 33.421 106.628 33.4 106.484 33.4C106.184 33.4 105.938 33.496 105.746 33.688C105.554 33.88 105.458 34.171 105.458 34.561ZM110.996 37L108.998 34.813L110.978 32.725H111.959L109.754 35.029L109.79 34.561L112.04 37H110.996ZM108.26 37V30.574H109.07V37H108.26Z" fill="white"/>
</svg>
