<svg xmlns="http://www.w3.org/2000/svg" width="25" height="24" viewBox="0 0 25 24" fill="none">
    <g clip-path="url(#clip0_931_6552)">
        <path d="M2.56148 13.8947C1.51669 13.8947 0.666748 13.0448 0.666748 12C0.666748 10.9552 1.51669 10.1052 2.56148 10.1052H22.772C23.8168 10.1052 24.6667 10.9552 24.6667 12C24.6667 13.0448 23.8168 13.8947 22.772 13.8947H2.56148ZM2.56148 5.05259C1.51669 5.05259 0.666748 4.2027 0.666748 3.15786C0.666748 2.11301 1.51669 1.26312 2.56148 1.26312H22.772C23.8168 1.26312 24.6667 2.11306 24.6667 3.15786C24.6667 4.20265 23.8168 5.05259 22.772 5.05259H2.56148ZM2.56148 22.7368C1.51669 22.7368 0.666748 21.8869 0.666748 20.8421C0.666748 19.7973 1.51669 18.9474 2.56148 18.9474H22.772C23.8168 18.9474 24.6667 19.7973 24.6667 20.8421C24.6667 21.8869 23.8168 22.7368 22.772 22.7368H2.56148Z" fill="white"/>
    </g>
    <defs>
        <clipPath id="clip0_931_6552">
            <rect width="24" height="24" fill="white" transform="translate(0.666748)"/>
        </clipPath>
    </defs>
</svg>