<svg width="344" height="38" viewBox="0 0 344 38" fill="none" xmlns="http://www.w3.org/2000/svg">
<path d="M0.242188 0.71875H8.48438L15.7891 18.5312H16.1016L23.4062 0.71875H31.6484V29H25.1641V11.4219H24.9297L18.0547 28.8438H13.8359L6.96094 11.3438H6.72656V29H0.242188V0.71875ZM42.0781 0.71875L48.5234 21.5781H48.7578L55.2031 0.71875H62.625L53.0547 29H44.2266L34.6172 0.71875H42.0781ZM65.6328 29V0.71875H77.1953C83.5625 0.71875 87.4688 4.70312 87.4688 10.4453C87.4688 16.3047 83.4844 20.1328 77 20.1328H72.2734V29H65.6328ZM72.2734 14.8594H75.7891C78.9141 14.8594 80.5938 13.1016 80.5938 10.4453C80.5938 7.78906 78.9141 6.10938 75.7891 6.10938H72.2734V14.8594Z" fill="#06FF61"/>
<path d="M106.453 29L98.2891 0.71875H105.633L109.969 19.4688H110.203L115.125 0.71875H121.18L126.141 19.5078H126.336L130.711 0.71875H138.055L129.852 29H123.445L118.289 11.5781H118.055L112.898 29H106.453ZM137.469 23.1016C137.469 18.4141 141.102 16.7344 145.32 16.4609C146.844 16.3633 149.5 16.2656 150.398 16.2266V14.5078C150.398 13.0234 149.305 12.2031 147.508 12.2031C145.75 12.2031 144.656 12.9453 144.383 14.3516H138.25C138.523 10.6016 141.727 7.51562 147.664 7.51562C152.898 7.51562 157 10.0156 157 14.5859V29H150.789V26.0312H150.633C149.461 28.1797 147.43 29.3906 144.461 29.3906C140.398 29.3906 137.469 27.3203 137.469 23.1016ZM143.719 22.8281C143.719 24.2734 144.852 25.0156 146.453 25.0156C148.68 25.0156 150.477 23.5703 150.438 21.4609V20.0938C149.637 20.1328 147.391 20.2305 146.414 20.3281C144.773 20.5234 143.719 21.4219 143.719 22.8281ZM167.625 0.71875V29H161.023V0.71875H167.625ZM171.844 29V0.71875H178.445V15.4844H178.719L184.852 7.78906H192.352L184.734 17.0078L192.664 29H185.047L179.852 20.875L178.445 22.5156V29H171.844ZM206.57 7.78906V12.6328H202.703V22.3594C202.703 23.6875 203.367 24.0781 204.5 24.1172C205.047 24.1562 206.102 24.0781 206.844 24.0391V29.0781C206.219 29.1562 205.125 29.3125 203.562 29.3125C198.914 29.3125 196.102 27.3984 196.141 23.1016V12.6328H193.289V7.78906H196.141V2.71094H202.703V7.78906H206.57ZM217.039 16.8516V29H210.438V0.71875H216.805V11.6562H217.039C218.016 9.07812 220.242 7.51562 223.406 7.51562C227.859 7.51562 230.789 10.6406 230.789 15.4844V29H224.188V16.7344C224.227 14.3516 222.938 12.9062 220.711 12.9062C218.523 12.9062 217.039 14.3906 217.039 16.8516ZM234.93 29V7.78906H241.336V11.6172H241.531C242.312 8.84375 244.188 7.47656 246.531 7.47656C247.156 7.47656 247.859 7.59375 248.406 7.71094V13.4531C247.781 13.2578 246.609 13.1406 245.789 13.1406C243.328 13.1406 241.531 14.8594 241.531 17.3984V29H234.93ZM260.242 29.3906C253.602 29.3906 249.578 24.9766 249.578 18.4531C249.578 11.9297 253.602 7.51562 260.242 7.51562C266.883 7.51562 270.906 11.9297 270.906 18.4531C270.906 24.9766 266.883 29.3906 260.242 29.3906ZM260.281 24.4297C262.781 24.4297 264.188 21.9688 264.188 18.4141C264.188 14.8594 262.781 12.3984 260.281 12.3984C257.703 12.3984 256.297 14.8594 256.297 18.4141C256.297 21.9688 257.703 24.4297 260.281 24.4297ZM287.977 19.8594V7.78906H294.539V29H288.289V25.0938H288.055C287.117 27.6328 284.773 29.2734 281.57 29.2734C277.234 29.2734 274.305 26.1484 274.305 21.3047V7.78906H280.906V20.0547C280.906 22.3594 282.195 23.8047 284.305 23.8047C286.336 23.8047 287.977 22.3984 287.977 19.8594ZM308.641 37.3984C302.547 37.3984 298.914 34.625 298.602 30.6016H305.008C305.281 32.125 306.727 32.7891 308.797 32.7891C311.18 32.7891 312.82 31.8125 312.82 29.0391V25.2891H312.586C311.766 27.2031 309.734 28.7266 306.57 28.7266C301.883 28.7266 298.055 25.4844 298.055 18.3359C298.055 10.9141 302.078 7.51562 306.531 7.51562C309.93 7.51562 311.766 9.50781 312.547 11.4219H312.742V7.78906H319.305V29.1172C319.305 34.5078 314.969 37.3984 308.641 37.3984ZM308.797 23.8828C311.336 23.8828 312.82 21.8125 312.82 18.3359C312.82 14.8594 311.375 12.6719 308.797 12.6719C306.219 12.6719 304.812 14.9375 304.812 18.3359C304.812 21.8125 306.258 23.8828 308.797 23.8828ZM330.125 16.8516V29H323.523V0.71875H329.891V11.6562H330.125C331.102 9.07812 333.328 7.51562 336.492 7.51562C340.945 7.51562 343.875 10.6406 343.875 15.4844V29H337.273V16.7344C337.312 14.3516 336.023 12.9062 333.797 12.9062C331.609 12.9062 330.125 14.3906 330.125 16.8516Z" fill="white"/>
</svg>
