<svg width="40" height="40" viewBox="0 0 40 40" fill="none" xmlns="http://www.w3.org/2000/svg">
<path d="M20.0097 -4.2082e-06C9.04785 -3.24989e-06 2.82395e-06 9.05222 3.78104e-06 20C4.73812e-06 30.9478 9.06719 40 20.029 40C30.9715 40 40 30.9478 40 20C40 9.05222 30.9521 -5.16482e-06 20.0097 -4.2082e-06ZM20.0097 3.98452C28.8835 3.98452 35.9787 11.1219 35.9787 20C35.9787 28.8781 28.8835 35.9961 20.029 35.9961C11.1552 35.9961 4.02127 28.8781 4.00194 20C3.9826 11.1219 11.1358 3.98452 20.0097 3.98452ZM29.9855 20C29.9855 19.4584 29.7728 19.0329 29.3475 18.6073L22.7936 12.147C22.465 11.8375 22.0783 11.6634 21.6143 11.6634C20.7057 11.6634 20.0483 12.3598 20.0483 13.2689C20.0483 13.7524 20.2417 14.1586 20.551 14.4487L22.9096 16.6925L25.0749 18.4333L21.1116 18.2592L11.6771 18.2592C10.6912 18.2592 9.99517 19.0135 9.99517 20C9.99517 21.0058 10.6912 21.7408 11.6771 21.7408L21.1116 21.7408L25.0556 21.5474L22.8903 23.3075L20.551 25.5513C20.261 25.8414 20.0483 26.2476 20.0483 26.7311C20.0483 27.6402 20.7057 28.3172 21.6143 28.3172C22.0783 28.3172 22.465 28.1625 22.7936 27.853L29.3475 21.3733C29.7922 20.9478 29.9855 20.5222 29.9855 20Z" fill="#FFF4E9"/>
</svg>
