<svg width="120" height="120" viewBox="0 0 120 120" fill="none" xmlns="http://www.w3.org/2000/svg">
    <g clip-path="url(#clip0_67_31407)">
        <path d="M59.9999 0C26.8629 0 0 26.8629 0 59.9999C0 93.1369 26.8629 120 59.9999 120C93.1369 120 120 93.1369 120 59.9999C119.965 26.8777 93.1223 0.0354073 59.9999 0ZM85.2682 61.9116C84.8528 62.7449 84.1774 63.4203 83.3441 63.8357V63.857L49.0585 80.9999C46.9411 82.0579 44.3672 81.1993 43.309 79.0819C43.0081 78.48 42.8532 77.8157 42.8569 77.1428V42.8572C42.8559 40.4902 44.7737 38.5706 47.1407 38.5694C47.8064 38.5691 48.463 38.7238 49.0585 39.0214L83.3441 56.1643C85.4625 57.22 86.3241 59.7932 85.2682 61.9116Z" fill="white"/>
    </g>
    <defs>
        <clipPath id="clip0_67_31407">
            <rect width="120" height="120" fill="white"/>
        </clipPath>
    </defs>
</svg>
