<svg width="40" height="40" viewBox="0 0 40 40" fill="none" xmlns="http://www.w3.org/2000/svg">
<path d="M19.9903 40C30.9521 40 40 30.9478 40 20C40 9.05222 30.9328 0 19.971 0C9.02852 0 0 9.05222 0 20C0 30.9478 9.04785 40 19.9903 40ZM19.9903 36.0155C11.1165 36.0155 4.02127 28.8781 4.02127 20C4.02127 11.1219 11.1165 4.00387 19.971 4.00387C28.8449 4.00387 35.9787 11.1219 35.9981 20C36.0174 28.8781 28.8642 36.0155 19.9903 36.0155ZM10.0145 20C10.0145 20.5416 10.2272 20.9671 10.6525 21.3927L17.2064 27.853C17.535 28.1625 17.9217 28.3366 18.3857 28.3366C19.2943 28.3366 19.9517 27.6402 19.9517 26.7311C19.9517 26.2476 19.7583 25.8414 19.449 25.5513L17.0904 23.3075L14.9251 21.5667L18.8884 21.7408H28.3229C29.3088 21.7408 30.0048 20.9865 30.0048 20C30.0048 18.9942 29.3088 18.2592 28.3229 18.2592H18.8884L14.9444 18.4526L17.1097 16.6925L19.449 14.4487C19.739 14.1586 19.9517 13.7524 19.9517 13.2689C19.9517 12.3598 19.2943 11.6828 18.3857 11.6828C17.9217 11.6828 17.535 11.8375 17.2064 12.147L10.6525 18.6267C10.2078 19.0522 10.0145 19.4778 10.0145 20Z" fill="#FFF4E9"/>
</svg>
