<svg width="56" height="57" viewBox="0 0 56 57" fill="none" xmlns="http://www.w3.org/2000/svg">
    <path d="M14.7184 34.372V34.304C14.7183 28.5954 16.8554 23.2127 20.7504 19.06H0V43.2717C0 43.9651 0.562082 44.5272 1.25542 44.5272H17.1779C15.7106 41.552 14.8757 38.1564 14.7212 34.4402L14.7184 34.372ZM37.0162 11.9839H37.0606C38.5099 11.9839 39.9271 12.1251 41.3007 12.3914V4.83159C41.3007 4.13825 40.7386 3.57617 40.0452 3.57617H1.25542C0.562082 3.57617 0 4.13825 0 4.83159V15.7786H24.5936C28.2434 13.3111 32.5325 11.9839 37.0162 11.9839ZM9.89633 9.72091C9.89633 10.627 9.16176 11.3615 8.25569 11.3615C7.34962 11.3615 6.61505 10.627 6.61505 9.72091V9.62334C6.61505 8.71727 7.34962 7.98271 8.25569 7.98271C9.16176 7.98271 9.89633 8.71727 9.89633 9.62334V9.72091ZM16.4589 9.72091C16.4589 10.627 15.7243 11.3615 14.8182 11.3615C13.9122 11.3615 13.1776 10.627 13.1776 9.72091V9.62334C13.1776 8.71727 13.9122 7.98271 14.8182 7.98271C15.7243 7.98271 16.4589 8.71727 16.4589 9.62334V9.72091ZM23.0214 9.72091C23.0214 10.627 22.2869 11.3615 21.3808 11.3615C20.4747 11.3615 19.7402 10.627 19.7402 9.72091V9.62334C19.7402 8.71727 20.4747 7.98271 21.3808 7.98271C22.2869 7.98271 23.0214 8.71727 23.0214 9.62334V9.72091ZM26.6449 18.362L36.9822 31.5835L47.3569 18.3139C44.3737 16.3809 40.8257 15.2608 37.0384 15.2652C33.2182 15.2608 29.643 16.3997 26.6449 18.362ZM56 32.6066C55.57 27.7579 53.3171 23.4413 49.9478 20.3274L40.3474 32.6066H56Z" fill="url(#paint0_linear_931_319)"/>
    <path d="M36.9832 35.888L36.9823 35.8878H36.9818C36.7327 35.888 36.4868 35.8314 36.2628 35.7222C36.0389 35.6131 35.8428 35.4542 35.6895 35.2578L24.063 20.3872C20.3424 23.8578 17.9995 28.8018 17.9996 34.3038C19.0271 59.0361 53.5266 59.5259 55.9602 35.8878H36.9845L36.9832 35.888Z" fill="url(#paint1_linear_931_319)"/>
    <defs>
        <linearGradient id="paint0_linear_931_319" x1="0" y1="44.5272" x2="39.024" y2="-8.83779" gradientUnits="userSpaceOnUse">
            <stop stop-color="#00D6D9"/>
            <stop offset="1" stop-color="#00C085"/>
        </linearGradient>
        <linearGradient id="paint1_linear_931_319" x1="17.9996" y1="53.2431" x2="50.5158" y2="15.675" gradientUnits="userSpaceOnUse">
            <stop stop-color="#00D6D9"/>
            <stop offset="1" stop-color="#00C085"/>
        </linearGradient>
    </defs>
</svg>
