<svg width="1331" height="226" viewBox="0 0 1331 226" fill="none" xmlns="http://www.w3.org/2000/svg">
<path d="M0.528 221.088L4.624 216.768C5.04 216.341 5.36533 215.973 5.6 215.664C5.83467 215.344 6 215.051 6.096 214.784C6.20267 214.517 6.256 214.24 6.256 213.952C6.256 213.387 6.07467 212.944 5.712 212.624C5.34933 212.304 4.88 212.144 4.304 212.144C3.73867 212.144 3.24267 212.283 2.816 212.56C2.38933 212.827 2.01067 213.243 1.68 213.808L0.624 212.928C1.06133 212.203 1.58933 211.659 2.208 211.296C2.82667 210.923 3.54133 210.736 4.352 210.736C5.03467 210.736 5.62667 210.869 6.128 211.136C6.64 211.403 7.03467 211.776 7.312 212.256C7.58933 212.736 7.728 213.296 7.728 213.936C7.728 214.395 7.66933 214.805 7.552 215.168C7.44533 215.531 7.248 215.904 6.96 216.288C6.68267 216.661 6.29333 217.109 5.792 217.632L2.48 221.04L0.528 221.088ZM0.528 222V221.088L1.808 220.656H7.984V222H0.528ZM12.6083 222.16C11.8829 222.16 11.2216 222.027 10.6243 221.76C10.0376 221.483 9.54158 221.083 9.13625 220.56L10.1603 219.536C10.4056 219.909 10.7416 220.208 11.1683 220.432C11.5949 220.645 12.0696 220.752 12.5923 220.752C13.0829 220.752 13.5043 220.661 13.8563 220.48C14.2189 220.288 14.5016 220.021 14.7043 219.68C14.9176 219.339 15.0243 218.944 15.0243 218.496C15.0243 218.037 14.9176 217.643 14.7043 217.312C14.5016 216.971 14.2136 216.709 13.8403 216.528C13.4669 216.347 13.0243 216.256 12.5123 216.256C12.3203 216.256 12.1283 216.272 11.9363 216.304C11.7443 216.325 11.5576 216.363 11.3763 216.416L12.0163 215.552C12.2189 215.456 12.4376 215.381 12.6723 215.328C12.9069 215.275 13.1416 215.248 13.3763 215.248C13.9736 215.248 14.5069 215.387 14.9763 215.664C15.4563 215.941 15.8349 216.331 16.1123 216.832C16.4003 217.333 16.5443 217.915 16.5443 218.576C16.5443 219.28 16.3736 219.904 16.0323 220.448C15.7016 220.981 15.2429 221.403 14.6563 221.712C14.0696 222.011 13.3869 222.16 12.6083 222.16ZM11.3763 216.416V215.504L14.6243 211.808L16.4163 211.792L13.0723 215.584L11.3763 216.416ZM9.66425 212.24V210.896H16.4163V211.792L15.1043 212.24H9.66425ZM19.1325 222.16C18.8338 222.16 18.5832 222.059 18.3805 221.856C18.1885 221.643 18.0925 221.392 18.0925 221.104C18.0925 220.805 18.1885 220.56 18.3805 220.368C18.5832 220.165 18.8338 220.064 19.1325 220.064C19.4312 220.064 19.6765 220.165 19.8685 220.368C20.0712 220.56 20.1725 220.805 20.1725 221.104C20.1725 221.392 20.0712 221.643 19.8685 221.856C19.6765 222.059 19.4312 222.16 19.1325 222.16ZM25.4051 222.16C24.6798 222.16 24.0185 222.027 23.4211 221.76C22.8345 221.483 22.3385 221.083 21.9331 220.56L22.9571 219.536C23.2025 219.909 23.5385 220.208 23.9651 220.432C24.3918 220.645 24.8665 220.752 25.3891 220.752C25.8798 220.752 26.3011 220.661 26.6531 220.48C27.0158 220.288 27.2985 220.021 27.5011 219.68C27.7145 219.339 27.8211 218.944 27.8211 218.496C27.8211 218.037 27.7145 217.643 27.5011 217.312C27.2985 216.971 27.0105 216.709 26.6371 216.528C26.2638 216.347 25.8211 216.256 25.3091 216.256C25.1171 216.256 24.9251 216.272 24.7331 216.304C24.5411 216.325 24.3545 216.363 24.1731 216.416L24.8131 215.552C25.0158 215.456 25.2345 215.381 25.4691 215.328C25.7038 215.275 25.9385 215.248 26.1731 215.248C26.7705 215.248 27.3038 215.387 27.7731 215.664C28.2531 215.941 28.6318 216.331 28.9091 216.832C29.1971 217.333 29.3411 217.915 29.3411 218.576C29.3411 219.28 29.1705 219.904 28.8291 220.448C28.4985 220.981 28.0398 221.403 27.4531 221.712C26.8665 222.011 26.1838 222.16 25.4051 222.16ZM24.1731 216.416V215.504L27.4211 211.808L29.2131 211.792L25.8691 215.584L24.1731 216.416ZM22.4611 212.24V210.896H29.2131V211.792L27.9011 212.24H22.4611ZM36.4465 222.16C35.6572 222.16 34.9212 222.016 34.2385 221.728C33.5558 221.429 32.9585 221.019 32.4465 220.496C31.9345 219.963 31.5345 219.349 31.2465 218.656C30.9585 217.963 30.8145 217.221 30.8145 216.432C30.8145 215.632 30.9585 214.891 31.2465 214.208C31.5345 213.515 31.9292 212.907 32.4305 212.384C32.9425 211.861 33.5345 211.456 34.2065 211.168C34.8892 210.88 35.6252 210.736 36.4145 210.736C37.2038 210.736 37.9345 210.88 38.6065 211.168C39.2892 211.456 39.8865 211.861 40.3985 212.384C40.9105 212.907 41.3052 213.515 41.5825 214.208C41.8705 214.901 42.0145 215.648 42.0145 216.448C42.0145 217.237 41.8705 217.979 41.5825 218.672C41.3052 219.365 40.9105 219.973 40.3985 220.496C39.8972 221.019 39.3052 221.429 38.6225 221.728C37.9505 222.016 37.2252 222.16 36.4465 222.16ZM36.4145 220.72C37.2038 220.72 37.9025 220.539 38.5105 220.176C39.1185 219.803 39.5932 219.296 39.9345 218.656C40.2865 218.005 40.4625 217.264 40.4625 216.432C40.4625 215.813 40.3612 215.248 40.1585 214.736C39.9665 214.213 39.6892 213.76 39.3265 213.376C38.9638 212.992 38.5372 212.699 38.0465 212.496C37.5558 212.283 37.0118 212.176 36.4145 212.176C35.6252 212.176 34.9265 212.357 34.3185 212.72C33.7105 213.083 33.2305 213.584 32.8785 214.224C32.5372 214.864 32.3665 215.6 32.3665 216.432C32.3665 217.051 32.4678 217.627 32.6705 218.16C32.8732 218.683 33.1505 219.136 33.5025 219.52C33.8652 219.893 34.2918 220.187 34.7825 220.4C35.2838 220.613 35.8278 220.72 36.4145 220.72ZM41.7585 222.784L36.5585 217.584L37.5345 216.608L42.7185 221.808L41.7585 222.784Z" fill="#06FF61"/>
<path d="M347.528 221.088L351.624 216.768C352.04 216.341 352.365 215.973 352.6 215.664C352.835 215.344 353 215.051 353.096 214.784C353.203 214.517 353.256 214.24 353.256 213.952C353.256 213.387 353.075 212.944 352.712 212.624C352.349 212.304 351.88 212.144 351.304 212.144C350.739 212.144 350.243 212.283 349.816 212.56C349.389 212.827 349.011 213.243 348.68 213.808L347.624 212.928C348.061 212.203 348.589 211.659 349.208 211.296C349.827 210.923 350.541 210.736 351.352 210.736C352.035 210.736 352.627 210.869 353.128 211.136C353.64 211.403 354.035 211.776 354.312 212.256C354.589 212.736 354.728 213.296 354.728 213.936C354.728 214.395 354.669 214.805 354.552 215.168C354.445 215.531 354.248 215.904 353.96 216.288C353.683 216.661 353.293 217.109 352.792 217.632L349.48 221.04L347.528 221.088ZM347.528 222V221.088L348.808 220.656H354.984V222H347.528ZM359.608 222.16C358.883 222.16 358.222 222.027 357.624 221.76C357.038 221.483 356.542 221.083 356.136 220.56L357.16 219.536C357.406 219.909 357.742 220.208 358.168 220.432C358.595 220.645 359.07 220.752 359.592 220.752C360.083 220.752 360.504 220.661 360.856 220.48C361.219 220.288 361.502 220.021 361.704 219.68C361.918 219.339 362.024 218.944 362.024 218.496C362.024 218.037 361.918 217.643 361.704 217.312C361.502 216.971 361.214 216.709 360.84 216.528C360.467 216.347 360.024 216.256 359.512 216.256C359.32 216.256 359.128 216.272 358.936 216.304C358.744 216.325 358.558 216.363 358.376 216.416L359.016 215.552C359.219 215.456 359.438 215.381 359.672 215.328C359.907 215.275 360.142 215.248 360.376 215.248C360.974 215.248 361.507 215.387 361.976 215.664C362.456 215.941 362.835 216.331 363.112 216.832C363.4 217.333 363.544 217.915 363.544 218.576C363.544 219.28 363.374 219.904 363.032 220.448C362.702 220.981 362.243 221.403 361.656 221.712C361.07 222.011 360.387 222.16 359.608 222.16ZM358.376 216.416V215.504L361.624 211.808L363.416 211.792L360.072 215.584L358.376 216.416ZM356.664 212.24V210.896H363.416V211.792L362.104 212.24H356.664ZM366.133 222.16C365.834 222.16 365.583 222.059 365.381 221.856C365.189 221.643 365.093 221.392 365.093 221.104C365.093 220.805 365.189 220.56 365.381 220.368C365.583 220.165 365.834 220.064 366.133 220.064C366.431 220.064 366.677 220.165 366.869 220.368C367.071 220.56 367.173 220.805 367.173 221.104C367.173 221.392 367.071 221.643 366.869 221.856C366.677 222.059 366.431 222.16 366.133 222.16ZM368.465 218.176L372.514 210.896H374.21L370.082 218.176H368.465ZM368.465 219.104V218.176L369.106 217.76H376.977V219.104H368.465ZM373.89 222V214.656H375.378V222H373.89ZM383.884 222.16C383.095 222.16 382.359 222.016 381.676 221.728C380.993 221.429 380.396 221.019 379.884 220.496C379.372 219.963 378.972 219.349 378.684 218.656C378.396 217.963 378.252 217.221 378.252 216.432C378.252 215.632 378.396 214.891 378.684 214.208C378.972 213.515 379.367 212.907 379.868 212.384C380.38 211.861 380.972 211.456 381.644 211.168C382.327 210.88 383.063 210.736 383.852 210.736C384.641 210.736 385.372 210.88 386.044 211.168C386.727 211.456 387.324 211.861 387.836 212.384C388.348 212.907 388.743 213.515 389.02 214.208C389.308 214.901 389.452 215.648 389.452 216.448C389.452 217.237 389.308 217.979 389.02 218.672C388.743 219.365 388.348 219.973 387.836 220.496C387.335 221.019 386.743 221.429 386.06 221.728C385.388 222.016 384.663 222.16 383.884 222.16ZM383.852 220.72C384.641 220.72 385.34 220.539 385.948 220.176C386.556 219.803 387.031 219.296 387.372 218.656C387.724 218.005 387.9 217.264 387.9 216.432C387.9 215.813 387.799 215.248 387.596 214.736C387.404 214.213 387.127 213.76 386.764 213.376C386.401 212.992 385.975 212.699 385.484 212.496C384.993 212.283 384.449 212.176 383.852 212.176C383.063 212.176 382.364 212.357 381.756 212.72C381.148 213.083 380.668 213.584 380.316 214.224C379.975 214.864 379.804 215.6 379.804 216.432C379.804 217.051 379.905 217.627 380.108 218.16C380.311 218.683 380.588 219.136 380.94 219.52C381.303 219.893 381.729 220.187 382.22 220.4C382.721 220.613 383.265 220.72 383.852 220.72ZM389.196 222.784L383.996 217.584L384.972 216.608L390.156 221.808L389.196 222.784Z" fill="#06FF61"/>
<path d="M682.528 221.088L686.624 216.768C687.04 216.341 687.365 215.973 687.6 215.664C687.835 215.344 688 215.051 688.096 214.784C688.203 214.517 688.256 214.24 688.256 213.952C688.256 213.387 688.075 212.944 687.712 212.624C687.349 212.304 686.88 212.144 686.304 212.144C685.739 212.144 685.243 212.283 684.816 212.56C684.389 212.827 684.011 213.243 683.68 213.808L682.624 212.928C683.061 212.203 683.589 211.659 684.208 211.296C684.827 210.923 685.541 210.736 686.352 210.736C687.035 210.736 687.627 210.869 688.128 211.136C688.64 211.403 689.035 211.776 689.312 212.256C689.589 212.736 689.728 213.296 689.728 213.936C689.728 214.395 689.669 214.805 689.552 215.168C689.445 215.531 689.248 215.904 688.96 216.288C688.683 216.661 688.293 217.109 687.792 217.632L684.48 221.04L682.528 221.088ZM682.528 222V221.088L683.808 220.656H689.984V222H682.528ZM691.184 218.176L695.232 210.896H696.928L692.8 218.176H691.184ZM691.184 219.104V218.176L691.824 217.76H699.696V219.104H691.184ZM696.608 222V214.656H698.096V222H696.608ZM701.883 222.16C701.584 222.16 701.333 222.059 701.131 221.856C700.939 221.643 700.843 221.392 700.843 221.104C700.843 220.805 700.939 220.56 701.131 220.368C701.333 220.165 701.584 220.064 701.883 220.064C702.181 220.064 702.427 220.165 702.619 220.368C702.821 220.56 702.923 220.805 702.923 221.104C702.923 221.392 702.821 221.643 702.619 221.856C702.427 222.059 702.181 222.16 701.883 222.16ZM705.659 222V210.896H707.147V222H705.659ZM703.387 212.24V210.896H706.987V212.24H703.387ZM714.822 222.16C714.032 222.16 713.296 222.016 712.614 221.728C711.931 221.429 711.334 221.019 710.822 220.496C710.31 219.963 709.91 219.349 709.622 218.656C709.334 217.963 709.19 217.221 709.19 216.432C709.19 215.632 709.334 214.891 709.622 214.208C709.91 213.515 710.304 212.907 710.806 212.384C711.318 211.861 711.91 211.456 712.582 211.168C713.264 210.88 714 210.736 714.79 210.736C715.579 210.736 716.31 210.88 716.982 211.168C717.664 211.456 718.262 211.861 718.774 212.384C719.286 212.907 719.68 213.515 719.958 214.208C720.246 214.901 720.39 215.648 720.39 216.448C720.39 217.237 720.246 217.979 719.958 218.672C719.68 219.365 719.286 219.973 718.774 220.496C718.272 221.019 717.68 221.429 716.998 221.728C716.326 222.016 715.6 222.16 714.822 222.16ZM714.79 220.72C715.579 220.72 716.278 220.539 716.885 220.176C717.494 219.803 717.968 219.296 718.31 218.656C718.662 218.005 718.838 217.264 718.838 216.432C718.838 215.813 718.736 215.248 718.534 214.736C718.342 214.213 718.064 213.76 717.702 213.376C717.339 212.992 716.912 212.699 716.422 212.496C715.931 212.283 715.387 212.176 714.79 212.176C714 212.176 713.302 212.357 712.694 212.72C712.086 213.083 711.606 213.584 711.254 214.224C710.912 214.864 710.742 215.6 710.742 216.432C710.742 217.051 710.843 217.627 711.046 218.16C711.248 218.683 711.526 219.136 711.878 219.52C712.24 219.893 712.667 220.187 713.158 220.4C713.659 220.613 714.203 220.72 714.79 220.72ZM720.134 222.784L714.934 217.584L715.91 216.608L721.094 221.808L720.134 222.784Z" fill="#06FF61"/>
<path d="M1021.53 221.088L1025.62 216.768C1026.04 216.341 1026.37 215.973 1026.6 215.664C1026.83 215.344 1027 215.051 1027.1 214.784C1027.2 214.517 1027.26 214.24 1027.26 213.952C1027.26 213.387 1027.07 212.944 1026.71 212.624C1026.35 212.304 1025.88 212.144 1025.3 212.144C1024.74 212.144 1024.24 212.283 1023.82 212.56C1023.39 212.827 1023.01 213.243 1022.68 213.808L1021.62 212.928C1022.06 212.203 1022.59 211.659 1023.21 211.296C1023.83 210.923 1024.54 210.736 1025.35 210.736C1026.03 210.736 1026.63 210.869 1027.13 211.136C1027.64 211.403 1028.03 211.776 1028.31 212.256C1028.59 212.736 1028.73 213.296 1028.73 213.936C1028.73 214.395 1028.67 214.805 1028.55 215.168C1028.45 215.531 1028.25 215.904 1027.96 216.288C1027.68 216.661 1027.29 217.109 1026.79 217.632L1023.48 221.04L1021.53 221.088ZM1021.53 222V221.088L1022.81 220.656H1028.98V222H1021.53ZM1030.18 218.176L1034.23 210.896H1035.93L1031.8 218.176H1030.18ZM1030.18 219.104V218.176L1030.82 217.76H1038.7V219.104H1030.18ZM1035.61 222V214.656H1037.1V222H1035.61ZM1040.88 222.16C1040.58 222.16 1040.33 222.059 1040.13 221.856C1039.94 221.643 1039.84 221.392 1039.84 221.104C1039.84 220.805 1039.94 220.56 1040.13 220.368C1040.33 220.165 1040.58 220.064 1040.88 220.064C1041.18 220.064 1041.43 220.165 1041.62 220.368C1041.82 220.56 1041.92 220.805 1041.92 221.104C1041.92 221.392 1041.82 221.643 1041.62 221.856C1041.43 222.059 1041.18 222.16 1040.88 222.16ZM1043.73 221.088L1047.83 216.768C1048.24 216.341 1048.57 215.973 1048.8 215.664C1049.04 215.344 1049.2 215.051 1049.3 214.784C1049.41 214.517 1049.46 214.24 1049.46 213.952C1049.46 213.387 1049.28 212.944 1048.92 212.624C1048.55 212.304 1048.08 212.144 1047.51 212.144C1046.94 212.144 1046.45 212.283 1046.02 212.56C1045.59 212.827 1045.21 213.243 1044.88 213.808L1043.83 212.928C1044.26 212.203 1044.79 211.659 1045.41 211.296C1046.03 210.923 1046.74 210.736 1047.56 210.736C1048.24 210.736 1048.83 210.869 1049.33 211.136C1049.84 211.403 1050.24 211.776 1050.52 212.256C1050.79 212.736 1050.93 213.296 1050.93 213.936C1050.93 214.395 1050.87 214.805 1050.76 215.168C1050.65 215.531 1050.45 215.904 1050.16 216.288C1049.89 216.661 1049.5 217.109 1049 217.632L1045.68 221.04L1043.73 221.088ZM1043.73 222V221.088L1045.01 220.656H1051.19V222H1043.73ZM1058.24 222.16C1057.45 222.16 1056.72 222.016 1056.04 221.728C1055.35 221.429 1054.76 221.019 1054.24 220.496C1053.73 219.963 1053.33 219.349 1053.04 218.656C1052.76 217.963 1052.61 217.221 1052.61 216.432C1052.61 215.632 1052.76 214.891 1053.04 214.208C1053.33 213.515 1053.73 212.907 1054.23 212.384C1054.74 211.861 1055.33 211.456 1056 211.168C1056.69 210.88 1057.42 210.736 1058.21 210.736C1059 210.736 1059.73 210.88 1060.4 211.168C1061.09 211.456 1061.68 211.861 1062.2 212.384C1062.71 212.907 1063.1 213.515 1063.38 214.208C1063.67 214.901 1063.81 215.648 1063.81 216.448C1063.81 217.237 1063.67 217.979 1063.38 218.672C1063.1 219.365 1062.71 219.973 1062.2 220.496C1061.69 221.019 1061.1 221.429 1060.42 221.728C1059.75 222.016 1059.02 222.16 1058.24 222.16ZM1058.21 220.72C1059 220.72 1059.7 220.539 1060.31 220.176C1060.92 219.803 1061.39 219.296 1061.73 218.656C1062.08 218.005 1062.26 217.264 1062.26 216.432C1062.26 215.813 1062.16 215.248 1061.96 214.736C1061.76 214.213 1061.49 213.76 1061.12 213.376C1060.76 212.992 1060.33 212.699 1059.84 212.496C1059.35 212.283 1058.81 212.176 1058.21 212.176C1057.42 212.176 1056.72 212.357 1056.12 212.72C1055.51 213.083 1055.03 213.584 1054.68 214.224C1054.33 214.864 1054.16 215.6 1054.16 216.432C1054.16 217.051 1054.26 217.627 1054.47 218.16C1054.67 218.683 1054.95 219.136 1055.3 219.52C1055.66 219.893 1056.09 220.187 1056.58 220.4C1057.08 220.613 1057.62 220.72 1058.21 220.72ZM1063.56 222.784L1058.36 217.584L1059.33 216.608L1064.52 221.808L1063.56 222.784Z" fill="#06FF61"/>
<line x1="11" y1="178.5" x2="1330" y2="178.5" stroke="#06FF61"/>
<line x1="10.5" y1="182" x2="10.5" y2="20" stroke="#06FF61" stroke-dasharray="4 4"/>
<line x1="357.5" y1="182" x2="357.5" y2="20" stroke="#06FF61" stroke-dasharray="4 4"/>
<line x1="692.5" y1="182" x2="692.5" y2="20" stroke="#06FF61" stroke-dasharray="4 4"/>
<line x1="1031.5" y1="182" x2="1031.5" y2="20" stroke="#06FF61" stroke-dasharray="4 4"/>
<circle cx="11" cy="179" r="11" fill="#06FF61"/>
<circle cx="358" cy="179" r="11" fill="#06FF61"/>
<circle cx="693" cy="179" r="11" fill="#06FF61"/>
<circle cx="1032" cy="179" r="11" fill="#06FF61"/>
<circle cx="1324.5" cy="178.5" r="6.5" fill="#06FF61"/>
<path d="M10.1701 2.79961C10.3491 2.69187 10.5733 2.69276 10.7515 2.80192L17.1231 6.705C17.4815 6.92455 17.4794 7.44593 17.1193 7.66262L10.8304 11.4466C10.6513 11.5544 10.4272 11.5535 10.249 11.4443L3.87738 7.54122C3.51898 7.32168 3.52105 6.80029 3.88118 6.5836L10.1701 2.79961Z" fill="#06FF61"/>
<path opacity="0.3" d="M3.21804 8.61487C3.21804 8.17815 3.69561 7.90941 4.06891 8.13606L10.0781 11.7846C10.2454 11.8862 10.3476 12.0677 10.3476 12.2634L10.3476 18.2349C10.3476 18.6716 9.87007 18.9403 9.49677 18.7137L3.48754 15.0651C3.32025 14.9635 3.2181 14.782 3.2181 14.5863L3.21804 8.61487Z" fill="#06FF61"/>
<path opacity="0.5" d="M10.6524 18.2352C10.6524 18.6719 11.1299 18.9407 11.5032 18.714L17.5125 15.0655C17.6798 14.9639 17.7819 14.7824 17.7819 14.5867L17.782 8.61521C17.782 8.17849 17.3044 7.90975 16.9311 8.1364L10.9219 11.785C10.7546 11.8866 10.6524 12.0681 10.6524 12.2638L10.6524 18.2352Z" fill="#06FF61"/>
<path d="M357.17 2.79961C357.349 2.69187 357.573 2.69276 357.751 2.80192L364.123 6.705C364.481 6.92455 364.479 7.44593 364.119 7.66262L357.83 11.4466C357.651 11.5544 357.427 11.5535 357.249 11.4443L350.877 7.54122C350.519 7.32168 350.521 6.80029 350.881 6.5836L357.17 2.79961Z" fill="#06FF61"/>
<path opacity="0.3" d="M350.218 8.61487C350.218 8.17815 350.696 7.90941 351.069 8.13606L357.078 11.7846C357.245 11.8862 357.348 12.0677 357.348 12.2634L357.348 18.2349C357.348 18.6716 356.87 18.9403 356.497 18.7137L350.488 15.0651C350.32 14.9635 350.218 14.782 350.218 14.5863L350.218 8.61487Z" fill="#06FF61"/>
<path opacity="0.5" d="M357.652 18.2352C357.652 18.6719 358.13 18.9407 358.503 18.714L364.512 15.0655C364.68 14.9639 364.782 14.7824 364.782 14.5867L364.782 8.61521C364.782 8.17849 364.304 7.90975 363.931 8.1364L357.922 11.785C357.755 11.8866 357.652 12.0681 357.652 12.2638L357.652 18.2352Z" fill="#06FF61"/>
<path d="M692.17 2.79961C692.349 2.69187 692.573 2.69276 692.751 2.80192L699.123 6.705C699.481 6.92455 699.479 7.44593 699.119 7.66262L692.83 11.4466C692.651 11.5544 692.427 11.5535 692.249 11.4443L685.877 7.54122C685.519 7.32168 685.521 6.80029 685.881 6.5836L692.17 2.79961Z" fill="#06FF61"/>
<path opacity="0.3" d="M685.218 8.61487C685.218 8.17815 685.696 7.90941 686.069 8.13606L692.078 11.7846C692.245 11.8862 692.348 12.0677 692.348 12.2634L692.348 18.2349C692.348 18.6716 691.87 18.9403 691.497 18.7137L685.488 15.0651C685.32 14.9635 685.218 14.782 685.218 14.5863L685.218 8.61487Z" fill="#06FF61"/>
<path opacity="0.5" d="M692.652 18.2352C692.652 18.6719 693.13 18.9407 693.503 18.714L699.512 15.0655C699.68 14.9639 699.782 14.7824 699.782 14.5867L699.782 8.61521C699.782 8.17849 699.304 7.90975 698.931 8.1364L692.922 11.785C692.755 11.8866 692.652 12.0681 692.652 12.2638L692.652 18.2352Z" fill="#06FF61"/>
<path d="M1031.17 2.79961C1031.35 2.69187 1031.57 2.69276 1031.75 2.80192L1038.12 6.705C1038.48 6.92455 1038.48 7.44593 1038.12 7.66262L1031.83 11.4466C1031.65 11.5544 1031.43 11.5535 1031.25 11.4443L1024.88 7.54122C1024.52 7.32168 1024.52 6.80029 1024.88 6.5836L1031.17 2.79961Z" fill="#06FF61"/>
<path opacity="0.3" d="M1024.22 8.61487C1024.22 8.17815 1024.7 7.90941 1025.07 8.13606L1031.08 11.7846C1031.25 11.8862 1031.35 12.0677 1031.35 12.2634L1031.35 18.2349C1031.35 18.6716 1030.87 18.9403 1030.5 18.7137L1024.49 15.0651C1024.32 14.9635 1024.22 14.782 1024.22 14.5863L1024.22 8.61487Z" fill="#06FF61"/>
<path opacity="0.5" d="M1031.65 18.2352C1031.65 18.6719 1032.13 18.9407 1032.5 18.714L1038.51 15.0655C1038.68 14.9639 1038.78 14.7824 1038.78 14.5867L1038.78 8.61521C1038.78 8.17849 1038.3 7.90975 1037.93 8.1364L1031.92 11.785C1031.75 11.8866 1031.65 12.0681 1031.65 12.2638L1031.65 18.2352Z" fill="#06FF61"/>
</svg>
