<svg width="40" height="40" viewBox="0 0 40 40" fill="none" xmlns="http://www.w3.org/2000/svg">
    <path fill-rule="evenodd" clip-rule="evenodd" d="M40 20C40 31.045 31.045 40 20 40C8.955 40 0 31.045 0 20C0 8.955 8.955 0 20 0C31.045 0 40 8.955 40 20ZM20.7166 14.765C18.7716 15.5733 14.8833 17.2484 9.05334 19.7884C8.10666 20.165 7.61 20.5334 7.565 20.8934C7.48834 21.5034 8.25166 21.7434 9.28834 22.0684C9.43 22.1134 9.57666 22.1584 9.72666 22.2084C10.7483 22.54 12.1217 22.9284 12.835 22.9434C13.4833 22.9566 14.2067 22.69 15.005 22.1434C20.4516 18.465 23.2634 16.6066 23.44 16.5666C23.565 16.5384 23.7384 16.5016 23.855 16.6066C23.9716 16.71 23.96 16.9066 23.9484 16.96C23.8716 17.2816 20.8816 20.0634 19.3316 21.5034C18.8484 21.9516 18.5066 22.27 18.4366 22.3434C18.28 22.505 18.12 22.66 17.9666 22.8084C17.0166 23.7216 16.3066 24.4084 18.0066 25.5284C18.8234 26.0666 19.4766 26.5116 20.1284 26.955C20.84 27.44 21.55 27.9234 22.47 28.5266C22.7034 28.68 22.9266 28.8384 23.145 28.9934C23.9734 29.585 24.7184 30.115 25.6384 30.0316C26.1716 29.9816 26.725 29.48 27.005 27.9816C27.6666 24.4384 28.97 16.765 29.2716 13.6017C29.29 13.339 29.2788 13.0751 29.2384 12.815C29.214 12.6049 29.1118 12.4116 28.9516 12.2733C28.7134 12.0783 28.3434 12.0367 28.1766 12.04C27.425 12.0533 26.2716 12.455 20.7166 14.765Z" fill="white"/>
</svg>
