<svg width="232" height="66" viewBox="0 0 232 66" fill="none" xmlns="http://www.w3.org/2000/svg">
<rect x="1" y="1" width="230" height="64" rx="28" fill="black" fill-opacity="0.49" stroke="url(#paint0_linear_125_22)"/>
<path d="M45.0537 42.24C43.6937 42.24 42.5257 42.008 41.5497 41.544C40.5897 41.08 39.7177 40.384 38.9337 39.456L41.0937 37.296C41.5897 37.952 42.1657 38.464 42.8217 38.832C43.4777 39.184 44.2777 39.36 45.2217 39.36C46.0697 39.36 46.7417 39.192 47.2377 38.856C47.7497 38.52 48.0057 38.056 48.0057 37.464C48.0057 36.952 47.8617 36.536 47.5737 36.216C47.2857 35.896 46.9017 35.624 46.4217 35.4C45.9577 35.176 45.4377 34.976 44.8617 34.8C44.3017 34.608 43.7337 34.392 43.1577 34.152C42.5977 33.912 42.0777 33.616 41.5977 33.264C41.1337 32.896 40.7577 32.432 40.4697 31.872C40.1817 31.296 40.0377 30.576 40.0377 29.712C40.0377 28.688 40.2857 27.816 40.7817 27.096C41.2777 26.376 41.9577 25.824 42.8217 25.44C43.6857 25.056 44.6617 24.864 45.7497 24.864C46.9017 24.864 47.9417 25.08 48.8697 25.512C49.7977 25.944 50.5577 26.504 51.1497 27.192L48.9897 29.352C48.4937 28.808 47.9817 28.408 47.4537 28.152C46.9417 27.896 46.3577 27.768 45.7017 27.768C44.9497 27.768 44.3577 27.912 43.9257 28.2C43.4937 28.488 43.2777 28.904 43.2777 29.448C43.2777 29.912 43.4217 30.288 43.7097 30.576C43.9977 30.864 44.3737 31.112 44.8377 31.32C45.3177 31.528 45.8377 31.728 46.3977 31.92C46.9737 32.112 47.5417 32.328 48.1017 32.568C48.6777 32.808 49.1977 33.12 49.6617 33.504C50.1417 33.888 50.5257 34.384 50.8137 34.992C51.1017 35.584 51.2457 36.32 51.2457 37.2C51.2457 38.768 50.6937 40 49.5897 40.896C48.4857 41.792 46.9737 42.24 45.0537 42.24ZM55.1898 42V25.584H58.3338V42H55.1898ZM52.4778 33.168V30.408H61.0458V33.168H52.4778ZM67.3806 42.24C66.3246 42.24 65.3726 41.976 64.5246 41.448C63.6766 40.92 63.0126 40.2 62.5326 39.288C62.0526 38.376 61.8126 37.352 61.8126 36.216C61.8126 35.064 62.0526 34.032 62.5326 33.12C63.0126 32.208 63.6766 31.488 64.5246 30.96C65.3726 30.432 66.3246 30.168 67.3806 30.168C68.2126 30.168 68.9566 30.336 69.6126 30.672C70.2686 31.008 70.7886 31.48 71.1726 32.088C71.5726 32.68 71.7886 33.352 71.8206 34.104V38.28C71.7886 39.048 71.5726 39.728 71.1726 40.32C70.7886 40.912 70.2686 41.384 69.6126 41.736C68.9566 42.072 68.2126 42.24 67.3806 42.24ZM67.9566 39.336C68.8366 39.336 69.5486 39.048 70.0926 38.472C70.6366 37.88 70.9086 37.12 70.9086 36.192C70.9086 35.584 70.7806 35.048 70.5246 34.584C70.2846 34.104 69.9406 33.736 69.4926 33.48C69.0606 33.208 68.5486 33.072 67.9566 33.072C67.3806 33.072 66.8686 33.208 66.4206 33.48C65.9886 33.736 65.6446 34.104 65.3886 34.584C65.1486 35.048 65.0286 35.584 65.0286 36.192C65.0286 36.816 65.1486 37.368 65.3886 37.848C65.6446 38.312 65.9886 38.68 66.4206 38.952C66.8686 39.208 67.3806 39.336 67.9566 39.336ZM70.7406 42V38.88L71.2446 36.048L70.7406 33.264V30.408H73.8606V42H70.7406ZM76.642 42V30.408H79.786V42H76.642ZM79.786 35.592L78.562 34.776C78.706 33.352 79.122 32.232 79.81 31.416C80.498 30.584 81.49 30.168 82.786 30.168C83.346 30.168 83.85 30.264 84.298 30.456C84.746 30.632 85.154 30.928 85.522 31.344L83.554 33.6C83.378 33.408 83.162 33.264 82.906 33.168C82.666 33.072 82.386 33.024 82.066 33.024C81.394 33.024 80.842 33.24 80.41 33.672C79.994 34.088 79.786 34.728 79.786 35.592ZM88.4007 42V25.584H91.5447V42H88.4007ZM85.6887 33.168V30.408H94.2567V33.168H85.6887ZM102.248 42V29.16C102.248 28.232 102.448 27.416 102.848 26.712C103.248 25.992 103.816 25.424 104.552 25.008C105.288 24.592 106.152 24.384 107.144 24.384C107.896 24.384 108.544 24.512 109.088 24.768C109.632 25.024 110.12 25.376 110.552 25.824L108.56 27.84C108.384 27.664 108.192 27.528 107.984 27.432C107.776 27.336 107.512 27.288 107.192 27.288C106.616 27.288 106.168 27.448 105.848 27.768C105.544 28.072 105.392 28.512 105.392 29.088V42H102.248ZM99.5603 33.168V30.408H108.824V33.168H99.5603ZM110.345 42V30.408H113.489V42H110.345ZM113.489 35.592L112.265 34.776C112.409 33.352 112.825 32.232 113.513 31.416C114.201 30.584 115.193 30.168 116.489 30.168C117.049 30.168 117.553 30.264 118.001 30.456C118.449 30.632 118.857 30.928 119.225 31.344L117.257 33.6C117.081 33.408 116.865 33.264 116.609 33.168C116.369 33.072 116.089 33.024 115.769 33.024C115.097 33.024 114.545 33.24 114.113 33.672C113.697 34.088 113.489 34.728 113.489 35.592ZM125.545 42.24C124.329 42.24 123.249 41.984 122.305 41.472C121.361 40.944 120.609 40.224 120.049 39.312C119.505 38.4 119.233 37.36 119.233 36.192C119.233 35.04 119.497 34.016 120.025 33.12C120.569 32.208 121.305 31.488 122.233 30.96C123.161 30.416 124.193 30.144 125.329 30.144C126.449 30.144 127.433 30.4 128.281 30.912C129.145 31.408 129.817 32.096 130.297 32.976C130.793 33.84 131.041 34.824 131.041 35.928C131.041 36.136 131.025 36.352 130.993 36.576C130.977 36.784 130.937 37.024 130.873 37.296L121.129 37.32V34.968L129.409 34.944L128.137 35.928C128.105 35.24 127.977 34.664 127.753 34.2C127.545 33.736 127.233 33.384 126.817 33.144C126.417 32.888 125.921 32.76 125.329 32.76C124.705 32.76 124.161 32.904 123.697 33.192C123.233 33.464 122.873 33.856 122.617 34.368C122.377 34.864 122.257 35.456 122.257 36.144C122.257 36.848 122.385 37.464 122.641 37.992C122.913 38.504 123.297 38.904 123.793 39.192C124.289 39.464 124.865 39.6 125.521 39.6C126.113 39.6 126.649 39.504 127.129 39.312C127.609 39.104 128.025 38.8 128.377 38.4L130.225 40.248C129.665 40.904 128.977 41.4 128.161 41.736C127.361 42.072 126.489 42.24 125.545 42.24ZM138.53 42.24C137.314 42.24 136.234 41.984 135.29 41.472C134.346 40.944 133.594 40.224 133.034 39.312C132.49 38.4 132.218 37.36 132.218 36.192C132.218 35.04 132.482 34.016 133.01 33.12C133.554 32.208 134.29 31.488 135.218 30.96C136.146 30.416 137.178 30.144 138.314 30.144C139.434 30.144 140.418 30.4 141.266 30.912C142.13 31.408 142.802 32.096 143.282 32.976C143.778 33.84 144.026 34.824 144.026 35.928C144.026 36.136 144.01 36.352 143.978 36.576C143.962 36.784 143.922 37.024 143.858 37.296L134.114 37.32V34.968L142.394 34.944L141.122 35.928C141.09 35.24 140.962 34.664 140.738 34.2C140.53 33.736 140.218 33.384 139.802 33.144C139.402 32.888 138.906 32.76 138.314 32.76C137.69 32.76 137.146 32.904 136.682 33.192C136.218 33.464 135.858 33.856 135.602 34.368C135.362 34.864 135.242 35.456 135.242 36.144C135.242 36.848 135.37 37.464 135.626 37.992C135.898 38.504 136.282 38.904 136.778 39.192C137.274 39.464 137.85 39.6 138.506 39.6C139.098 39.6 139.634 39.504 140.114 39.312C140.594 39.104 141.01 38.8 141.362 38.4L143.21 40.248C142.65 40.904 141.962 41.4 141.146 41.736C140.346 42.072 139.474 42.24 138.53 42.24ZM152.362 42V25.584H155.506V42H152.362ZM149.65 33.168V30.408H158.218V33.168H149.65ZM159.986 42V30.408H163.13V42H159.986ZM163.13 35.592L161.906 34.776C162.05 33.352 162.466 32.232 163.154 31.416C163.842 30.584 164.834 30.168 166.13 30.168C166.69 30.168 167.194 30.264 167.642 30.456C168.09 30.632 168.498 30.928 168.866 31.344L166.898 33.6C166.722 33.408 166.506 33.264 166.25 33.168C166.01 33.072 165.73 33.024 165.41 33.024C164.738 33.024 164.186 33.24 163.754 33.672C163.338 34.088 163.13 34.728 163.13 35.592ZM169.97 42V30.408H173.138V42H169.97ZM171.554 28.536C171.042 28.536 170.618 28.368 170.282 28.032C169.946 27.68 169.778 27.248 169.778 26.736C169.778 26.24 169.946 25.816 170.282 25.464C170.618 25.112 171.042 24.936 171.554 24.936C172.082 24.936 172.506 25.112 172.826 25.464C173.162 25.816 173.33 26.24 173.33 26.736C173.33 27.248 173.162 27.68 172.826 28.032C172.506 28.368 172.082 28.536 171.554 28.536ZM180.771 42.24C179.715 42.24 178.763 41.976 177.915 41.448C177.067 40.92 176.403 40.2 175.923 39.288C175.443 38.376 175.203 37.352 175.203 36.216C175.203 35.064 175.443 34.032 175.923 33.12C176.403 32.208 177.067 31.488 177.915 30.96C178.763 30.432 179.715 30.168 180.771 30.168C181.603 30.168 182.347 30.336 183.003 30.672C183.659 31.008 184.179 31.48 184.563 32.088C184.963 32.68 185.179 33.352 185.211 34.104V38.28C185.179 39.048 184.963 39.728 184.563 40.32C184.179 40.912 183.659 41.384 183.003 41.736C182.347 42.072 181.603 42.24 180.771 42.24ZM181.347 39.336C182.227 39.336 182.939 39.048 183.483 38.472C184.027 37.88 184.299 37.12 184.299 36.192C184.299 35.584 184.171 35.048 183.915 34.584C183.675 34.104 183.331 33.736 182.883 33.48C182.451 33.208 181.939 33.072 181.347 33.072C180.771 33.072 180.259 33.208 179.811 33.48C179.379 33.736 179.035 34.104 178.779 34.584C178.539 35.048 178.419 35.584 178.419 36.192C178.419 36.816 178.539 37.368 178.779 37.848C179.035 38.312 179.379 38.68 179.811 38.952C180.259 39.208 180.771 39.336 181.347 39.336ZM184.131 42V38.88L184.635 36.048L184.131 33.264V30.408H187.251V42H184.131ZM190.033 42V24.648H193.177V42H190.033Z" fill="white"/>
<defs>
<linearGradient id="paint0_linear_125_22" x1="-79" y1="-63" x2="265" y2="104" gradientUnits="userSpaceOnUse">
<stop stop-color="#06FF61"/>
<stop offset="1" stop-color="white" stop-opacity="0.43"/>
</linearGradient>
</defs>
</svg>
