<svg xmlns="http://www.w3.org/2000/svg" width="40" height="40" viewBox="0 0 40 40" fill="none">
    <g clip-path="url(#clip0_271_11568)">
        <path d="M20 0C8.95469 0 0 8.95469 0 20C0 31.0453 8.95469 40 20 40C31.0453 40 40 31.0453 40 20C40 8.95469 31.0453 0 20 0Z" fill="white"/>
        <path d="M22.188 18.1896L30.7497 8.2373H28.7209L21.2867 16.8788L15.349 8.2373H8.50067L17.4795 21.3048L8.50067 31.7413H10.5297L18.3803 22.6156L24.6509 31.7413H31.4993L22.1875 18.1896H22.188ZM11.2607 9.76471H14.3771L28.7218 30.2834H25.6054L11.2607 9.76471Z" fill="#020812"/>
    </g>
    <defs>
        <clipPath id="clip0_271_11568">
            <rect width="40" height="40" fill="white"/>
        </clipPath>
    </defs>
</svg>