<svg width="56" height="57" viewBox="0 0 56 57" fill="none" xmlns="http://www.w3.org/2000/svg">
    <g clip-path="url(#clip0_931_335)">
        <path d="M51.5725 43.2659L39.8762 39.3676C36.827 42.596 32.5345 44.652 28 44.652C23.4655 44.652 19.173 42.5968 16.1238 39.3683L4.4275 43.2666C1.99432 44.0799 0 46.8442 0 49.4098V56.4098H56V49.4098C56 46.8442 54.0086 44.0799 51.5725 43.2659ZM42 12.0767H14C11.4345 12.0767 9.33311 14.1773 9.33311 16.7436V23.7436C9.33311 26.3091 11.4345 28.4098 14 28.4098H42C44.5655 28.4098 46.6669 26.3091 46.6669 23.7429V16.7429C46.6669 14.1773 44.5655 12.0767 42 12.0767ZM18.6669 21.4098H14V16.7429H18.6669V21.4098Z" fill="url(#paint0_linear_931_335)"/>
        <path d="M16.9344 31.9097C18.5136 36.4807 23.142 39.9848 28 39.9848C32.858 39.9848 37.4864 36.4806 39.0656 31.9097H16.9344ZM28 0.409668C21.9163 0.409668 17.1395 3.70883 15.092 8.57656H40.908C38.8626 3.70883 34.0817 0.409668 28 0.409668Z" fill="url(#paint1_linear_931_335)"/>
    </g>
    <defs>
        <linearGradient id="paint0_linear_931_335" x1="0" y1="56.4098" x2="43.1502" y2="1.90396" gradientUnits="userSpaceOnUse">
            <stop stop-color="#00D6D9"/>
            <stop offset="1" stop-color="#00C085"/>
        </linearGradient>
        <linearGradient id="paint1_linear_931_335" x1="15.092" y1="39.9848" x2="51.3115" y2="16.3578" gradientUnits="userSpaceOnUse">
            <stop stop-color="#00D6D9"/>
            <stop offset="1" stop-color="#00C085"/>
        </linearGradient>
        <clipPath id="clip0_931_335">
            <rect width="56" height="56" fill="white" transform="translate(0 0.409668)"/>
        </clipPath>
    </defs>
</svg>
