<svg width="40" height="40" viewBox="0 0 40 40" fill="none" xmlns="http://www.w3.org/2000/svg">
<path d="M8.17356 0.137899C5.63681 0.418191 3.96124 1.22169 2.33247 2.95016C1.71467 3.61351 1.48065 3.94986 1.06878 4.80008C0.450971 6.05205 0.198231 7.04241 0.0671811 8.71481C0.0110168 9.50897 -0.0170654 13.8722 0.0110168 20.9262C0.0390989 31.6333 0.0484596 31.9229 0.235674 32.7918C0.647546 34.6604 1.25599 35.875 2.36056 37.0523C3.98932 38.7994 5.61809 39.5655 8.31397 39.8458C10.1674 40.0514 29.8623 40.0514 31.7158 39.8458C34.2151 39.5842 35.7409 38.9302 37.276 37.4727C38.6614 36.146 39.4009 34.7259 39.8315 32.5583C39.9906 31.7734 40 30.8859 40 19.9919C40 9.10722 39.9906 8.21029 39.8315 7.42547C39.4384 5.45409 38.8112 4.13672 37.6692 2.93147C36.0404 1.18432 34.3836 0.408848 31.7158 0.128556C29.9653 -0.0489617 9.87721 -0.0396186 8.17356 0.137899ZM14.7448 16.2079C15.269 18.1606 15.7089 19.8237 15.7277 19.8984C15.7464 19.9732 16.2051 18.3755 16.748 16.3481L17.7309 12.6576L19.9961 12.6296C22.0742 12.6109 22.2614 12.6202 22.3363 12.7697C22.3831 12.8631 22.8324 14.5075 23.3473 16.4228C23.8528 18.3382 24.2927 19.8517 24.3208 19.7863C24.3395 19.7209 24.7888 18.0859 25.3037 16.1612L26.2397 12.6576L28.842 12.6296C30.6018 12.6202 31.4349 12.6389 31.4349 12.7043C31.4349 12.7884 27.0448 27.7933 26.7452 28.7556L26.6423 29.0546L24.3863 29.0359L22.1304 29.0079L21.0914 25.3361C20.5297 23.3273 20.043 21.6736 20.0149 21.6736C19.9868 21.6736 19.5 23.3273 18.9384 25.3361L17.8993 29.0079L15.6434 29.0359C13.5466 29.0546 13.3781 29.0453 13.3313 28.8958C11.9272 24.1776 8.5948 12.7884 8.5948 12.7136C8.5948 12.6389 9.33429 12.6109 11.1971 12.6296L13.79 12.6576L14.7448 16.2079Z" fill="white"/>
</svg>
