<svg width="99" height="18" viewBox="0 0 99 18" fill="none" xmlns="http://www.w3.org/2000/svg">
<path d="M0.46582 1.27344H3.76172L5.72168 9.70215H5.83594L8.04199 1.27344H10.7754L12.9902 9.72852H13.0957L15.0645 1.27344H18.3604L14.6777 14H11.7686L9.45703 6.16016H9.36914L7.04883 14H4.15723L0.46582 1.27344ZM22.5791 14H19.6172V1.27344H22.4824V6.18652H22.5791C22.8018 5.60059 23.1592 5.14648 23.6514 4.82422C24.1436 4.49609 24.7412 4.33203 25.4443 4.33203C26.1123 4.33203 26.6953 4.48145 27.1934 4.78027C27.6973 5.07324 28.084 5.48926 28.3535 6.02832C28.6289 6.56738 28.7666 7.19434 28.7666 7.90918V14H25.8047V8.48047C25.8047 8.12305 25.7432 7.81543 25.6201 7.55762C25.4971 7.2998 25.3154 7.10352 25.0752 6.96875C24.8408 6.82812 24.5596 6.75781 24.2314 6.75781C23.9033 6.75781 23.6162 6.83105 23.3701 6.97754C23.124 7.11816 22.9307 7.32324 22.79 7.59277C22.6494 7.85645 22.5791 8.16992 22.5791 8.5332V14ZM32.001 17.5859C31.2803 17.5742 30.7852 17.5566 30.5156 17.5332V15.2832C30.7734 15.3008 31.1631 15.3125 31.6846 15.3184C31.8721 15.3184 32.0332 15.3008 32.168 15.2656C32.3027 15.2363 32.4199 15.1719 32.5195 15.0723C32.625 14.9785 32.7188 14.832 32.8008 14.6328L32.9238 14.334L29.5225 4.45508H32.6162L34.4268 11.3018H34.5322L36.3516 4.45508H39.4717L35.8594 14.9316C35.5664 15.7754 35.1152 16.4258 34.5059 16.8828C33.8965 17.3457 33.0615 17.5801 32.001 17.5859ZM65.9531 6.63477H59.8535V4.45508H65.9531V6.63477ZM61.1631 3.92773C61.1631 3.21875 61.2949 2.62109 61.5586 2.13477C61.8281 1.64844 62.2031 1.28516 62.6836 1.04492C63.1699 0.798828 63.7471 0.675781 64.415 0.675781C64.749 0.675781 65.0508 0.69043 65.3203 0.719727C65.5898 0.749023 65.8594 0.792969 66.1289 0.851562V3.04004C65.8594 3.02246 65.6426 3.00195 65.4785 2.97852C65.4375 2.98438 65.4053 2.9873 65.3818 2.9873C65.3584 2.98145 65.335 2.97852 65.3115 2.97852C64.9189 2.98438 64.623 3.06934 64.4238 3.2334C64.2246 3.3916 64.125 3.64355 64.125 3.98926V14H61.1631V3.92773ZM71.499 14.1758C70.5088 14.1758 69.6504 13.9795 68.9238 13.5869C68.2031 13.1943 67.6494 12.6289 67.2627 11.8906C66.876 11.1523 66.6826 10.2764 66.6826 9.2627C66.6826 8.29004 66.876 7.42871 67.2627 6.67871C67.6553 5.92871 68.2061 5.35156 68.915 4.94727C69.6299 4.53711 70.4619 4.33203 71.4111 4.33203C72.3076 4.33203 73.0986 4.51953 73.7842 4.89453C74.4756 5.26953 75.0176 5.82324 75.4102 6.55566C75.8027 7.28223 75.999 8.16113 75.999 9.19238V9.95703H67.7549V8.20801H73.2393C73.2334 7.87402 73.1543 7.5752 73.002 7.31152C72.8496 7.04785 72.6387 6.84277 72.3691 6.69629C72.1055 6.5498 71.8037 6.47656 71.4639 6.47656C71.1123 6.47656 70.7959 6.55566 70.5146 6.71387C70.2334 6.86621 70.0107 7.08008 69.8467 7.35547C69.6885 7.625 69.6064 7.92676 69.6006 8.26074V10.0098C69.6006 10.4199 69.6797 10.7773 69.8379 11.082C70.002 11.3809 70.2275 11.6152 70.5146 11.7852C70.8076 11.9492 71.1533 12.0312 71.5518 12.0312C71.8154 12.0312 72.0586 11.9932 72.2812 11.917C72.5039 11.8408 72.6914 11.7383 72.8438 11.6094C72.9961 11.4746 73.1133 11.3164 73.1953 11.1348H75.9639C75.8408 11.75 75.5859 12.2891 75.1992 12.752C74.8125 13.209 74.3027 13.5605 73.6699 13.8066C73.0371 14.0527 72.3135 14.1758 71.499 14.1758ZM77.5195 4.45508H80.3848V6.17773H80.4902C80.6602 5.56836 80.9414 5.1084 81.334 4.79785C81.7266 4.48145 82.1924 4.32324 82.7314 4.32324C83.0654 4.3291 83.3467 4.36426 83.5752 4.42871V7.0127C83.4346 6.96582 83.25 6.92773 83.0215 6.89844C82.7988 6.86914 82.5908 6.85449 82.3975 6.85449C82.0342 6.85449 81.7061 6.93652 81.4131 7.10059C81.126 7.26465 80.8975 7.49023 80.7275 7.77734C80.5635 8.06445 80.4814 8.39551 80.4814 8.77051V14H77.5195V4.45508ZM84.7793 4.45508H87.7412V14H84.7793V4.45508ZM86.2559 3.3125C85.9746 3.3125 85.7168 3.24805 85.4824 3.11914C85.2539 2.99023 85.0664 2.81738 84.9199 2.60059C84.7793 2.38379 84.709 2.14648 84.709 1.88867C84.709 1.63086 84.7793 1.39355 84.9199 1.17676C85.0664 0.954102 85.2539 0.77832 85.4824 0.649414C85.7168 0.520508 85.9746 0.456055 86.2559 0.456055C86.5312 0.456055 86.7861 0.520508 87.0205 0.649414C87.2549 0.77832 87.4424 0.954102 87.583 1.17676C87.7236 1.39355 87.7939 1.63086 87.7939 1.88867C87.7939 2.14648 87.7236 2.38379 87.583 2.60059C87.4424 2.81738 87.2549 2.99023 87.0205 3.11914C86.7861 3.24805 86.5312 3.3125 86.2559 3.3125ZM93.7617 7.63672L95.4141 4.45508H98.4199L95.7393 9.21875L98.5078 14H95.5371L93.7617 10.8008L92.0303 14H89.0156L91.793 9.21875L89.1475 4.45508H92.1621L93.7617 7.63672Z" fill="white"/>
<path d="M47.6631 14H44.6748V1.27344H47.6631V14ZM52.5498 14H49.5879V4.45508H52.4004V6.18652H52.4971C52.7139 5.60645 53.0771 5.15234 53.5869 4.82422C54.0967 4.49609 54.7002 4.33203 55.3975 4.33203C56.0596 4.33203 56.6396 4.48145 57.1377 4.78027C57.6416 5.07324 58.0283 5.49219 58.2979 6.03711C58.5732 6.57617 58.7109 7.2002 58.7109 7.90918V14H55.749V8.48047C55.749 8.12891 55.6875 7.82422 55.5645 7.56641C55.4473 7.30859 55.2686 7.10938 55.0283 6.96875C54.7939 6.82812 54.5127 6.75781 54.1846 6.75781C53.8564 6.75781 53.5693 6.83105 53.3232 6.97754C53.0771 7.11816 52.8867 7.32324 52.752 7.59277C52.6172 7.85645 52.5498 8.16992 52.5498 8.5332V14Z" fill="#06FF61"/>
</svg>
