<svg width="218" height="39" viewBox="0 0 218 39" fill="none" xmlns="http://www.w3.org/2000/svg">
<path d="M0.0351562 2.71875H7.35938L11.7148 21.4492H11.9688L16.8711 2.71875H22.9453L27.8672 21.5078H28.1016L32.4766 2.71875H39.8008L31.6172 31H25.1523L20.0156 13.5781H19.8203L14.6641 31H8.23828L0.0351562 2.71875ZM49.1758 31H42.5938V2.71875H48.9609V13.6367H49.1758C49.6706 12.3346 50.4648 11.3255 51.5586 10.6094C52.6523 9.88021 53.9805 9.51562 55.543 9.51562C57.0273 9.51562 58.3229 9.84766 59.4297 10.5117C60.5495 11.1628 61.4089 12.0872 62.0078 13.2852C62.6198 14.4831 62.9258 15.8763 62.9258 17.4648V31H56.3438V18.7344C56.3438 17.9401 56.207 17.2565 55.9336 16.6836C55.6602 16.1107 55.2565 15.6745 54.7227 15.375C54.2018 15.0625 53.5768 14.9062 52.8477 14.9062C52.1185 14.9062 51.4805 15.069 50.9336 15.3945C50.3867 15.707 49.957 16.1628 49.6445 16.7617C49.332 17.3477 49.1758 18.0443 49.1758 18.8516V31ZM70.1133 38.9688C68.5117 38.9427 67.4115 38.9036 66.8125 38.8516V33.8516C67.3854 33.8906 68.2513 33.9167 69.4102 33.9297C69.8268 33.9297 70.1849 33.8906 70.4844 33.8125C70.7839 33.7474 71.0443 33.6042 71.2656 33.3828C71.5 33.1745 71.7083 32.849 71.8906 32.4062L72.1641 31.7422L64.6055 9.78906H71.4805L75.5039 25.0039H75.7383L79.7812 9.78906H86.7148L78.6875 33.0703C78.0365 34.9453 77.0339 36.3906 75.6797 37.4062C74.3255 38.4349 72.4701 38.9557 70.1133 38.9688ZM145.562 14.6328H132.008V9.78906H145.562V14.6328ZM134.918 8.61719C134.918 7.04167 135.211 5.71354 135.797 4.63281C136.396 3.55208 137.229 2.74479 138.297 2.21094C139.378 1.66406 140.66 1.39062 142.145 1.39062C142.887 1.39062 143.557 1.42318 144.156 1.48828C144.755 1.55339 145.354 1.65104 145.953 1.78125V6.64453C145.354 6.60547 144.872 6.5599 144.508 6.50781C144.417 6.52083 144.345 6.52734 144.293 6.52734C144.241 6.51432 144.189 6.50781 144.137 6.50781C143.264 6.52083 142.607 6.70964 142.164 7.07422C141.721 7.42578 141.5 7.98568 141.5 8.75391V31H134.918V8.61719ZM157.887 31.3906C155.686 31.3906 153.779 30.9544 152.164 30.082C150.562 29.2096 149.332 27.9531 148.473 26.3125C147.613 24.6719 147.184 22.7253 147.184 20.4727C147.184 18.3112 147.613 16.3971 148.473 14.7305C149.345 13.0638 150.569 11.7812 152.145 10.8828C153.733 9.97135 155.582 9.51562 157.691 9.51562C159.684 9.51562 161.441 9.93229 162.965 10.7656C164.501 11.599 165.706 12.8294 166.578 14.457C167.451 16.0716 167.887 18.0247 167.887 20.3164V22.0156H149.566V18.1289H161.754C161.741 17.3867 161.565 16.7227 161.227 16.1367C160.888 15.5508 160.419 15.0951 159.82 14.7695C159.234 14.444 158.564 14.2812 157.809 14.2812C157.027 14.2812 156.324 14.457 155.699 14.8086C155.074 15.1471 154.579 15.6224 154.215 16.2344C153.863 16.8333 153.681 17.5039 153.668 18.2461V22.1328C153.668 23.0443 153.844 23.8385 154.195 24.5156C154.56 25.1797 155.061 25.7005 155.699 26.0781C156.35 26.4427 157.118 26.625 158.004 26.625C158.59 26.625 159.13 26.5404 159.625 26.3711C160.12 26.2018 160.536 25.974 160.875 25.6875C161.214 25.388 161.474 25.0365 161.656 24.6328H167.809C167.535 26 166.969 27.1979 166.109 28.2266C165.25 29.2422 164.117 30.0234 162.711 30.5703C161.305 31.1172 159.697 31.3906 157.887 31.3906ZM171.266 9.78906H177.633V13.6172H177.867C178.245 12.263 178.87 11.2409 179.742 10.5508C180.615 9.84766 181.65 9.49609 182.848 9.49609C183.59 9.50911 184.215 9.58724 184.723 9.73047V15.4727C184.41 15.3685 184 15.2839 183.492 15.2188C182.997 15.1536 182.535 15.1211 182.105 15.1211C181.298 15.1211 180.569 15.3034 179.918 15.668C179.28 16.0326 178.772 16.5339 178.395 17.1719C178.03 17.8099 177.848 18.5456 177.848 19.3789V31H171.266V9.78906ZM187.398 9.78906H193.98V31H187.398V9.78906ZM190.68 7.25C190.055 7.25 189.482 7.10677 188.961 6.82031C188.453 6.53385 188.036 6.14974 187.711 5.66797C187.398 5.1862 187.242 4.65885 187.242 4.08594C187.242 3.51302 187.398 2.98568 187.711 2.50391C188.036 2.00911 188.453 1.61849 188.961 1.33203C189.482 1.04557 190.055 0.902344 190.68 0.902344C191.292 0.902344 191.858 1.04557 192.379 1.33203C192.9 1.61849 193.316 2.00911 193.629 2.50391C193.941 2.98568 194.098 3.51302 194.098 4.08594C194.098 4.65885 193.941 5.1862 193.629 5.66797C193.316 6.14974 192.9 6.53385 192.379 6.82031C191.858 7.10677 191.292 7.25 190.68 7.25ZM207.359 16.8594L211.031 9.78906H217.711L211.754 20.375L217.906 31H211.305L207.359 23.8906L203.512 31H196.812L202.984 20.375L197.105 9.78906H203.805L207.359 16.8594Z" fill="white"/>
<path d="M104.918 31H98.2773V2.71875H104.918V31ZM115.777 31H109.195V9.78906H115.445V13.6367H115.66C116.142 12.3477 116.949 11.3385 118.082 10.6094C119.215 9.88021 120.556 9.51562 122.105 9.51562C123.577 9.51562 124.866 9.84766 125.973 10.5117C127.092 11.1628 127.952 12.0938 128.551 13.3047C129.163 14.5026 129.469 15.8893 129.469 17.4648V31H122.887V18.7344C122.887 17.9531 122.75 17.276 122.477 16.7031C122.216 16.1302 121.819 15.6875 121.285 15.375C120.764 15.0625 120.139 14.9062 119.41 14.9062C118.681 14.9062 118.043 15.069 117.496 15.3945C116.949 15.707 116.526 16.1628 116.227 16.7617C115.927 17.3477 115.777 18.0443 115.777 18.8516V31Z" fill="#06FF61"/>
</svg>
