<svg width="298" height="132" viewBox="0 0 298 132" fill="none" xmlns="http://www.w3.org/2000/svg">
<g filter="url(#filter0_d_25_90)">
<g filter="url(#filter1_d_25_90)">
<rect x="34" y="34" width="230" height="64" rx="28" fill="black" fill-opacity="0.49" shape-rendering="crispEdges"/>
<rect x="34" y="34" width="230" height="64" rx="28" stroke="url(#paint0_linear_25_90)" shape-rendering="crispEdges"/>
</g>
</g>
<path d="M125.856 74L120.84 58.534H123.788L127.506 70.436H126.516L130.168 58.534H132.39L136.042 70.436H135.03L138.77 58.534H141.718L136.68 74H134.458L130.784 62.12H131.752L128.1 74H125.856ZM143.461 74V63.374H146.365V74H143.461ZM144.913 61.658C144.443 61.658 144.055 61.504 143.747 61.196C143.439 60.8733 143.285 60.4773 143.285 60.008C143.285 59.5533 143.439 59.1647 143.747 58.842C144.055 58.5193 144.443 58.358 144.913 58.358C145.397 58.358 145.785 58.5193 146.079 58.842C146.387 59.1647 146.541 59.5533 146.541 60.008C146.541 60.4773 146.387 60.8733 146.079 61.196C145.785 61.504 145.397 61.658 144.913 61.658ZM156.068 74V67.906C156.068 67.2753 155.87 66.762 155.474 66.366C155.078 65.97 154.564 65.772 153.934 65.772C153.523 65.772 153.156 65.86 152.834 66.036C152.511 66.212 152.254 66.4613 152.064 66.784C151.888 67.1067 151.8 67.4807 151.8 67.906L150.678 67.334C150.678 66.498 150.854 65.772 151.206 65.156C151.572 64.5253 152.071 64.034 152.702 63.682C153.347 63.33 154.073 63.154 154.88 63.154C155.657 63.154 156.354 63.352 156.97 63.748C157.586 64.1293 158.07 64.6353 158.422 65.266C158.774 65.882 158.95 66.5493 158.95 67.268V74H156.068ZM148.918 74V63.374H151.8V74H148.918ZM165.759 74.22C164.776 74.22 163.896 73.978 163.119 73.494C162.342 73.01 161.726 72.35 161.271 71.514C160.831 70.678 160.611 69.7393 160.611 68.698C160.611 67.642 160.831 66.696 161.271 65.86C161.726 65.024 162.334 64.364 163.097 63.88C163.874 63.396 164.762 63.154 165.759 63.154C166.522 63.154 167.204 63.308 167.805 63.616C168.421 63.924 168.912 64.3567 169.279 64.914C169.66 65.4567 169.866 66.0727 169.895 66.762V70.546C169.866 71.2353 169.668 71.8587 169.301 72.416C168.934 72.9733 168.443 73.4133 167.827 73.736C167.211 74.0587 166.522 74.22 165.759 74.22ZM166.243 71.558C166.786 71.558 167.255 71.4407 167.651 71.206C168.062 70.9567 168.377 70.6193 168.597 70.194C168.832 69.754 168.949 69.248 168.949 68.676C168.949 68.1187 168.832 67.6273 168.597 67.202C168.377 66.762 168.062 66.4247 167.651 66.19C167.255 65.9407 166.793 65.816 166.265 65.816C165.722 65.816 165.246 65.9407 164.835 66.19C164.439 66.4393 164.124 66.7767 163.889 67.202C163.669 67.6273 163.559 68.1187 163.559 68.676C163.559 69.248 163.669 69.754 163.889 70.194C164.124 70.6193 164.446 70.9567 164.857 71.206C165.268 71.4407 165.73 71.558 166.243 71.558ZM171.655 74H168.795V71.14L169.257 68.544L168.773 65.992V58.094H171.655V74ZM179.199 74.22C178.128 74.22 177.16 73.978 176.295 73.494C175.444 72.9953 174.762 72.328 174.249 71.492C173.75 70.6413 173.501 69.6953 173.501 68.654C173.501 67.6127 173.75 66.6813 174.249 65.86C174.747 65.024 175.429 64.364 176.295 63.88C177.16 63.3813 178.121 63.132 179.177 63.132C180.262 63.132 181.23 63.3813 182.081 63.88C182.946 64.364 183.628 65.024 184.127 65.86C184.625 66.6813 184.875 67.6127 184.875 68.654C184.875 69.6953 184.625 70.6413 184.127 71.492C183.628 72.328 182.946 72.9953 182.081 73.494C181.23 73.978 180.269 74.22 179.199 74.22ZM179.177 71.536C179.719 71.536 180.196 71.4187 180.607 71.184C181.032 70.9347 181.355 70.5973 181.575 70.172C181.809 69.732 181.927 69.2333 181.927 68.676C181.927 68.1187 181.809 67.6273 181.575 67.202C181.34 66.7767 181.017 66.4467 180.607 66.212C180.196 65.9627 179.719 65.838 179.177 65.838C178.649 65.838 178.179 65.9627 177.769 66.212C177.358 66.4467 177.035 66.7767 176.801 67.202C176.566 67.6273 176.449 68.1187 176.449 68.676C176.449 69.2333 176.566 69.732 176.801 70.172C177.035 70.5973 177.358 70.9347 177.769 71.184C178.179 71.4187 178.649 71.536 179.177 71.536ZM189.332 74L185.35 63.374H188.254L190.85 71.096L189.97 71.118L192.632 63.374H194.722L197.384 71.118L196.504 71.096L199.1 63.374H202.004L198.044 74H195.954L193.27 66.652H194.084L191.4 74H189.332ZM206.796 74.242C206.195 74.242 205.601 74.1613 205.014 74C204.442 73.8387 203.914 73.6187 203.43 73.34C202.946 73.0467 202.528 72.6947 202.176 72.284L203.892 70.546C204.259 70.9567 204.684 71.2647 205.168 71.47C205.652 71.6753 206.187 71.778 206.774 71.778C207.243 71.778 207.595 71.712 207.83 71.58C208.079 71.448 208.204 71.25 208.204 70.986C208.204 70.6927 208.072 70.4653 207.808 70.304C207.559 70.1427 207.229 70.0107 206.818 69.908C206.407 69.7907 205.975 69.666 205.52 69.534C205.08 69.3873 204.655 69.204 204.244 68.984C203.833 68.7493 203.496 68.434 203.232 68.038C202.983 67.6273 202.858 67.0993 202.858 66.454C202.858 65.7793 203.019 65.1927 203.342 64.694C203.679 64.1953 204.156 63.8067 204.772 63.528C205.388 63.2493 206.114 63.11 206.95 63.11C207.83 63.11 208.622 63.264 209.326 63.572C210.045 63.88 210.639 64.342 211.108 64.958L209.37 66.696C209.047 66.3 208.681 66.014 208.27 65.838C207.874 65.662 207.441 65.574 206.972 65.574C206.547 65.574 206.217 65.64 205.982 65.772C205.762 65.904 205.652 66.0873 205.652 66.322C205.652 66.586 205.777 66.7913 206.026 66.938C206.29 67.0847 206.627 67.2167 207.038 67.334C207.449 67.4367 207.874 67.5613 208.314 67.708C208.769 67.84 209.194 68.0307 209.59 68.28C210.001 68.5293 210.331 68.8593 210.58 69.27C210.844 69.6807 210.976 70.2087 210.976 70.854C210.976 71.8953 210.602 72.724 209.854 73.34C209.106 73.9413 208.087 74.242 206.796 74.242Z" fill="white"/>
<path d="M91.5 64L95 67.5L98.5 64" stroke="white" stroke-width="2" stroke-linecap="round" stroke-linejoin="round"/>
<path d="M86 66V73H104V66" stroke="white" stroke-width="2" stroke-linecap="round" stroke-linejoin="round"/>
<path d="M95 60L95 67.5" stroke="white" stroke-width="2" stroke-linecap="round"/>
<defs>
<filter id="filter0_d_25_90" x="29.5" y="33.5" width="239" height="73" filterUnits="userSpaceOnUse" color-interpolation-filters="sRGB">
<feFlood flood-opacity="0" result="BackgroundImageFix"/>
<feColorMatrix in="SourceAlpha" type="matrix" values="0 0 0 0 0 0 0 0 0 0 0 0 0 0 0 0 0 0 127 0" result="hardAlpha"/>
<feOffset dy="4"/>
<feGaussianBlur stdDeviation="2"/>
<feComposite in2="hardAlpha" operator="out"/>
<feColorMatrix type="matrix" values="0 0 0 0 0 0 0 0 0 0 0 0 0 0 0 0 0 0 0.25 0"/>
<feBlend mode="normal" in2="BackgroundImageFix" result="effect1_dropShadow_25_90"/>
<feBlend mode="normal" in="SourceGraphic" in2="effect1_dropShadow_25_90" result="shape"/>
</filter>
<filter id="filter1_d_25_90" x="0.5" y="0.5" width="297" height="131" filterUnits="userSpaceOnUse" color-interpolation-filters="sRGB">
<feFlood flood-opacity="0" result="BackgroundImageFix"/>
<feColorMatrix in="SourceAlpha" type="matrix" values="0 0 0 0 0 0 0 0 0 0 0 0 0 0 0 0 0 0 127 0" result="hardAlpha"/>
<feOffset/>
<feGaussianBlur stdDeviation="16.5"/>
<feComposite in2="hardAlpha" operator="out"/>
<feColorMatrix type="matrix" values="0 0 0 0 0.0235294 0 0 0 0 1 0 0 0 0 0.380392 0 0 0 0.08 0"/>
<feBlend mode="normal" in2="BackgroundImageFix" result="effect1_dropShadow_25_90"/>
<feBlend mode="normal" in="SourceGraphic" in2="effect1_dropShadow_25_90" result="shape"/>
</filter>
<linearGradient id="paint0_linear_25_90" x1="-46" y1="-30" x2="298" y2="137" gradientUnits="userSpaceOnUse">
<stop stop-color="#06FF61"/>
<stop offset="1" stop-color="white" stop-opacity="0.43"/>
</linearGradient>
</defs>
</svg>
