<svg width="105" height="228" viewBox="0 0 105 228" fill="none" xmlns="http://www.w3.org/2000/svg">
    <path d="M33.8811 73.3L27.5954 69.55L27.4525 35.05L33.7382 38.95L33.8811 73.3Z" fill="#01BDB1"/>
    <path d="M33.7382 38.95L27.4525 35.05L78.7382 4L85.024 7.9L33.7382 38.95Z" fill="#01D1C3"/>
    <path d="M82.7382 32.8C82.1667 30.55 82.3096 28.3 82.3096 26.05V17.95C82.3096 15.85 83.5953 14.65 85.0239 14.2V7.75L33.7382 38.95V73.45L85.0239 42.4V35.65C84.0239 35.2 83.1667 34.3 82.7382 32.8Z" fill="url(#paint0_linear_931_156)"/>
    <path d="M32.3096 75.9999L25.0239 71.4999V44.3499L32.3096 48.8499C33.1668 55.7499 32.8811 65.4999 32.3096 75.9999Z" fill="#E3E7F0"/>
    <path d="M27.4525 51.85L20.1667 47.35V45.25C23.0239 46.15 25.4525 47.65 27.4525 49.75V51.85Z" fill="#C9CEE2"/>
    <path d="M27.3096 49.75L20.1667 45.25L26.7382 41.2L34.0239 45.7L27.3096 49.75Z" fill="#E3E7F0"/>
    <path d="M34.0239 45.7L34.1667 74.9499L32.3096 75.9999V48.85L27.4524 51.85L27.3096 49.75L34.0239 45.7Z" fill="#9EA9C9"/>
    <path d="M85.0239 36.1L33.881 67.15L33.7382 45.1L85.0239 14.05V36.1Z" fill="#4C5C75"/>
    <path d="M81.0239 27.5499C81.0239 34.1499 76.5953 42.2499 71.1667 45.5499C68.0239 47.4999 65.3096 47.3499 63.4524 45.6999C62.0239 44.4999 61.3096 42.3999 61.3096 39.5499C61.3096 32.9499 65.7381 24.8499 71.1667 21.5499C73.5953 20.0499 75.7381 19.7499 77.4524 20.4999C79.5953 21.2499 81.0239 23.7999 81.0239 27.5499Z" fill="#59697F"/>
    <path d="M79.5953 26.6499C79.5953 33.2499 75.1667 41.3499 69.7381 44.6499C67.3096 46.1499 65.1667 46.4499 63.4524 45.6999C62.0239 44.4999 61.3096 42.3999 61.3096 39.5499C61.3096 32.9499 65.7381 24.8499 71.1667 21.5499C73.5953 20.0499 75.7381 19.7499 77.4524 20.4999C78.7381 21.6999 79.5953 23.7999 79.5953 26.6499Z" fill="#1D2943"/>
    <path d="M75.7381 24.6999C76.4524 25.2999 76.881 26.1999 77.0238 27.2499V27.5499C76.3095 27.8499 75.7381 27.9999 75.0238 28.2999C74.881 28.2999 74.7381 28.4499 74.5953 28.4499C74.0238 28.7499 73.4524 29.1999 72.881 29.6499C72.881 30.0999 73.0238 30.0999 73.3096 29.9499C74.5953 29.1999 75.5953 29.3499 76.4524 29.9499C76.881 30.2499 77.0238 30.9999 76.7381 31.8999C76.3096 33.3999 75.7381 34.8999 74.881 36.2499L74.7381 36.3999C74.4524 35.6499 74.3096 35.0499 74.0238 34.4499C73.7381 33.8499 73.3096 33.5499 72.881 32.9499C72.5953 33.3999 72.5953 33.5499 72.7381 33.8499C73.3095 34.8999 73.3096 36.2499 72.881 37.8999C72.7381 38.7999 72.1667 39.6999 71.4524 40.2999C71.0238 40.5999 70.7381 40.8999 70.3096 41.0499C69.5953 41.4999 68.881 41.7999 68.1667 41.9499H67.881C69.0238 40.1499 69.881 38.3499 70.1667 36.3999L69.881 36.9999C69.1667 38.6499 68.1667 39.9999 67.1667 41.0499L66.7381 41.4999C66.1667 41.7999 65.7381 41.7999 65.3096 41.4999C64.5953 40.8999 64.1667 39.9999 63.881 38.9499V38.4999C64.7381 38.3499 65.5953 38.0499 66.4524 37.5999C67.0238 37.2999 67.5953 36.8499 68.0238 36.3999C68.0238 36.0999 67.881 35.9499 67.5953 36.0999C66.3096 36.8499 65.3095 36.6999 64.4524 36.0999C64.0238 35.7999 63.881 35.0499 64.1667 34.1499C64.5953 32.6499 65.1667 31.1499 66.0238 29.7999L66.3095 29.4999C66.5953 31.1499 67.1667 32.3499 68.1667 32.9499L68.3096 32.1999C67.7381 31.1499 67.7381 29.7999 68.0238 28.1499C68.3095 27.2499 68.7381 26.3499 69.4524 25.7499C69.881 25.4499 70.1667 25.1499 70.5953 24.9999C71.3095 24.5499 72.0238 24.2499 72.7381 24.0999H72.881C71.7381 25.8999 70.881 27.6999 70.5953 29.6499H70.881C71.0238 29.6499 71.0238 29.4999 71.1667 29.1999C71.881 27.5499 72.881 26.1999 74.0238 25.1499C74.1667 24.9999 74.3096 24.8499 74.4524 24.8499C74.881 24.3999 75.4524 24.3999 75.7381 24.6999ZM70.4524 35.6499C71.5953 34.8999 72.5953 33.0999 72.5953 31.7499C72.5953 30.2499 71.5953 29.6499 70.4524 30.3999C69.3096 31.1499 68.3096 32.9499 68.3096 34.4499C68.1667 35.7999 69.1667 36.3999 70.4524 35.6499Z" fill="white"/>
    <path d="M70.3096 31.7501C70.881 31.4501 71.4525 31.6001 71.4525 32.3501C71.4525 33.1001 71.0239 34.0001 70.3096 34.3001C69.7382 34.6001 69.1667 34.4501 69.1667 33.7001C69.3096 32.9501 69.7382 32.0501 70.3096 31.7501Z" fill="white"/>
    <path d="M57.5953 41.65C57.5953 48.25 53.1667 56.35 47.7381 59.65C44.5953 61.6 41.881 61.45 40.0238 59.8C38.5953 58.6 37.881 56.5 37.881 53.65C37.881 47.05 42.3096 38.95 47.7381 35.65C50.1667 34.15 52.3096 33.85 54.0238 34.6C56.1667 35.5 57.5953 37.9 57.5953 41.65Z" fill="#59697F"/>
    <path d="M56.1667 40.75C56.1667 47.35 51.7381 55.45 46.3096 58.75C43.881 60.25 41.7381 60.55 40.0238 59.8C38.5953 58.6 37.881 56.5 37.881 53.65C37.881 47.05 42.3096 38.95 47.7381 35.65C50.1667 34.15 52.3096 33.85 54.0238 34.6C55.3096 35.8 56.1667 37.9 56.1667 40.75Z" fill="#1D2943"/>
    <path d="M52.3096 38.95C53.0239 39.55 53.4525 40.45 53.5953 41.5V41.8C52.881 42.1 52.3096 42.25 51.5953 42.55C51.4525 42.55 51.3096 42.7 51.1667 42.7C50.5953 43 50.0239 43.45 49.4525 43.9C49.4525 44.35 49.5953 44.35 49.881 44.2C51.1668 43.45 52.1667 43.6 53.0239 44.2C53.4525 44.5 53.5953 45.2499 53.3096 46.15C52.881 47.65 52.3096 49.15 51.4525 50.5L51.3096 50.65C51.0239 49.9 50.881 49.3 50.5953 48.7C50.3096 48.1 49.881 47.8 49.4525 47.2C49.1667 47.65 49.1668 47.8 49.3096 48.1C49.881 49.15 49.881 50.5 49.4525 52.15C49.3096 53.0499 48.7382 53.95 48.0239 54.55C47.5953 54.85 47.3096 55.15 46.881 55.3C46.1667 55.75 45.4525 56.05 44.7382 56.2H44.4525C45.5953 54.4 46.4525 52.5999 46.7382 50.65L46.1667 51.1C45.4525 52.75 44.4525 54.0999 43.4525 55.15L43.0239 55.6C42.4525 55.9 42.0239 55.9 41.5953 55.6C40.881 55 40.4525 54.1 40.1667 53.05V52.6C41.0239 52.45 41.881 52.15 42.7382 51.7C43.3096 51.4 43.881 50.95 44.3096 50.5C44.3096 50.2 44.1667 50.05 43.881 50.2C42.5953 50.95 41.5953 50.8 40.7382 50.2C40.3096 49.9 40.1667 49.15 40.4525 48.25C40.881 46.75 41.4525 45.25 42.3096 43.9L42.5953 43.6C42.881 45.25 43.4525 46.45 44.4525 47.05L44.5953 46.3C44.0239 45.25 44.0239 43.9 44.3096 42.25C44.5953 41.35 45.0239 40.45 45.7382 39.85C46.1668 39.55 46.4525 39.25 46.881 39.1C47.5953 38.65 48.3096 38.35 49.0239 38.2H49.1668C48.0239 40 47.1667 41.8 46.881 43.75H47.1668C47.3096 43.75 47.3096 43.6 47.4525 43.3C48.1667 41.65 49.1667 40.3 50.3096 39.25C50.4525 39.1 50.5953 38.95 50.7382 38.95C51.4525 38.5 52.0239 38.5 52.3096 38.95ZM47.0239 49.9C48.1668 49.15 49.1668 47.35 49.1668 46C49.1668 44.5 48.1668 43.9 47.0239 44.65C45.881 45.4 44.881 47.2 44.881 48.7C44.881 50.05 45.7382 50.65 47.0239 49.9Z" fill="white"/>
    <path d="M47.0238 45.8499C47.5953 45.5499 48.1667 45.6999 48.1667 46.4499C48.1667 47.1999 47.7381 48.0999 47.0238 48.3999C46.4524 48.6999 45.881 48.5499 45.881 47.7999C45.881 47.1999 46.3096 46.2999 47.0238 45.8499Z" fill="white"/>
    <path d="M31.3096 57.5502C31.4524 57.7002 31.7381 58.0002 31.7381 58.1502C31.7381 58.4502 31.5953 58.4502 31.3096 58.3002L29.4524 57.1002C29.3096 56.9502 29.0238 56.6502 29.0238 56.5002C29.0238 56.2002 29.1667 56.2002 29.4524 56.3502L31.3096 57.5502ZM31.3096 55.4502C31.4524 55.6002 31.7381 55.9002 31.7381 56.0502C31.7381 56.3502 31.5953 56.3502 31.3096 56.2002L29.4524 55.0002C29.3096 54.8502 29.0238 54.5502 29.0238 54.4002C29.0238 54.1002 29.1667 54.1002 29.4524 54.2502L31.3096 55.4502ZM31.3096 53.5002C31.4524 53.6502 31.7381 53.9502 31.7381 54.1002C31.7381 54.4002 31.5953 54.4002 31.3096 54.2502L29.4524 53.0502C29.3096 52.9002 29.0238 52.6002 29.0238 52.4502C29.0238 52.1502 29.1667 52.1502 29.4524 52.3002L31.3096 53.5002ZM28.4524 69.1002C28.4524 69.4002 28.7381 69.8502 29.0238 70.0002L27.4524 70.9002C27.0238 70.7502 26.881 70.3002 26.881 70.0002C26.881 69.8502 26.881 69.7002 27.0238 69.7002L28.5953 68.8002C28.4524 68.8002 28.4524 68.8002 28.4524 69.1002Z" fill="#9EA9C9"/>
    <path d="M28.881 70C29.0239 70.15 29.1667 70.15 29.3096 70L27.7381 70.9H27.3096C27.7381 70.6 28.4524 70.3 28.881 70Z" fill="#9EA9C9"/>
    <path d="M27.0239 69.7L28.5954 68.8H29.0239L27.4525 69.7C27.1668 69.55 27.0239 69.55 27.0239 69.7Z" fill="#4C5C75"/>
    <path d="M26.7382 69.2501L28.3096 68.3501C28.4524 68.2001 28.5953 68.3501 28.881 68.3501L27.3096 69.2501H26.7382Z" fill="#C9CEE2"/>
    <path d="M29.3096 70L27.7381 70.9C27.881 70.9 27.881 70.75 27.881 70.6C27.881 70.3 27.5953 69.85 27.3096 69.7L28.881 68.8C29.1667 68.95 29.4524 69.4 29.4524 69.7C29.4524 69.85 29.3096 70 29.3096 70Z" fill="#4C5C75"/>
    <path d="M27.3096 69.7C27.5953 69.85 27.881 70.3 27.881 70.6C27.881 70.9 27.5953 71.05 27.3096 70.9C27.0238 70.75 26.881 70.3 26.881 70C26.881 69.7 27.0238 69.55 27.3096 69.7Z" fill="#4C5C75"/>
    <path d="M29.4525 70.3L27.8811 71.2C28.0239 71.05 28.1668 70.9 28.1668 70.75C28.1668 70.3 27.8811 69.55 27.4525 69.4L29.0239 68.5C29.4525 68.8 29.7382 69.4 29.7382 69.85C29.7382 70.15 29.5954 70.3 29.4525 70.3Z" fill="#C9CEE2"/>
    <path d="M27.3096 69.4C27.7382 69.6999 28.0239 70.3 28.0239 70.75C28.0239 71.2 27.7382 71.5 27.3096 71.2C26.881 70.9 26.5953 70.3 26.5953 69.85C26.5953 69.4 26.881 69.1 27.3096 69.4ZM27.3096 70.9C27.5953 71.05 27.881 70.9 27.881 70.6C27.881 70.3 27.5953 69.85 27.3096 69.7C27.0239 69.55 26.7382 69.7 26.7382 70C26.881 70.3 27.0239 70.7499 27.3096 70.9ZM26.1667 67.6L27.7382 66.7L30.0239 68.05L28.4525 69.1L26.1667 67.6Z" fill="#9EA9C9"/>
    <path d="M26.1667 61.75L27.7382 60.7V66.7L26.1667 67.6V61.75Z" fill="#9EA9C9"/>
    <path d="M28.4525 63.1L30.0239 62.2V68.05L28.4525 69.1V63.1Z" fill="#4C5C75"/>
    <path d="M26.1667 61.75L27.7382 60.7L30.0239 62.2L28.4525 63.1L26.1667 61.75Z" fill="#4C5C75"/>
    <path d="M25.881 61.3L28.7381 63.1V69.7L25.881 67.9V61.3ZM28.4524 69.1V63.25L26.1667 61.9V67.75L28.4524 69.1Z" fill="#9EA9C9"/>
    <path d="M28.4525 63.1V69.1L26.1667 67.6V61.75L28.4525 63.1Z" fill="#4C5C75"/>
    <path d="M28.7382 62.95L30.3096 62.05V68.5L28.7382 69.55V62.95Z" fill="#B0B8CF"/>
    <path d="M25.881 61.3L27.4524 60.25L30.3096 62.05L28.7381 62.95L25.881 61.3Z" fill="#C9CEE2"/>
    <path d="M28.4524 59.1999C28.4524 59.4999 28.7381 59.9499 29.0238 60.0999C28.5953 60.3999 28.0238 60.6999 27.5953 60.9999L27.4524 61.1499C27.1667 60.9999 26.881 60.5499 26.881 60.2499C26.881 60.0999 26.881 59.9499 27.0238 59.9499L28.5953 59.0499C28.4524 58.8999 28.4524 59.0499 28.4524 59.1999Z" fill="#9EA9C9"/>
    <path d="M28.881 60.0999C29.0239 60.2499 29.1667 60.2499 29.3096 60.0999L27.7381 60.9999H27.3096C27.881 60.8499 28.4524 60.3999 28.881 60.0999Z" fill="#9EA9C9"/>
    <path d="M27.0239 59.7999L28.5954 58.8999H29.0239L27.4525 59.7999H27.0239Z" fill="#4C5C75"/>
    <path d="M26.7382 59.5001L28.3096 58.6001C28.4524 58.4501 28.5953 58.6001 28.881 58.6001L27.3096 59.5001C27.1667 59.3501 26.881 59.3501 26.7382 59.5001Z" fill="#C9CEE2"/>
    <path d="M27.3096 59.8001C27.5953 59.9501 27.881 60.4001 27.881 60.7001C27.881 61.0001 27.5953 61.1501 27.3096 61.0001C27.0239 60.8501 26.7382 60.4001 26.7382 60.1001C26.881 59.8001 27.0239 59.6501 27.3096 59.8001Z" fill="#4C5C75"/>
    <path d="M29.3096 60.0999L27.7381 60.9999C27.881 60.9999 27.881 60.8499 27.881 60.6999C27.881 60.3999 27.5953 59.9499 27.3096 59.7999L28.881 58.8999C29.1667 59.0499 29.4524 59.4999 29.4524 59.7999C29.4524 59.9499 29.4524 60.0999 29.3096 60.0999Z" fill="#4C5C75"/>
    <path d="M29.4525 60.55L27.8811 61.45C28.0239 61.3 28.1668 61.15 28.1668 61C28.1668 60.55 27.8811 59.8 27.4525 59.65L29.0239 58.75C29.4525 59.05 29.7382 59.65 29.7382 60.1C29.7382 60.25 29.5954 60.4 29.4525 60.55Z" fill="#C9CEE2"/>
    <path d="M27.3096 59.5002C27.7382 59.8002 28.0239 60.4002 28.0239 60.8502C28.0239 61.3002 27.7382 61.6002 27.3096 61.3002C26.8811 61.0002 26.5953 60.4002 26.5953 59.9502C26.5953 59.5002 26.8811 59.2002 27.3096 59.5002ZM27.3096 61.1502C27.5953 61.3002 27.8811 61.1502 27.8811 60.8502C27.8811 60.5502 27.5953 60.1002 27.3096 59.9502C27.0239 59.8002 26.7382 59.9502 26.7382 60.2502C26.8811 60.5502 27.0239 60.8502 27.3096 61.1502Z" fill="#9EA9C9"/>
    <path d="M61.5953 25.1501C60.1667 25.1501 59.0238 25.7501 58.1667 26.8001C57.3096 27.8501 56.7381 29.2001 56.7381 30.7001C56.7381 27.7001 54.5953 25.1501 51.881 25.1501C53.1667 25.1501 54.4524 24.5501 55.3096 23.5001C56.1667 22.4501 56.7381 21.1001 56.7381 19.6001C56.7381 21.1001 57.3096 22.6001 58.1667 23.5001C59.0238 24.5501 60.1667 25.1501 61.5953 25.1501Z" fill="white"/>
    <path d="M33.8811 135.3L27.5954 131.55L27.4525 97.05L33.7382 100.95L33.8811 135.3Z" fill="#01BDB1"/>
    <path d="M33.7382 100.95L27.4525 97.05L78.7382 66L85.024 69.9L33.7382 100.95Z" fill="#01D1C3"/>
    <path d="M82.7382 94.8C82.1667 92.55 82.3096 90.3 82.3096 88.05V79.95C82.3096 77.85 83.5953 76.65 85.0239 76.2V69.75L33.7382 100.95V135.45L85.0239 104.4V97.65C84.0239 97.2 83.1667 96.3 82.7382 94.8Z" fill="url(#paint1_linear_931_156)"/>
    <path d="M32.3096 138L25.0239 133.5V106.35L32.3096 110.85C33.1668 117.75 32.8811 127.5 32.3096 138Z" fill="#E3E7F0"/>
    <path d="M27.4525 113.85L20.1667 109.35V107.25C23.0239 108.15 25.4525 109.65 27.4525 111.75V113.85Z" fill="#C9CEE2"/>
    <path d="M27.3096 111.75L20.1667 107.25L26.7382 103.2L34.0239 107.7L27.3096 111.75Z" fill="#E3E7F0"/>
    <path d="M34.0239 107.7L34.1667 136.95L32.3096 138V110.85L27.4524 113.85L27.3096 111.75L34.0239 107.7Z" fill="#9EA9C9"/>
    <path d="M85.0239 98.1L33.881 129.15L33.7382 107.1L85.0239 76.05V98.1Z" fill="#4C5C75"/>
    <path d="M81.0239 89.5499C81.0239 96.1499 76.5953 104.25 71.1667 107.55C68.0239 109.5 65.3096 109.35 63.4524 107.7C62.0239 106.5 61.3096 104.4 61.3096 101.55C61.3096 94.9499 65.7381 86.8499 71.1667 83.5499C73.5953 82.0499 75.7381 81.7499 77.4524 82.4999C79.5953 83.2499 81.0239 85.7999 81.0239 89.5499Z" fill="#59697F"/>
    <path d="M79.5953 88.6499C79.5953 95.2499 75.1667 103.35 69.7381 106.65C67.3096 108.15 65.1667 108.45 63.4524 107.7C62.0239 106.5 61.3096 104.4 61.3096 101.55C61.3096 94.9499 65.7381 86.8499 71.1667 83.5499C73.5953 82.0499 75.7381 81.7499 77.4524 82.4999C78.7381 83.6999 79.5953 85.7999 79.5953 88.6499Z" fill="#1D2943"/>
    <path d="M75.7381 86.6999C76.4524 87.2999 76.881 88.1999 77.0238 89.2499V89.5499C76.3095 89.8499 75.7381 89.9999 75.0238 90.2999C74.881 90.2999 74.7381 90.4499 74.5953 90.4499C74.0238 90.7499 73.4524 91.1999 72.881 91.6499C72.881 92.0999 73.0238 92.0999 73.3096 91.9499C74.5953 91.1999 75.5953 91.3499 76.4524 91.9499C76.881 92.2499 77.0238 92.9999 76.7381 93.8999C76.3096 95.3999 75.7381 96.8999 74.881 98.2499L74.7381 98.3999C74.4524 97.6499 74.3096 97.0499 74.0238 96.4499C73.7381 95.8499 73.3096 95.5499 72.881 94.9499C72.5953 95.3999 72.5953 95.5499 72.7381 95.8499C73.3095 96.8999 73.3096 98.2499 72.881 99.8999C72.7381 100.8 72.1667 101.7 71.4524 102.3C71.0238 102.6 70.7381 102.9 70.3096 103.05C69.5953 103.5 68.881 103.8 68.1667 103.95H67.881C69.0238 102.15 69.881 100.35 70.1667 98.3999L69.881 98.9999C69.1667 100.65 68.1667 102 67.1667 103.05L66.7381 103.5C66.1667 103.8 65.7381 103.8 65.3096 103.5C64.5953 102.9 64.1667 102 63.881 100.95V100.5C64.7381 100.35 65.5953 100.05 66.4524 99.5999C67.0238 99.2999 67.5953 98.8499 68.0238 98.3999C68.0238 98.0999 67.881 97.9499 67.5953 98.0999C66.3096 98.8499 65.3095 98.6999 64.4524 98.0999C64.0238 97.7999 63.881 97.0499 64.1667 96.1499C64.5953 94.6499 65.1667 93.1499 66.0238 91.7999L66.3095 91.4999C66.5953 93.1499 67.1667 94.3499 68.1667 94.9499L68.3096 94.1999C67.7381 93.1499 67.7381 91.7999 68.0238 90.1499C68.3095 89.2499 68.7381 88.3499 69.4524 87.7499C69.881 87.4499 70.1667 87.1499 70.5953 86.9999C71.3095 86.5499 72.0238 86.2499 72.7381 86.0999H72.881C71.7381 87.8999 70.881 89.6999 70.5953 91.6499H70.881C71.0238 91.6499 71.0238 91.4999 71.1667 91.1999C71.881 89.5499 72.881 88.1999 74.0238 87.1499C74.1667 86.9999 74.3096 86.8499 74.4524 86.8499C74.881 86.3999 75.4524 86.3999 75.7381 86.6999ZM70.4524 97.6499C71.5953 96.8999 72.5953 95.0999 72.5953 93.7499C72.5953 92.2499 71.5953 91.6499 70.4524 92.3999C69.3096 93.1499 68.3096 94.9499 68.3096 96.4499C68.1667 97.7999 69.1667 98.3999 70.4524 97.6499Z" fill="white"/>
    <path d="M70.3096 93.7501C70.881 93.4501 71.4525 93.6001 71.4525 94.3501C71.4525 95.1001 71.0239 96.0001 70.3096 96.3001C69.7382 96.6001 69.1667 96.4501 69.1667 95.7001C69.3096 94.9501 69.7382 94.0501 70.3096 93.7501Z" fill="white"/>
    <path d="M57.5953 103.65C57.5953 110.25 53.1667 118.35 47.7381 121.65C44.5953 123.6 41.881 123.45 40.0238 121.8C38.5953 120.6 37.881 118.5 37.881 115.65C37.881 109.05 42.3096 100.95 47.7381 97.65C50.1667 96.15 52.3096 95.85 54.0238 96.6C56.1667 97.5 57.5953 99.9 57.5953 103.65Z" fill="#59697F"/>
    <path d="M56.1667 102.75C56.1667 109.35 51.7381 117.45 46.3096 120.75C43.881 122.25 41.7381 122.55 40.0238 121.8C38.5953 120.6 37.881 118.5 37.881 115.65C37.881 109.05 42.3096 100.95 47.7381 97.65C50.1667 96.15 52.3096 95.85 54.0238 96.6C55.3096 97.8 56.1667 99.9 56.1667 102.75Z" fill="#1D2943"/>
    <path d="M52.3096 100.95C53.0239 101.55 53.4525 102.45 53.5953 103.5V103.8C52.881 104.1 52.3096 104.25 51.5953 104.55C51.4525 104.55 51.3096 104.7 51.1667 104.7C50.5953 105 50.0239 105.45 49.4525 105.9C49.4525 106.35 49.5953 106.35 49.881 106.2C51.1668 105.45 52.1667 105.6 53.0239 106.2C53.4525 106.5 53.5953 107.25 53.3096 108.15C52.881 109.65 52.3096 111.15 51.4525 112.5L51.3096 112.65C51.0239 111.9 50.881 111.3 50.5953 110.7C50.3096 110.1 49.881 109.8 49.4525 109.2C49.1667 109.65 49.1668 109.8 49.3096 110.1C49.881 111.15 49.881 112.5 49.4525 114.15C49.3096 115.05 48.7382 115.95 48.0239 116.55C47.5953 116.85 47.3096 117.15 46.881 117.3C46.1667 117.75 45.4525 118.05 44.7382 118.2H44.4525C45.5953 116.4 46.4525 114.6 46.7382 112.65L46.1667 113.1C45.4525 114.75 44.4525 116.1 43.4525 117.15L43.0239 117.6C42.4525 117.9 42.0239 117.9 41.5953 117.6C40.881 117 40.4525 116.1 40.1667 115.05V114.6C41.0239 114.45 41.881 114.15 42.7382 113.7C43.3096 113.4 43.881 112.95 44.3096 112.5C44.3096 112.2 44.1667 112.05 43.881 112.2C42.5953 112.95 41.5953 112.8 40.7382 112.2C40.3096 111.9 40.1667 111.15 40.4525 110.25C40.881 108.75 41.4525 107.25 42.3096 105.9L42.5953 105.6C42.881 107.25 43.4525 108.45 44.4525 109.05L44.5953 108.3C44.0239 107.25 44.0239 105.9 44.3096 104.25C44.5953 103.35 45.0239 102.45 45.7382 101.85C46.1668 101.55 46.4525 101.25 46.881 101.1C47.5953 100.65 48.3096 100.35 49.0239 100.2H49.1668C48.0239 102 47.1667 103.8 46.881 105.75H47.1668C47.3096 105.75 47.3096 105.6 47.4525 105.3C48.1667 103.65 49.1667 102.3 50.3096 101.25C50.4525 101.1 50.5953 100.95 50.7382 100.95C51.4525 100.5 52.0239 100.5 52.3096 100.95ZM47.0239 111.9C48.1668 111.15 49.1668 109.35 49.1668 108C49.1668 106.5 48.1668 105.9 47.0239 106.65C45.881 107.4 44.881 109.2 44.881 110.7C44.881 112.05 45.7382 112.65 47.0239 111.9Z" fill="white"/>
    <path d="M47.0238 107.85C47.5953 107.55 48.1667 107.7 48.1667 108.45C48.1667 109.2 47.7381 110.1 47.0238 110.4C46.4524 110.7 45.881 110.55 45.881 109.8C45.881 109.2 46.3096 108.3 47.0238 107.85Z" fill="white"/>
    <path d="M31.3096 119.55C31.4524 119.7 31.7381 120 31.7381 120.15C31.7381 120.45 31.5953 120.45 31.3096 120.3L29.4524 119.1C29.3096 118.95 29.0238 118.65 29.0238 118.5C29.0238 118.2 29.1667 118.2 29.4524 118.35L31.3096 119.55ZM31.3096 117.45C31.4524 117.6 31.7381 117.9 31.7381 118.05C31.7381 118.35 31.5953 118.35 31.3096 118.2L29.4524 117C29.3096 116.85 29.0238 116.55 29.0238 116.4C29.0238 116.1 29.1667 116.1 29.4524 116.25L31.3096 117.45ZM31.3096 115.5C31.4524 115.65 31.7381 115.95 31.7381 116.1C31.7381 116.4 31.5953 116.4 31.3096 116.25L29.4524 115.05C29.3096 114.9 29.0238 114.6 29.0238 114.45C29.0238 114.15 29.1667 114.15 29.4524 114.3L31.3096 115.5ZM28.4524 131.1C28.4524 131.4 28.7381 131.85 29.0238 132L27.4524 132.9C27.0238 132.75 26.881 132.3 26.881 132C26.881 131.85 26.881 131.7 27.0238 131.7L28.5953 130.8C28.4524 130.8 28.4524 130.8 28.4524 131.1Z" fill="#9EA9C9"/>
    <path d="M28.881 132C29.0239 132.15 29.1667 132.15 29.3096 132L27.7381 132.9H27.3096C27.7381 132.6 28.4524 132.3 28.881 132Z" fill="#9EA9C9"/>
    <path d="M27.0239 131.7L28.5954 130.8H29.0239L27.4525 131.7C27.1668 131.55 27.0239 131.55 27.0239 131.7Z" fill="#4C5C75"/>
    <path d="M26.7382 131.25L28.3096 130.35C28.4524 130.2 28.5953 130.35 28.881 130.35L27.3096 131.25H26.7382Z" fill="#C9CEE2"/>
    <path d="M29.3096 132L27.7381 132.9C27.881 132.9 27.881 132.75 27.881 132.6C27.881 132.3 27.5953 131.85 27.3096 131.7L28.881 130.8C29.1667 130.95 29.4524 131.4 29.4524 131.7C29.4524 131.85 29.3096 132 29.3096 132Z" fill="#4C5C75"/>
    <path d="M27.3096 131.7C27.5953 131.85 27.881 132.3 27.881 132.6C27.881 132.9 27.5953 133.05 27.3096 132.9C27.0238 132.75 26.881 132.3 26.881 132C26.881 131.7 27.0238 131.55 27.3096 131.7Z" fill="#4C5C75"/>
    <path d="M29.4525 132.3L27.8811 133.2C28.0239 133.05 28.1668 132.9 28.1668 132.75C28.1668 132.3 27.8811 131.55 27.4525 131.4L29.0239 130.5C29.4525 130.8 29.7382 131.4 29.7382 131.85C29.7382 132.15 29.5954 132.3 29.4525 132.3Z" fill="#C9CEE2"/>
    <path d="M27.3096 131.4C27.7382 131.7 28.0239 132.3 28.0239 132.75C28.0239 133.2 27.7382 133.5 27.3096 133.2C26.881 132.9 26.5953 132.3 26.5953 131.85C26.5953 131.4 26.881 131.1 27.3096 131.4ZM27.3096 132.9C27.5953 133.05 27.881 132.9 27.881 132.6C27.881 132.3 27.5953 131.85 27.3096 131.7C27.0239 131.55 26.7382 131.7 26.7382 132C26.881 132.3 27.0239 132.75 27.3096 132.9ZM26.1667 129.6L27.7382 128.7L30.0239 130.05L28.4525 131.1L26.1667 129.6Z" fill="#9EA9C9"/>
    <path d="M26.1667 123.75L27.7382 122.7V128.7L26.1667 129.6V123.75Z" fill="#9EA9C9"/>
    <path d="M28.4525 125.1L30.0239 124.2V130.05L28.4525 131.1V125.1Z" fill="#4C5C75"/>
    <path d="M26.1667 123.75L27.7382 122.7L30.0239 124.2L28.4525 125.1L26.1667 123.75Z" fill="#4C5C75"/>
    <path d="M25.881 123.3L28.7381 125.1V131.7L25.881 129.9V123.3ZM28.4524 131.1V125.25L26.1667 123.9V129.75L28.4524 131.1Z" fill="#9EA9C9"/>
    <path d="M28.4525 125.1V131.1L26.1667 129.6V123.75L28.4525 125.1Z" fill="#4C5C75"/>
    <path d="M28.7382 124.95L30.3096 124.05V130.5L28.7382 131.55V124.95Z" fill="#B0B8CF"/>
    <path d="M25.881 123.3L27.4524 122.25L30.3096 124.05L28.7381 124.95L25.881 123.3Z" fill="#C9CEE2"/>
    <path d="M28.4524 121.2C28.4524 121.5 28.7381 121.95 29.0238 122.1C28.5953 122.4 28.0238 122.7 27.5953 123L27.4524 123.15C27.1667 123 26.881 122.55 26.881 122.25C26.881 122.1 26.881 121.95 27.0238 121.95L28.5953 121.05C28.4524 120.9 28.4524 121.05 28.4524 121.2Z" fill="#9EA9C9"/>
    <path d="M28.881 122.1C29.0239 122.25 29.1667 122.25 29.3096 122.1L27.7381 123H27.3096C27.881 122.85 28.4524 122.4 28.881 122.1Z" fill="#9EA9C9"/>
    <path d="M27.0239 121.8L28.5954 120.9H29.0239L27.4525 121.8H27.0239Z" fill="#4C5C75"/>
    <path d="M26.7382 121.5L28.3096 120.6C28.4524 120.45 28.5953 120.6 28.881 120.6L27.3096 121.5C27.1667 121.35 26.881 121.35 26.7382 121.5Z" fill="#C9CEE2"/>
    <path d="M27.3096 121.8C27.5953 121.95 27.881 122.4 27.881 122.7C27.881 123 27.5953 123.15 27.3096 123C27.0239 122.85 26.7382 122.4 26.7382 122.1C26.881 121.8 27.0239 121.65 27.3096 121.8Z" fill="#4C5C75"/>
    <path d="M29.3096 122.1L27.7381 123C27.881 123 27.881 122.85 27.881 122.7C27.881 122.4 27.5953 121.95 27.3096 121.8L28.881 120.9C29.1667 121.05 29.4524 121.5 29.4524 121.8C29.4524 121.95 29.4524 122.1 29.3096 122.1Z" fill="#4C5C75"/>
    <path d="M29.4525 122.55L27.8811 123.45C28.0239 123.3 28.1668 123.15 28.1668 123C28.1668 122.55 27.8811 121.8 27.4525 121.65L29.0239 120.75C29.4525 121.05 29.7382 121.65 29.7382 122.1C29.7382 122.25 29.5954 122.4 29.4525 122.55Z" fill="#C9CEE2"/>
    <path d="M27.3096 121.5C27.7382 121.8 28.0239 122.4 28.0239 122.85C28.0239 123.3 27.7382 123.6 27.3096 123.3C26.8811 123 26.5953 122.4 26.5953 121.95C26.5953 121.5 26.8811 121.2 27.3096 121.5ZM27.3096 123.15C27.5953 123.3 27.8811 123.15 27.8811 122.85C27.8811 122.55 27.5953 122.1 27.3096 121.95C27.0239 121.8 26.7382 121.95 26.7382 122.25C26.8811 122.55 27.0239 122.85 27.3096 123.15Z" fill="#9EA9C9"/>
    <path d="M61.5953 87.1501C60.1667 87.1501 59.0238 87.7501 58.1667 88.8001C57.3096 89.8501 56.7381 91.2001 56.7381 92.7001C56.7381 89.7001 54.5953 87.1501 51.881 87.1501C53.1667 87.1501 54.4524 86.5501 55.3096 85.5001C56.1667 84.4501 56.7381 83.1001 56.7381 81.6001C56.7381 83.1001 57.3096 84.6001 58.1667 85.5001C59.0238 86.5501 60.1667 87.1501 61.5953 87.1501Z" fill="white"/>
    <path d="M33.8811 197.3L27.5954 193.55L27.4525 159.05L33.7382 162.95L33.8811 197.3Z" fill="#01BDB1"/>
    <path d="M33.7382 162.95L27.4525 159.05L78.7382 128L85.024 131.9L33.7382 162.95Z" fill="#01D1C3"/>
    <path d="M82.7382 156.8C82.1667 154.55 82.3096 152.3 82.3096 150.05V141.95C82.3096 139.85 83.5953 138.65 85.0239 138.2V131.75L33.7382 162.95V197.45L85.0239 166.4V159.65C84.0239 159.2 83.1667 158.3 82.7382 156.8Z" fill="url(#paint2_linear_931_156)"/>
    <path d="M32.3096 200L25.0239 195.5V168.35L32.3096 172.85C33.1668 179.75 32.8811 189.5 32.3096 200Z" fill="#E3E7F0"/>
    <path d="M27.4525 175.85L20.1667 171.35V169.25C23.0239 170.15 25.4525 171.65 27.4525 173.75V175.85Z" fill="#C9CEE2"/>
    <path d="M27.3096 173.75L20.1667 169.25L26.7382 165.2L34.0239 169.7L27.3096 173.75Z" fill="#E3E7F0"/>
    <path d="M34.0239 169.7L34.1667 198.95L32.3096 200V172.85L27.4524 175.85L27.3096 173.75L34.0239 169.7Z" fill="#9EA9C9"/>
    <path d="M85.0239 160.1L33.881 191.15L33.7382 169.1L85.0239 138.05V160.1Z" fill="#4C5C75"/>
    <path d="M81.0239 151.55C81.0239 158.15 76.5953 166.25 71.1667 169.55C68.0239 171.5 65.3096 171.35 63.4524 169.7C62.0239 168.5 61.3096 166.4 61.3096 163.55C61.3096 156.95 65.7381 148.85 71.1667 145.55C73.5953 144.05 75.7381 143.75 77.4524 144.5C79.5953 145.25 81.0239 147.8 81.0239 151.55Z" fill="#59697F"/>
    <path d="M79.5953 150.65C79.5953 157.25 75.1667 165.35 69.7381 168.65C67.3096 170.15 65.1667 170.45 63.4524 169.7C62.0239 168.5 61.3096 166.4 61.3096 163.55C61.3096 156.95 65.7381 148.85 71.1667 145.55C73.5953 144.05 75.7381 143.75 77.4524 144.5C78.7381 145.7 79.5953 147.8 79.5953 150.65Z" fill="#1D2943"/>
    <path d="M75.7381 148.7C76.4524 149.3 76.881 150.2 77.0238 151.25V151.55C76.3095 151.85 75.7381 152 75.0238 152.3C74.881 152.3 74.7381 152.45 74.5953 152.45C74.0238 152.75 73.4524 153.2 72.881 153.65C72.881 154.1 73.0238 154.1 73.3096 153.95C74.5953 153.2 75.5953 153.35 76.4524 153.95C76.881 154.25 77.0238 155 76.7381 155.9C76.3096 157.4 75.7381 158.9 74.881 160.25L74.7381 160.4C74.4524 159.65 74.3096 159.05 74.0238 158.45C73.7381 157.85 73.3096 157.55 72.881 156.95C72.5953 157.4 72.5953 157.55 72.7381 157.85C73.3095 158.9 73.3096 160.25 72.881 161.9C72.7381 162.8 72.1667 163.7 71.4524 164.3C71.0238 164.6 70.7381 164.9 70.3096 165.05C69.5953 165.5 68.881 165.8 68.1667 165.95H67.881C69.0238 164.15 69.881 162.35 70.1667 160.4L69.881 161C69.1667 162.65 68.1667 164 67.1667 165.05L66.7381 165.5C66.1667 165.8 65.7381 165.8 65.3096 165.5C64.5953 164.9 64.1667 164 63.881 162.95V162.5C64.7381 162.35 65.5953 162.05 66.4524 161.6C67.0238 161.3 67.5953 160.85 68.0238 160.4C68.0238 160.1 67.881 159.95 67.5953 160.1C66.3096 160.85 65.3095 160.7 64.4524 160.1C64.0238 159.8 63.881 159.05 64.1667 158.15C64.5953 156.65 65.1667 155.15 66.0238 153.8L66.3095 153.5C66.5953 155.15 67.1667 156.35 68.1667 156.95L68.3096 156.2C67.7381 155.15 67.7381 153.8 68.0238 152.15C68.3095 151.25 68.7381 150.35 69.4524 149.75C69.881 149.45 70.1667 149.15 70.5953 149C71.3095 148.55 72.0238 148.25 72.7381 148.1H72.881C71.7381 149.9 70.881 151.7 70.5953 153.65H70.881C71.0238 153.65 71.0238 153.5 71.1667 153.2C71.881 151.55 72.881 150.2 74.0238 149.15C74.1667 149 74.3096 148.85 74.4524 148.85C74.881 148.4 75.4524 148.4 75.7381 148.7ZM70.4524 159.65C71.5953 158.9 72.5953 157.1 72.5953 155.75C72.5953 154.25 71.5953 153.65 70.4524 154.4C69.3096 155.15 68.3096 156.95 68.3096 158.45C68.1667 159.8 69.1667 160.4 70.4524 159.65Z" fill="white"/>
    <path d="M70.3096 155.75C70.881 155.45 71.4525 155.6 71.4525 156.35C71.4525 157.1 71.0239 158 70.3096 158.3C69.7382 158.6 69.1667 158.45 69.1667 157.7C69.3096 156.95 69.7382 156.05 70.3096 155.75Z" fill="white"/>
    <path d="M57.5953 165.65C57.5953 172.25 53.1667 180.35 47.7381 183.65C44.5953 185.6 41.881 185.45 40.0238 183.8C38.5953 182.6 37.881 180.5 37.881 177.65C37.881 171.05 42.3096 162.95 47.7381 159.65C50.1667 158.15 52.3096 157.85 54.0238 158.6C56.1667 159.5 57.5953 161.9 57.5953 165.65Z" fill="#59697F"/>
    <path d="M56.1667 164.75C56.1667 171.35 51.7381 179.45 46.3096 182.75C43.881 184.25 41.7381 184.55 40.0238 183.8C38.5953 182.6 37.881 180.5 37.881 177.65C37.881 171.05 42.3096 162.95 47.7381 159.65C50.1667 158.15 52.3096 157.85 54.0238 158.6C55.3096 159.8 56.1667 161.9 56.1667 164.75Z" fill="#1D2943"/>
    <path d="M52.3096 162.95C53.0239 163.55 53.4525 164.45 53.5953 165.5V165.8C52.881 166.1 52.3096 166.25 51.5953 166.55C51.4525 166.55 51.3096 166.7 51.1667 166.7C50.5953 167 50.0239 167.45 49.4525 167.9C49.4525 168.35 49.5953 168.35 49.881 168.2C51.1668 167.45 52.1667 167.6 53.0239 168.2C53.4525 168.5 53.5953 169.25 53.3096 170.15C52.881 171.65 52.3096 173.15 51.4525 174.5L51.3096 174.65C51.0239 173.9 50.881 173.3 50.5953 172.7C50.3096 172.1 49.881 171.8 49.4525 171.2C49.1667 171.65 49.1668 171.8 49.3096 172.1C49.881 173.15 49.881 174.5 49.4525 176.15C49.3096 177.05 48.7382 177.95 48.0239 178.55C47.5953 178.85 47.3096 179.15 46.881 179.3C46.1667 179.75 45.4525 180.05 44.7382 180.2H44.4525C45.5953 178.4 46.4525 176.6 46.7382 174.65L46.1667 175.1C45.4525 176.75 44.4525 178.1 43.4525 179.15L43.0239 179.6C42.4525 179.9 42.0239 179.9 41.5953 179.6C40.881 179 40.4525 178.1 40.1667 177.05V176.6C41.0239 176.45 41.881 176.15 42.7382 175.7C43.3096 175.4 43.881 174.95 44.3096 174.5C44.3096 174.2 44.1667 174.05 43.881 174.2C42.5953 174.95 41.5953 174.8 40.7382 174.2C40.3096 173.9 40.1667 173.15 40.4525 172.25C40.881 170.75 41.4525 169.25 42.3096 167.9L42.5953 167.6C42.881 169.25 43.4525 170.45 44.4525 171.05L44.5953 170.3C44.0239 169.25 44.0239 167.9 44.3096 166.25C44.5953 165.35 45.0239 164.45 45.7382 163.85C46.1668 163.55 46.4525 163.25 46.881 163.1C47.5953 162.65 48.3096 162.35 49.0239 162.2H49.1668C48.0239 164 47.1667 165.8 46.881 167.75H47.1668C47.3096 167.75 47.3096 167.6 47.4525 167.3C48.1667 165.65 49.1667 164.3 50.3096 163.25C50.4525 163.1 50.5953 162.95 50.7382 162.95C51.4525 162.5 52.0239 162.5 52.3096 162.95ZM47.0239 173.9C48.1668 173.15 49.1668 171.35 49.1668 170C49.1668 168.5 48.1668 167.9 47.0239 168.65C45.881 169.4 44.881 171.2 44.881 172.7C44.881 174.05 45.7382 174.65 47.0239 173.9Z" fill="white"/>
    <path d="M47.0238 169.85C47.5953 169.55 48.1667 169.7 48.1667 170.45C48.1667 171.2 47.7381 172.1 47.0238 172.4C46.4524 172.7 45.881 172.55 45.881 171.8C45.881 171.2 46.3096 170.3 47.0238 169.85Z" fill="white"/>
    <path d="M31.3096 181.55C31.4524 181.7 31.7381 182 31.7381 182.15C31.7381 182.45 31.5953 182.45 31.3096 182.3L29.4524 181.1C29.3096 180.95 29.0238 180.65 29.0238 180.5C29.0238 180.2 29.1667 180.2 29.4524 180.35L31.3096 181.55ZM31.3096 179.45C31.4524 179.6 31.7381 179.9 31.7381 180.05C31.7381 180.35 31.5953 180.35 31.3096 180.2L29.4524 179C29.3096 178.85 29.0238 178.55 29.0238 178.4C29.0238 178.1 29.1667 178.1 29.4524 178.25L31.3096 179.45ZM31.3096 177.5C31.4524 177.65 31.7381 177.95 31.7381 178.1C31.7381 178.4 31.5953 178.4 31.3096 178.25L29.4524 177.05C29.3096 176.9 29.0238 176.6 29.0238 176.45C29.0238 176.15 29.1667 176.15 29.4524 176.3L31.3096 177.5ZM28.4524 193.1C28.4524 193.4 28.7381 193.85 29.0238 194L27.4524 194.9C27.0238 194.75 26.881 194.3 26.881 194C26.881 193.85 26.881 193.7 27.0238 193.7L28.5953 192.8C28.4524 192.8 28.4524 192.8 28.4524 193.1Z" fill="#9EA9C9"/>
    <path d="M28.881 194C29.0239 194.15 29.1667 194.15 29.3096 194L27.7381 194.9H27.3096C27.7381 194.6 28.4524 194.3 28.881 194Z" fill="#9EA9C9"/>
    <path d="M27.0239 193.7L28.5954 192.8H29.0239L27.4525 193.7C27.1668 193.55 27.0239 193.55 27.0239 193.7Z" fill="#4C5C75"/>
    <path d="M26.7382 193.25L28.3096 192.35C28.4524 192.2 28.5953 192.35 28.881 192.35L27.3096 193.25H26.7382Z" fill="#C9CEE2"/>
    <path d="M29.3096 194L27.7381 194.9C27.881 194.9 27.881 194.75 27.881 194.6C27.881 194.3 27.5953 193.85 27.3096 193.7L28.881 192.8C29.1667 192.95 29.4524 193.4 29.4524 193.7C29.4524 193.85 29.3096 194 29.3096 194Z" fill="#4C5C75"/>
    <path d="M27.3096 193.7C27.5953 193.85 27.881 194.3 27.881 194.6C27.881 194.9 27.5953 195.05 27.3096 194.9C27.0238 194.75 26.881 194.3 26.881 194C26.881 193.7 27.0238 193.55 27.3096 193.7Z" fill="#4C5C75"/>
    <path d="M29.4525 194.3L27.8811 195.2C28.0239 195.05 28.1668 194.9 28.1668 194.75C28.1668 194.3 27.8811 193.55 27.4525 193.4L29.0239 192.5C29.4525 192.8 29.7382 193.4 29.7382 193.85C29.7382 194.15 29.5954 194.3 29.4525 194.3Z" fill="#C9CEE2"/>
    <path d="M27.3096 193.4C27.7382 193.7 28.0239 194.3 28.0239 194.75C28.0239 195.2 27.7382 195.5 27.3096 195.2C26.881 194.9 26.5953 194.3 26.5953 193.85C26.5953 193.4 26.881 193.1 27.3096 193.4ZM27.3096 194.9C27.5953 195.05 27.881 194.9 27.881 194.6C27.881 194.3 27.5953 193.85 27.3096 193.7C27.0239 193.55 26.7382 193.7 26.7382 194C26.881 194.3 27.0239 194.75 27.3096 194.9ZM26.1667 191.6L27.7382 190.7L30.0239 192.05L28.4525 193.1L26.1667 191.6Z" fill="#9EA9C9"/>
    <path d="M26.1667 185.75L27.7382 184.7V190.7L26.1667 191.6V185.75Z" fill="#9EA9C9"/>
    <path d="M28.4525 187.1L30.0239 186.2V192.05L28.4525 193.1V187.1Z" fill="#4C5C75"/>
    <path d="M26.1667 185.75L27.7382 184.7L30.0239 186.2L28.4525 187.1L26.1667 185.75Z" fill="#4C5C75"/>
    <path d="M25.881 185.3L28.7381 187.1V193.7L25.881 191.9V185.3ZM28.4524 193.1V187.25L26.1667 185.9V191.75L28.4524 193.1Z" fill="#9EA9C9"/>
    <path d="M28.4525 187.1V193.1L26.1667 191.6V185.75L28.4525 187.1Z" fill="#4C5C75"/>
    <path d="M28.7382 186.95L30.3096 186.05V192.5L28.7382 193.55V186.95Z" fill="#B0B8CF"/>
    <path d="M25.881 185.3L27.4524 184.25L30.3096 186.05L28.7381 186.95L25.881 185.3Z" fill="#C9CEE2"/>
    <path d="M28.4524 183.2C28.4524 183.5 28.7381 183.95 29.0238 184.1C28.5953 184.4 28.0238 184.7 27.5953 185L27.4524 185.15C27.1667 185 26.881 184.55 26.881 184.25C26.881 184.1 26.881 183.95 27.0238 183.95L28.5953 183.05C28.4524 182.9 28.4524 183.05 28.4524 183.2Z" fill="#9EA9C9"/>
    <path d="M28.881 184.1C29.0239 184.25 29.1667 184.25 29.3096 184.1L27.7381 185H27.3096C27.881 184.85 28.4524 184.4 28.881 184.1Z" fill="#9EA9C9"/>
    <path d="M27.0239 183.8L28.5954 182.9H29.0239L27.4525 183.8H27.0239Z" fill="#4C5C75"/>
    <path d="M26.7382 183.5L28.3096 182.6C28.4524 182.45 28.5953 182.6 28.881 182.6L27.3096 183.5C27.1667 183.35 26.881 183.35 26.7382 183.5Z" fill="#C9CEE2"/>
    <path d="M27.3096 183.8C27.5953 183.95 27.881 184.4 27.881 184.7C27.881 185 27.5953 185.15 27.3096 185C27.0239 184.85 26.7382 184.4 26.7382 184.1C26.881 183.8 27.0239 183.65 27.3096 183.8Z" fill="#4C5C75"/>
    <path d="M29.3096 184.1L27.7381 185C27.881 185 27.881 184.85 27.881 184.7C27.881 184.4 27.5953 183.95 27.3096 183.8L28.881 182.9C29.1667 183.05 29.4524 183.5 29.4524 183.8C29.4524 183.95 29.4524 184.1 29.3096 184.1Z" fill="#4C5C75"/>
    <path d="M29.4525 184.55L27.8811 185.45C28.0239 185.3 28.1668 185.15 28.1668 185C28.1668 184.55 27.8811 183.8 27.4525 183.65L29.0239 182.75C29.4525 183.05 29.7382 183.65 29.7382 184.1C29.7382 184.25 29.5954 184.4 29.4525 184.55Z" fill="#C9CEE2"/>
    <path d="M27.3096 183.5C27.7382 183.8 28.0239 184.4 28.0239 184.85C28.0239 185.3 27.7382 185.6 27.3096 185.3C26.8811 185 26.5953 184.4 26.5953 183.95C26.5953 183.5 26.8811 183.2 27.3096 183.5ZM27.3096 185.15C27.5953 185.3 27.8811 185.15 27.8811 184.85C27.8811 184.55 27.5953 184.1 27.3096 183.95C27.0239 183.8 26.7382 183.95 26.7382 184.25C26.8811 184.55 27.0239 184.85 27.3096 185.15Z" fill="#9EA9C9"/>
    <path d="M61.5953 149.15C60.1667 149.15 59.0238 149.75 58.1667 150.8C57.3096 151.85 56.7381 153.2 56.7381 154.7C56.7381 151.7 54.5953 149.15 51.881 149.15C53.1667 149.15 54.4524 148.55 55.3096 147.5C56.1667 146.45 56.7381 145.1 56.7381 143.6C56.7381 145.1 57.3096 146.6 58.1667 147.5C59.0238 148.55 60.1667 149.15 61.5953 149.15Z" fill="white"/>
    <path d="M7.69963 215H6.81895C6.76686 214.747 6.67572 214.524 6.54551 214.332C6.41767 214.141 6.26142 213.98 6.07676 213.849C5.89447 213.717 5.69205 213.617 5.46952 213.551C5.24698 213.485 5.01497 213.452 4.77349 213.452C4.33315 213.452 3.93424 213.563 3.57676 213.786C3.22165 214.008 2.93874 214.336 2.72804 214.769C2.51971 215.202 2.41554 215.734 2.41554 216.364C2.41554 216.993 2.51971 217.525 2.72804 217.958C2.93874 218.391 3.22165 218.719 3.57676 218.942C3.93424 219.164 4.33315 219.276 4.77349 219.276C5.01497 219.276 5.24698 219.242 5.46952 219.176C5.69205 219.11 5.89447 219.012 6.07676 218.881C6.26142 218.749 6.41767 218.587 6.54551 218.395C6.67572 218.201 6.76686 217.978 6.81895 217.727H7.69963C7.63334 218.099 7.5126 218.432 7.33741 218.725C7.16222 219.019 6.94442 219.268 6.684 219.474C6.42359 219.678 6.13121 219.833 5.80687 219.94C5.4849 220.046 5.14044 220.099 4.77349 220.099C4.15323 220.099 3.60162 219.948 3.11866 219.645C2.63571 219.342 2.25574 218.911 1.97875 218.352C1.70176 217.794 1.56327 217.131 1.56327 216.364C1.56327 215.597 1.70176 214.934 1.97875 214.375C2.25574 213.816 2.63571 213.385 3.11866 213.082C3.60162 212.779 4.15323 212.628 4.77349 212.628C5.14044 212.628 5.4849 212.681 5.80687 212.788C6.13121 212.894 6.42359 213.05 6.684 213.256C6.94442 213.46 7.16222 213.709 7.33741 214.002C7.5126 214.293 7.63334 214.626 7.69963 215ZM13.8955 212.727H14.7762V217.543C14.7762 218.04 14.659 218.484 14.4246 218.874C14.1926 219.263 13.8647 219.569 13.4409 219.794C13.0172 220.017 12.52 220.128 11.9495 220.128C11.3789 220.128 10.8817 220.017 10.458 219.794C10.0342 219.569 9.70513 219.263 9.47076 218.874C9.23875 218.484 9.12275 218.04 9.12275 217.543V212.727H10.0034V217.472C10.0034 217.827 10.0816 218.143 10.2378 218.42C10.3941 218.694 10.6166 218.911 10.9054 219.07C11.1966 219.226 11.5446 219.304 11.9495 219.304C12.3543 219.304 12.7023 219.226 12.9935 219.07C13.2847 218.911 13.5072 218.694 13.6611 218.42C13.8173 218.143 13.8955 217.827 13.8955 217.472V212.727ZM18.7792 220H16.5349V212.727H18.8786C19.5841 212.727 20.1878 212.873 20.6897 213.164C21.1916 213.453 21.5763 213.868 21.8438 214.411C22.1113 214.95 22.2451 215.597 22.2451 216.349C22.2451 217.107 22.1101 217.759 21.8403 218.306C21.5704 218.851 21.1774 219.27 20.6613 219.563C20.1452 219.854 19.5178 220 18.7792 220ZM17.4155 219.219H18.7224C19.3237 219.219 19.822 219.103 20.2174 218.871C20.6127 218.639 20.9075 218.308 21.1016 217.88C21.2957 217.451 21.3928 216.941 21.3928 216.349C21.3928 215.762 21.2969 215.257 21.1052 214.833C20.9134 214.407 20.6269 214.08 20.2458 213.853C19.8646 213.623 19.39 213.509 18.8218 213.509H17.4155V219.219ZM23.6789 220H22.7556L25.426 212.727H26.3351L29.0056 220H28.0823L25.909 213.878H25.8522L23.6789 220ZM24.0198 217.159H27.7414V217.94H24.0198V217.159ZM32.5958 212.386L30.252 221.094H29.485L31.8287 212.386H32.5958ZM39.8392 216.364C39.8392 217.131 39.7007 217.794 39.4237 218.352C39.1467 218.911 38.7667 219.342 38.2838 219.645C37.8008 219.948 37.2492 220.099 36.629 220.099C36.0087 220.099 35.4571 219.948 34.9741 219.645C34.4912 219.342 34.1112 218.911 33.8342 218.352C33.5572 217.794 33.4187 217.131 33.4187 216.364C33.4187 215.597 33.5572 214.934 33.8342 214.375C34.1112 213.816 34.4912 213.385 34.9741 213.082C35.4571 212.779 36.0087 212.628 36.629 212.628C37.2492 212.628 37.8008 212.779 38.2838 213.082C38.7667 213.385 39.1467 213.816 39.4237 214.375C39.7007 214.934 39.8392 215.597 39.8392 216.364ZM38.9869 216.364C38.9869 215.734 38.8816 215.202 38.6709 214.769C38.4625 214.336 38.1796 214.008 37.8221 213.786C37.467 213.563 37.0693 213.452 36.629 213.452C36.1886 213.452 35.7897 213.563 35.4322 213.786C35.0771 214.008 34.7942 214.336 34.5835 214.769C34.3752 215.202 34.271 215.734 34.271 216.364C34.271 216.993 34.3752 217.525 34.5835 217.958C34.7942 218.391 35.0771 218.719 35.4322 218.942C35.7897 219.164 36.1886 219.276 36.629 219.276C37.0693 219.276 37.467 219.164 37.8221 218.942C38.1796 218.719 38.4625 218.391 38.6709 217.958C38.8816 217.525 38.9869 216.993 38.9869 216.364ZM41.2064 222.045V214.545H42.016V215.412H42.1155C42.177 215.317 42.2622 215.196 42.3711 215.05C42.4824 214.901 42.641 214.768 42.847 214.652C43.0553 214.534 43.3371 214.474 43.6922 214.474C44.1515 214.474 44.5563 214.589 44.9067 214.819C45.257 215.049 45.5305 215.374 45.727 215.795C45.9235 216.217 46.0217 216.714 46.0217 217.287C46.0217 217.865 45.9235 218.365 45.727 218.789C45.5305 219.21 45.2582 219.537 44.9102 219.769C44.5622 219.999 44.1609 220.114 43.7064 220.114C43.356 220.114 43.0755 220.056 42.8648 219.94C42.6541 219.821 42.4919 219.687 42.3783 219.538C42.2646 219.387 42.177 219.261 42.1155 219.162H42.0444V222.045H41.2064ZM42.0302 217.273C42.0302 217.685 42.0906 218.048 42.2113 218.363C42.3321 218.675 42.5085 218.92 42.7405 219.098C42.9725 219.273 43.2566 219.361 43.5927 219.361C43.9431 219.361 44.2355 219.268 44.4699 219.084C44.7066 218.897 44.8842 218.646 45.0025 218.331C45.1233 218.014 45.1836 217.661 45.1836 217.273C45.1836 216.889 45.1245 216.544 45.0061 216.236C44.8901 215.926 44.7137 215.681 44.477 215.501C44.2426 215.318 43.9479 215.227 43.5927 215.227C43.2518 215.227 42.9654 215.314 42.7334 215.487C42.5014 215.657 42.3262 215.896 42.2078 216.204C42.0894 216.509 42.0302 216.866 42.0302 217.273ZM49.6723 214.545V215.256H46.8456V214.545H49.6723ZM47.6694 213.239H48.5075V218.438C48.5075 218.674 48.5418 218.852 48.6105 218.97C48.6815 219.086 48.7715 219.164 48.8804 219.205C48.9917 219.242 49.1088 219.261 49.2319 219.261C49.3243 219.261 49.4 219.257 49.4592 219.247C49.5184 219.235 49.5658 219.226 49.6013 219.219L49.7717 219.972C49.7149 219.993 49.6356 220.014 49.5338 220.036C49.432 220.059 49.303 220.071 49.1467 220.071C48.91 220.071 48.678 220.02 48.4507 219.918C48.2258 219.817 48.0388 219.661 47.8896 219.453C47.7428 219.245 47.6694 218.982 47.6694 218.665V213.239ZM50.9329 220V214.545H51.771V220H50.9329ZM51.3591 213.636C51.1957 213.636 51.0549 213.581 50.9365 213.469C50.8205 213.358 50.7625 213.224 50.7625 213.068C50.7625 212.912 50.8205 212.778 50.9365 212.667C51.0549 212.556 51.1957 212.5 51.3591 212.5C51.5224 212.5 51.6621 212.556 51.7781 212.667C51.8965 212.778 51.9557 212.912 51.9557 213.068C51.9557 213.224 51.8965 213.358 51.7781 213.469C51.6621 213.581 51.5224 213.636 51.3591 213.636ZM53.8458 212.727L55.7208 215.753H55.7776L57.6526 212.727H58.6895L56.4026 216.364L58.6895 220H57.6526L55.7776 217.031H55.7208L53.8458 220H52.8088L55.1526 216.364L52.8088 212.727H53.8458ZM62.293 212.386L59.9493 221.094H59.1822L61.526 212.386H62.293ZM63.4001 212.727H64.4512L66.9228 218.764H67.008L69.4796 212.727H70.5308V220H69.7069V214.474H69.6359L67.3632 220H66.5677L64.295 214.474H64.224V220H63.4001V212.727ZM74.4699 220.114C73.9443 220.114 73.4909 219.998 73.1098 219.766C72.731 219.531 72.4386 219.205 72.2327 218.786C72.0291 218.364 71.9273 217.874 71.9273 217.315C71.9273 216.757 72.0291 216.264 72.2327 215.838C72.4386 215.41 72.7251 215.076 73.092 214.837C73.4613 214.595 73.8922 214.474 74.3846 214.474C74.6687 214.474 74.9493 214.522 75.2263 214.616C75.5033 214.711 75.7554 214.865 75.9827 215.078C76.2099 215.289 76.391 215.568 76.526 215.916C76.6609 216.264 76.7284 216.693 76.7284 217.202V217.557H72.5238V216.832H75.8761C75.8761 216.525 75.8146 216.25 75.6915 216.009C75.5707 215.767 75.3979 215.576 75.173 215.437C74.9505 215.297 74.6877 215.227 74.3846 215.227C74.0508 215.227 73.762 215.31 73.5182 215.476C73.2767 215.639 73.0908 215.852 72.9606 216.115C72.8304 216.378 72.7653 216.66 72.7653 216.96V217.443C72.7653 217.855 72.8363 218.204 72.9784 218.491C73.1228 218.775 73.3229 218.991 73.5785 219.141C73.8342 219.287 74.1313 219.361 74.4699 219.361C74.69 219.361 74.8889 219.33 75.0665 219.268C75.2464 219.205 75.4015 219.11 75.5317 218.984C75.6619 218.857 75.7625 218.698 75.8335 218.509L76.6432 218.736C76.5579 219.01 76.4147 219.252 76.2135 219.46C76.0122 219.666 75.7637 219.827 75.4677 219.943C75.1718 220.057 74.8392 220.114 74.4699 220.114ZM80.3754 214.545V215.256H77.5487V214.545H80.3754ZM78.3726 213.239H79.2106V218.438C79.2106 218.674 79.245 218.852 79.3136 218.97C79.3846 219.086 79.4746 219.164 79.5835 219.205C79.6948 219.242 79.812 219.261 79.9351 219.261C80.0274 219.261 80.1032 219.257 80.1623 219.247C80.2215 219.235 80.2689 219.226 80.3044 219.219L80.4748 219.972C80.418 219.993 80.3387 220.014 80.2369 220.036C80.1351 220.059 80.0061 220.071 79.8498 220.071C79.6131 220.071 79.3811 220.02 79.1538 219.918C78.9289 219.817 78.7419 219.661 78.5927 219.453C78.446 219.245 78.3726 218.982 78.3726 218.665V213.239ZM83.2412 220.128C82.8955 220.128 82.5819 220.063 82.3001 219.933C82.0184 219.8 81.7947 219.609 81.629 219.361C81.4632 219.11 81.3804 218.807 81.3804 218.452C81.3804 218.139 81.4419 217.886 81.565 217.692C81.6881 217.495 81.8527 217.341 82.0586 217.23C82.2646 217.119 82.4919 217.036 82.7405 216.982C82.9914 216.925 83.2435 216.88 83.4969 216.847C83.8283 216.804 84.097 216.772 84.303 216.751C84.5113 216.727 84.6628 216.688 84.7575 216.634C84.8546 216.579 84.9031 216.484 84.9031 216.349V216.321C84.9031 215.971 84.8072 215.698 84.6155 215.504C84.4261 215.31 84.1384 215.213 83.7525 215.213C83.3524 215.213 83.0388 215.301 82.8115 215.476C82.5842 215.651 82.4244 215.838 82.3321 216.037L81.5366 215.753C81.6787 215.421 81.8681 215.163 82.1048 214.979C82.3439 214.792 82.6043 214.661 82.8861 214.588C83.1702 214.512 83.4495 214.474 83.7241 214.474C83.8993 214.474 84.1006 214.496 84.3278 214.538C84.5575 214.579 84.7788 214.663 84.9919 214.79C85.2073 214.918 85.3861 215.111 85.5281 215.369C85.6702 215.627 85.7412 215.973 85.7412 216.406V220H84.9031V219.261H84.8605C84.8037 219.38 84.709 219.506 84.5764 219.641C84.4438 219.776 84.2675 219.891 84.0473 219.986C83.8271 220.08 83.5584 220.128 83.2412 220.128ZM83.369 219.375C83.7005 219.375 83.9798 219.31 84.2071 219.18C84.4367 219.049 84.6095 218.881 84.7256 218.675C84.8439 218.469 84.9031 218.253 84.9031 218.026V217.259C84.8676 217.301 84.7895 217.34 84.6687 217.376C84.5504 217.409 84.4131 217.438 84.2568 217.464C84.1029 217.488 83.9526 217.509 83.8058 217.528C83.6614 217.545 83.5442 217.559 83.4542 217.571C83.2364 217.599 83.0328 217.646 82.8435 217.71C82.6564 217.771 82.5049 217.865 82.3889 217.99C82.2753 218.113 82.2185 218.281 82.2185 218.494C82.2185 218.786 82.3262 219.006 82.5416 219.155C82.7594 219.302 83.0352 219.375 83.369 219.375ZM88.1089 212.727V220H87.2708V212.727H88.1089ZM92.57 220V212.727H95.0274C95.5956 212.727 96.062 212.824 96.4265 213.018C96.7911 213.21 97.061 213.474 97.2362 213.81C97.4114 214.147 97.499 214.529 97.499 214.957C97.499 215.386 97.4114 215.766 97.2362 216.097C97.061 216.429 96.7923 216.689 96.4301 216.879C96.0679 217.066 95.6051 217.159 95.0416 217.159H93.053V216.364H95.0132C95.4015 216.364 95.714 216.307 95.9507 216.193C96.1898 216.08 96.3626 215.919 96.4692 215.71C96.5781 215.5 96.6325 215.249 96.6325 214.957C96.6325 214.666 96.5781 214.412 96.4692 214.194C96.3603 213.976 96.1863 213.808 95.9471 213.69C95.708 213.569 95.392 213.509 94.999 213.509H93.4507V220H92.57ZM95.9933 216.733L97.7831 220H96.7604L94.999 216.733H95.9933ZM98.5688 213.509V212.727H104.023V213.509H101.736V220H100.856V213.509H98.5688Z" fill="white"/>
    <defs>
        <linearGradient id="paint0_linear_931_156" x1="33.7382" y1="73.45" x2="97.4731" y2="23.6982" gradientUnits="userSpaceOnUse">
            <stop stop-color="#00D6D9"/>
            <stop offset="1" stop-color="#00C085"/>
        </linearGradient>
        <linearGradient id="paint1_linear_931_156" x1="33.7382" y1="135.45" x2="97.4731" y2="85.6982" gradientUnits="userSpaceOnUse">
            <stop stop-color="#00D6D9"/>
            <stop offset="1" stop-color="#00C085"/>
        </linearGradient>
        <linearGradient id="paint2_linear_931_156" x1="33.7382" y1="197.45" x2="97.4731" y2="147.698" gradientUnits="userSpaceOnUse">
            <stop stop-color="#00D6D9"/>
            <stop offset="1" stop-color="#00C085"/>
        </linearGradient>
    </defs>
</svg>
