<svg width="81" height="204" viewBox="0 0 81 204" fill="none" xmlns="http://www.w3.org/2000/svg">
    <path d="M21.8811 73.3L15.5954 69.55L15.4525 35.05L21.7382 38.95L21.8811 73.3Z" fill="#01BDB1"/>
    <path d="M21.7382 38.95L15.4525 35.05L66.7382 4L73.024 7.9L21.7382 38.95Z" fill="#01D1C3"/>
    <path d="M70.7382 32.8C70.1667 30.55 70.3096 28.3 70.3096 26.05V17.95C70.3096 15.85 71.5953 14.65 73.0239 14.2V7.75L21.7382 38.95V73.45L73.0239 42.4V35.65C72.0239 35.2 71.1667 34.3 70.7382 32.8Z" fill="url(#paint0_linear_931_157)"/>
    <path d="M20.3096 75.9999L13.0239 71.4999V44.3499L20.3096 48.8499C21.1668 55.7499 20.8811 65.4999 20.3096 75.9999Z" fill="#E3E7F0"/>
    <path d="M15.4525 51.85L8.16675 47.35V45.25C11.0239 46.15 13.4525 47.65 15.4525 49.75V51.85Z" fill="#C9CEE2"/>
    <path d="M15.3096 49.75L8.16675 45.25L14.7382 41.2L22.0239 45.7L15.3096 49.75Z" fill="#E3E7F0"/>
    <path d="M22.0239 45.7L22.1667 74.9499L20.3096 75.9999V48.85L15.4524 51.85L15.3096 49.75L22.0239 45.7Z" fill="#9EA9C9"/>
    <path d="M73.0239 36.1L21.881 67.15L21.7382 45.1L73.0239 14.05V36.1Z" fill="#4C5C75"/>
    <path d="M69.0239 27.5499C69.0239 34.1499 64.5953 42.2499 59.1667 45.5499C56.0239 47.4999 53.3096 47.3499 51.4524 45.6999C50.0239 44.4999 49.3096 42.3999 49.3096 39.5499C49.3096 32.9499 53.7381 24.8499 59.1667 21.5499C61.5953 20.0499 63.7381 19.7499 65.4524 20.4999C67.5953 21.2499 69.0239 23.7999 69.0239 27.5499Z" fill="#59697F"/>
    <path d="M67.5953 26.6499C67.5953 33.2499 63.1667 41.3499 57.7381 44.6499C55.3096 46.1499 53.1667 46.4499 51.4524 45.6999C50.0239 44.4999 49.3096 42.3999 49.3096 39.5499C49.3096 32.9499 53.7381 24.8499 59.1667 21.5499C61.5953 20.0499 63.7381 19.7499 65.4524 20.4999C66.7381 21.6999 67.5953 23.7999 67.5953 26.6499Z" fill="#1D2943"/>
    <path d="M63.7381 24.6999C64.4524 25.2999 64.881 26.1999 65.0238 27.2499V27.5499C64.3095 27.8499 63.7381 27.9999 63.0238 28.2999C62.881 28.2999 62.7381 28.4499 62.5953 28.4499C62.0238 28.7499 61.4524 29.1999 60.881 29.6499C60.881 30.0999 61.0238 30.0999 61.3096 29.9499C62.5953 29.1999 63.5953 29.3499 64.4524 29.9499C64.881 30.2499 65.0238 30.9999 64.7381 31.8999C64.3096 33.3999 63.7381 34.8999 62.881 36.2499L62.7381 36.3999C62.4524 35.6499 62.3096 35.0499 62.0238 34.4499C61.7381 33.8499 61.3096 33.5499 60.881 32.9499C60.5953 33.3999 60.5953 33.5499 60.7381 33.8499C61.3095 34.8999 61.3096 36.2499 60.881 37.8999C60.7381 38.7999 60.1667 39.6999 59.4524 40.2999C59.0238 40.5999 58.7381 40.8999 58.3096 41.0499C57.5953 41.4999 56.881 41.7999 56.1667 41.9499H55.881C57.0238 40.1499 57.881 38.3499 58.1667 36.3999L57.881 36.9999C57.1667 38.6499 56.1667 39.9999 55.1667 41.0499L54.7381 41.4999C54.1667 41.7999 53.7381 41.7999 53.3096 41.4999C52.5953 40.8999 52.1667 39.9999 51.881 38.9499V38.4999C52.7381 38.3499 53.5953 38.0499 54.4524 37.5999C55.0238 37.2999 55.5953 36.8499 56.0238 36.3999C56.0238 36.0999 55.881 35.9499 55.5953 36.0999C54.3096 36.8499 53.3095 36.6999 52.4524 36.0999C52.0238 35.7999 51.881 35.0499 52.1667 34.1499C52.5953 32.6499 53.1667 31.1499 54.0238 29.7999L54.3095 29.4999C54.5953 31.1499 55.1667 32.3499 56.1667 32.9499L56.3096 32.1999C55.7381 31.1499 55.7381 29.7999 56.0238 28.1499C56.3095 27.2499 56.7381 26.3499 57.4524 25.7499C57.881 25.4499 58.1667 25.1499 58.5953 24.9999C59.3095 24.5499 60.0238 24.2499 60.7381 24.0999H60.881C59.7381 25.8999 58.881 27.6999 58.5953 29.6499H58.881C59.0238 29.6499 59.0238 29.4999 59.1667 29.1999C59.881 27.5499 60.881 26.1999 62.0238 25.1499C62.1667 24.9999 62.3096 24.8499 62.4524 24.8499C62.881 24.3999 63.4524 24.3999 63.7381 24.6999ZM58.4524 35.6499C59.5953 34.8999 60.5953 33.0999 60.5953 31.7499C60.5953 30.2499 59.5953 29.6499 58.4524 30.3999C57.3096 31.1499 56.3096 32.9499 56.3096 34.4499C56.1667 35.7999 57.1667 36.3999 58.4524 35.6499Z" fill="white"/>
    <path d="M58.3096 31.7501C58.881 31.4501 59.4525 31.6001 59.4525 32.3501C59.4525 33.1001 59.0239 34.0001 58.3096 34.3001C57.7382 34.6001 57.1667 34.4501 57.1667 33.7001C57.3096 32.9501 57.7382 32.0501 58.3096 31.7501Z" fill="white"/>
    <path d="M45.5953 41.65C45.5953 48.25 41.1667 56.35 35.7381 59.65C32.5953 61.6 29.881 61.45 28.0238 59.8C26.5953 58.6 25.881 56.5 25.881 53.65C25.881 47.05 30.3096 38.95 35.7381 35.65C38.1667 34.15 40.3096 33.85 42.0238 34.6C44.1667 35.5 45.5953 37.9 45.5953 41.65Z" fill="#59697F"/>
    <path d="M44.1667 40.75C44.1667 47.35 39.7381 55.45 34.3096 58.75C31.881 60.25 29.7381 60.55 28.0238 59.8C26.5953 58.6 25.881 56.5 25.881 53.65C25.881 47.05 30.3096 38.95 35.7381 35.65C38.1667 34.15 40.3096 33.85 42.0238 34.6C43.3096 35.8 44.1667 37.9 44.1667 40.75Z" fill="#1D2943"/>
    <path d="M40.3096 38.95C41.0239 39.55 41.4525 40.45 41.5953 41.5V41.8C40.881 42.1 40.3096 42.25 39.5953 42.55C39.4525 42.55 39.3096 42.7 39.1667 42.7C38.5953 43 38.0239 43.45 37.4525 43.9C37.4525 44.35 37.5953 44.35 37.881 44.2C39.1668 43.45 40.1667 43.6 41.0239 44.2C41.4525 44.5 41.5953 45.2499 41.3096 46.15C40.881 47.65 40.3096 49.15 39.4525 50.5L39.3096 50.65C39.0239 49.9 38.881 49.3 38.5953 48.7C38.3096 48.1 37.881 47.8 37.4525 47.2C37.1667 47.65 37.1668 47.8 37.3096 48.1C37.881 49.15 37.881 50.5 37.4525 52.15C37.3096 53.0499 36.7382 53.95 36.0239 54.55C35.5953 54.85 35.3096 55.15 34.881 55.3C34.1667 55.75 33.4525 56.05 32.7382 56.2H32.4525C33.5953 54.4 34.4525 52.5999 34.7382 50.65L34.1667 51.1C33.4525 52.75 32.4525 54.0999 31.4525 55.15L31.0239 55.6C30.4525 55.9 30.0239 55.9 29.5953 55.6C28.881 55 28.4525 54.1 28.1667 53.05V52.6C29.0239 52.45 29.881 52.15 30.7382 51.7C31.3096 51.4 31.881 50.95 32.3096 50.5C32.3096 50.2 32.1667 50.05 31.881 50.2C30.5953 50.95 29.5953 50.8 28.7382 50.2C28.3096 49.9 28.1667 49.15 28.4525 48.25C28.881 46.75 29.4525 45.25 30.3096 43.9L30.5953 43.6C30.881 45.25 31.4525 46.45 32.4525 47.05L32.5953 46.3C32.0239 45.25 32.0239 43.9 32.3096 42.25C32.5953 41.35 33.0239 40.45 33.7382 39.85C34.1668 39.55 34.4525 39.25 34.881 39.1C35.5953 38.65 36.3096 38.35 37.0239 38.2H37.1668C36.0239 40 35.1667 41.8 34.881 43.75H35.1668C35.3096 43.75 35.3096 43.6 35.4525 43.3C36.1667 41.65 37.1667 40.3 38.3096 39.25C38.4525 39.1 38.5953 38.95 38.7382 38.95C39.4525 38.5 40.0239 38.5 40.3096 38.95ZM35.0239 49.9C36.1668 49.15 37.1668 47.35 37.1668 46C37.1668 44.5 36.1668 43.9 35.0239 44.65C33.881 45.4 32.881 47.2 32.881 48.7C32.881 50.05 33.7382 50.65 35.0239 49.9Z" fill="white"/>
    <path d="M35.0238 45.8499C35.5953 45.5499 36.1667 45.6999 36.1667 46.4499C36.1667 47.1999 35.7381 48.0999 35.0238 48.3999C34.4524 48.6999 33.881 48.5499 33.881 47.7999C33.881 47.1999 34.3096 46.2999 35.0238 45.8499Z" fill="white"/>
    <path d="M19.3096 57.5502C19.4524 57.7002 19.7381 58.0002 19.7381 58.1502C19.7381 58.4502 19.5953 58.4502 19.3096 58.3002L17.4524 57.1002C17.3096 56.9502 17.0238 56.6502 17.0238 56.5002C17.0238 56.2002 17.1667 56.2002 17.4524 56.3502L19.3096 57.5502ZM19.3096 55.4502C19.4524 55.6002 19.7381 55.9002 19.7381 56.0502C19.7381 56.3502 19.5953 56.3502 19.3096 56.2002L17.4524 55.0002C17.3096 54.8502 17.0238 54.5502 17.0238 54.4002C17.0238 54.1002 17.1667 54.1002 17.4524 54.2502L19.3096 55.4502ZM19.3096 53.5002C19.4524 53.6502 19.7381 53.9502 19.7381 54.1002C19.7381 54.4002 19.5953 54.4002 19.3096 54.2502L17.4524 53.0502C17.3096 52.9002 17.0238 52.6002 17.0238 52.4502C17.0238 52.1502 17.1667 52.1502 17.4524 52.3002L19.3096 53.5002ZM16.4524 69.1002C16.4524 69.4002 16.7381 69.8502 17.0238 70.0002L15.4524 70.9002C15.0238 70.7502 14.881 70.3002 14.881 70.0002C14.881 69.8502 14.881 69.7002 15.0238 69.7002L16.5953 68.8002C16.4524 68.8002 16.4524 68.8002 16.4524 69.1002Z" fill="#9EA9C9"/>
    <path d="M16.881 70C17.0239 70.15 17.1667 70.15 17.3096 70L15.7381 70.9H15.3096C15.7381 70.6 16.4524 70.3 16.881 70Z" fill="#9EA9C9"/>
    <path d="M15.0239 69.7L16.5954 68.8H17.0239L15.4525 69.7C15.1668 69.55 15.0239 69.55 15.0239 69.7Z" fill="#4C5C75"/>
    <path d="M14.7382 69.2501L16.3096 68.3501C16.4524 68.2001 16.5953 68.3501 16.881 68.3501L15.3096 69.2501H14.7382Z" fill="#C9CEE2"/>
    <path d="M17.3096 70L15.7381 70.9C15.881 70.9 15.881 70.75 15.881 70.6C15.881 70.3 15.5953 69.85 15.3096 69.7L16.881 68.8C17.1667 68.95 17.4524 69.4 17.4524 69.7C17.4524 69.85 17.3096 70 17.3096 70Z" fill="#4C5C75"/>
    <path d="M15.3096 69.7C15.5953 69.85 15.881 70.3 15.881 70.6C15.881 70.9 15.5953 71.05 15.3096 70.9C15.0238 70.75 14.881 70.3 14.881 70C14.881 69.7 15.0238 69.55 15.3096 69.7Z" fill="#4C5C75"/>
    <path d="M17.4525 70.3L15.8811 71.2C16.0239 71.05 16.1668 70.9 16.1668 70.75C16.1668 70.3 15.8811 69.55 15.4525 69.4L17.0239 68.5C17.4525 68.8 17.7382 69.4 17.7382 69.85C17.7382 70.15 17.5954 70.3 17.4525 70.3Z" fill="#C9CEE2"/>
    <path d="M15.3096 69.4C15.7382 69.6999 16.0239 70.3 16.0239 70.75C16.0239 71.2 15.7382 71.5 15.3096 71.2C14.881 70.9 14.5953 70.3 14.5953 69.85C14.5953 69.4 14.881 69.1 15.3096 69.4ZM15.3096 70.9C15.5953 71.05 15.881 70.9 15.881 70.6C15.881 70.3 15.5953 69.85 15.3096 69.7C15.0239 69.55 14.7382 69.7 14.7382 70C14.881 70.3 15.0239 70.7499 15.3096 70.9ZM14.1667 67.6L15.7382 66.7L18.0239 68.05L16.4525 69.1L14.1667 67.6Z" fill="#9EA9C9"/>
    <path d="M14.1667 61.75L15.7382 60.7V66.7L14.1667 67.6V61.75Z" fill="#9EA9C9"/>
    <path d="M16.4525 63.1L18.0239 62.2V68.05L16.4525 69.1V63.1Z" fill="#4C5C75"/>
    <path d="M14.1667 61.75L15.7382 60.7L18.0239 62.2L16.4525 63.1L14.1667 61.75Z" fill="#4C5C75"/>
    <path d="M13.881 61.3L16.7381 63.1V69.7L13.881 67.9V61.3ZM16.4524 69.1V63.25L14.1667 61.9V67.75L16.4524 69.1Z" fill="#9EA9C9"/>
    <path d="M16.4525 63.1V69.1L14.1667 67.6V61.75L16.4525 63.1Z" fill="#4C5C75"/>
    <path d="M16.7382 62.95L18.3096 62.05V68.5L16.7382 69.55V62.95Z" fill="#B0B8CF"/>
    <path d="M13.881 61.3L15.4524 60.25L18.3096 62.05L16.7381 62.95L13.881 61.3Z" fill="#C9CEE2"/>
    <path d="M16.4524 59.1999C16.4524 59.4999 16.7381 59.9499 17.0238 60.0999C16.5953 60.3999 16.0238 60.6999 15.5953 60.9999L15.4524 61.1499C15.1667 60.9999 14.881 60.5499 14.881 60.2499C14.881 60.0999 14.881 59.9499 15.0238 59.9499L16.5953 59.0499C16.4524 58.8999 16.4524 59.0499 16.4524 59.1999Z" fill="#9EA9C9"/>
    <path d="M16.881 60.0999C17.0239 60.2499 17.1667 60.2499 17.3096 60.0999L15.7381 60.9999H15.3096C15.881 60.8499 16.4524 60.3999 16.881 60.0999Z" fill="#9EA9C9"/>
    <path d="M15.0239 59.7999L16.5954 58.8999H17.0239L15.4525 59.7999H15.0239Z" fill="#4C5C75"/>
    <path d="M14.7382 59.5001L16.3096 58.6001C16.4524 58.4501 16.5953 58.6001 16.881 58.6001L15.3096 59.5001C15.1667 59.3501 14.881 59.3501 14.7382 59.5001Z" fill="#C9CEE2"/>
    <path d="M15.3096 59.8001C15.5953 59.9501 15.881 60.4001 15.881 60.7001C15.881 61.0001 15.5953 61.1501 15.3096 61.0001C15.0239 60.8501 14.7382 60.4001 14.7382 60.1001C14.881 59.8001 15.0239 59.6501 15.3096 59.8001Z" fill="#4C5C75"/>
    <path d="M17.3096 60.0999L15.7381 60.9999C15.881 60.9999 15.881 60.8499 15.881 60.6999C15.881 60.3999 15.5953 59.9499 15.3096 59.7999L16.881 58.8999C17.1667 59.0499 17.4524 59.4999 17.4524 59.7999C17.4524 59.9499 17.4524 60.0999 17.3096 60.0999Z" fill="#4C5C75"/>
    <path d="M17.4525 60.55L15.8811 61.45C16.0239 61.3 16.1668 61.15 16.1668 61C16.1668 60.55 15.8811 59.8 15.4525 59.65L17.0239 58.75C17.4525 59.05 17.7382 59.65 17.7382 60.1C17.7382 60.25 17.5954 60.4 17.4525 60.55Z" fill="#C9CEE2"/>
    <path d="M15.3096 59.5002C15.7382 59.8002 16.0239 60.4002 16.0239 60.8502C16.0239 61.3002 15.7382 61.6002 15.3096 61.3002C14.8811 61.0002 14.5953 60.4002 14.5953 59.9502C14.5953 59.5002 14.8811 59.2002 15.3096 59.5002ZM15.3096 61.1502C15.5953 61.3002 15.8811 61.1502 15.8811 60.8502C15.8811 60.5502 15.5953 60.1002 15.3096 59.9502C15.0239 59.8002 14.7382 59.9502 14.7382 60.2502C14.8811 60.5502 15.0239 60.8502 15.3096 61.1502Z" fill="#9EA9C9"/>
    <path d="M49.5953 25.1501C48.1667 25.1501 47.0238 25.7501 46.1667 26.8001C45.3096 27.8501 44.7381 29.2001 44.7381 30.7001C44.7381 27.7001 42.5953 25.1501 39.881 25.1501C41.1667 25.1501 42.4524 24.5501 43.3096 23.5001C44.1667 22.4501 44.7381 21.1001 44.7381 19.6001C44.7381 21.1001 45.3096 22.6001 46.1667 23.5001C47.0238 24.5501 48.1667 25.1501 49.5953 25.1501Z" fill="white"/>
    <path d="M21.8811 135.3L15.5954 131.55L15.4525 97.05L21.7382 100.95L21.8811 135.3Z" fill="#01BDB1"/>
    <path d="M21.7382 100.95L15.4525 97.05L66.7382 66L73.024 69.9L21.7382 100.95Z" fill="#01D1C3"/>
    <path d="M70.7382 94.8C70.1667 92.55 70.3096 90.3 70.3096 88.05V79.95C70.3096 77.85 71.5953 76.65 73.0239 76.2V69.75L21.7382 100.95V135.45L73.0239 104.4V97.65C72.0239 97.2 71.1667 96.3 70.7382 94.8Z" fill="url(#paint1_linear_931_157)"/>
    <path d="M20.3096 138L13.0239 133.5V106.35L20.3096 110.85C21.1668 117.75 20.8811 127.5 20.3096 138Z" fill="#E3E7F0"/>
    <path d="M15.4525 113.85L8.16675 109.35V107.25C11.0239 108.15 13.4525 109.65 15.4525 111.75V113.85Z" fill="#C9CEE2"/>
    <path d="M15.3096 111.75L8.16675 107.25L14.7382 103.2L22.0239 107.7L15.3096 111.75Z" fill="#E3E7F0"/>
    <path d="M22.0239 107.7L22.1667 136.95L20.3096 138V110.85L15.4524 113.85L15.3096 111.75L22.0239 107.7Z" fill="#9EA9C9"/>
    <path d="M73.0239 98.1L21.881 129.15L21.7382 107.1L73.0239 76.05V98.1Z" fill="#4C5C75"/>
    <path d="M69.0239 89.5499C69.0239 96.1499 64.5953 104.25 59.1667 107.55C56.0239 109.5 53.3096 109.35 51.4524 107.7C50.0239 106.5 49.3096 104.4 49.3096 101.55C49.3096 94.9499 53.7381 86.8499 59.1667 83.5499C61.5953 82.0499 63.7381 81.7499 65.4524 82.4999C67.5953 83.2499 69.0239 85.7999 69.0239 89.5499Z" fill="#59697F"/>
    <path d="M67.5953 88.6499C67.5953 95.2499 63.1667 103.35 57.7381 106.65C55.3096 108.15 53.1667 108.45 51.4524 107.7C50.0239 106.5 49.3096 104.4 49.3096 101.55C49.3096 94.9499 53.7381 86.8499 59.1667 83.5499C61.5953 82.0499 63.7381 81.7499 65.4524 82.4999C66.7381 83.6999 67.5953 85.7999 67.5953 88.6499Z" fill="#1D2943"/>
    <path d="M63.7381 86.6999C64.4524 87.2999 64.881 88.1999 65.0238 89.2499V89.5499C64.3095 89.8499 63.7381 89.9999 63.0238 90.2999C62.881 90.2999 62.7381 90.4499 62.5953 90.4499C62.0238 90.7499 61.4524 91.1999 60.881 91.6499C60.881 92.0999 61.0238 92.0999 61.3096 91.9499C62.5953 91.1999 63.5953 91.3499 64.4524 91.9499C64.881 92.2499 65.0238 92.9999 64.7381 93.8999C64.3096 95.3999 63.7381 96.8999 62.881 98.2499L62.7381 98.3999C62.4524 97.6499 62.3096 97.0499 62.0238 96.4499C61.7381 95.8499 61.3096 95.5499 60.881 94.9499C60.5953 95.3999 60.5953 95.5499 60.7381 95.8499C61.3095 96.8999 61.3096 98.2499 60.881 99.8999C60.7381 100.8 60.1667 101.7 59.4524 102.3C59.0238 102.6 58.7381 102.9 58.3096 103.05C57.5953 103.5 56.881 103.8 56.1667 103.95H55.881C57.0238 102.15 57.881 100.35 58.1667 98.3999L57.881 98.9999C57.1667 100.65 56.1667 102 55.1667 103.05L54.7381 103.5C54.1667 103.8 53.7381 103.8 53.3096 103.5C52.5953 102.9 52.1667 102 51.881 100.95V100.5C52.7381 100.35 53.5953 100.05 54.4524 99.5999C55.0238 99.2999 55.5953 98.8499 56.0238 98.3999C56.0238 98.0999 55.881 97.9499 55.5953 98.0999C54.3096 98.8499 53.3095 98.6999 52.4524 98.0999C52.0238 97.7999 51.881 97.0499 52.1667 96.1499C52.5953 94.6499 53.1667 93.1499 54.0238 91.7999L54.3095 91.4999C54.5953 93.1499 55.1667 94.3499 56.1667 94.9499L56.3096 94.1999C55.7381 93.1499 55.7381 91.7999 56.0238 90.1499C56.3095 89.2499 56.7381 88.3499 57.4524 87.7499C57.881 87.4499 58.1667 87.1499 58.5953 86.9999C59.3095 86.5499 60.0238 86.2499 60.7381 86.0999H60.881C59.7381 87.8999 58.881 89.6999 58.5953 91.6499H58.881C59.0238 91.6499 59.0238 91.4999 59.1667 91.1999C59.881 89.5499 60.881 88.1999 62.0238 87.1499C62.1667 86.9999 62.3096 86.8499 62.4524 86.8499C62.881 86.3999 63.4524 86.3999 63.7381 86.6999ZM58.4524 97.6499C59.5953 96.8999 60.5953 95.0999 60.5953 93.7499C60.5953 92.2499 59.5953 91.6499 58.4524 92.3999C57.3096 93.1499 56.3096 94.9499 56.3096 96.4499C56.1667 97.7999 57.1667 98.3999 58.4524 97.6499Z" fill="white"/>
    <path d="M58.3096 93.7501C58.881 93.4501 59.4525 93.6001 59.4525 94.3501C59.4525 95.1001 59.0239 96.0001 58.3096 96.3001C57.7382 96.6001 57.1667 96.4501 57.1667 95.7001C57.3096 94.9501 57.7382 94.0501 58.3096 93.7501Z" fill="white"/>
    <path d="M45.5953 103.65C45.5953 110.25 41.1667 118.35 35.7381 121.65C32.5953 123.6 29.881 123.45 28.0238 121.8C26.5953 120.6 25.881 118.5 25.881 115.65C25.881 109.05 30.3096 100.95 35.7381 97.65C38.1667 96.15 40.3096 95.85 42.0238 96.6C44.1667 97.5 45.5953 99.9 45.5953 103.65Z" fill="#59697F"/>
    <path d="M44.1667 102.75C44.1667 109.35 39.7381 117.45 34.3096 120.75C31.881 122.25 29.7381 122.55 28.0238 121.8C26.5953 120.6 25.881 118.5 25.881 115.65C25.881 109.05 30.3096 100.95 35.7381 97.65C38.1667 96.15 40.3096 95.85 42.0238 96.6C43.3096 97.8 44.1667 99.9 44.1667 102.75Z" fill="#1D2943"/>
    <path d="M40.3096 100.95C41.0239 101.55 41.4525 102.45 41.5953 103.5V103.8C40.881 104.1 40.3096 104.25 39.5953 104.55C39.4525 104.55 39.3096 104.7 39.1667 104.7C38.5953 105 38.0239 105.45 37.4525 105.9C37.4525 106.35 37.5953 106.35 37.881 106.2C39.1668 105.45 40.1667 105.6 41.0239 106.2C41.4525 106.5 41.5953 107.25 41.3096 108.15C40.881 109.65 40.3096 111.15 39.4525 112.5L39.3096 112.65C39.0239 111.9 38.881 111.3 38.5953 110.7C38.3096 110.1 37.881 109.8 37.4525 109.2C37.1667 109.65 37.1668 109.8 37.3096 110.1C37.881 111.15 37.881 112.5 37.4525 114.15C37.3096 115.05 36.7382 115.95 36.0239 116.55C35.5953 116.85 35.3096 117.15 34.881 117.3C34.1667 117.75 33.4525 118.05 32.7382 118.2H32.4525C33.5953 116.4 34.4525 114.6 34.7382 112.65L34.1667 113.1C33.4525 114.75 32.4525 116.1 31.4525 117.15L31.0239 117.6C30.4525 117.9 30.0239 117.9 29.5953 117.6C28.881 117 28.4525 116.1 28.1667 115.05V114.6C29.0239 114.45 29.881 114.15 30.7382 113.7C31.3096 113.4 31.881 112.95 32.3096 112.5C32.3096 112.2 32.1667 112.05 31.881 112.2C30.5953 112.95 29.5953 112.8 28.7382 112.2C28.3096 111.9 28.1667 111.15 28.4525 110.25C28.881 108.75 29.4525 107.25 30.3096 105.9L30.5953 105.6C30.881 107.25 31.4525 108.45 32.4525 109.05L32.5953 108.3C32.0239 107.25 32.0239 105.9 32.3096 104.25C32.5953 103.35 33.0239 102.45 33.7382 101.85C34.1668 101.55 34.4525 101.25 34.881 101.1C35.5953 100.65 36.3096 100.35 37.0239 100.2H37.1668C36.0239 102 35.1667 103.8 34.881 105.75H35.1668C35.3096 105.75 35.3096 105.6 35.4525 105.3C36.1667 103.65 37.1667 102.3 38.3096 101.25C38.4525 101.1 38.5953 100.95 38.7382 100.95C39.4525 100.5 40.0239 100.5 40.3096 100.95ZM35.0239 111.9C36.1668 111.15 37.1668 109.35 37.1668 108C37.1668 106.5 36.1668 105.9 35.0239 106.65C33.881 107.4 32.881 109.2 32.881 110.7C32.881 112.05 33.7382 112.65 35.0239 111.9Z" fill="white"/>
    <path d="M35.0238 107.85C35.5953 107.55 36.1667 107.7 36.1667 108.45C36.1667 109.2 35.7381 110.1 35.0238 110.4C34.4524 110.7 33.881 110.55 33.881 109.8C33.881 109.2 34.3096 108.3 35.0238 107.85Z" fill="white"/>
    <path d="M19.3096 119.55C19.4524 119.7 19.7381 120 19.7381 120.15C19.7381 120.45 19.5953 120.45 19.3096 120.3L17.4524 119.1C17.3096 118.95 17.0238 118.65 17.0238 118.5C17.0238 118.2 17.1667 118.2 17.4524 118.35L19.3096 119.55ZM19.3096 117.45C19.4524 117.6 19.7381 117.9 19.7381 118.05C19.7381 118.35 19.5953 118.35 19.3096 118.2L17.4524 117C17.3096 116.85 17.0238 116.55 17.0238 116.4C17.0238 116.1 17.1667 116.1 17.4524 116.25L19.3096 117.45ZM19.3096 115.5C19.4524 115.65 19.7381 115.95 19.7381 116.1C19.7381 116.4 19.5953 116.4 19.3096 116.25L17.4524 115.05C17.3096 114.9 17.0238 114.6 17.0238 114.45C17.0238 114.15 17.1667 114.15 17.4524 114.3L19.3096 115.5ZM16.4524 131.1C16.4524 131.4 16.7381 131.85 17.0238 132L15.4524 132.9C15.0238 132.75 14.881 132.3 14.881 132C14.881 131.85 14.881 131.7 15.0238 131.7L16.5953 130.8C16.4524 130.8 16.4524 130.8 16.4524 131.1Z" fill="#9EA9C9"/>
    <path d="M16.881 132C17.0239 132.15 17.1667 132.15 17.3096 132L15.7381 132.9H15.3096C15.7381 132.6 16.4524 132.3 16.881 132Z" fill="#9EA9C9"/>
    <path d="M15.0239 131.7L16.5954 130.8H17.0239L15.4525 131.7C15.1668 131.55 15.0239 131.55 15.0239 131.7Z" fill="#4C5C75"/>
    <path d="M14.7382 131.25L16.3096 130.35C16.4524 130.2 16.5953 130.35 16.881 130.35L15.3096 131.25H14.7382Z" fill="#C9CEE2"/>
    <path d="M17.3096 132L15.7381 132.9C15.881 132.9 15.881 132.75 15.881 132.6C15.881 132.3 15.5953 131.85 15.3096 131.7L16.881 130.8C17.1667 130.95 17.4524 131.4 17.4524 131.7C17.4524 131.85 17.3096 132 17.3096 132Z" fill="#4C5C75"/>
    <path d="M15.3096 131.7C15.5953 131.85 15.881 132.3 15.881 132.6C15.881 132.9 15.5953 133.05 15.3096 132.9C15.0238 132.75 14.881 132.3 14.881 132C14.881 131.7 15.0238 131.55 15.3096 131.7Z" fill="#4C5C75"/>
    <path d="M17.4525 132.3L15.8811 133.2C16.0239 133.05 16.1668 132.9 16.1668 132.75C16.1668 132.3 15.8811 131.55 15.4525 131.4L17.0239 130.5C17.4525 130.8 17.7382 131.4 17.7382 131.85C17.7382 132.15 17.5954 132.3 17.4525 132.3Z" fill="#C9CEE2"/>
    <path d="M15.3096 131.4C15.7382 131.7 16.0239 132.3 16.0239 132.75C16.0239 133.2 15.7382 133.5 15.3096 133.2C14.881 132.9 14.5953 132.3 14.5953 131.85C14.5953 131.4 14.881 131.1 15.3096 131.4ZM15.3096 132.9C15.5953 133.05 15.881 132.9 15.881 132.6C15.881 132.3 15.5953 131.85 15.3096 131.7C15.0239 131.55 14.7382 131.7 14.7382 132C14.881 132.3 15.0239 132.75 15.3096 132.9ZM14.1667 129.6L15.7382 128.7L18.0239 130.05L16.4525 131.1L14.1667 129.6Z" fill="#9EA9C9"/>
    <path d="M14.1667 123.75L15.7382 122.7V128.7L14.1667 129.6V123.75Z" fill="#9EA9C9"/>
    <path d="M16.4525 125.1L18.0239 124.2V130.05L16.4525 131.1V125.1Z" fill="#4C5C75"/>
    <path d="M14.1667 123.75L15.7382 122.7L18.0239 124.2L16.4525 125.1L14.1667 123.75Z" fill="#4C5C75"/>
    <path d="M13.881 123.3L16.7381 125.1V131.7L13.881 129.9V123.3ZM16.4524 131.1V125.25L14.1667 123.9V129.75L16.4524 131.1Z" fill="#9EA9C9"/>
    <path d="M16.4525 125.1V131.1L14.1667 129.6V123.75L16.4525 125.1Z" fill="#4C5C75"/>
    <path d="M16.7382 124.95L18.3096 124.05V130.5L16.7382 131.55V124.95Z" fill="#B0B8CF"/>
    <path d="M13.881 123.3L15.4524 122.25L18.3096 124.05L16.7381 124.95L13.881 123.3Z" fill="#C9CEE2"/>
    <path d="M16.4524 121.2C16.4524 121.5 16.7381 121.95 17.0238 122.1C16.5953 122.4 16.0238 122.7 15.5953 123L15.4524 123.15C15.1667 123 14.881 122.55 14.881 122.25C14.881 122.1 14.881 121.95 15.0238 121.95L16.5953 121.05C16.4524 120.9 16.4524 121.05 16.4524 121.2Z" fill="#9EA9C9"/>
    <path d="M16.881 122.1C17.0239 122.25 17.1667 122.25 17.3096 122.1L15.7381 123H15.3096C15.881 122.85 16.4524 122.4 16.881 122.1Z" fill="#9EA9C9"/>
    <path d="M15.0239 121.8L16.5954 120.9H17.0239L15.4525 121.8H15.0239Z" fill="#4C5C75"/>
    <path d="M14.7382 121.5L16.3096 120.6C16.4524 120.45 16.5953 120.6 16.881 120.6L15.3096 121.5C15.1667 121.35 14.881 121.35 14.7382 121.5Z" fill="#C9CEE2"/>
    <path d="M15.3096 121.8C15.5953 121.95 15.881 122.4 15.881 122.7C15.881 123 15.5953 123.15 15.3096 123C15.0239 122.85 14.7382 122.4 14.7382 122.1C14.881 121.8 15.0239 121.65 15.3096 121.8Z" fill="#4C5C75"/>
    <path d="M17.3096 122.1L15.7381 123C15.881 123 15.881 122.85 15.881 122.7C15.881 122.4 15.5953 121.95 15.3096 121.8L16.881 120.9C17.1667 121.05 17.4524 121.5 17.4524 121.8C17.4524 121.95 17.4524 122.1 17.3096 122.1Z" fill="#4C5C75"/>
    <path d="M17.4525 122.55L15.8811 123.45C16.0239 123.3 16.1668 123.15 16.1668 123C16.1668 122.55 15.8811 121.8 15.4525 121.65L17.0239 120.75C17.4525 121.05 17.7382 121.65 17.7382 122.1C17.7382 122.25 17.5954 122.4 17.4525 122.55Z" fill="#C9CEE2"/>
    <path d="M15.3096 121.5C15.7382 121.8 16.0239 122.4 16.0239 122.85C16.0239 123.3 15.7382 123.6 15.3096 123.3C14.8811 123 14.5953 122.4 14.5953 121.95C14.5953 121.5 14.8811 121.2 15.3096 121.5ZM15.3096 123.15C15.5953 123.3 15.8811 123.15 15.8811 122.85C15.8811 122.55 15.5953 122.1 15.3096 121.95C15.0239 121.8 14.7382 121.95 14.7382 122.25C14.8811 122.55 15.0239 122.85 15.3096 123.15Z" fill="#9EA9C9"/>
    <path d="M49.5953 87.1501C48.1667 87.1501 47.0238 87.7501 46.1667 88.8001C45.3096 89.8501 44.7381 91.2001 44.7381 92.7001C44.7381 89.7001 42.5953 87.1501 39.881 87.1501C41.1667 87.1501 42.4524 86.5501 43.3096 85.5001C44.1667 84.4501 44.7381 83.1001 44.7381 81.6001C44.7381 83.1001 45.3096 84.6001 46.1667 85.5001C47.0238 86.5501 48.1667 87.1501 49.5953 87.1501Z" fill="white"/>
    <path d="M21.8811 197.3L15.5954 193.55L15.4525 159.05L21.7382 162.95L21.8811 197.3Z" fill="#01BDB1"/>
    <path d="M21.7382 162.95L15.4525 159.05L66.7382 128L73.024 131.9L21.7382 162.95Z" fill="#01D1C3"/>
    <path d="M70.7382 156.8C70.1667 154.55 70.3096 152.3 70.3096 150.05V141.95C70.3096 139.85 71.5953 138.65 73.0239 138.2V131.75L21.7382 162.95V197.45L73.0239 166.4V159.65C72.0239 159.2 71.1667 158.3 70.7382 156.8Z" fill="url(#paint2_linear_931_157)"/>
    <path d="M20.3096 200L13.0239 195.5V168.35L20.3096 172.85C21.1668 179.75 20.8811 189.5 20.3096 200Z" fill="#E3E7F0"/>
    <path d="M15.4525 175.85L8.16675 171.35V169.25C11.0239 170.15 13.4525 171.65 15.4525 173.75V175.85Z" fill="#C9CEE2"/>
    <path d="M15.3096 173.75L8.16675 169.25L14.7382 165.2L22.0239 169.7L15.3096 173.75Z" fill="#E3E7F0"/>
    <path d="M22.0239 169.7L22.1667 198.95L20.3096 200V172.85L15.4524 175.85L15.3096 173.75L22.0239 169.7Z" fill="#9EA9C9"/>
    <path d="M73.0239 160.1L21.881 191.15L21.7382 169.1L73.0239 138.05V160.1Z" fill="#4C5C75"/>
    <path d="M69.0239 151.55C69.0239 158.15 64.5953 166.25 59.1667 169.55C56.0239 171.5 53.3096 171.35 51.4524 169.7C50.0239 168.5 49.3096 166.4 49.3096 163.55C49.3096 156.95 53.7381 148.85 59.1667 145.55C61.5953 144.05 63.7381 143.75 65.4524 144.5C67.5953 145.25 69.0239 147.8 69.0239 151.55Z" fill="#59697F"/>
    <path d="M67.5953 150.65C67.5953 157.25 63.1667 165.35 57.7381 168.65C55.3096 170.15 53.1667 170.45 51.4524 169.7C50.0239 168.5 49.3096 166.4 49.3096 163.55C49.3096 156.95 53.7381 148.85 59.1667 145.55C61.5953 144.05 63.7381 143.75 65.4524 144.5C66.7381 145.7 67.5953 147.8 67.5953 150.65Z" fill="#1D2943"/>
    <path d="M63.7381 148.7C64.4524 149.3 64.881 150.2 65.0238 151.25V151.55C64.3095 151.85 63.7381 152 63.0238 152.3C62.881 152.3 62.7381 152.45 62.5953 152.45C62.0238 152.75 61.4524 153.2 60.881 153.65C60.881 154.1 61.0238 154.1 61.3096 153.95C62.5953 153.2 63.5953 153.35 64.4524 153.95C64.881 154.25 65.0238 155 64.7381 155.9C64.3096 157.4 63.7381 158.9 62.881 160.25L62.7381 160.4C62.4524 159.65 62.3096 159.05 62.0238 158.45C61.7381 157.85 61.3096 157.55 60.881 156.95C60.5953 157.4 60.5953 157.55 60.7381 157.85C61.3095 158.9 61.3096 160.25 60.881 161.9C60.7381 162.8 60.1667 163.7 59.4524 164.3C59.0238 164.6 58.7381 164.9 58.3096 165.05C57.5953 165.5 56.881 165.8 56.1667 165.95H55.881C57.0238 164.15 57.881 162.35 58.1667 160.4L57.881 161C57.1667 162.65 56.1667 164 55.1667 165.05L54.7381 165.5C54.1667 165.8 53.7381 165.8 53.3096 165.5C52.5953 164.9 52.1667 164 51.881 162.95V162.5C52.7381 162.35 53.5953 162.05 54.4524 161.6C55.0238 161.3 55.5953 160.85 56.0238 160.4C56.0238 160.1 55.881 159.95 55.5953 160.1C54.3096 160.85 53.3095 160.7 52.4524 160.1C52.0238 159.8 51.881 159.05 52.1667 158.15C52.5953 156.65 53.1667 155.15 54.0238 153.8L54.3095 153.5C54.5953 155.15 55.1667 156.35 56.1667 156.95L56.3096 156.2C55.7381 155.15 55.7381 153.8 56.0238 152.15C56.3095 151.25 56.7381 150.35 57.4524 149.75C57.881 149.45 58.1667 149.15 58.5953 149C59.3095 148.55 60.0238 148.25 60.7381 148.1H60.881C59.7381 149.9 58.881 151.7 58.5953 153.65H58.881C59.0238 153.65 59.0238 153.5 59.1667 153.2C59.881 151.55 60.881 150.2 62.0238 149.15C62.1667 149 62.3096 148.85 62.4524 148.85C62.881 148.4 63.4524 148.4 63.7381 148.7ZM58.4524 159.65C59.5953 158.9 60.5953 157.1 60.5953 155.75C60.5953 154.25 59.5953 153.65 58.4524 154.4C57.3096 155.15 56.3096 156.95 56.3096 158.45C56.1667 159.8 57.1667 160.4 58.4524 159.65Z" fill="white"/>
    <path d="M58.3096 155.75C58.881 155.45 59.4525 155.6 59.4525 156.35C59.4525 157.1 59.0239 158 58.3096 158.3C57.7382 158.6 57.1667 158.45 57.1667 157.7C57.3096 156.95 57.7382 156.05 58.3096 155.75Z" fill="white"/>
    <path d="M45.5953 165.65C45.5953 172.25 41.1667 180.35 35.7381 183.65C32.5953 185.6 29.881 185.45 28.0238 183.8C26.5953 182.6 25.881 180.5 25.881 177.65C25.881 171.05 30.3096 162.95 35.7381 159.65C38.1667 158.15 40.3096 157.85 42.0238 158.6C44.1667 159.5 45.5953 161.9 45.5953 165.65Z" fill="#59697F"/>
    <path d="M44.1667 164.75C44.1667 171.35 39.7381 179.45 34.3096 182.75C31.881 184.25 29.7381 184.55 28.0238 183.8C26.5953 182.6 25.881 180.5 25.881 177.65C25.881 171.05 30.3096 162.95 35.7381 159.65C38.1667 158.15 40.3096 157.85 42.0238 158.6C43.3096 159.8 44.1667 161.9 44.1667 164.75Z" fill="#1D2943"/>
    <path d="M40.3096 162.95C41.0239 163.55 41.4525 164.45 41.5953 165.5V165.8C40.881 166.1 40.3096 166.25 39.5953 166.55C39.4525 166.55 39.3096 166.7 39.1667 166.7C38.5953 167 38.0239 167.45 37.4525 167.9C37.4525 168.35 37.5953 168.35 37.881 168.2C39.1668 167.45 40.1667 167.6 41.0239 168.2C41.4525 168.5 41.5953 169.25 41.3096 170.15C40.881 171.65 40.3096 173.15 39.4525 174.5L39.3096 174.65C39.0239 173.9 38.881 173.3 38.5953 172.7C38.3096 172.1 37.881 171.8 37.4525 171.2C37.1667 171.65 37.1668 171.8 37.3096 172.1C37.881 173.15 37.881 174.5 37.4525 176.15C37.3096 177.05 36.7382 177.95 36.0239 178.55C35.5953 178.85 35.3096 179.15 34.881 179.3C34.1667 179.75 33.4525 180.05 32.7382 180.2H32.4525C33.5953 178.4 34.4525 176.6 34.7382 174.65L34.1667 175.1C33.4525 176.75 32.4525 178.1 31.4525 179.15L31.0239 179.6C30.4525 179.9 30.0239 179.9 29.5953 179.6C28.881 179 28.4525 178.1 28.1667 177.05V176.6C29.0239 176.45 29.881 176.15 30.7382 175.7C31.3096 175.4 31.881 174.95 32.3096 174.5C32.3096 174.2 32.1667 174.05 31.881 174.2C30.5953 174.95 29.5953 174.8 28.7382 174.2C28.3096 173.9 28.1667 173.15 28.4525 172.25C28.881 170.75 29.4525 169.25 30.3096 167.9L30.5953 167.6C30.881 169.25 31.4525 170.45 32.4525 171.05L32.5953 170.3C32.0239 169.25 32.0239 167.9 32.3096 166.25C32.5953 165.35 33.0239 164.45 33.7382 163.85C34.1668 163.55 34.4525 163.25 34.881 163.1C35.5953 162.65 36.3096 162.35 37.0239 162.2H37.1668C36.0239 164 35.1667 165.8 34.881 167.75H35.1668C35.3096 167.75 35.3096 167.6 35.4525 167.3C36.1667 165.65 37.1667 164.3 38.3096 163.25C38.4525 163.1 38.5953 162.95 38.7382 162.95C39.4525 162.5 40.0239 162.5 40.3096 162.95ZM35.0239 173.9C36.1668 173.15 37.1668 171.35 37.1668 170C37.1668 168.5 36.1668 167.9 35.0239 168.65C33.881 169.4 32.881 171.2 32.881 172.7C32.881 174.05 33.7382 174.65 35.0239 173.9Z" fill="white"/>
    <path d="M35.0238 169.85C35.5953 169.55 36.1667 169.7 36.1667 170.45C36.1667 171.2 35.7381 172.1 35.0238 172.4C34.4524 172.7 33.881 172.55 33.881 171.8C33.881 171.2 34.3096 170.3 35.0238 169.85Z" fill="white"/>
    <path d="M19.3096 181.55C19.4524 181.7 19.7381 182 19.7381 182.15C19.7381 182.45 19.5953 182.45 19.3096 182.3L17.4524 181.1C17.3096 180.95 17.0238 180.65 17.0238 180.5C17.0238 180.2 17.1667 180.2 17.4524 180.35L19.3096 181.55ZM19.3096 179.45C19.4524 179.6 19.7381 179.9 19.7381 180.05C19.7381 180.35 19.5953 180.35 19.3096 180.2L17.4524 179C17.3096 178.85 17.0238 178.55 17.0238 178.4C17.0238 178.1 17.1667 178.1 17.4524 178.25L19.3096 179.45ZM19.3096 177.5C19.4524 177.65 19.7381 177.95 19.7381 178.1C19.7381 178.4 19.5953 178.4 19.3096 178.25L17.4524 177.05C17.3096 176.9 17.0238 176.6 17.0238 176.45C17.0238 176.15 17.1667 176.15 17.4524 176.3L19.3096 177.5ZM16.4524 193.1C16.4524 193.4 16.7381 193.85 17.0238 194L15.4524 194.9C15.0238 194.75 14.881 194.3 14.881 194C14.881 193.85 14.881 193.7 15.0238 193.7L16.5953 192.8C16.4524 192.8 16.4524 192.8 16.4524 193.1Z" fill="#9EA9C9"/>
    <path d="M16.881 194C17.0239 194.15 17.1667 194.15 17.3096 194L15.7381 194.9H15.3096C15.7381 194.6 16.4524 194.3 16.881 194Z" fill="#9EA9C9"/>
    <path d="M15.0239 193.7L16.5954 192.8H17.0239L15.4525 193.7C15.1668 193.55 15.0239 193.55 15.0239 193.7Z" fill="#4C5C75"/>
    <path d="M14.7382 193.25L16.3096 192.35C16.4524 192.2 16.5953 192.35 16.881 192.35L15.3096 193.25H14.7382Z" fill="#C9CEE2"/>
    <path d="M17.3096 194L15.7381 194.9C15.881 194.9 15.881 194.75 15.881 194.6C15.881 194.3 15.5953 193.85 15.3096 193.7L16.881 192.8C17.1667 192.95 17.4524 193.4 17.4524 193.7C17.4524 193.85 17.3096 194 17.3096 194Z" fill="#4C5C75"/>
    <path d="M15.3096 193.7C15.5953 193.85 15.881 194.3 15.881 194.6C15.881 194.9 15.5953 195.05 15.3096 194.9C15.0238 194.75 14.881 194.3 14.881 194C14.881 193.7 15.0238 193.55 15.3096 193.7Z" fill="#4C5C75"/>
    <path d="M17.4525 194.3L15.8811 195.2C16.0239 195.05 16.1668 194.9 16.1668 194.75C16.1668 194.3 15.8811 193.55 15.4525 193.4L17.0239 192.5C17.4525 192.8 17.7382 193.4 17.7382 193.85C17.7382 194.15 17.5954 194.3 17.4525 194.3Z" fill="#C9CEE2"/>
    <path d="M15.3096 193.4C15.7382 193.7 16.0239 194.3 16.0239 194.75C16.0239 195.2 15.7382 195.5 15.3096 195.2C14.881 194.9 14.5953 194.3 14.5953 193.85C14.5953 193.4 14.881 193.1 15.3096 193.4ZM15.3096 194.9C15.5953 195.05 15.881 194.9 15.881 194.6C15.881 194.3 15.5953 193.85 15.3096 193.7C15.0239 193.55 14.7382 193.7 14.7382 194C14.881 194.3 15.0239 194.75 15.3096 194.9ZM14.1667 191.6L15.7382 190.7L18.0239 192.05L16.4525 193.1L14.1667 191.6Z" fill="#9EA9C9"/>
    <path d="M14.1667 185.75L15.7382 184.7V190.7L14.1667 191.6V185.75Z" fill="#9EA9C9"/>
    <path d="M16.4525 187.1L18.0239 186.2V192.05L16.4525 193.1V187.1Z" fill="#4C5C75"/>
    <path d="M14.1667 185.75L15.7382 184.7L18.0239 186.2L16.4525 187.1L14.1667 185.75Z" fill="#4C5C75"/>
    <path d="M13.881 185.3L16.7381 187.1V193.7L13.881 191.9V185.3ZM16.4524 193.1V187.25L14.1667 185.9V191.75L16.4524 193.1Z" fill="#9EA9C9"/>
    <path d="M16.4525 187.1V193.1L14.1667 191.6V185.75L16.4525 187.1Z" fill="#4C5C75"/>
    <path d="M16.7382 186.95L18.3096 186.05V192.5L16.7382 193.55V186.95Z" fill="#B0B8CF"/>
    <path d="M13.881 185.3L15.4524 184.25L18.3096 186.05L16.7381 186.95L13.881 185.3Z" fill="#C9CEE2"/>
    <path d="M16.4524 183.2C16.4524 183.5 16.7381 183.95 17.0238 184.1C16.5953 184.4 16.0238 184.7 15.5953 185L15.4524 185.15C15.1667 185 14.881 184.55 14.881 184.25C14.881 184.1 14.881 183.95 15.0238 183.95L16.5953 183.05C16.4524 182.9 16.4524 183.05 16.4524 183.2Z" fill="#9EA9C9"/>
    <path d="M16.881 184.1C17.0239 184.25 17.1667 184.25 17.3096 184.1L15.7381 185H15.3096C15.881 184.85 16.4524 184.4 16.881 184.1Z" fill="#9EA9C9"/>
    <path d="M15.0239 183.8L16.5954 182.9H17.0239L15.4525 183.8H15.0239Z" fill="#4C5C75"/>
    <path d="M14.7382 183.5L16.3096 182.6C16.4524 182.45 16.5953 182.6 16.881 182.6L15.3096 183.5C15.1667 183.35 14.881 183.35 14.7382 183.5Z" fill="#C9CEE2"/>
    <path d="M15.3096 183.8C15.5953 183.95 15.881 184.4 15.881 184.7C15.881 185 15.5953 185.15 15.3096 185C15.0239 184.85 14.7382 184.4 14.7382 184.1C14.881 183.8 15.0239 183.65 15.3096 183.8Z" fill="#4C5C75"/>
    <path d="M17.3096 184.1L15.7381 185C15.881 185 15.881 184.85 15.881 184.7C15.881 184.4 15.5953 183.95 15.3096 183.8L16.881 182.9C17.1667 183.05 17.4524 183.5 17.4524 183.8C17.4524 183.95 17.4524 184.1 17.3096 184.1Z" fill="#4C5C75"/>
    <path d="M17.4525 184.55L15.8811 185.45C16.0239 185.3 16.1668 185.15 16.1668 185C16.1668 184.55 15.8811 183.8 15.4525 183.65L17.0239 182.75C17.4525 183.05 17.7382 183.65 17.7382 184.1C17.7382 184.25 17.5954 184.4 17.4525 184.55Z" fill="#C9CEE2"/>
    <path d="M15.3096 183.5C15.7382 183.8 16.0239 184.4 16.0239 184.85C16.0239 185.3 15.7382 185.6 15.3096 185.3C14.8811 185 14.5953 184.4 14.5953 183.95C14.5953 183.5 14.8811 183.2 15.3096 183.5ZM15.3096 185.15C15.5953 185.3 15.8811 185.15 15.8811 184.85C15.8811 184.55 15.5953 184.1 15.3096 183.95C15.0239 183.8 14.7382 183.95 14.7382 184.25C14.8811 184.55 15.0239 184.85 15.3096 185.15Z" fill="#9EA9C9"/>
    <path d="M49.5953 149.15C48.1667 149.15 47.0238 149.75 46.1667 150.8C45.3096 151.85 44.7381 153.2 44.7381 154.7C44.7381 151.7 42.5953 149.15 39.881 149.15C41.1667 149.15 42.4524 148.55 43.3096 147.5C44.1667 146.45 44.7381 145.1 44.7381 143.6C44.7381 145.1 45.3096 146.6 46.1667 147.5C47.0238 148.55 48.1667 149.15 49.5953 149.15Z" fill="white"/>
    <defs>
        <linearGradient id="paint0_linear_931_157" x1="21.7382" y1="73.45" x2="85.4731" y2="23.6982" gradientUnits="userSpaceOnUse">
            <stop stop-color="#00D6D9"/>
            <stop offset="1" stop-color="#00C085"/>
        </linearGradient>
        <linearGradient id="paint1_linear_931_157" x1="21.7382" y1="135.45" x2="85.4731" y2="85.6982" gradientUnits="userSpaceOnUse">
            <stop stop-color="#00D6D9"/>
            <stop offset="1" stop-color="#00C085"/>
        </linearGradient>
        <linearGradient id="paint2_linear_931_157" x1="21.7382" y1="197.45" x2="85.4731" y2="147.698" gradientUnits="userSpaceOnUse">
            <stop stop-color="#00D6D9"/>
            <stop offset="1" stop-color="#00C085"/>
        </linearGradient>
    </defs>
</svg>
