<svg width="56" height="55" viewBox="0 0 56 55" fill="none" xmlns="http://www.w3.org/2000/svg">
<path d="M0.140625 55V44H11.3129V55H0.140625ZM44.8297 55V44H56.0019V55H44.8297ZM11.3129 44V33H22.4852V44H11.3129ZM33.6574 44V33H44.8297V44H33.6574ZM22.4852 33V22H33.6574V33H22.4852ZM11.3129 22V11H22.4852V22H11.3129ZM33.6574 22V11H44.8297V22H33.6574ZM0.140625 11V0H11.3129V11H0.140625ZM44.8297 11V0H56.0019V11H44.8297Z" fill="url(#paint0_linear_1298_3443)"/>
<defs>
<linearGradient id="paint0_linear_1298_3443" x1="28.0713" y1="0" x2="28.0713" y2="55" gradientUnits="userSpaceOnUse">
<stop offset="0.0885417" stop-color="white" stop-opacity="0.3"/>
<stop offset="1" stop-color="white"/>
</linearGradient>
</defs>
</svg>
