<svg width="40" height="40" viewBox="0 0 40 40" fill="none" xmlns="http://www.w3.org/2000/svg">
<path fill-rule="evenodd" clip-rule="evenodd" d="M40 20C40 31.0457 31.0457 40 20 40C8.9543 40 0 31.0457 0 20C0 8.9543 8.9543 0 20 0C31.0457 0 40 8.9543 40 20ZM12.5846 10H28.3054C31.3896 10 33.89 12.6544 33.89 15.9286V24.2714C33.89 27.5456 31.3897 30.2 28.3054 30.2H12.5846C9.50039 30.2 7 27.5457 7 24.2714V15.9286C7 12.6544 9.50029 10 12.5846 10ZM17.1755 24.2287L24.5284 20.5059C24.7496 20.394 24.7535 20.0611 24.5345 19.9435L17.1816 15.9879C16.9854 15.8822 16.753 16.0337 16.753 16.2675V23.9461C16.753 24.1765 16.9794 24.328 17.1755 24.2287Z" fill="white"/>
</svg>
