<svg width="148" height="22" viewBox="0 0 148 22" fill="none" xmlns="http://www.w3.org/2000/svg">
<path fill-rule="evenodd" clip-rule="evenodd" d="M12.4621 5.10579L12.4583 0.70608C12.2115 0.70608 11.9834 0.704365 11.7553 0.70265C11.299 0.699219 10.8425 0.695787 10.2353 0.70608H7.8269H6.27545H4.26082C3.78906 0.695824 3.31049 0.699195 2.8251 0.702613C2.57984 0.70434 2.33283 0.70608 2.08409 0.70608C1.71861 0.698304 1.36097 0.702278 1.01117 0.706166C0.666508 0.709996 0.329453 0.713741 0 0.70608V1.09974C0.478571 1.11518 0.833635 1.17693 1.0652 1.28499C1.31221 1.37762 1.47429 1.56287 1.55148 1.84075C1.64411 2.10319 1.69042 2.52 1.69042 3.09119V14.5768C1.69042 15.1325 1.64411 15.5494 1.55148 15.8272C1.47429 16.1051 1.31221 16.2904 1.0652 16.383C0.833635 16.4756 0.478571 16.5374 0 16.5682V16.9619C0.282033 16.9543 0.575354 16.958 0.879966 16.9618H0.880145H0.880178H0.880212H0.880245H0.88028H0.880314H0.880349H0.880384C1.19257 16.9657 1.51661 16.9697 1.85252 16.9619C2.30433 16.9516 2.75956 16.955 3.2182 16.9585H3.21827H3.21834H3.21841H3.21848H3.21855H3.21862H3.2187H3.21877C3.44947 16.9602 3.68104 16.9619 3.91347 16.9619C4.2111 16.9619 4.50433 16.9601 4.79313 16.9584H4.79317H4.79321H4.79325H4.79328H4.79332H4.79335H4.79339H4.79342H4.79351H4.79359H4.79368H4.79376H4.79384H4.79393H4.79401H4.79409C5.35879 16.955 5.90661 16.9517 6.43755 16.9619C6.85363 16.9699 7.2303 16.9655 7.56758 16.9615H7.5677H7.56782H7.56793H7.56804H7.56814H7.56824H7.56834C7.88148 16.9578 8.16065 16.9545 8.40585 16.9619V16.5219C7.71115 16.5065 7.17856 16.4525 6.80805 16.3598C6.43755 16.2672 6.19054 16.0742 6.06704 15.7809C5.94353 15.4722 5.88179 15.009 5.88179 14.3915V9.06556H6.39124C7.00875 9.06556 7.51815 9.20449 7.91953 9.48237C8.33635 9.76025 8.6683 10.1308 8.91531 10.5939C9.16231 11.057 9.33219 11.5665 9.42481 12.1222H9.79532V10.1076V8.83399C9.79532 8.70943 9.79693 8.58085 9.79859 8.44824L9.79859 8.44805C9.80207 8.16986 9.80578 7.87397 9.79532 7.56039V5.54577H9.35535C9.2936 5.86996 9.18547 6.20959 9.03109 6.56466C8.87672 6.91972 8.67602 7.25163 8.42902 7.56039C8.19745 7.86914 7.91184 8.12386 7.57221 8.32455C7.23258 8.5098 6.83894 8.60243 6.39124 8.60243H5.88179V2.72069C5.88179 2.25756 5.91266 1.91793 5.97441 1.70181C6.0516 1.48568 6.19826 1.34674 6.41439 1.28499C6.64596 1.2078 6.97015 1.16921 7.38697 1.16921H7.91953C8.55248 1.16921 9.13149 1.31587 9.65638 1.60918C10.1967 1.9025 10.6675 2.41194 11.0689 3.13751C11.4239 3.74223 11.7116 4.53727 11.9322 5.52262H12.4562C12.9811 5.52262 13.3439 5.69243 13.5445 6.03206C13.7452 6.35625 13.8456 6.86569 13.8456 7.56039V13.4421C13.8456 14.214 13.8996 14.8392 14.0077 15.3178C14.1157 15.7809 14.2933 16.1514 14.5403 16.4293C14.7564 16.7072 15.0651 16.931 15.4665 17.1008C15.8833 17.2707 16.4314 17.3556 17.1106 17.3556C17.9288 17.3556 18.6543 17.2089 19.2872 16.9156C19.9356 16.6068 20.445 16.1051 20.8155 15.4104V16.9619H22.529C22.936 16.9314 23.3631 16.9411 23.8104 16.9513C24.0417 16.9565 24.2784 16.9619 24.5205 16.9619H25.9562V16.5451C25.4468 16.5451 25.084 16.383 24.8678 16.0588C24.6672 15.7192 24.5668 15.202 24.5668 14.5073V4.80154C24.5668 4.80154 20.0138 5.1058 19.4261 5.1058V5.52262C19.951 5.52262 20.3137 5.69243 20.5144 6.03206C20.7151 6.35625 20.8155 6.86569 20.8155 7.56039V14.0673C20.8155 14.4842 20.7229 14.8624 20.5376 15.202C20.3523 15.5262 20.1131 15.7809 19.8198 15.9662C19.5265 16.1514 19.2024 16.2441 18.8473 16.2441C18.5385 16.2441 18.2916 16.1746 18.1063 16.0356C17.9211 15.8967 17.7899 15.7037 17.7127 15.4567C17.6355 15.2097 17.5969 14.9087 17.5969 14.5536V4.80154C17.5969 4.80154 13.0446 5.10369 12.4621 5.10579ZM31.3358 1.83751V5.03634L34.1745 5.1058C36.2586 5.1058 39.3154 4.80154 39.3154 4.80154V14.5536C39.3154 14.9087 39.354 15.2097 39.4312 15.4567C39.5084 15.7037 39.6396 15.8967 39.8248 16.0356C40.0101 16.1746 40.257 16.2441 40.5658 16.2441C40.9209 16.2441 41.2451 16.1514 41.5384 15.9662C41.8317 15.7809 42.071 15.5262 42.2562 15.202C42.4415 14.8624 42.5341 14.4842 42.5341 14.0673V7.56039C42.5341 6.86569 42.4338 6.35625 42.2331 6.03206C42.0324 5.69243 41.6696 5.52262 41.1447 5.52262V5.1058C41.5384 5.1058 46.2855 4.80154 46.2855 4.80154V14.5073C46.2855 15.202 46.3858 15.7192 46.5865 16.0588C46.7942 16.3702 47.1372 16.5321 47.6155 16.5443H48.502C49.0115 16.5443 49.3666 16.4286 49.5672 16.197C49.7834 15.9654 49.8915 15.5254 49.8915 14.8771V7.55963C49.8915 6.86494 49.7911 6.35549 49.5904 6.0313C49.3897 5.69168 49.0269 5.52187 48.502 5.52187V5.10505C49.096 5.10505 53.6429 4.80078 53.6429 4.80078V6.67969V8.11539V14.6455C53.6429 15.3865 53.8049 15.8882 54.1291 16.1507C54.4687 16.4131 55.0014 16.5443 55.7269 16.5443V16.938H48.502H47.6749V16.9387L42.5341 17.243V15.4104C42.1636 16.1051 41.6542 16.6068 41.0058 16.9156C40.3728 17.2089 39.6472 17.3556 38.829 17.3556C38.1497 17.3556 37.6016 17.2707 37.1848 17.1008C36.7834 16.931 36.4747 16.7072 36.2586 16.4293C36.0116 16.1514 35.834 15.7809 35.726 15.3178C35.6179 14.8392 35.5639 14.214 35.5639 13.4421V7.56039C35.5639 6.86569 35.4635 6.35625 35.2628 6.03206C35.0621 5.69243 34.6994 5.49946 34.1745 5.49946H31.3358V14.9704C31.3358 15.3564 31.4053 15.6343 31.5442 15.8041C31.6831 15.9585 31.8916 16.0356 32.1694 16.0356C32.401 16.0356 32.6403 15.9585 32.8873 15.8041C33.1497 15.6497 33.389 15.3873 33.6052 15.0168L33.9757 15.2483C33.6823 15.8813 33.2732 16.3907 32.7484 16.7767C32.2389 17.1626 31.5674 17.3556 30.7337 17.3556C30.2243 17.3556 29.7689 17.2861 29.3675 17.1472C28.9816 17.0237 28.6574 16.8307 28.3949 16.5682C28.0553 16.2286 27.8314 15.8118 27.7234 15.3178C27.6308 14.8084 27.5844 14.1523 27.5844 13.3495V5.49946H25.884V5.03634H27.5844V2.14178L31.3358 1.83751ZM64.9452 4.71214C66.3037 4.71214 67.3689 5.11352 68.1408 5.91627C68.9127 6.71903 69.2986 8.03895 69.2986 9.87603H63.0742C63.0556 10.0103 63.0463 10.1493 63.0463 10.2928V10.8486C63.0463 11.9138 63.1853 12.7629 63.4632 13.3958C63.7565 14.0288 64.1193 14.4764 64.5515 14.7389C64.9838 15.0013 65.4315 15.1325 65.8946 15.1325C66.1571 15.1325 66.4504 15.0939 66.7746 15.0168C67.0987 14.9396 67.4384 14.7775 67.7934 14.5305C68.1485 14.2835 68.4881 13.9207 68.8123 13.4421L69.206 13.5811C69.0362 14.1831 68.7429 14.7775 68.326 15.3641C67.9247 15.9353 67.4075 16.4139 66.7746 16.7998C66.1416 17.1703 65.3774 17.3556 64.482 17.3556C63.4632 17.3556 62.5523 17.1472 61.7496 16.7303C60.9468 16.2981 60.3061 15.6266 59.8275 14.7157C59.3643 13.7895 59.1328 12.5853 59.1328 11.1033C59.1328 9.63675 59.3875 8.43261 59.897 7.49092C60.4064 6.54922 61.1012 5.85453 61.9811 5.40684C62.8611 4.94371 63.8491 4.71214 64.9452 4.71214ZM66.1493 9.43606H63.0084C63.0911 7.93126 63.289 6.85835 63.6021 6.21731C63.9263 5.55349 64.32 5.22158 64.7831 5.22158C65.1227 5.22158 65.3929 5.41456 65.5936 5.8005C65.8097 6.18644 65.9641 6.7036 66.0567 7.35198C66.1493 7.98492 66.1802 8.67962 66.1493 9.43606ZM90.1454 1.10056V0.706088C89.9296 0.713529 89.6834 0.710232 89.4067 0.706528C89.1082 0.702531 88.7744 0.69806 88.4051 0.706088C87.9427 0.716364 87.4734 0.712988 86.9974 0.709563C86.7568 0.707832 86.5144 0.706088 86.2703 0.706088H85.3422H84.4372L80.3976 11.1924L75.8749 0.706088C75.5862 0.713686 75.2807 0.710089 74.9584 0.706293C74.6245 0.702361 74.2725 0.698217 73.9026 0.706088C73.4211 0.716332 72.9261 0.713009 72.4175 0.709595C72.1581 0.707854 71.8951 0.706088 71.6286 0.706088C71.5168 0.706088 71.4034 0.707757 71.2883 0.70945C71.0529 0.712912 70.8105 0.716477 70.5612 0.706088C70.3276 0.69593 70.152 0.699124 69.9661 0.702508C69.8689 0.704276 69.7689 0.706097 69.6562 0.706088V1.10056C70.1358 1.11603 70.4993 1.1779 70.7468 1.28619C70.9943 1.379 71.1568 1.56464 71.2341 1.84308C71.3115 2.10606 71.3501 2.52373 71.3501 3.0961V13.2594C71.3501 14.0639 71.3115 14.6981 71.2341 15.1622C71.1568 15.6108 70.9943 15.9434 70.7468 16.1599C70.5148 16.361 70.1513 16.508 69.6562 16.6008V16.9953C69.8166 16.9752 69.9996 16.9812 70.2054 16.9878C70.3173 16.9915 70.4359 16.9953 70.5612 16.9953C70.8105 16.9849 71.0529 16.9885 71.2883 16.9919C71.4034 16.9936 71.5168 16.9953 71.6286 16.9953C71.7705 16.9953 71.9149 16.9936 72.0617 16.9919C72.3632 16.9885 72.6752 16.9849 72.9976 16.9953H74.181V16.6008C73.4849 16.508 72.9744 16.3533 72.6496 16.1367C72.3247 15.9202 72.1159 15.5644 72.0231 15.0694C71.9302 14.5589 71.8838 13.8318 71.8838 12.8882V2.14474L78.2881 16.9953H78.6594L84.2516 2.63461V14.6053C84.2516 15.1622 84.2052 15.5798 84.1123 15.8583C84.0195 16.1367 83.8339 16.3224 83.5554 16.4152C83.2925 16.508 82.898 16.5699 82.372 16.6008V16.9953H84.0427C84.5021 16.9851 84.9816 16.9883 85.4814 16.9917C85.739 16.9935 86.002 16.9953 86.2703 16.9953C86.5135 16.9953 86.7551 16.9935 86.9948 16.9918H86.9951H86.9954H86.9958H86.9961H86.9964H86.9967H86.997H86.9974C87.4734 16.9884 87.9427 16.985 88.4051 16.9953C88.659 16.9953 88.8962 16.9913 89.1167 16.9877H89.1168C89.514 16.9811 89.8569 16.9754 90.1454 16.9953V16.6008C89.6813 16.5699 89.3255 16.508 89.078 16.4152C88.846 16.3224 88.6835 16.1367 88.5907 15.8583C88.4979 15.5798 88.4515 15.1622 88.4515 14.6053V3.0961C88.4515 2.52373 88.4902 2.10606 88.5675 1.84308C88.6603 1.56464 88.8305 1.379 89.078 1.28619C89.3255 1.1779 89.6813 1.11603 90.1454 1.10056ZM98.9907 5.34689C98.1245 4.92922 97.1112 4.72038 95.951 4.72038C94.8063 4.72038 93.793 4.92922 92.9113 5.34689C92.045 5.74909 91.3643 6.41427 90.8693 7.34243C90.3743 8.27059 90.1268 9.50814 90.1268 11.0551C90.1268 12.602 90.3743 13.8396 90.8693 14.7677C91.3643 15.6959 92.045 16.3688 92.9113 16.7865C93.793 17.1887 94.8063 17.3898 95.951 17.3898C97.1112 17.3898 98.1245 17.1887 98.9907 16.7865C99.8725 16.3688 100.553 15.6959 101.033 14.7677C101.528 13.8396 101.775 12.602 101.775 11.0551C101.775 9.50814 101.528 8.27059 101.033 7.34243C100.553 6.41427 99.8725 5.74909 98.9907 5.34689ZM94.582 6.5767C94.9532 5.64854 95.4096 5.18446 95.951 5.18446C96.5079 5.18446 96.9642 5.64854 97.32 6.5767C97.6758 7.48939 97.8537 8.98218 97.8537 11.0551C97.8537 13.128 97.6758 14.6285 97.32 15.5566C96.9642 16.4693 96.5079 16.9257 95.951 16.9257C95.4096 16.9257 94.9532 16.4693 94.582 15.5566C94.2262 14.6285 94.0483 13.128 94.0483 11.0551C94.0483 8.98218 94.2262 7.48939 94.582 6.5767ZM110.947 4.72038C111.627 4.72038 112.169 4.80546 112.571 4.97562C112.988 5.14579 113.306 5.36235 113.522 5.62533C113.77 5.91925 113.948 6.29825 114.056 6.76233C114.18 7.22641 114.241 7.85292 114.241 8.64185V14.9069C114.241 15.5566 114.342 15.9975 114.543 16.2296C114.76 16.4616 115.123 16.5776 115.634 16.5776V16.9721H109.322V16.5776C109.755 16.5776 110.057 16.4616 110.227 16.2296C110.397 15.9975 110.482 15.5566 110.482 14.9069V7.52806C110.482 7.17227 110.444 6.87062 110.366 6.62311C110.289 6.36013 110.158 6.16676 109.972 6.04301C109.786 5.90378 109.523 5.83417 109.183 5.83417C108.827 5.83417 108.495 5.92699 108.185 6.11262C107.891 6.29825 107.652 6.56123 107.466 6.90155C107.296 7.22641 107.211 7.59767 107.211 8.01535V14.9069C107.211 15.5566 107.296 15.9975 107.466 16.2296C107.636 16.4616 107.938 16.5776 108.371 16.5776V16.9721H102.059V16.5776C102.57 16.5776 102.926 16.4616 103.127 16.2296C103.343 15.9975 103.452 15.5566 103.452 14.9069V7.57447C103.452 6.87835 103.351 6.36786 103.15 6.04301C102.949 5.70268 102.585 5.53252 102.059 5.53252V5.11485C102.671 5.11485 107.211 4.81058 107.211 4.81058V6.66951C107.582 5.95792 108.085 5.45517 108.719 5.16125C109.369 4.86734 110.111 4.72038 110.947 4.72038ZM124.916 5.92699C124.143 5.12258 123.075 4.72038 121.714 4.72038C120.616 4.72038 119.626 4.95242 118.744 5.4165C117.862 5.86511 117.166 6.56123 116.655 7.50486C116.145 8.44849 115.89 9.6551 115.89 11.1247C115.89 12.6097 116.122 13.8163 116.586 14.7445C117.065 15.6572 117.707 16.3301 118.512 16.7633C119.316 17.1809 120.229 17.3898 121.25 17.3898C122.147 17.3898 122.913 17.2041 123.547 16.8329C124.181 16.4461 124.699 15.9666 125.102 15.3942C125.519 14.8064 125.813 14.2108 125.983 13.6075L125.589 13.4683C125.264 13.9478 124.924 14.3114 124.568 14.5589C124.212 14.8064 123.872 14.9688 123.547 15.0462C123.222 15.1235 122.928 15.1622 122.665 15.1622C122.201 15.1622 121.753 15.0307 121.319 14.7677C120.886 14.5047 120.523 14.0561 120.229 13.4219C119.95 12.7876 119.811 11.9368 119.811 10.8694V10.3125C119.811 10.1687 119.82 10.0294 119.839 9.89487H126.076C126.076 8.05402 125.69 6.73139 124.916 5.92699ZM119.773 9.45399H122.921C122.951 8.696 122.921 7.99988 122.828 7.36563C122.735 6.71592 122.58 6.1977 122.364 5.81097C122.163 5.42423 121.892 5.23087 121.551 5.23087C121.087 5.23087 120.693 5.56346 120.368 6.22864C120.054 6.87099 119.856 7.94611 119.773 9.45399ZM138.314 5.02078V5.36884C138.02 5.46166 137.734 5.65502 137.456 5.94894C137.193 6.24286 136.938 6.75334 136.69 7.4804L132.718 18.8865L127.269 6.66826C127.006 6.08043 126.751 5.7169 126.504 5.57767C126.256 5.43845 126.047 5.36884 125.877 5.36884V5.02078H132.653V5.36884C132.359 5.36884 132.08 5.38431 131.817 5.41525C131.554 5.44619 131.369 5.539 131.26 5.6937C131.168 5.83292 131.199 6.08816 131.353 6.45943L134.204 13.2825L135.484 9.56876C135.808 8.62513 135.948 7.85167 135.901 7.24836C135.855 6.64506 135.677 6.18871 135.367 5.87933C135.058 5.56994 134.664 5.39978 134.184 5.36884V5.02078H138.314ZM56.6353 8.59485C57.7661 8.59485 58.6827 7.67819 58.6827 6.54743C58.6827 5.41666 57.7661 4.5 56.6353 4.5C55.5046 4.5 54.5879 5.41666 54.5879 6.54743C54.5879 7.67819 55.5046 8.59485 56.6353 8.59485ZM131.819 19.3599C131.819 20.4907 130.903 21.4074 129.772 21.4074C128.641 21.4074 127.725 20.4907 127.725 19.3599C127.725 18.2292 128.641 17.3125 129.772 17.3125C130.903 17.3125 131.819 18.2292 131.819 19.3599Z" fill="#F4F1F2"/>
<path d="M136 17C136 13.6863 138.686 11 142 11C145.314 11 148 13.6863 148 17L136 17Z" fill="#CD8054"/>
</svg>
