<svg width="320" height="80" viewBox="0 0 320 80" fill="none" xmlns="http://www.w3.org/2000/svg">
    <path d="M319.562 41.5995C321.541 31.3037 316.642 21.8176 308.434 19.805C305.276 19.0299 295.691 19.1831 292.023 19.3439C288.99 19.475 288.734 21.5629 288.746 24.4197L288.748 49.3864C288.733 56.4002 289.7 55.2055 299.655 55.2055C305.64 55.2055 309.473 55.3083 313.514 52.3018C316.435 50.1235 318.645 46.3557 319.562 41.5995ZM295.354 25.2907C299.537 25.2086 305.735 24.6115 308.805 26.6773C314.425 30.4507 314.734 43.8765 308.787 47.9004C305.86 49.8923 299.535 49.3491 295.298 49.2573L295.354 25.2907Z" fill="white"/>
    <path d="M123.908 40.2526C125.289 49.6007 133.265 57.2233 144.414 55.4626C153.561 54.0173 160.324 45.151 158.788 34.1753C157.512 25.0584 149.405 17.3019 138.43 19.0337C129.259 20.4886 122.271 29.1838 123.908 40.2526ZM130.668 39.4533C129.705 32.249 133.423 26.3422 139.242 25.2117C154.171 22.317 156.82 46.6701 143.546 49.2963C136.393 50.7016 131.474 45.4816 130.668 39.4533Z" fill="white"/>
    <path d="M94.8374 34.17C94.0769 29.1232 95.838 22.1459 93.759 20.1892C92.8845 19.363 91.372 19.0787 90.0675 19.6329C87.4676 20.7421 88.2322 24.632 88.2322 27.914V47.5061C88.2322 50.5754 87.518 54.2756 90.5065 55.0735C92.0337 55.4903 93.3879 54.8146 94.0944 53.9346C95.2799 52.4472 94.7008 43.3897 94.773 40.1692L111.237 40.1927C111.265 43.5305 111.255 46.8642 111.245 50.1868C111.234 53.2016 112.131 56.4297 116.013 54.9078C118.505 53.927 117.79 49.7748 117.791 46.6923V27.1071C117.791 24.0937 118.506 20.2948 115.711 19.4817C114.114 19.0165 112.556 19.7157 111.917 20.5233C110.423 22.3972 111.904 30.6996 111.111 34.2203L94.8374 34.17Z" fill="white"/>
    <path d="M238.623 25.286C241.672 25.257 252.959 25.9293 254.663 24.6289C256.338 23.3583 256.037 20.3952 253.916 19.5815C252.653 19.0894 247.747 19.3427 246.025 19.3427C228.74 19.3427 231.97 16.8296 231.97 37.5737C231.97 55.0165 230.315 55.2091 238.395 55.2049C240.894 55.2036 252.8 55.5376 254.248 54.8226C256.232 53.8508 256.118 50.9236 254.343 49.7627C252.566 48.6128 241.702 49.5763 238.535 49.2043L238.599 39.9004C245.609 39.3413 253.546 41.5472 253.381 36.7793C253.273 33.3745 249.457 33.9191 247.379 33.9211C244.448 33.9239 241.48 33.9446 238.534 33.9094L238.623 25.286Z" fill="white"/>
    <path d="M210.535 24.9868C215.438 24.0108 218.076 26.2823 220.93 27.7013C224.019 29.2363 228.053 24.9433 222.388 21.408C216.165 17.5201 206.114 17.9708 201.921 23.0873C199.781 25.6956 198.912 30.0466 200.643 33.7227C204.296 41.5075 215.066 38.3477 218.889 42.8582C222.075 46.6308 217.057 49.4483 213.63 49.7326C211.425 49.9141 209.211 49.5787 207.45 48.765C206.518 48.3239 205.943 47.9988 205.206 47.4763C204.609 47.0394 203.897 46.3824 203.277 46.1518C201.378 45.4216 199.499 46.793 199.23 48.3702C198.261 54.3314 215.428 59.2892 222.742 52.2001C227.862 47.2576 227.93 38.3077 218.561 35.3902C215.18 34.3445 210.505 34.0553 207.727 32.3802C205.672 31.1358 203.924 26.2988 210.535 24.9868Z" fill="white"/>
    <path d="M164.983 42.3994C165.952 57.4942 186.437 59.8229 192.261 47.8962C194.679 42.9447 193.774 31.9801 193.775 25.7683C193.777 24.1028 194.035 21.5877 193.184 20.4213C192.231 19.1292 190.043 18.9443 188.861 19.8726C187.115 21.2316 187.798 27.6298 187.798 30.3285C187.798 38.1581 189.486 46.0851 182.44 48.7162C178.648 50.1214 175.231 48.6817 173.428 46.5972C171.211 44.029 171.382 40.7319 171.383 36.7674C171.383 32.8353 171.378 28.8942 171.383 24.9614C171.386 22.9233 171.717 21.3172 170.364 20.0893C169.192 19.0264 167.227 18.9705 165.979 20.1273C164.191 21.7927 164.931 27.9735 164.931 30.8634C164.931 34.5663 164.752 38.7558 164.983 42.3994Z" fill="white"/>
    <path d="M264.554 33.5716C262.911 35.2378 262.764 38.3347 265.156 38.8372C267.473 39.3079 269.22 37.5113 272.336 38.2408C276.927 39.2982 277.943 45.0863 274.588 48.5573C270.108 53.2314 265.305 47.6745 262.65 47.9886C260.032 48.2964 256.943 54.1058 266.739 55.5429C271.822 56.2752 276.909 54.5993 279.494 52.0463C284.362 47.2404 285.222 34.4323 273.326 32.3824L280.725 24.269C281.992 22.3896 281.277 19.8876 279.129 19.4349L263.712 19.3403C261.087 19.3244 259.079 19.7047 259.363 22.5242C259.761 26.4308 266.387 24.5714 272.313 25.0828L264.554 33.5716Z" fill="white"/>
    <path fill-rule="evenodd" clip-rule="evenodd" d="M0.0421432 41.8214C-0.986208 19.1219 16.9443 1.01559 38.5997 0.0440629C68.4316 -1.29726 88.9814 28.2303 78.0033 55.0641C75.2168 61.8863 71.2519 66.7506 66.0974 70.9702C59.5762 76.317 51.3974 79.4465 42.5076 79.94C36.3157 80.2913 30.2611 79.0715 25.1711 77.018C22.7101 76.0272 20.5056 74.8593 18.4759 73.5617C16.2868 72.1561 14.7535 70.8571 13.0275 69.395C12.9563 69.3347 12.8848 69.2741 12.8129 69.2132C11.1537 67.7978 9.49307 65.768 8.00867 63.8679C3.39347 57.952 0.402929 49.7774 0.0421432 41.8214ZM20.5217 40.1296C20.5165 40.0456 20.5138 39.9599 20.5138 39.8728V18.4732C20.5138 16.6493 22.1031 15.2689 23.8108 16.1958C23.8678 16.2267 23.925 16.2602 23.9822 16.2963C25.0772 16.989 25.0233 18.6639 24.9698 20.3231C24.9583 20.6801 24.9468 21.0365 24.9468 21.3822L24.9626 34.8394C24.9776 34.8305 24.9917 34.8221 25.0051 34.8142C25.1501 34.728 25.2069 34.6942 25.258 34.6534C25.2908 34.6271 25.3213 34.598 25.3714 34.55C25.4093 34.5138 25.4583 34.4668 25.5281 34.4023C27.081 32.9608 28.7791 31.2433 30.4819 29.5211C31.8657 28.1214 33.2527 26.7186 34.5672 25.4584C37.9605 22.2096 38.9116 22.5201 42.9163 24.7929C43.1176 24.9077 43.3353 25.0222 43.5595 25.1402C44.6963 25.7384 45.9982 26.4236 46.1681 27.657C46.1696 27.668 46.1711 27.679 46.1724 27.6901C46.4027 29.5827 44.4908 30.6891 42.6943 29.751C42.1548 29.468 41.5941 29.128 41.0387 28.7911C40.2545 28.3155 39.4807 27.8463 38.7918 27.553C38.728 27.5924 38.6598 27.6398 38.5878 27.6942C38.3479 27.8753 38.0654 28.1338 37.761 28.4317C37.4526 28.7335 37.1217 29.0758 36.7899 29.4191C36.2626 29.9646 35.7329 30.5125 35.2873 30.9045C35.1136 31.0553 34.9022 31.2708 34.6888 31.4884L34.6888 31.4885C34.5215 31.659 34.353 31.8309 34.2004 31.9738C34.0108 32.1484 33.8564 32.3199 33.6969 32.497C33.5145 32.6997 33.3254 32.9097 33.0693 33.1402L31.9607 34.1903L27.0727 39.0029L25.2199 40.8276C25.0972 40.9527 24.9805 41.0838 24.8647 41.215C24.8554 41.2256 24.846 41.2361 24.8367 41.2467L24.8367 41.2467C24.7134 41.3865 24.5906 41.5257 24.4621 41.6571C23.9769 42.1538 23.4114 42.5401 22.4348 42.4261C21.3066 42.2826 20.653 41.4547 20.5338 40.2778C20.5288 40.229 20.5248 40.1796 20.5217 40.1296ZM31.9763 45.9926C31.3685 47.4764 31.7346 49.3591 31.7155 54.8485L31.687 61.2145C30.7016 60.7552 29.6254 60.128 28.6257 59.5453L28.6256 59.5453L28.3326 59.3746C27.5849 58.9514 26.9968 58.6596 26.5352 58.4306C25.786 58.0588 25.3701 57.8524 25.146 57.5177C24.8664 57.1002 24.8851 56.483 24.9271 55.0959C24.9488 54.3795 24.9768 53.4578 24.9731 52.2523C24.9713 51.676 24.9682 51.1025 24.9651 50.5296L24.9651 50.5273L24.9651 50.5263C24.9602 49.6227 24.9553 48.7208 24.9558 47.8126C24.9558 46.4568 24.8586 45.4572 24.0235 44.8536C23.9325 44.7874 23.8328 44.726 23.7235 44.6692C22.4056 43.9801 21.1035 44.8189 20.7209 45.7141C20.3869 46.4895 20.4561 52.1979 20.4941 55.3366C20.5028 56.0527 20.5099 56.6351 20.5101 56.9946C20.5101 59.4934 21.4882 60.5672 23.1857 61.5565C24.7398 62.4577 26.2182 63.3062 27.7821 64.1999C27.8791 64.2551 27.9777 64.312 28.078 64.3698C28.9457 64.8703 29.938 65.4426 31.0422 65.6248C31.7299 65.7388 32.4609 65.7016 33.2321 65.4017C34.9438 64.7429 36.1941 63.3223 36.1941 60.9701L36.1701 48.8842C36.1478 47.4951 36.4727 47.2058 37.0956 46.6513L37.0957 46.6513C37.2254 46.5357 37.3681 46.4087 37.5233 46.2579L45.2799 38.6368L49.6213 34.3715C49.6551 34.3826 49.6893 34.3946 49.7238 34.4075C50.2179 34.5924 50.776 34.9458 51.3126 35.2855L51.3126 35.2855C51.6129 35.4756 51.9064 35.6615 52.1782 35.8111C52.4073 35.9378 52.7427 36.1217 53.1481 36.3441C55.3535 37.5537 59.6296 39.8991 60.129 40.3295L60.1448 54.2756C59.4318 54.0426 57.9093 53.1179 56.3491 52.1702C54.8438 51.2559 53.3032 50.3202 52.4205 49.9637C52.4158 49.4404 52.4253 48.6335 52.4365 47.6874L52.4365 47.6867V47.6866C52.4368 47.6548 52.4372 47.6227 52.4376 47.5906C52.4753 44.4197 52.5256 39.7691 52.1333 38.9216C51.708 37.9982 50.3908 37.1986 49.0519 37.9375C48.6026 38.1884 48.3127 38.663 48.1296 39.2745C47.7521 40.5321 47.8267 42.3696 47.8941 44.0303V44.0303C47.9178 44.6136 47.9405 45.1751 47.9426 45.6821C47.943 45.8139 47.9433 45.9432 47.9434 46.07C47.9458 48.4835 47.9002 49.9829 48.1415 51.0798C48.1527 51.1307 48.1646 51.1808 48.177 51.23C48.2589 51.5536 48.3688 51.8419 48.5164 52.1096C49.1778 53.3089 50.5945 54.0918 53.6215 55.7644C54.0839 56.0199 54.5839 56.2962 55.1245 56.5979C55.4543 56.7823 55.7888 56.9903 56.1304 57.2026L56.1305 57.2026C57.739 58.2023 59.5046 59.2997 61.6749 58.5076C64.3399 57.5316 64.6242 55.5144 64.6242 52.2538L64.6219 46.4483C64.6219 45.9736 64.6365 45.4286 64.6522 44.8456V44.8453C64.7167 42.4348 64.7987 39.3753 63.9386 37.9528C63.1832 36.7095 57.8686 33.8017 54.5658 31.9946L54.5657 31.9945C53.6675 31.5031 52.9182 31.0931 52.4497 30.8201C51.4403 30.2309 50.5889 29.9305 49.8277 29.8672C49.7964 29.8646 49.7653 29.8624 49.7343 29.8606C48.276 29.7749 47.1456 30.5682 45.8521 31.8645C42.7063 35.0192 39.7585 37.9323 36.4755 41.0996C33.7142 43.7574 32.4931 44.7308 31.9763 45.9926Z" fill="white"/>
</svg>
