<svg width="226" height="41" viewBox="0 0 226 41" fill="none" xmlns="http://www.w3.org/2000/svg">
<path d="M52.1328 10.0662H57.2479V32.7889H52.1328V10.0662Z" fill="white"/>
<path d="M61.3598 24.1654C61.3598 22.9194 61.5565 21.75 61.95 20.657C62.3653 19.5422 62.9555 18.5804 63.7206 17.7716C64.4857 16.9409 65.4147 16.2852 66.5077 15.8043C67.6006 15.3234 68.8466 15.0829 70.2456 15.0829C71.1637 15.0829 72.0053 15.1703 72.7703 15.3452C73.5354 15.4982 74.2786 15.7278 75 16.0338L73.9835 19.9357C73.5245 19.7608 73.0217 19.6078 72.4752 19.4766C71.9288 19.3455 71.3167 19.2799 70.6391 19.2799C69.1964 19.2799 68.1143 19.728 67.393 20.6242C66.6935 21.5205 66.3437 22.7009 66.3437 24.1654C66.3437 25.7174 66.6716 26.9197 67.3274 27.7722C68.005 28.6247 69.1745 29.051 70.8358 29.051C71.426 29.051 72.0599 28.9963 72.7376 28.887C73.4152 28.7777 74.0382 28.6029 74.6065 28.3624L75.2951 32.3626C74.7267 32.6031 74.0163 32.8108 73.1638 32.9856C72.3113 33.1605 71.3713 33.2479 70.344 33.2479C68.7701 33.2479 67.4148 33.0184 66.2781 32.5594C65.1415 32.0785 64.2015 31.4336 63.4583 30.6248C62.7369 29.816 62.2014 28.8652 61.8516 27.7722C61.5238 26.6574 61.3598 25.4551 61.3598 24.1654Z" fill="white"/>
<path d="M76.9217 24.2966C76.9217 22.7664 77.1512 21.433 77.6103 20.2963C78.0912 19.1378 78.7142 18.176 79.4793 17.4109C80.2443 16.6458 81.1187 16.0666 82.1024 15.6731C83.1079 15.2796 84.1353 15.0829 85.1845 15.0829C87.6328 15.0829 89.5673 15.837 90.9882 17.3453C92.409 18.8318 93.1194 21.0286 93.1194 23.9359C93.1194 24.2201 93.1085 24.537 93.0866 24.8868C93.0648 25.2147 93.0429 25.5098 93.0211 25.7721H81.9384C82.0477 26.7776 82.5177 27.5755 83.3483 28.1657C84.179 28.7559 85.2938 29.051 86.6928 29.051C87.589 29.051 88.4634 28.9745 89.3159 28.8214C90.1903 28.6466 90.9007 28.4389 91.4472 28.1985L92.103 32.1659C91.8407 32.2971 91.4909 32.4282 91.0537 32.5594C90.6165 32.6905 90.1247 32.7998 89.5782 32.8873C89.0536 32.9966 88.4853 33.084 87.8732 33.1496C87.2611 33.2152 86.6491 33.2479 86.037 33.2479C84.485 33.2479 83.1297 33.0184 81.9712 32.5594C80.8345 32.1003 79.8836 31.4773 79.1186 30.6904C78.3754 29.8816 77.818 28.9307 77.4463 27.8378C77.0966 26.7448 76.9217 25.5644 76.9217 24.2966ZM88.3978 22.4276C88.376 22.0123 88.2995 21.6079 88.1683 21.2144C88.059 20.821 87.8732 20.4712 87.6109 20.1652C87.3704 19.8592 87.0535 19.6078 86.66 19.411C86.2884 19.2143 85.8184 19.1159 85.2501 19.1159C84.7036 19.1159 84.2336 19.2143 83.8402 19.411C83.4467 19.5859 83.1188 19.8264 82.8565 20.1324C82.5942 20.4384 82.3865 20.7991 82.2335 21.2144C82.1024 21.6079 82.004 22.0123 81.9384 22.4276H88.3978Z" fill="white"/>
<path d="M96.7257 11.2466L101.611 10.4597V15.5419H107.48V19.6078H101.611V25.6737C101.611 26.7011 101.786 27.5208 102.136 28.1329C102.507 28.7449 103.24 29.051 104.333 29.051C104.857 29.051 105.393 29.0073 105.939 28.9198C106.508 28.8105 107.021 28.6684 107.48 28.4936L108.169 32.2971C107.579 32.5375 106.923 32.7452 106.202 32.9201C105.48 33.0949 104.595 33.1824 103.546 33.1824C102.212 33.1824 101.108 33.0075 100.234 32.6577C99.3597 32.2861 98.6602 31.7834 98.1356 31.1495C97.611 30.4937 97.2394 29.7067 97.0208 28.7887C96.8241 27.8706 96.7257 26.8541 96.7257 25.7393V11.2466Z" fill="white"/>
<path d="M109.999 24.2966C109.999 22.7664 110.228 21.433 110.687 20.2963C111.168 19.1378 111.791 18.176 112.556 17.4109C113.321 16.6458 114.196 16.0666 115.179 15.6731C116.185 15.2796 117.212 15.0829 118.262 15.0829C120.71 15.0829 122.644 15.837 124.065 17.3453C125.486 18.8318 126.196 21.0286 126.196 23.9359C126.196 24.2201 126.186 24.537 126.164 24.8868C126.142 25.2147 126.12 25.5098 126.098 25.7721H115.015C115.125 26.7776 115.595 27.5755 116.425 28.1657C117.256 28.7559 118.371 29.051 119.77 29.051C120.666 29.051 121.54 28.9745 122.393 28.8214C123.267 28.6466 123.978 28.4389 124.524 28.1985L125.18 32.1659C124.918 32.2971 124.568 32.4282 124.131 32.5594C123.694 32.6905 123.202 32.7998 122.655 32.8873C122.131 32.9966 121.562 33.084 120.95 33.1496C120.338 33.2152 119.726 33.2479 119.114 33.2479C117.562 33.2479 116.207 33.0184 115.048 32.5594C113.912 32.1003 112.961 31.4773 112.196 30.6904C111.452 29.8816 110.895 28.9307 110.523 27.8378C110.174 26.7448 109.999 25.5644 109.999 24.2966ZM121.475 22.4276C121.453 22.0123 121.377 21.6079 121.245 21.2144C121.136 20.821 120.95 20.4712 120.688 20.1652C120.448 19.8592 120.131 19.6078 119.737 19.411C119.365 19.2143 118.896 19.1159 118.327 19.1159C117.781 19.1159 117.311 19.2143 116.917 19.411C116.524 19.5859 116.196 19.8264 115.934 20.1324C115.671 20.4384 115.464 20.7991 115.311 21.2144C115.179 21.6079 115.081 22.0123 115.015 22.4276H121.475Z" fill="white"/>
<path d="M136.557 29.3789C137.038 29.3789 137.497 29.3679 137.934 29.3461C138.372 29.3242 138.721 29.2914 138.984 29.2477V25.5426C138.787 25.4988 138.492 25.4551 138.098 25.4114C137.705 25.3677 137.344 25.3458 137.016 25.3458C136.557 25.3458 136.12 25.3786 135.705 25.4442C135.311 25.4879 134.962 25.5863 134.656 25.7393C134.349 25.8923 134.109 26.1 133.934 26.3623C133.759 26.6246 133.672 26.9525 133.672 27.3459C133.672 28.111 133.923 28.6466 134.426 28.9526C134.951 29.2368 135.661 29.3789 136.557 29.3789ZM136.164 15.0829C137.607 15.0829 138.809 15.2468 139.771 15.5747C140.732 15.9026 141.497 16.3726 142.066 16.9847C142.656 17.5967 143.071 18.3399 143.312 19.2143C143.552 20.0887 143.672 21.0614 143.672 22.1325V32.2971C142.973 32.4501 142 32.625 140.754 32.8217C139.508 33.0403 138 33.1496 136.229 33.1496C135.115 33.1496 134.098 33.0512 133.18 32.8545C132.284 32.6577 131.508 32.3408 130.852 31.9036C130.196 31.4446 129.693 30.8544 129.344 30.133C128.994 29.4116 128.819 28.5263 128.819 27.4771C128.819 26.4716 129.016 25.6191 129.409 24.9196C129.825 24.2201 130.371 23.6627 131.049 23.2473C131.726 22.832 132.502 22.5369 133.377 22.362C134.251 22.1653 135.158 22.0669 136.098 22.0669C136.732 22.0669 137.29 22.0997 137.77 22.1653C138.273 22.209 138.678 22.2746 138.984 22.362V21.903C138.984 21.0723 138.732 20.4056 138.229 19.9029C137.727 19.4001 136.852 19.1487 135.606 19.1487C134.776 19.1487 133.956 19.2143 133.147 19.3455C132.338 19.4548 131.639 19.6187 131.049 19.8373L130.426 15.9026C130.71 15.8152 131.06 15.7278 131.475 15.6403C131.912 15.531 132.382 15.4436 132.885 15.378C133.388 15.2906 133.912 15.225 134.459 15.1813C135.027 15.1157 135.595 15.0829 136.164 15.0829Z" fill="white"/>
<path d="M171.476 28.3952V32.7889H156.295V10.0662H161.41V28.3952H171.476Z" fill="white"/>
<path d="M181.418 29.3789C181.899 29.3789 182.358 29.3679 182.795 29.3461C183.232 29.3242 183.582 29.2914 183.844 29.2477V25.5426C183.647 25.4988 183.352 25.4551 182.959 25.4114C182.565 25.3677 182.205 25.3458 181.877 25.3458C181.418 25.3458 180.981 25.3786 180.565 25.4442C180.172 25.4879 179.822 25.5863 179.516 25.7393C179.21 25.8923 178.97 26.1 178.795 26.3623C178.62 26.6246 178.532 26.9525 178.532 27.3459C178.532 28.111 178.784 28.6466 179.287 28.9526C179.811 29.2368 180.522 29.3789 181.418 29.3789ZM181.024 15.0829C182.467 15.0829 183.669 15.2468 184.631 15.5747C185.593 15.9026 186.358 16.3726 186.926 16.9847C187.517 17.5967 187.932 18.3399 188.172 19.2143C188.413 20.0887 188.533 21.0614 188.533 22.1325V32.2971C187.834 32.4501 186.861 32.625 185.615 32.8217C184.369 33.0403 182.861 33.1496 181.09 33.1496C179.975 33.1496 178.959 33.0512 178.041 32.8545C177.144 32.6577 176.368 32.3408 175.713 31.9036C175.057 31.4446 174.554 30.8544 174.204 30.133C173.855 29.4116 173.68 28.5263 173.68 27.4771C173.68 26.4716 173.876 25.6191 174.27 24.9196C174.685 24.2201 175.232 23.6627 175.909 23.2473C176.587 22.832 177.363 22.5369 178.237 22.362C179.112 22.1653 180.019 22.0669 180.959 22.0669C181.593 22.0669 182.15 22.0997 182.631 22.1653C183.134 22.209 183.538 22.2746 183.844 22.362V21.903C183.844 21.0723 183.593 20.4056 183.09 19.9029C182.587 19.4001 181.713 19.1487 180.467 19.1487C179.636 19.1487 178.817 19.2143 178.008 19.3455C177.199 19.4548 176.5 19.6187 175.909 19.8373L175.286 15.9026C175.57 15.8152 175.92 15.7278 176.336 15.6403C176.773 15.531 177.243 15.4436 177.745 15.378C178.248 15.2906 178.773 15.225 179.319 15.1813C179.888 15.1157 180.456 15.0829 181.024 15.0829Z" fill="white"/>
<path d="M204.001 24.0343C204.001 20.8865 202.842 19.3127 200.525 19.3127C200.022 19.3127 199.52 19.3782 199.017 19.5094C198.536 19.6406 198.142 19.8045 197.836 20.0012V28.887C198.077 28.9307 198.383 28.9745 198.754 29.0182C199.126 29.04 199.53 29.051 199.968 29.051C201.301 29.051 202.307 28.5919 202.984 27.6738C203.662 26.7557 204.001 25.5426 204.001 24.0343ZM208.985 24.1654C208.985 25.5426 208.777 26.7885 208.362 27.9034C207.968 29.0182 207.389 29.9691 206.624 30.756C205.859 31.5429 204.919 32.155 203.804 32.5922C202.689 33.0075 201.421 33.2152 200 33.2152C199.41 33.2152 198.787 33.1824 198.131 33.1168C197.498 33.0731 196.864 33.0075 196.23 32.9201C195.618 32.8326 195.027 32.7343 194.459 32.625C193.891 32.4938 193.388 32.3626 192.951 32.2315V8.13166L197.836 7.34473V15.9354C198.383 15.695 198.951 15.5092 199.541 15.378C200.132 15.2468 200.766 15.1813 201.443 15.1813C202.667 15.1813 203.749 15.3999 204.689 15.837C205.629 16.2524 206.416 16.8535 207.05 17.6404C207.684 18.4274 208.165 19.3782 208.493 20.4931C208.821 21.586 208.985 22.8102 208.985 24.1654Z" fill="white"/>
<path d="M217.691 29.2805C218.587 29.2805 219.221 29.1931 219.592 29.0182C219.964 28.8433 220.15 28.5045 220.15 28.0017C220.15 27.6083 219.909 27.2694 219.428 26.9853C218.947 26.6792 218.215 26.3404 217.231 25.9688C216.466 25.6846 215.767 25.3895 215.133 25.0835C214.521 24.7775 213.996 24.4168 213.559 24.0015C213.122 23.5643 212.783 23.0506 212.543 22.4604C212.302 21.8702 212.182 21.1598 212.182 20.3291C212.182 18.7115 212.783 17.4328 213.985 16.4928C215.188 15.5529 216.838 15.0829 218.937 15.0829C219.986 15.0829 220.991 15.1813 221.953 15.378C222.915 15.5529 223.68 15.7496 224.248 15.9682L223.396 19.7717C222.827 19.575 222.204 19.4001 221.527 19.2471C220.871 19.0941 220.128 19.0176 219.297 19.0176C217.767 19.0176 217.002 19.4438 217.002 20.2963C217.002 20.4931 217.035 20.6679 217.1 20.821C217.166 20.974 217.297 21.127 217.494 21.28C217.691 21.4112 217.953 21.5642 218.281 21.739C218.63 21.8921 219.068 22.0669 219.592 22.2637C220.663 22.6571 221.549 23.0506 222.248 23.4441C222.948 23.8157 223.494 24.231 223.888 24.69C224.303 25.1272 224.587 25.6191 224.74 26.1655C224.915 26.712 225.002 27.3459 225.002 28.0673C225.002 29.7723 224.358 31.062 223.068 31.9364C221.8 32.8108 219.997 33.2479 217.658 33.2479C216.128 33.2479 214.849 33.1168 213.821 32.8545C212.816 32.5922 212.116 32.3736 211.723 32.1987L212.543 28.2312C213.373 28.5591 214.226 28.8214 215.1 29.0182C215.975 29.1931 216.838 29.2805 217.691 29.2805Z" fill="white"/>
<path d="M20.1815 40.4192C31.3275 40.4192 40.3631 31.371 40.3631 20.2096C40.3631 9.04814 31.3275 0 20.1815 0C9.03559 0 0 9.04814 0 20.2096C0 31.371 9.03559 40.4192 20.1815 40.4192Z" fill="white"/>
<path fill-rule="evenodd" clip-rule="evenodd" d="M19.2999 22.8115H26.3125C26.892 22.8115 27.3722 23.2663 27.3722 23.8727V30.895C27.3722 31.4753 26.9181 31.9562 26.3125 31.9562H19.2999C18.7204 31.9562 18.2402 31.5014 18.2402 30.895V23.8222C18.2402 23.2663 18.67 22.8115 19.2999 22.8115Z" fill="#00C7F4"/>
<path fill-rule="evenodd" clip-rule="evenodd" d="M22.754 18.2132L26.9912 12.5796C27.3688 12.1249 28.0004 11.9993 28.4546 12.3775L34.0803 16.6206C34.5344 16.9988 34.6598 17.6312 34.2821 18.086L30.0449 23.669C29.6673 24.1238 29.0357 24.2493 28.5815 23.8711L22.9558 19.6281C22.5017 19.3004 22.4268 18.6679 22.754 18.2132Z" fill="#00C7F4"/>
<path fill-rule="evenodd" clip-rule="evenodd" d="M10.9204 21.3459L17.2021 24.5294C17.7312 24.782 17.933 25.439 17.6563 25.9182L14.4772 32.2086C14.2249 32.7384 13.5689 32.9405 13.0903 32.6634L6.80857 29.4799C6.27953 29.2272 6.07769 28.5703 6.35441 28.0911L9.53352 21.8006C9.78583 21.2692 10.3914 21.0671 10.9204 21.3459Z" fill="#00C7F4"/>
</svg>
