<svg width="183" height="72" viewBox="0 0 183 72" fill="none" xmlns="http://www.w3.org/2000/svg">
<g clip-path="url(#clip0_1445_4530)">
<g clip-path="url(#clip1_1445_4530)">
<path d="M40.1453 72.0004C34.0473 72.0004 28.5943 70.7354 23.7883 68.2044C18.9813 65.6744 15.1793 62.0784 12.4523 57.4174C9.72628 52.7564 8.36328 47.2964 8.36328 40.9714C8.36328 34.6454 9.72628 29.1854 12.4523 24.5244C15.1793 19.8634 18.9813 16.2674 23.7883 13.7374C28.5943 11.2064 34.1183 9.94141 40.2883 9.94141C46.4583 9.94141 51.9103 11.2064 56.7173 13.7374C61.4523 16.2674 65.1823 19.8634 67.9093 24.5244C70.6353 29.1854 71.9983 34.6454 71.9983 40.9714C71.9983 47.2964 70.6353 52.7564 67.9093 57.4174C65.1823 62.0784 61.3803 65.6744 56.6453 68.2044C51.7673 70.7354 46.3143 72.0004 40.1453 72.0004Z" fill="#363647"/>
<path d="M66.392 36.3442C66.392 53.8262 51.66 68.0312 33.446 68.0312C15.232 68.0312 0.5 53.8262 0.5 36.3442C0.5 18.8632 15.232 4.6582 33.446 4.6582C51.66 4.6582 66.392 18.8632 66.392 36.3442Z" fill="url(#paint0_linear_1445_4530)" stroke="#363647" stroke-miterlimit="10"/>
<path d="M35.126 45.3811C40.722 45.3811 45.17 41.0851 45.17 35.8341C45.17 30.5831 40.65 26.2871 35.126 26.2871C29.602 26.2871 25.082 30.5831 25.082 35.8341C25.082 41.0851 29.53 45.3811 35.126 45.3811Z" fill="#292936"/>
<path d="M55.1544 18.2648L64.6244 9.26379C66.6574 7.33079 66.2064 3.92279 63.8354 1.66879C61.4654 -0.583215 57.9074 -1.00021 55.8884 0.918785L46.4184 9.91979C44.3854 11.8528 44.8364 15.2608 47.2084 17.5148C49.5774 19.7668 53.1354 20.1838 55.1544 18.2648Z" fill="white" stroke="#343439" stroke-width="0.6" stroke-miterlimit="10"/>
</g>
<path d="M85.68 56V19.544C85.68 18.6107 85.7733 17.9573 85.96 17.584C86.1467 17.2107 86.688 16.9867 87.584 16.912C88.48 16.8373 89.9733 16.8 92.064 16.8V54.88C92.064 55.2533 91.9707 55.5147 91.784 55.664C91.5973 55.8133 91.056 55.9067 90.16 55.944C89.3013 55.9813 87.808 56 85.68 56ZM104.934 56.56C103.105 56.56 101.537 56.28 100.23 55.72C98.961 55.1227 97.9344 54.0773 97.1504 52.584C96.3664 51.0907 95.7877 49.0187 95.4144 46.368C95.041 43.7173 94.8544 40.32 94.8544 36.176C94.8544 31.0987 95.2464 27.1227 96.0304 24.248C96.8144 21.336 97.9904 19.2827 99.5584 18.088C101.164 16.856 103.161 16.24 105.55 16.24C107.38 16.24 108.929 16.5573 110.198 17.192C111.468 17.7893 112.494 18.8347 113.278 20.328C114.062 21.784 114.622 23.7813 114.958 26.32C115.332 28.8587 115.518 32.0693 115.518 35.952C115.518 41.216 115.145 45.3413 114.398 48.328C113.652 51.3147 112.494 53.4427 110.926 54.712C109.396 55.944 107.398 56.56 104.934 56.56ZM105.27 50.064C106.204 50.064 106.894 49.5973 107.342 48.664C107.828 47.7307 108.164 46.2373 108.35 44.184C108.537 42.1307 108.63 39.4613 108.63 36.176C108.63 32.928 108.556 30.3147 108.406 28.336C108.294 26.3573 108.014 24.9387 107.566 24.08C107.118 23.184 106.409 22.736 105.438 22.736C104.542 22.736 103.852 23.2213 103.366 24.192C102.881 25.1253 102.526 26.6747 102.302 28.84C102.116 31.0053 102.022 33.9173 102.022 37.576C102.022 40.488 102.097 42.8587 102.246 44.688C102.396 46.5173 102.694 47.88 103.142 48.776C103.628 49.6347 104.337 50.064 105.27 50.064ZM120.176 40.88C119.542 40.88 119.168 40.768 119.056 40.544C118.944 40.32 118.888 39.9093 118.888 39.312V17.92C118.888 17.92 118.907 17.7333 118.944 17.36C118.982 16.9867 119.299 16.8 119.896 16.8H124.712C127.064 16.8 129.043 17.136 130.648 17.808C132.291 18.4427 133.523 19.6 134.344 21.28C135.203 22.9227 135.632 25.2747 135.632 28.336C135.632 30.8747 135.315 32.9653 134.68 34.608C134.083 36.2133 133.262 37.4827 132.216 38.416C131.208 39.312 130.07 39.9467 128.8 40.32C127.568 40.6933 126.299 40.88 124.992 40.88H120.176ZM118.328 56V17.92C118.328 17.5093 118.384 17.2293 118.496 17.08C118.646 16.8933 118.963 16.8 119.448 16.8H123.48C124.04 16.8 124.358 16.9867 124.432 17.36C124.544 17.7333 124.6 17.92 124.6 17.92V54.88C124.6 55.2533 124.507 55.5147 124.32 55.664C124.134 55.8133 123.611 55.9067 122.752 55.944C121.894 55.9813 120.419 56 118.328 56ZM124.6 35.112H125.72C126.318 35.112 126.822 34.9253 127.232 34.552C127.643 34.1413 127.96 33.3947 128.184 32.312C128.446 31.2293 128.576 29.6427 128.576 27.552C128.576 26.3573 128.483 25.368 128.296 24.584C128.147 23.8 127.886 23.2213 127.512 22.848C127.176 22.4373 126.71 22.232 126.112 22.232H124.6V35.112ZM138.291 56.112C137.88 56.112 137.302 56.0933 136.555 56.056C135.808 56.0187 135.062 55.9627 134.315 55.888L143.667 17.864C143.816 17.08 144.656 16.688 146.187 16.688C146.71 16.688 147.232 16.7067 147.755 16.744C148.315 16.7813 148.782 16.8373 149.155 16.912L158.507 54.992C158.582 55.3653 158.451 55.6453 158.115 55.832C157.779 56.0187 156.976 56.112 155.707 56.112C155.296 56.112 154.792 56.0933 154.195 56.056C153.598 56.056 152.888 56.0373 152.067 56L147.979 36.232C147.792 35.224 147.606 34.1413 147.419 32.984C147.232 31.7893 147.064 30.5573 146.915 29.288C146.766 28.0187 146.635 26.8053 146.523 25.648C146.411 26.8053 146.262 28.0187 146.075 29.288C145.926 30.5573 145.758 31.7893 145.571 32.984C145.422 34.1413 145.235 35.224 145.011 36.232L141.147 54.936C141.072 55.3093 140.886 55.608 140.587 55.832C140.326 56.0187 139.56 56.112 138.291 56.112ZM140.699 47.096V41.44H153.355V47.096H140.699ZM167.031 43.848H163.279L155.047 17.752C154.935 17.416 154.972 17.192 155.159 17.08C155.346 16.9307 155.962 16.856 157.007 16.856C158.052 16.8187 159.788 16.8 162.215 16.8L163.839 24.136C163.988 24.808 164.138 25.6293 164.287 26.6C164.474 27.5333 164.642 28.5227 164.791 29.568C164.94 30.6133 165.071 31.6027 165.183 32.536C165.295 33.4693 165.37 34.2533 165.407 34.888C165.482 34.2533 165.575 33.4693 165.687 32.536C165.799 31.6027 165.93 30.6133 166.079 29.568C166.228 28.5227 166.378 27.5147 166.527 26.544C166.714 25.5733 166.882 24.752 167.031 24.08L168.375 17.92C168.487 17.5467 168.655 17.2853 168.879 17.136C169.103 16.9867 169.663 16.8933 170.559 16.856C171.455 16.8187 172.967 16.8 175.095 16.8L167.031 43.848ZM162.047 56V35.56H168.319V54.88C168.319 55.2533 168.226 55.5147 168.039 55.664C167.89 55.8133 167.386 55.9067 166.527 55.944C165.668 55.9813 164.175 56 162.047 56Z" fill="white"/>
</g>
<defs>
<linearGradient id="paint0_linear_1445_4530" x1="52.6469" y1="58.6765" x2="16.8326" y2="13.6451" gradientUnits="userSpaceOnUse">
<stop stop-color="#44FFB2"/>
<stop offset="0.427676" stop-color="#617AFF"/>
<stop offset="1" stop-color="#855EFF"/>
</linearGradient>
<clipPath id="clip0_1445_4530">
<rect width="183" height="72" fill="white"/>
</clipPath>
<clipPath id="clip1_1445_4530">
<rect width="72" height="72" fill="white"/>
</clipPath>
</defs>
</svg>
