<svg width="272" height="85" viewBox="0 0 272 85" fill="none" xmlns="http://www.w3.org/2000/svg">
<mask id="mask0_1285_1275" style="mask-type:alpha" maskUnits="userSpaceOnUse" x="14" y="4" width="78" height="77">
<path d="M61.2051 4.25781V22.5053L76.3173 13.3953L61.2051 4.25781Z" fill="white"/>
<path opacity="0.9" d="M76.3164 13.4V31.645L91.4286 22.51L76.3164 13.4Z" fill="white"/>
<path opacity="0.8" d="M61.2051 22.5V40.745L76.3173 31.635L61.2051 22.5ZM76.3148 31.64V49.885L91.427 40.75L76.3148 31.64Z" fill="white"/>
<path opacity="0.8" d="M61.2051 40.7432V58.9882L76.3173 49.8782L61.2051 40.7432Z" fill="white"/>
<path d="M76.3164 49.8828V68.1278L91.4286 58.9928L76.3164 49.8828Z" fill="white"/>
<path opacity="0.4" d="M22.1373 21.8955V40.1405L37.2495 31.0055L22.1348 21.8955H22.1373Z" fill="white"/>
<path opacity="0.2" d="M41.2148 28.6729V46.9179L56.2996 37.8079L41.2148 28.6729Z" fill="white"/>
<path opacity="0.3" d="M30.0039 40.2148V58.4598L45.1161 49.3248L30.0039 40.2148Z" fill="white"/>
<path opacity="0.9" d="M39.9668 53.9854V72.2304L55.0516 63.0954L39.9668 53.9854Z" fill="white"/>
<path opacity="0.7" d="M61.0801 61.835V80.0775L76.1648 70.9425L61.0801 61.835Z" fill="white"/>
<path opacity="0.9" d="M43.7212 19.668V37.913L58.806 28.803L43.7188 19.668H43.7212Z" fill="white"/>
<path opacity="0.8" d="M61.2001 4.25781V22.5053L46.0879 13.3953L61.2001 4.25781Z" fill="white"/>
<path opacity="0.6" d="M43.7205 12.0127V30.2502L28.6133 21.1252L43.7255 12.0152L43.7205 12.0127Z" fill="white"/>
<path opacity="0.6" d="M58.8304 21.0557V39.3007L43.7207 30.1657L58.8304 21.0557Z" fill="white"/>
<path opacity="0.95" d="M41.1371 28.6729V46.9179L26.0273 37.8079L41.1371 28.6729Z" fill="white"/>
<path opacity="0.6" d="M61.2025 40.7427V58.9877L46.1152 49.8752L61.2025 40.7402V40.7427Z" fill="white"/>
<path opacity="0.55" d="M30.0057 45V63.245L14.8984 54.1075L30.0057 45Z" fill="white"/>
<path d="M91.4286 22.5V40.745L76.3164 31.635L91.4286 22.5Z" fill="white"/>
<path opacity="0.95" d="M76.3106 31.6406V49.8856L61.1934 40.7506L76.3056 31.6406H76.3106Z" fill="white"/>
<path opacity="0.9" d="M91.4286 40.7432V58.9882L76.3164 49.8782L91.4286 40.7432Z" fill="white"/>
<path opacity="0.7" d="M76.31 49.8828V68.1278L61.1953 58.9928L76.31 49.8828Z" fill="white"/>
<path opacity="0.4" d="M57.8564 57.4805V75.7255L42.7441 66.6155L57.8564 57.4805Z" fill="white"/>
<path d="M76.31 13.4V31.645L61.1953 22.51L76.3075 13.3975L76.31 13.4Z" fill="white"/>
</mask>
<g mask="url(#mask0_1285_1275)">
<path d="M9.98242 0H96.0742V95H9.98242V0Z" fill="url(#paint0_linear_1285_1275)"/>
</g>
<path d="M114.832 28.2497C114.953 28.2304 115.078 28.2407 115.194 28.2799C115.31 28.3191 115.416 28.3859 115.501 28.4747C115.676 28.6572 115.758 28.9147 115.72 29.1697V56.4497C115.739 56.5739 115.728 56.7006 115.69 56.8202C115.652 56.9397 115.587 57.049 115.501 57.1397C115.416 57.2285 115.31 57.2954 115.194 57.3345C115.078 57.3737 114.953 57.3841 114.832 57.3647H110.503C109.884 57.3647 109.574 57.0647 109.574 56.4497V29.1697C109.574 28.5497 109.884 28.2522 110.505 28.2522L114.832 28.2497Z" fill="white"/>
<path fill-rule="evenodd" clip-rule="evenodd" d="M146.077 35.0054C144.589 34.6609 143.063 34.5031 141.536 34.5354L130.162 34.5404C128.627 34.5059 127.095 34.6638 125.6 35.0104C124.515 35.259 123.508 35.7716 122.668 36.5029C121.911 37.2175 121.361 38.1235 121.076 39.1254C120.739 40.3776 120.579 41.6711 120.602 42.9679V48.9429C120.579 50.2388 120.739 51.5315 121.076 52.7829C121.368 53.7929 121.917 54.7004 122.67 55.4054C123.511 56.1454 124.52 56.6554 125.6 56.8804C127.098 57.2076 128.629 57.3578 130.162 57.3279H141.536C143.062 57.3549 144.586 57.2039 146.077 56.8779C147.17 56.6439 148.186 56.1365 149.029 55.4029C149.787 54.6896 150.338 53.7843 150.624 52.7829C150.96 51.5304 151.119 50.2371 151.098 48.9404V42.9654C151.131 41.6673 150.971 40.3715 150.624 39.1204C150.338 38.1191 149.787 37.2139 149.029 36.5004C148.185 35.7641 147.17 35.2503 146.077 35.0054ZM126.551 50.1204C126.394 49.3979 126.325 48.6593 126.344 47.9204V43.9704C126.326 43.2454 126.396 42.5229 126.551 41.8154C126.658 41.2904 126.9 40.8004 127.252 40.4079C127.624 40.0329 128.088 39.7729 128.595 39.6604C129.293 39.5004 130.004 39.4279 130.718 39.4479H140.977C141.705 39.4379 142.432 39.5079 143.145 39.6604C143.654 39.7629 144.121 40.0229 144.488 40.4079C144.832 40.8079 145.074 41.2929 145.187 41.8154C145.344 42.5229 145.411 43.2479 145.396 43.9729V47.9229C145.414 48.6604 145.344 49.3979 145.189 50.1204C145.089 50.6398 144.845 51.1205 144.485 51.5079C144.114 51.8733 143.651 52.1308 143.145 52.2529C142.437 52.4341 141.707 52.5132 140.977 52.4879H130.721C130.005 52.5004 129.29 52.4214 128.595 52.2529C128.088 52.1312 127.624 51.8737 127.252 51.5079C126.901 51.1149 126.658 50.6363 126.551 50.1204Z" fill="white"/>
<path d="M186.571 28.2622C187.19 28.2622 187.5 28.5622 187.5 29.1797V33.2572C187.519 33.3876 187.508 33.5206 187.468 33.6462C187.428 33.7717 187.36 33.8866 187.27 33.9822C187.181 34.0754 187.071 34.1459 186.95 34.1877C186.828 34.2295 186.698 34.2413 186.571 34.2222H173.934V56.4647C173.953 56.5893 173.943 56.7164 173.905 56.8365C173.867 56.9565 173.802 57.0662 173.715 57.1572C173.63 57.246 173.525 57.3128 173.408 57.352C173.292 57.3912 173.167 57.4015 173.046 57.3822H168.667C168.546 57.4011 168.422 57.3906 168.306 57.3514C168.19 57.3122 168.085 57.2456 168 57.1572C167.913 57.0664 167.848 56.9568 167.809 56.8368C167.771 56.7167 167.76 56.5894 167.778 56.4647V34.2047H155.146C155.019 34.224 154.889 34.2123 154.768 34.1705C154.646 34.1287 154.536 34.0581 154.448 33.9647C154.357 33.8693 154.289 33.7545 154.249 33.6289C154.208 33.5033 154.197 33.3702 154.216 33.2397V29.1597C154.216 28.5397 154.525 28.2422 155.146 28.2422H186.564L186.571 28.2622Z" fill="white"/>
<path fill-rule="evenodd" clip-rule="evenodd" d="M214.026 34.8752C212.909 34.6222 211.765 34.508 210.62 34.5352L210.615 34.5602H198.826C197.292 34.5257 195.76 34.6836 194.265 35.0302C193.18 35.2797 192.173 35.7931 191.333 36.5252C190.576 37.2398 190.026 38.1458 189.741 39.1477C189.402 40.3996 189.242 41.6933 189.266 42.9902V48.9677C189.231 50.2677 189.391 51.5627 189.741 52.8127C190.03 53.8202 190.582 54.7277 191.333 55.4327C192.179 56.1702 193.189 56.6752 194.27 56.9052C195.768 57.2325 197.3 57.3827 198.834 57.3527H216.172C216.372 57.3777 216.569 57.3102 216.711 57.1652C216.782 57.0916 216.835 57.0031 216.867 56.9062C216.899 56.8093 216.909 56.7064 216.896 56.6052V53.1052C216.908 53.0043 216.898 52.9019 216.866 52.8055C216.834 52.709 216.781 52.621 216.711 52.5477C216.642 52.476 216.558 52.4217 216.464 52.3891C216.37 52.3566 216.27 52.3466 216.172 52.3602H199.41C198.174 52.4992 196.929 52.1887 195.902 51.4852C195.569 51.1009 195.317 50.6534 195.161 50.1692C195.005 49.6851 194.948 49.1744 194.993 48.6677V47.6627H215.301C215.923 47.7162 216.541 47.5343 217.035 47.1527C217.247 46.896 217.406 46.5994 217.502 46.2805C217.598 45.9615 217.629 45.6265 217.594 45.2952V41.3452C217.605 40.2759 217.494 39.209 217.262 38.1652C217.081 37.3759 216.698 36.6477 216.15 36.0527C215.563 35.4577 214.827 35.0527 214.026 34.8777V34.8752ZM211.261 43.9702H194.993L194.991 42.8402C194.944 42.3297 195 41.815 195.157 41.3269C195.313 40.8388 195.567 40.3875 195.902 40.0002C196.942 39.3052 198.183 39.0002 199.41 39.1477H209.507C210.188 39.0677 210.874 39.2577 211.428 39.6802C211.82 40.2002 212.007 40.8577 211.942 41.5152V43.2652C211.955 43.3608 211.947 43.4581 211.917 43.5499C211.887 43.6417 211.837 43.7255 211.77 43.7952C211.705 43.8628 211.625 43.9139 211.537 43.9443C211.448 43.9748 211.354 43.9836 211.261 43.9702Z" fill="white"/>
<path d="M253.322 28.2627C253.694 28.2627 253.901 28.3902 253.944 28.6677C253.965 28.7925 253.955 28.9207 253.916 29.041C253.876 29.1613 253.808 29.27 253.717 29.3577L241.372 42.2927L254.276 56.2952C254.458 56.4702 254.545 56.7302 254.503 56.9852C254.46 57.2427 254.253 57.3927 253.884 57.3927H248.369C248.109 57.4036 247.849 57.3593 247.608 57.2627C247.398 57.1631 247.22 57.0085 247.091 56.8152L237.162 46.0527L227.193 56.8152C227.051 57.0027 226.869 57.1564 226.661 57.2652C226.412 57.3643 226.143 57.407 225.875 57.3902H220.655C220.305 57.3902 220.123 57.2652 220.076 56.9852C220.054 56.8606 220.063 56.7325 220.103 56.6122C220.142 56.492 220.21 56.3831 220.3 56.2952L233.534 42.0852L221.603 29.3627C221.523 29.268 221.464 29.1578 221.429 29.0391C221.394 28.9204 221.383 28.7956 221.398 28.6727C221.418 28.4177 221.623 28.2677 221.997 28.2677H227.507C227.77 28.2508 228.033 28.3025 228.271 28.4177C228.475 28.5155 228.652 28.6613 228.787 28.8427L237.559 38.4927L246.849 28.8427C246.989 28.6658 247.165 28.521 247.366 28.4177C247.603 28.3027 247.866 28.251 248.129 28.2677L253.322 28.2627Z" fill="white"/>
<defs>
<linearGradient id="paint0_linear_1285_1275" x1="21.2118" y1="54.375" x2="122.918" y2="69.8768" gradientUnits="userSpaceOnUse">
<stop offset="0.07" stop-color="#77FE9E"/>
<stop offset="0.369" stop-color="#72A7FF"/>
<stop offset="1" stop-color="#EC02D5"/>
</linearGradient>
</defs>
</svg>
