<svg width="108" height="22" viewBox="0 0 108 22" fill="none" xmlns="http://www.w3.org/2000/svg">
<path d="M9.90573 3.68618C7.50919 2.68048 5.21174 2.80675 3.01336 4.06499C2.91205 4.12384 2.90274 4.11192 2.98543 4.02923C5.05716 1.97761 7.88652 0.842293 10.8198 1.01773C17.5054 1.41777 21.9841 7.75813 20.1549 14.1912C19.3257 17.1089 17.349 19.1247 14.2827 19.6644C11.5852 20.1382 8.6095 19.1147 7.07526 16.7379C6.98959 16.6053 7.00933 16.587 7.13448 16.6831C10.7136 19.4275 15.6259 16.711 15.3924 12.2804C15.2449 9.48606 14.1751 7.12826 12.1831 5.20701C11.4925 4.54027 10.7334 4.03333 9.90573 3.68618Z" fill="#2EE2B3"/>
<path d="M12.4971 21.3327C7.1256 22.496 1.74959 19.27 0.342737 13.9431C-0.0885946 12.3109 -0.112806 10.6322 0.270103 8.90682C0.516685 7.79535 1.01208 6.80567 1.7563 5.93779C3.83027 3.51965 7.25187 2.97881 10.0902 4.41695C10.2451 4.49592 10.2358 4.54174 10.0622 4.5544C8.93473 4.63709 8.2151 5.25727 7.52117 6.12105C5.83309 8.22109 5.05498 10.5737 5.18684 13.1788C5.23452 14.1301 5.48706 15.0647 5.94446 15.9825C6.97921 18.0557 8.54325 19.4126 10.6366 20.0533C12.2703 20.5517 14.1565 20.507 15.7031 19.9192C15.9921 19.8097 16.0059 19.838 15.7444 20.0041C14.7529 20.6358 13.6704 21.0787 12.4971 21.3327Z" fill="#2EE2B3"/>
<path d="M26.2575 16.7859V5.53789H28.4335V16.7859H26.2575ZM27.8575 16.7859V14.8499H33.5855V16.7859H27.8575ZM38.353 16.9459C37.5743 16.9459 36.8703 16.7699 36.241 16.4179C35.6223 16.0552 35.1263 15.5699 34.753 14.9619C34.3903 14.3432 34.209 13.6552 34.209 12.8979C34.209 12.1406 34.3903 11.4632 34.753 10.8659C35.1156 10.2579 35.6116 9.77789 36.241 9.42589C36.8703 9.06322 37.569 8.88189 38.337 8.88189C39.1263 8.88189 39.8303 9.06322 40.449 9.42589C41.0783 9.77789 41.5743 10.2579 41.937 10.8659C42.2996 11.4632 42.481 12.1406 42.481 12.8979C42.481 13.6552 42.2996 14.3432 41.937 14.9619C41.5743 15.5699 41.0783 16.0552 40.449 16.4179C39.8303 16.7699 39.1316 16.9459 38.353 16.9459ZM38.337 14.9939C38.7316 14.9939 39.0783 14.9086 39.377 14.7379C39.6863 14.5566 39.921 14.3112 40.081 14.0019C40.2516 13.6819 40.337 13.3192 40.337 12.9139C40.337 12.5086 40.2516 12.1512 40.081 11.8419C39.9103 11.5326 39.6756 11.2926 39.377 11.1219C39.0783 10.9406 38.7316 10.8499 38.337 10.8499C37.953 10.8499 37.6116 10.9406 37.313 11.1219C37.0143 11.2926 36.7796 11.5326 36.609 11.8419C36.4383 12.1512 36.353 12.5086 36.353 12.9139C36.353 13.3192 36.4383 13.6819 36.609 14.0019C36.7796 14.3112 37.0143 14.5566 37.313 14.7379C37.6116 14.9086 37.953 14.9939 38.337 14.9939ZM48.4592 16.7859L46.4272 13.6499L45.9952 13.3299L42.9872 9.05789H45.4672L47.3392 11.8899L47.7392 12.1939L50.9232 16.7859H48.4592ZM42.8272 16.7859L45.9792 12.3699L47.1792 13.7939L45.1952 16.7859H42.8272ZM47.8192 13.3139L46.5872 11.9059L48.4272 9.05789H50.7792L47.8192 13.3139ZM55.4311 16.9459C54.6524 16.9459 53.9484 16.7699 53.3191 16.4179C52.7004 16.0552 52.2044 15.5699 51.8311 14.9619C51.4684 14.3432 51.2871 13.6552 51.2871 12.8979C51.2871 12.1406 51.4684 11.4632 51.8311 10.8659C52.1938 10.2579 52.6898 9.77789 53.3191 9.42589C53.9484 9.06322 54.6471 8.88189 55.4151 8.88189C56.2044 8.88189 56.9084 9.06322 57.5271 9.42589C58.1564 9.77789 58.6524 10.2579 59.0151 10.8659C59.3778 11.4632 59.5591 12.1406 59.5591 12.8979C59.5591 13.6552 59.3778 14.3432 59.0151 14.9619C58.6524 15.5699 58.1564 16.0552 57.5271 16.4179C56.9084 16.7699 56.2098 16.9459 55.4311 16.9459ZM55.4151 14.9939C55.8098 14.9939 56.1564 14.9086 56.4551 14.7379C56.7644 14.5566 56.9991 14.3112 57.1591 14.0019C57.3298 13.6819 57.4151 13.3192 57.4151 12.9139C57.4151 12.5086 57.3298 12.1512 57.1591 11.8419C56.9884 11.5326 56.7538 11.2926 56.4551 11.1219C56.1564 10.9406 55.8098 10.8499 55.4151 10.8499C55.0311 10.8499 54.6898 10.9406 54.3911 11.1219C54.0924 11.2926 53.8578 11.5326 53.6871 11.8419C53.5164 12.1512 53.4311 12.5086 53.4311 12.9139C53.4311 13.3192 53.5164 13.6819 53.6871 14.0019C53.8578 14.3112 54.0924 14.5566 54.3911 14.7379C54.6898 14.9086 55.0311 14.9939 55.4151 14.9939ZM64.1725 16.9459C63.4578 16.9459 62.8178 16.7699 62.2525 16.4179C61.6871 16.0659 61.2391 15.5859 60.9085 14.9779C60.5885 14.3699 60.4285 13.6872 60.4285 12.9299C60.4285 12.1619 60.5885 11.4739 60.9085 10.8659C61.2391 10.2579 61.6818 9.77789 62.2365 9.42589C62.8018 9.07389 63.4471 8.89789 64.1725 8.89789C64.7271 8.89789 65.2231 9.00989 65.6605 9.23389C66.1085 9.45789 66.4658 9.77255 66.7325 10.1779C67.0098 10.5726 67.1591 11.0206 67.1805 11.5219V14.2739C67.1591 14.7752 67.0151 15.2286 66.7485 15.6339C66.4818 16.0392 66.1245 16.3592 65.6765 16.5939C65.2285 16.8286 64.7271 16.9459 64.1725 16.9459ZM64.5245 15.0099C64.9191 15.0099 65.2605 14.9246 65.5485 14.7539C65.8471 14.5726 66.0765 14.3272 66.2365 14.0179C66.4071 13.6979 66.4925 13.3299 66.4925 12.9139C66.4925 12.5086 66.4071 12.1512 66.2365 11.8419C66.0765 11.5219 65.8471 11.2766 65.5485 11.1059C65.2605 10.9246 64.9245 10.8339 64.5405 10.8339C64.1458 10.8339 63.7991 10.9246 63.5005 11.1059C63.2125 11.2872 62.9831 11.5326 62.8125 11.8419C62.6525 12.1512 62.5725 12.5086 62.5725 12.9139C62.5725 13.3299 62.6525 13.6979 62.8125 14.0179C62.9831 14.3272 63.2178 14.5726 63.5165 14.7539C63.8151 14.9246 64.1511 15.0099 64.5245 15.0099ZM68.4605 16.7859H66.3805V14.7059L66.7165 12.8179L66.3645 10.9619V5.21789H68.4605V16.7859ZM70.3147 16.7859V9.05789H72.4107V16.7859H70.3147ZM72.4107 12.5139L71.5947 11.9699C71.6907 11.0206 71.9681 10.2739 72.4267 9.72989C72.8854 9.17522 73.5467 8.89789 74.4107 8.89789C74.7841 8.89789 75.1201 8.96189 75.4187 9.08989C75.7174 9.20722 75.9894 9.40455 76.2347 9.68189L74.9227 11.1859C74.8054 11.0579 74.6614 10.9619 74.4907 10.8979C74.3307 10.8339 74.1441 10.8019 73.9307 10.8019C73.4827 10.8019 73.1147 10.9459 72.8267 11.2339C72.5494 11.5112 72.4107 11.9379 72.4107 12.5139ZM80.3842 16.9459C79.6056 16.9459 78.9016 16.7699 78.2722 16.4179C77.6536 16.0552 77.1576 15.5699 76.7842 14.9619C76.4216 14.3432 76.2402 13.6552 76.2402 12.8979C76.2402 12.1406 76.4216 11.4632 76.7842 10.8659C77.1469 10.2579 77.6429 9.77789 78.2722 9.42589C78.9016 9.06322 79.6002 8.88189 80.3682 8.88189C81.1576 8.88189 81.8616 9.06322 82.4802 9.42589C83.1096 9.77789 83.6056 10.2579 83.9682 10.8659C84.3309 11.4632 84.5122 12.1406 84.5122 12.8979C84.5122 13.6552 84.3309 14.3432 83.9682 14.9619C83.6056 15.5699 83.1096 16.0552 82.4802 16.4179C81.8616 16.7699 81.1629 16.9459 80.3842 16.9459ZM80.3682 14.9939C80.7629 14.9939 81.1096 14.9086 81.4082 14.7379C81.7176 14.5566 81.9522 14.3112 82.1122 14.0019C82.2829 13.6819 82.3682 13.3192 82.3682 12.9139C82.3682 12.5086 82.2829 12.1512 82.1122 11.8419C81.9416 11.5326 81.7069 11.2926 81.4082 11.1219C81.1096 10.9406 80.7629 10.8499 80.3682 10.8499C79.9842 10.8499 79.6429 10.9406 79.3442 11.1219C79.0456 11.2926 78.8109 11.5326 78.6402 11.8419C78.4696 12.1512 78.3842 12.5086 78.3842 12.9139C78.3842 13.3192 78.4696 13.6819 78.6402 14.0019C78.8109 14.3112 79.0456 14.5566 79.3442 14.7379C79.6429 14.9086 79.9842 14.9939 80.3682 14.9939ZM85.8616 16.7859V9.05789H87.9576V16.7859H85.8616ZM90.9016 16.7859V12.2259C90.9016 11.7779 90.7576 11.4312 90.4696 11.1859C90.1923 10.9299 89.8456 10.8019 89.4296 10.8019C89.1523 10.8019 88.9016 10.8606 88.6776 10.9779C88.4536 11.0846 88.2776 11.2446 88.1496 11.4579C88.0216 11.6712 87.9576 11.9272 87.9576 12.2259L87.1416 11.8259C87.1416 11.2286 87.2696 10.7112 87.5256 10.2739C87.7923 9.83656 88.1496 9.50056 88.5976 9.26589C89.0456 9.02055 89.5523 8.89789 90.1176 8.89789C90.6509 8.89789 91.1363 9.02055 91.5736 9.26589C92.0109 9.50056 92.3576 9.83656 92.6136 10.2739C92.8696 10.7006 92.9976 11.2179 92.9976 11.8259V16.7859H90.9016ZM95.9416 16.7859V12.2259C95.9416 11.7779 95.7976 11.4312 95.5096 11.1859C95.2323 10.9299 94.8856 10.8019 94.4696 10.8019C94.2029 10.8019 93.9523 10.8606 93.7176 10.9779C93.4936 11.0846 93.3176 11.2446 93.1896 11.4579C93.0616 11.6712 92.9976 11.9272 92.9976 12.2259L91.7976 11.9379C91.8403 11.3192 92.0056 10.7859 92.2936 10.3379C92.5816 9.87922 92.9603 9.52722 93.4296 9.28189C93.8989 9.02589 94.4216 8.89789 94.9976 8.89789C95.5736 8.89789 96.0909 9.02055 96.5496 9.26589C97.0083 9.50056 97.3709 9.84189 97.6376 10.2899C97.9043 10.7379 98.0376 11.2712 98.0376 11.8899V16.7859H95.9416ZM103.433 16.9459C102.622 16.9459 101.902 16.7752 101.273 16.4339C100.643 16.0819 100.142 15.6019 99.7686 14.9939C99.4059 14.3859 99.2246 13.6926 99.2246 12.9139C99.2246 12.1459 99.4006 11.4632 99.7526 10.8659C100.115 10.2579 100.606 9.77789 101.225 9.42589C101.843 9.06322 102.531 8.88189 103.289 8.88189C104.035 8.88189 104.691 9.05256 105.257 9.39389C105.833 9.72456 106.281 10.1832 106.601 10.7699C106.931 11.3459 107.097 12.0019 107.097 12.7379C107.097 12.8766 107.086 13.0206 107.065 13.1699C107.054 13.3086 107.027 13.4686 106.985 13.6499L100.489 13.6659V12.0979L106.009 12.0819L105.161 12.7379C105.139 12.2792 105.054 11.8952 104.905 11.5859C104.766 11.2766 104.558 11.0419 104.281 10.8819C104.014 10.7112 103.683 10.6259 103.289 10.6259C102.873 10.6259 102.51 10.7219 102.201 10.9139C101.891 11.0952 101.651 11.3566 101.481 11.6979C101.321 12.0286 101.241 12.4232 101.241 12.8819C101.241 13.3512 101.326 13.7619 101.497 14.1139C101.678 14.4552 101.934 14.7219 102.265 14.9139C102.595 15.0952 102.979 15.1859 103.417 15.1859C103.811 15.1859 104.169 15.1219 104.489 14.9939C104.809 14.8552 105.086 14.6526 105.321 14.3859L106.553 15.6179C106.179 16.0552 105.721 16.3859 105.177 16.6099C104.643 16.8339 104.062 16.9459 103.433 16.9459Z" fill="white"/>
</svg>
